M48
METRIC,TZ
T1C0.900
T2C1.000
%
G90
G05
T1
X125125Y-85500
X127665Y-85500
X131125Y-85500
X133665Y-85500
X137125Y-85500
X139665Y-85500
X142500Y-74160
X142500Y-76700
X143125Y-85500
X145665Y-85500
X149125Y-85500
X151665Y-85500
X155125Y-85500
X157665Y-85500
X158500Y-74160
X158500Y-76700
X161125Y-85500
X163665Y-85500
X167125Y-85500
X169665Y-85500
X173125Y-85500
X175665Y-85500
T2
X135060Y-91600
X137600Y-91600
X140140Y-91600
X142680Y-91600
X145220Y-91600
X147760Y-91600
X150300Y-91600
X152840Y-91600
X155380Y-91600
X157920Y-91600
X160460Y-91600
X163000Y-91600
X165540Y-91600
M30
