M48
METRIC,TZ
T1C0.300
T2C0.400
T3C0.700
T4C0.800
T5C0.900
T6C1.000
T7C1.100
T8C1.200
T9C1.830
%
G90
G05
T1
X189763Y-129916
T2
X80086Y-128456
X80116Y-118901
X81356Y-125560
X82270Y-119922
X83185Y-117534
X84912Y-125408
X84912Y-133180
X99517Y-142299
X102032Y-139784
X104013Y-135670
X104013Y-137803
X105892Y-134196
X107772Y-127592
X110947Y-116431
X111963Y-122995
X134823Y-136711
X141300Y-104885
X141300Y-109914
X141300Y-112098
X141300Y-117788
X147523Y-108898
X149301Y-120963
X151333Y-114080
X151587Y-121852
X183007Y-112708
X183083Y-125662
X183820Y-105215
X185429Y-115121
X186817Y-107780
X189458Y-119160
X189763Y-121293
X200355Y-123376
X200355Y-128075
X210261Y-106104
X210261Y-109152
X223202Y-124024
X226581Y-123948
X230454Y-134654
T3
X119591Y-144168
X119591Y-146068
T4
X69672Y-121598
X69672Y-131758
X72212Y-121598
X72212Y-131758
X74752Y-121598
X74752Y-131758
X74752Y-138743
X74752Y-148903
X77292Y-138743
X77292Y-148903
X77419Y-102802
X77419Y-112962
X77419Y-121598
X77419Y-131758
X79832Y-105469
X79832Y-115629
X79832Y-138743
X79832Y-148903
X82372Y-138870
X82372Y-149030
X82499Y-105342
X82499Y-115502
X84912Y-138870
X84912Y-149030
X87071Y-105342
X87071Y-115502
X87071Y-123884
X87071Y-136584
X89484Y-120201
X89484Y-137981
X90627Y-105342
X90627Y-115502
X91770Y-147485
X93294Y-115375
X93294Y-125535
X94310Y-147485
X96723Y-111895
X96723Y-124595
X96723Y-131631
X96723Y-141791
X96850Y-147485
X99136Y-104072
X99136Y-111692
X99136Y-116391
X99136Y-131631
X99263Y-135314
X99263Y-145474
X101676Y-104072
X101676Y-111692
X102819Y-116431
X102819Y-121431
X104216Y-104072
X104216Y-111692
X106756Y-104072
X106756Y-111692
X106888Y-125286
X106888Y-140526
X109042Y-116431
X109042Y-121431
X109296Y-104072
X109296Y-111692
X109428Y-125286
X109428Y-140526
X111836Y-104072
X111836Y-111692
X111968Y-125286
X111968Y-140526
X114376Y-104072
X114376Y-111692
X114508Y-125286
X114508Y-140526
X117048Y-125286
X117048Y-140526
X117551Y-104072
X117551Y-114232
X117718Y-118931
X119588Y-125286
X119588Y-140526
X120218Y-104072
X120218Y-114232
X122128Y-125286
X122128Y-140526
X122631Y-104072
X122631Y-114232
X122718Y-118931
X124668Y-125286
X124668Y-140526
X125171Y-104072
X125171Y-114232
X127208Y-125286
X127208Y-140526
X127965Y-104072
X127965Y-114232
X129748Y-125286
X129748Y-140526
X132288Y-125286
X132288Y-140526
X132410Y-104072
X132410Y-114232
X134828Y-125286
X134828Y-140526
X136241Y-108898
X136241Y-111438
X136241Y-113978
X137368Y-125286
X137368Y-140526
X138760Y-102548
X138760Y-122868
X139908Y-125286
X139908Y-140526
X142448Y-125286
X142448Y-140526
X144983Y-105215
X144983Y-117915
X144988Y-125286
X144988Y-140526
X147528Y-125286
X147528Y-140526
X150068Y-125286
X150068Y-140526
X152608Y-125286
X152608Y-140526
X152624Y-102548
X152624Y-105088
X152624Y-107628
X155143Y-112581
X155143Y-122741
X155148Y-125286
X155148Y-140526
X157556Y-101405
X157556Y-111565
X157683Y-113724
X157683Y-123884
X159715Y-130107
X159715Y-140267
X162382Y-130107
X162382Y-140267
X162890Y-119098
X162890Y-124098
X163906Y-101405
X163906Y-114105
X165049Y-130107
X165049Y-140267
X166192Y-108771
X166192Y-116391
X166486Y-105215
X167716Y-130107
X167716Y-140267
X168859Y-108898
X168859Y-119058
X170383Y-130107
X170383Y-140267
X171486Y-105215
X171526Y-108898
X171526Y-119058
X173050Y-130107
X173050Y-140267
X175082Y-107501
X175082Y-120201
X176620Y-127440
X176620Y-142680
X179146Y-127440
X179146Y-142680
X181686Y-127440
X181686Y-142680
X192989Y-119312
X194259Y-116518
X195696Y-113724
X196418Y-145580
X198109Y-122487
X198958Y-145580
X200696Y-113724
X201498Y-145580
X201879Y-116518
X203109Y-122487
X203149Y-119312
X206451Y-145580
X208991Y-145580
X211531Y-145580
X245313Y-114907
X245313Y-119907
X247874Y-137473
X247874Y-140013
X247874Y-142553
X248869Y-117574
X248869Y-122574
X251663Y-112073
X251663Y-122233
X252806Y-130869
X252806Y-146109
X258902Y-111224
X258902Y-116224
X262839Y-102675
X262839Y-117915
X266395Y-103818
X266395Y-113978
X283667Y-102548
X283667Y-105088
X283667Y-107628
X285064Y-129853
X285064Y-140013
X290779Y-102421
X290779Y-112581
X295732Y-108771
X295732Y-124011
X299288Y-108644
X299288Y-123884
X303265Y-123884
X308265Y-123884
T5
X192994Y-122868
X195534Y-122868
T6
X199974Y-137981
X202514Y-137981
X205054Y-137981
X207594Y-137981
X210134Y-137981
X212674Y-137981
X215214Y-137981
X217754Y-137981
X220294Y-137981
X221208Y-129624
X222834Y-137981
X223748Y-129624
X225374Y-137981
X226288Y-129624
X227914Y-137981
X230454Y-137981
X290896Y-128560
X290896Y-138720
X290896Y-141260
X298516Y-138720
X298516Y-141260
T7
X177876Y-107755
X177876Y-120455
X270078Y-102421
X270078Y-115121
X277317Y-105088
X277317Y-117788
T8
X184988Y-109406
X184988Y-132266
X259156Y-120229
X259156Y-142729
X271450Y-117739
X271450Y-140239
X281254Y-117612
X281254Y-140112
T9
X209050Y-117737
X216670Y-115197
X216670Y-120277
X231170Y-115197
X231170Y-120277
X238790Y-117737
T6
G00X183837Y-101821
M15
G01X183837Y-103021
M16
G05
G00X187337Y-101821
M15
G01X187337Y-103021
M16
G05
G00X190837Y-101821
M15
G01X190837Y-103021
M16
G05
G00X194337Y-101821
M15
G01X194337Y-103021
M16
G05
G00X197837Y-101821
M15
G01X197837Y-103021
M16
G05
G00X201337Y-101821
M15
G01X201337Y-103021
M16
G05
G00X204837Y-101821
M15
G01X204837Y-103021
M16
G05
G00X208337Y-101821
M15
G01X208337Y-103021
M16
G05
G00X211837Y-101821
M15
G01X211837Y-103021
M16
G05
G00X215337Y-101821
M15
G01X215337Y-103021
M16
G05
G00X218837Y-101821
M15
G01X218837Y-103021
M16
G05
G00X222337Y-101821
M15
G01X222337Y-103021
M16
G05
G00X225837Y-101821
M15
G01X225837Y-103021
M16
G05
G00X229337Y-101821
M15
G01X229337Y-103021
M16
G05
G00X232837Y-101821
M15
G01X232837Y-103021
M16
G05
G00X236337Y-101821
M15
G01X236337Y-103021
M16
G05
G00X239837Y-101821
M15
G01X239837Y-103021
M16
G05
G00X243337Y-101821
M15
G01X243337Y-103021
M16
G05
G00X246837Y-101821
M15
G01X246837Y-103021
M16
G05
M30
