%TF.GenerationSoftware,KiCad,Pcbnew,8.0.1*%
%TF.CreationDate,2024-08-23T15:17:34+02:00*%
%TF.ProjectId,BMW_E30_VFL_SI_Indicator_LED,424d575f-4533-4305-9f56-464c5f53495f,rev?*%
%TF.SameCoordinates,Original*%
%TF.FileFunction,Copper,L2,Bot*%
%TF.FilePolarity,Positive*%
%FSLAX46Y46*%
G04 Gerber Fmt 4.6, Leading zero omitted, Abs format (unit mm)*
G04 Created by KiCad (PCBNEW 8.0.1) date 2024-08-23 15:17:34*
%MOMM*%
%LPD*%
G01*
G04 APERTURE LIST*
%TA.AperFunction,ComponentPad*%
%ADD10R,1.800000X1.800000*%
%TD*%
%TA.AperFunction,ComponentPad*%
%ADD11C,1.800000*%
%TD*%
%TA.AperFunction,ComponentPad*%
%ADD12R,2.000000X2.000000*%
%TD*%
%TA.AperFunction,ComponentPad*%
%ADD13C,2.000000*%
%TD*%
%TA.AperFunction,ComponentPad*%
%ADD14C,1.600000*%
%TD*%
%TA.AperFunction,ComponentPad*%
%ADD15O,1.600000X1.600000*%
%TD*%
%TA.AperFunction,Conductor*%
%ADD16C,0.600000*%
%TD*%
%TA.AperFunction,Conductor*%
%ADD17C,1.000000*%
%TD*%
%TA.AperFunction,Conductor*%
%ADD18C,1.300000*%
%TD*%
%ADD19C,0.350000*%
G04 APERTURE END LIST*
D10*
%TO.P,D5,1,K*%
%TO.N,Net-(D5-K)*%
X149125000Y-85500000D03*
D11*
%TO.P,D5,2,A*%
%TO.N,Net-(D1-A)*%
X151665000Y-85500000D03*
%TD*%
D10*
%TO.P,D9,1,K*%
%TO.N,Net-(D9-K)*%
X125125000Y-85500000D03*
D11*
%TO.P,D9,2,A*%
%TO.N,Net-(D1-A)*%
X127665000Y-85500000D03*
%TD*%
D10*
%TO.P,D11,1,K*%
%TO.N,Net-(D11-K)*%
X142250000Y-76650000D03*
D11*
%TO.P,D11,2,A*%
%TO.N,Net-(D10-A)*%
X142250000Y-74110000D03*
%TD*%
D10*
%TO.P,D1,1,K*%
%TO.N,Net-(D1-K)*%
X173125000Y-85500000D03*
D11*
%TO.P,D1,2,A*%
%TO.N,Net-(D1-A)*%
X175665000Y-85500000D03*
%TD*%
D10*
%TO.P,D4,1,K*%
%TO.N,Net-(D4-K)*%
X155125000Y-85500000D03*
D11*
%TO.P,D4,2,A*%
%TO.N,Net-(D1-A)*%
X157665000Y-85500000D03*
%TD*%
D10*
%TO.P,D10,1,K*%
%TO.N,Net-(D10-K)*%
X158525000Y-76675000D03*
D11*
%TO.P,D10,2,A*%
%TO.N,Net-(D10-A)*%
X158525000Y-74135000D03*
%TD*%
D10*
%TO.P,D6,1,K*%
%TO.N,Net-(D6-K)*%
X143125000Y-85500000D03*
D11*
%TO.P,D6,2,A*%
%TO.N,Net-(D1-A)*%
X145665000Y-85500000D03*
%TD*%
D10*
%TO.P,D7,1,K*%
%TO.N,Net-(D7-K)*%
X137125000Y-85500000D03*
D11*
%TO.P,D7,2,A*%
%TO.N,Net-(D1-A)*%
X139665000Y-85500000D03*
%TD*%
D10*
%TO.P,D8,1,K*%
%TO.N,Net-(D8-K)*%
X131125000Y-85500000D03*
D11*
%TO.P,D8,2,A*%
%TO.N,Net-(D1-A)*%
X133665000Y-85500000D03*
%TD*%
D10*
%TO.P,D3,1,K*%
%TO.N,Net-(D3-K)*%
X161125000Y-85500000D03*
D11*
%TO.P,D3,2,A*%
%TO.N,Net-(D1-A)*%
X163665000Y-85500000D03*
%TD*%
D12*
%TO.P,J1,1,GND_BULB*%
%TO.N,Net-(D10-A)*%
X165540000Y-90360000D03*
D13*
%TO.P,J1,2,GND_LED*%
%TO.N,Net-(D1-A)*%
X163000000Y-90360000D03*
%TO.P,J1,3,LED_R3*%
%TO.N,Net-(D1-K)*%
X160460000Y-90360000D03*
%TO.P,J1,4,LED_R2*%
%TO.N,Net-(D2-K)*%
X157920000Y-90360000D03*
%TO.P,J1,5,LED_R1*%
%TO.N,Net-(D3-K)*%
X155380000Y-90360000D03*
%TO.P,J1,6,LED_Y*%
%TO.N,Net-(D4-K)*%
X152840000Y-90360000D03*
%TO.P,J1,7,LED_G5*%
%TO.N,Net-(D5-K)*%
X150300000Y-90360000D03*
%TO.P,J1,8,LED_G4*%
%TO.N,Net-(D6-K)*%
X147760000Y-90360000D03*
%TO.P,J1,9,LED_G3*%
%TO.N,Net-(D7-K)*%
X145220000Y-90360000D03*
%TO.P,J1,10,LED_G2*%
%TO.N,Net-(D8-K)*%
X142680000Y-90360000D03*
%TO.P,J1,11,LED_G1*%
%TO.N,Net-(D9-K)*%
X140140000Y-90360000D03*
%TO.P,J1,12,BULB_INSPECTION*%
%TO.N,Net-(J1-BULB_INSPECTION)*%
X137600000Y-90360000D03*
%TO.P,J1,13,BULB_OILSERVICE*%
%TO.N,Net-(J1-BULB_OILSERVICE)*%
X135060000Y-90360000D03*
%TD*%
D10*
%TO.P,D2,1,K*%
%TO.N,Net-(D2-K)*%
X167125000Y-85500000D03*
D11*
%TO.P,D2,2,A*%
%TO.N,Net-(D1-A)*%
X169665000Y-85500000D03*
%TD*%
D14*
%TO.P,R2,1*%
%TO.N,Net-(J1-BULB_INSPECTION)*%
X158640000Y-80400000D03*
D15*
%TO.P,R2,2*%
%TO.N,Net-(D10-K)*%
X166260000Y-80400000D03*
%TD*%
D14*
%TO.P,R1,1*%
%TO.N,Net-(J1-BULB_OILSERVICE)*%
X134490000Y-80250000D03*
D15*
%TO.P,R1,2*%
%TO.N,Net-(D11-K)*%
X142110000Y-80250000D03*
%TD*%
D16*
%TO.N,Net-(D1-K)*%
X161901000Y-88410000D02*
X160460000Y-89851000D01*
X160460000Y-89851000D02*
X160460000Y-90360000D01*
X170215000Y-88410000D02*
X161901000Y-88410000D01*
X173125000Y-85500000D02*
X170215000Y-88410000D01*
%TO.N,Net-(D2-K)*%
X160886000Y-87394000D02*
X157920000Y-90360000D01*
X165231000Y-87394000D02*
X160886000Y-87394000D01*
X167125000Y-85500000D02*
X167125000Y-85875000D01*
X167125000Y-85500000D02*
X165231000Y-87394000D01*
%TO.N,Net-(D3-K)*%
X161125000Y-85500000D02*
X158723000Y-87902000D01*
X156440000Y-87902000D02*
X155380000Y-88962000D01*
X155380000Y-88962000D02*
X155380000Y-90360000D01*
X161125000Y-85500000D02*
X161125000Y-85875000D01*
X158723000Y-87902000D02*
X156440000Y-87902000D01*
%TO.N,Net-(D4-K)*%
X155125000Y-85915000D02*
X152840000Y-88200000D01*
X152840000Y-88708000D02*
X152840000Y-90360000D01*
X155125000Y-85500000D02*
X155125000Y-85915000D01*
X152840000Y-88200000D02*
X152840000Y-88708000D01*
%TO.N,Net-(D5-K)*%
X149125000Y-85500000D02*
X149150000Y-85525000D01*
X149125000Y-85500000D02*
X149125000Y-87572000D01*
X149125000Y-87572000D02*
X150300000Y-88747000D01*
X150300000Y-88747000D02*
X150300000Y-90360000D01*
%TO.N,Net-(D6-K)*%
X143125000Y-85725000D02*
X147760000Y-90360000D01*
X143125000Y-85500000D02*
X143125000Y-85725000D01*
%TO.N,Net-(D7-K)*%
X138638000Y-87013000D02*
X141873000Y-87013000D01*
X137125000Y-85500000D02*
X138638000Y-87013000D01*
X141873000Y-87013000D02*
X145220000Y-90360000D01*
%TO.N,Net-(D8-K)*%
X131125000Y-86844000D02*
X132094000Y-87813000D01*
X132094000Y-87813000D02*
X140133000Y-87813000D01*
X131125000Y-85500000D02*
X131125000Y-86844000D01*
X140133000Y-87813000D02*
X142680000Y-90360000D01*
%TO.N,Net-(D9-K)*%
X138494800Y-88714800D02*
X140140000Y-90360000D01*
X125150000Y-85525000D02*
X125150000Y-87250000D01*
X126614800Y-88714800D02*
X138494800Y-88714800D01*
X125150000Y-87250000D02*
X126614800Y-88714800D01*
X125125000Y-85500000D02*
X125150000Y-85525000D01*
D17*
%TO.N,Net-(J1-BULB_INSPECTION)*%
X158640000Y-80400000D02*
X156540000Y-82500000D01*
X124925000Y-82500000D02*
X122900000Y-84525000D01*
X127400000Y-94000000D02*
X136400000Y-94000000D01*
X122900000Y-84525000D02*
X122900000Y-89500000D01*
X136400000Y-94000000D02*
X137600000Y-92800000D01*
X122900000Y-89500000D02*
X127400000Y-94000000D01*
X137600000Y-92800000D02*
X137600000Y-90360000D01*
X156540000Y-82500000D02*
X124925000Y-82500000D01*
D18*
%TO.N,Net-(D10-A)*%
X142300000Y-74160000D02*
X160060000Y-74160000D01*
X173150000Y-78250000D02*
X177900000Y-83000000D01*
X177900000Y-83000000D02*
X177900000Y-88082800D01*
X160060000Y-74160000D02*
X164150000Y-78250000D01*
X164150000Y-78250000D02*
X173150000Y-78250000D01*
X142250000Y-74110000D02*
X142300000Y-74160000D01*
X175622800Y-90360000D02*
X165540000Y-90360000D01*
X177900000Y-88082800D02*
X175622800Y-90360000D01*
%TD*%
%TA.AperFunction,Conductor*%
%TO.N,Net-(D10-A)*%
G36*
X142605215Y-73282995D02*
G01*
X142788766Y-73359265D01*
X142841718Y-73381268D01*
X142841725Y-73381270D01*
X142841726Y-73381271D01*
X143021979Y-73448517D01*
X143183140Y-73487531D01*
X143183141Y-73487531D01*
X143183145Y-73487532D01*
X143270266Y-73495813D01*
X143373176Y-73505596D01*
X143373181Y-73505596D01*
X143373190Y-73505597D01*
X143595986Y-73509272D01*
X143628547Y-73509810D01*
X143636762Y-73513372D01*
X143640054Y-73521508D01*
X143640054Y-74798980D01*
X143636627Y-74807253D01*
X143629055Y-74810659D01*
X143293258Y-74830800D01*
X143049629Y-74880401D01*
X142840838Y-74939479D01*
X142839987Y-74939686D01*
X142597601Y-74989035D01*
X142595968Y-74989249D01*
X142262387Y-75009257D01*
X142253923Y-75006332D01*
X142250007Y-74998279D01*
X142249986Y-74997591D01*
X142249977Y-74989200D01*
X142249002Y-74112336D01*
X142249896Y-74107842D01*
X142589926Y-73289312D01*
X142596265Y-73282987D01*
X142605215Y-73282995D01*
G37*
%TD.AperFunction*%
%TD*%
%TA.AperFunction,Conductor*%
%TO.N,Net-(J1-BULB_INSPECTION)*%
G36*
X138512410Y-90737919D02*
G01*
X138518737Y-90744257D01*
X138518728Y-90753211D01*
X138518442Y-90753847D01*
X138392240Y-91012990D01*
X138391688Y-91013994D01*
X138275891Y-91202373D01*
X138183352Y-91367560D01*
X138122131Y-91567350D01*
X138100818Y-91849182D01*
X138096777Y-91857173D01*
X138089151Y-91860000D01*
X137110849Y-91860000D01*
X137102576Y-91856573D01*
X137099182Y-91849182D01*
X137077867Y-91567350D01*
X137016646Y-91367560D01*
X136924107Y-91202373D01*
X136808310Y-91013994D01*
X136807758Y-91012990D01*
X136681557Y-90753847D01*
X136681016Y-90744908D01*
X136686953Y-90738205D01*
X136687560Y-90737931D01*
X137595514Y-90360862D01*
X137604464Y-90360854D01*
X138512410Y-90737919D01*
G37*
%TD.AperFunction*%
%TD*%
%TA.AperFunction,Conductor*%
%TO.N,Net-(J1-BULB_INSPECTION)*%
G36*
X158636212Y-80397437D02*
G01*
X158642551Y-80403762D01*
X158642562Y-80403787D01*
X158941640Y-81128187D01*
X158941629Y-81137142D01*
X158935290Y-81143467D01*
X158935189Y-81143508D01*
X158713054Y-81232800D01*
X158546229Y-81302767D01*
X158410110Y-81377870D01*
X158269335Y-81486888D01*
X158269320Y-81486901D01*
X158096724Y-81650797D01*
X158088365Y-81654009D01*
X158080394Y-81650586D01*
X157389413Y-80959605D01*
X157385986Y-80951332D01*
X157389202Y-80943275D01*
X157553104Y-80770671D01*
X157662130Y-80629884D01*
X157737232Y-80493765D01*
X157807219Y-80326894D01*
X157896491Y-80104809D01*
X157902756Y-80098412D01*
X157911711Y-80098318D01*
X158636212Y-80397437D01*
G37*
%TD.AperFunction*%
%TD*%
%TA.AperFunction,Conductor*%
%TO.N,Net-(D9-K)*%
G36*
X125133267Y-85507278D02*
G01*
X125133351Y-85507360D01*
X126013256Y-86388243D01*
X126016678Y-86396518D01*
X126013247Y-86404790D01*
X126009972Y-86407093D01*
X125909995Y-86454283D01*
X125794995Y-86531422D01*
X125679997Y-86631423D01*
X125564990Y-86754290D01*
X125453513Y-86895548D01*
X125445698Y-86899920D01*
X125444329Y-86900000D01*
X124855507Y-86900000D01*
X124847234Y-86896573D01*
X124846491Y-86895757D01*
X124728188Y-86752721D01*
X124724587Y-86749067D01*
X124606373Y-86629079D01*
X124524142Y-86561573D01*
X124484568Y-86529085D01*
X124484563Y-86529081D01*
X124484560Y-86529079D01*
X124475344Y-86523301D01*
X124362756Y-86452723D01*
X124256572Y-86406768D01*
X124250340Y-86400337D01*
X124250481Y-86391383D01*
X124252864Y-86387840D01*
X125116724Y-85507433D01*
X125124962Y-85503930D01*
X125133267Y-85507278D01*
G37*
%TD.AperFunction*%
%TD*%
%TA.AperFunction,Conductor*%
%TO.N,Net-(D9-K)*%
G36*
X139299603Y-89093397D02*
G01*
X139536505Y-89273725D01*
X139750063Y-89334959D01*
X139964036Y-89337823D01*
X139964389Y-89337833D01*
X140209756Y-89349180D01*
X140212345Y-89349596D01*
X140509973Y-89432576D01*
X140517022Y-89438099D01*
X140518101Y-89446988D01*
X140517645Y-89448313D01*
X140142562Y-90356215D01*
X140136235Y-90362553D01*
X140136215Y-90362562D01*
X139228313Y-90737645D01*
X139219359Y-90737636D01*
X139213032Y-90731298D01*
X139212576Y-90729973D01*
X139129596Y-90432345D01*
X139129180Y-90429756D01*
X139117833Y-90184389D01*
X139117823Y-90184020D01*
X139114959Y-89970067D01*
X139114959Y-89970063D01*
X139053725Y-89756505D01*
X138873397Y-89519603D01*
X138871114Y-89510945D01*
X138874434Y-89504245D01*
X139284245Y-89094434D01*
X139292517Y-89091008D01*
X139299603Y-89093397D01*
G37*
%TD.AperFunction*%
%TD*%
%TA.AperFunction,Conductor*%
%TO.N,Net-(D8-K)*%
G36*
X141839603Y-89093397D02*
G01*
X142076505Y-89273725D01*
X142290063Y-89334959D01*
X142504036Y-89337823D01*
X142504389Y-89337833D01*
X142749756Y-89349180D01*
X142752345Y-89349596D01*
X143049973Y-89432576D01*
X143057022Y-89438099D01*
X143058101Y-89446988D01*
X143057645Y-89448313D01*
X142682562Y-90356215D01*
X142676235Y-90362553D01*
X142676215Y-90362562D01*
X141768313Y-90737645D01*
X141759359Y-90737636D01*
X141753032Y-90731298D01*
X141752576Y-90729973D01*
X141669596Y-90432345D01*
X141669180Y-90429756D01*
X141657833Y-90184389D01*
X141657823Y-90184020D01*
X141654959Y-89970067D01*
X141654959Y-89970063D01*
X141593725Y-89756505D01*
X141413397Y-89519603D01*
X141411114Y-89510945D01*
X141414434Y-89504245D01*
X141824245Y-89094434D01*
X141832517Y-89091008D01*
X141839603Y-89093397D01*
G37*
%TD.AperFunction*%
%TD*%
%TA.AperFunction,Conductor*%
%TO.N,Net-(D8-K)*%
G36*
X131132565Y-85507567D02*
G01*
X131132690Y-85507690D01*
X132007395Y-86382395D01*
X132010822Y-86390668D01*
X132007395Y-86398941D01*
X132000211Y-86402317D01*
X131895348Y-86412123D01*
X131895345Y-86412124D01*
X131765687Y-86445334D01*
X131636039Y-86499625D01*
X131506383Y-86575004D01*
X131376723Y-86671471D01*
X130962274Y-87085921D01*
X130954001Y-87089348D01*
X130945728Y-87085921D01*
X130944456Y-87084413D01*
X130812000Y-86897268D01*
X130671534Y-86728465D01*
X130531068Y-86589319D01*
X130390602Y-86479830D01*
X130390598Y-86479828D01*
X130390596Y-86479826D01*
X130263280Y-86407470D01*
X130257781Y-86400403D01*
X130258889Y-86391517D01*
X130260660Y-86389155D01*
X131116023Y-85507814D01*
X131124242Y-85504264D01*
X131132565Y-85507567D01*
G37*
%TD.AperFunction*%
%TD*%
%TA.AperFunction,Conductor*%
%TO.N,Net-(D7-K)*%
G36*
X144379603Y-89093397D02*
G01*
X144616505Y-89273725D01*
X144830063Y-89334959D01*
X145044036Y-89337823D01*
X145044389Y-89337833D01*
X145289756Y-89349180D01*
X145292345Y-89349596D01*
X145589973Y-89432576D01*
X145597022Y-89438099D01*
X145598101Y-89446988D01*
X145597645Y-89448313D01*
X145222562Y-90356215D01*
X145216235Y-90362553D01*
X145216215Y-90362562D01*
X144308313Y-90737645D01*
X144299359Y-90737636D01*
X144293032Y-90731298D01*
X144292576Y-90729973D01*
X144209596Y-90432345D01*
X144209180Y-90429756D01*
X144197833Y-90184389D01*
X144197823Y-90184020D01*
X144194959Y-89970067D01*
X144194959Y-89970063D01*
X144133725Y-89756505D01*
X143953397Y-89519603D01*
X143951114Y-89510945D01*
X143954434Y-89504245D01*
X144364245Y-89094434D01*
X144372517Y-89091008D01*
X144379603Y-89093397D01*
G37*
%TD.AperFunction*%
%TD*%
%TA.AperFunction,Conductor*%
%TO.N,Net-(D7-K)*%
G36*
X138022203Y-85132071D02*
G01*
X138028529Y-85138409D01*
X138028862Y-85139322D01*
X138138137Y-85482052D01*
X138251274Y-85800894D01*
X138364396Y-86083702D01*
X138364415Y-86083746D01*
X138477537Y-86330559D01*
X138586575Y-86533762D01*
X138587467Y-86542672D01*
X138584538Y-86547567D01*
X138173145Y-86958960D01*
X138164872Y-86962387D01*
X138158464Y-86960476D01*
X138012580Y-86864987D01*
X137883578Y-86780547D01*
X137883573Y-86780544D01*
X137883571Y-86780543D01*
X137883570Y-86780542D01*
X137600735Y-86631410D01*
X137356613Y-86533762D01*
X137317893Y-86518274D01*
X137317892Y-86518273D01*
X137317888Y-86518272D01*
X137035050Y-86441136D01*
X136767073Y-86402161D01*
X136759379Y-86397579D01*
X136757179Y-86388899D01*
X136757941Y-86386119D01*
X137122438Y-85503782D01*
X137128762Y-85497446D01*
X138013249Y-85132062D01*
X138022203Y-85132071D01*
G37*
%TD.AperFunction*%
%TD*%
%TA.AperFunction,Conductor*%
%TO.N,Net-(D6-K)*%
G36*
X146919603Y-89093397D02*
G01*
X147156505Y-89273725D01*
X147370063Y-89334959D01*
X147584036Y-89337823D01*
X147584389Y-89337833D01*
X147829756Y-89349180D01*
X147832345Y-89349596D01*
X148129973Y-89432576D01*
X148137022Y-89438099D01*
X148138101Y-89446988D01*
X148137645Y-89448313D01*
X147762562Y-90356215D01*
X147756235Y-90362553D01*
X147756215Y-90362562D01*
X146848313Y-90737645D01*
X146839359Y-90737636D01*
X146833032Y-90731298D01*
X146832576Y-90729973D01*
X146749596Y-90432345D01*
X146749180Y-90429756D01*
X146737833Y-90184389D01*
X146737823Y-90184020D01*
X146734959Y-89970067D01*
X146734959Y-89970063D01*
X146673725Y-89756505D01*
X146493397Y-89519603D01*
X146491114Y-89510945D01*
X146494434Y-89504245D01*
X146904245Y-89094434D01*
X146912517Y-89091008D01*
X146919603Y-89093397D01*
G37*
%TD.AperFunction*%
%TD*%
%TA.AperFunction,Conductor*%
%TO.N,Net-(D6-K)*%
G36*
X144021166Y-85183154D02*
G01*
X144027172Y-85189796D01*
X144027630Y-85191456D01*
X144093137Y-85522807D01*
X144161273Y-85831454D01*
X144229412Y-86104124D01*
X144297540Y-86340742D01*
X144297547Y-86340766D01*
X144297552Y-86340780D01*
X144363345Y-86534531D01*
X144362760Y-86543467D01*
X144360539Y-86546566D01*
X143948574Y-86958531D01*
X143940301Y-86961958D01*
X143933310Y-86959640D01*
X143692974Y-86780548D01*
X143692973Y-86780547D01*
X143444525Y-86631410D01*
X143444524Y-86631409D01*
X143444520Y-86631407D01*
X143196083Y-86518276D01*
X143196080Y-86518275D01*
X143196078Y-86518274D01*
X143036643Y-86468773D01*
X142947637Y-86441139D01*
X142947634Y-86441138D01*
X142947630Y-86441137D01*
X142714463Y-86402530D01*
X142706861Y-86397798D01*
X142704831Y-86389076D01*
X142705791Y-86385998D01*
X143122220Y-85503685D01*
X143128846Y-85497669D01*
X144012224Y-85182705D01*
X144021166Y-85183154D01*
G37*
%TD.AperFunction*%
%TD*%
%TA.AperFunction,Conductor*%
%TO.N,Net-(D5-K)*%
G36*
X150598052Y-88863427D02*
G01*
X150601373Y-88870128D01*
X150641376Y-89165151D01*
X150749084Y-89359457D01*
X150749087Y-89359461D01*
X150898357Y-89512781D01*
X150898614Y-89513054D01*
X150948852Y-89568164D01*
X151064078Y-89694564D01*
X151065622Y-89696699D01*
X151217399Y-89965825D01*
X151218478Y-89974714D01*
X151212955Y-89981763D01*
X151211695Y-89982377D01*
X150304487Y-90359136D01*
X150295533Y-90359145D01*
X150295513Y-90359136D01*
X149388304Y-89982377D01*
X149381977Y-89976039D01*
X149381986Y-89967085D01*
X149382593Y-89965837D01*
X149534377Y-89696694D01*
X149535916Y-89694567D01*
X149701439Y-89512993D01*
X149701573Y-89512851D01*
X149850913Y-89359460D01*
X149958622Y-89165152D01*
X149998627Y-88870128D01*
X150003135Y-88862390D01*
X150010221Y-88860000D01*
X150589779Y-88860000D01*
X150598052Y-88863427D01*
G37*
%TD.AperFunction*%
%TD*%
%TA.AperFunction,Conductor*%
%TO.N,Net-(D5-K)*%
G36*
X149133268Y-85507277D02*
G01*
X150012950Y-86387937D01*
X150016372Y-86396211D01*
X150012941Y-86404483D01*
X150009409Y-86406903D01*
X149905006Y-86453134D01*
X149904991Y-86453143D01*
X149785000Y-86529705D01*
X149665009Y-86629698D01*
X149544998Y-86753139D01*
X149428511Y-86895703D01*
X149420623Y-86899941D01*
X149419451Y-86900000D01*
X148830549Y-86900000D01*
X148822276Y-86896573D01*
X148821489Y-86895703D01*
X148705001Y-86753139D01*
X148702391Y-86750454D01*
X148584999Y-86629707D01*
X148584992Y-86629701D01*
X148584989Y-86629698D01*
X148584990Y-86629698D01*
X148464998Y-86529705D01*
X148464999Y-86529705D01*
X148345008Y-86453143D01*
X148344993Y-86453134D01*
X148240590Y-86406903D01*
X148234413Y-86400420D01*
X148234629Y-86391468D01*
X148237045Y-86387941D01*
X149116722Y-85507286D01*
X149124994Y-85503856D01*
X149133268Y-85507277D01*
G37*
%TD.AperFunction*%
%TD*%
%TA.AperFunction,Conductor*%
%TO.N,Net-(D4-K)*%
G36*
X153138052Y-88863427D02*
G01*
X153141373Y-88870128D01*
X153181376Y-89165151D01*
X153289084Y-89359457D01*
X153289087Y-89359461D01*
X153438357Y-89512781D01*
X153438614Y-89513054D01*
X153488852Y-89568164D01*
X153604078Y-89694564D01*
X153605622Y-89696699D01*
X153757399Y-89965825D01*
X153758478Y-89974714D01*
X153752955Y-89981763D01*
X153751695Y-89982377D01*
X152844487Y-90359136D01*
X152835533Y-90359145D01*
X152835513Y-90359136D01*
X151928304Y-89982377D01*
X151921977Y-89976039D01*
X151921986Y-89967085D01*
X151922593Y-89965837D01*
X152074377Y-89696694D01*
X152075916Y-89694567D01*
X152241439Y-89512993D01*
X152241573Y-89512851D01*
X152390913Y-89359460D01*
X152498622Y-89165152D01*
X152538627Y-88870128D01*
X152543135Y-88862390D01*
X152550221Y-88860000D01*
X153129779Y-88860000D01*
X153138052Y-88863427D01*
G37*
%TD.AperFunction*%
%TD*%
%TA.AperFunction,Conductor*%
%TO.N,Net-(D4-K)*%
G36*
X154238743Y-85231168D02*
G01*
X155121056Y-85497887D01*
X155127982Y-85503560D01*
X155127993Y-85503581D01*
X155598401Y-86385909D01*
X155599270Y-86394821D01*
X155593581Y-86401737D01*
X155590214Y-86402916D01*
X155384446Y-86441136D01*
X155384440Y-86441138D01*
X155162981Y-86518272D01*
X155162975Y-86518275D01*
X154941519Y-86631406D01*
X154941512Y-86631410D01*
X154720048Y-86780545D01*
X154506788Y-86958821D01*
X154498243Y-86961498D01*
X154491011Y-86958117D01*
X154078528Y-86545634D01*
X154075101Y-86537361D01*
X154075244Y-86535536D01*
X154090147Y-86441138D01*
X154104451Y-86350539D01*
X154134588Y-86123658D01*
X154164726Y-85860776D01*
X154194863Y-85561895D01*
X154223712Y-85241318D01*
X154227867Y-85233388D01*
X154236414Y-85230716D01*
X154238743Y-85231168D01*
G37*
%TD.AperFunction*%
%TD*%
%TA.AperFunction,Conductor*%
%TO.N,Net-(D3-K)*%
G36*
X155248266Y-88686023D02*
G01*
X155248489Y-88686240D01*
X155657908Y-89095659D01*
X155661335Y-89103932D01*
X155659768Y-89109780D01*
X155590378Y-89230010D01*
X155636317Y-89331275D01*
X155761467Y-89423614D01*
X155761481Y-89423624D01*
X155876892Y-89494975D01*
X155924708Y-89524537D01*
X155925813Y-89525313D01*
X156076797Y-89644738D01*
X156081160Y-89652558D01*
X156078715Y-89661172D01*
X156077812Y-89662187D01*
X155384826Y-90355173D01*
X155376553Y-90358600D01*
X155372066Y-90357705D01*
X154466794Y-89981749D01*
X154460467Y-89975411D01*
X154460422Y-89966590D01*
X154597642Y-89624459D01*
X154702730Y-89372082D01*
X154703247Y-89371007D01*
X154815465Y-89165879D01*
X154816451Y-89164370D01*
X154979936Y-88952113D01*
X154980712Y-88951207D01*
X155231726Y-88686463D01*
X155239905Y-88682817D01*
X155248266Y-88686023D01*
G37*
%TD.AperFunction*%
%TD*%
%TA.AperFunction,Conductor*%
%TO.N,Net-(D3-K)*%
G36*
X160236743Y-85132059D02*
G01*
X161121215Y-85497437D01*
X161127553Y-85503763D01*
X161127562Y-85503784D01*
X161492056Y-86386116D01*
X161492047Y-86395071D01*
X161485709Y-86401397D01*
X161482926Y-86402161D01*
X161214948Y-86441136D01*
X160932110Y-86518272D01*
X160932103Y-86518275D01*
X160649263Y-86631410D01*
X160649262Y-86631410D01*
X160366428Y-86780542D01*
X160366427Y-86780543D01*
X160091535Y-86960476D01*
X160082736Y-86962140D01*
X160076854Y-86958960D01*
X159665461Y-86547567D01*
X159662034Y-86539294D01*
X159663423Y-86533764D01*
X159772452Y-86330578D01*
X159885589Y-86083735D01*
X159998725Y-85800893D01*
X160111862Y-85482050D01*
X160221137Y-85139320D01*
X160226915Y-85132481D01*
X160235838Y-85131729D01*
X160236743Y-85132059D01*
G37*
%TD.AperFunction*%
%TD*%
%TA.AperFunction,Conductor*%
%TO.N,Net-(D2-K)*%
G36*
X166236743Y-85132059D02*
G01*
X167121215Y-85497437D01*
X167127553Y-85503763D01*
X167127562Y-85503784D01*
X167492056Y-86386116D01*
X167492047Y-86395071D01*
X167485709Y-86401397D01*
X167482926Y-86402161D01*
X167214948Y-86441136D01*
X166932110Y-86518272D01*
X166932103Y-86518275D01*
X166649263Y-86631410D01*
X166649262Y-86631410D01*
X166366428Y-86780542D01*
X166366427Y-86780543D01*
X166091535Y-86960476D01*
X166082736Y-86962140D01*
X166076854Y-86958960D01*
X165665461Y-86547567D01*
X165662034Y-86539294D01*
X165663423Y-86533764D01*
X165772452Y-86330578D01*
X165885589Y-86083735D01*
X165998725Y-85800893D01*
X166111862Y-85482050D01*
X166221137Y-85139320D01*
X166226915Y-85132481D01*
X166235838Y-85131729D01*
X166236743Y-85132059D01*
G37*
%TD.AperFunction*%
%TD*%
%TA.AperFunction,Conductor*%
%TO.N,Net-(D2-K)*%
G36*
X158775755Y-89094435D02*
G01*
X159185564Y-89504244D01*
X159188991Y-89512517D01*
X159186601Y-89519604D01*
X159006273Y-89756505D01*
X158945038Y-89970067D01*
X158942174Y-90184020D01*
X158942163Y-90184403D01*
X158930818Y-90429750D01*
X158930400Y-90432352D01*
X158847423Y-90729973D01*
X158841900Y-90737022D01*
X158833011Y-90738101D01*
X158831686Y-90737645D01*
X157923784Y-90362562D01*
X157917446Y-90356235D01*
X157917437Y-90356215D01*
X157846456Y-90184403D01*
X157542354Y-89448312D01*
X157542363Y-89439359D01*
X157548701Y-89433032D01*
X157550016Y-89432579D01*
X157847654Y-89349595D01*
X157850241Y-89349180D01*
X158095609Y-89337833D01*
X158095959Y-89337823D01*
X158309936Y-89334959D01*
X158523494Y-89273725D01*
X158760396Y-89093397D01*
X158769054Y-89091114D01*
X158775755Y-89094435D01*
G37*
%TD.AperFunction*%
%TD*%
%TA.AperFunction,Conductor*%
%TO.N,Net-(D1-K)*%
G36*
X172236743Y-85132059D02*
G01*
X173121215Y-85497437D01*
X173127553Y-85503763D01*
X173127562Y-85503784D01*
X173492056Y-86386116D01*
X173492047Y-86395071D01*
X173485709Y-86401397D01*
X173482926Y-86402161D01*
X173214948Y-86441136D01*
X172932110Y-86518272D01*
X172932103Y-86518275D01*
X172649263Y-86631410D01*
X172649262Y-86631410D01*
X172366428Y-86780542D01*
X172366427Y-86780543D01*
X172091535Y-86960476D01*
X172082736Y-86962140D01*
X172076854Y-86958960D01*
X171665461Y-86547567D01*
X171662034Y-86539294D01*
X171663423Y-86533764D01*
X171772452Y-86330578D01*
X171885589Y-86083735D01*
X171998725Y-85800893D01*
X172111862Y-85482050D01*
X172221137Y-85139320D01*
X172226915Y-85132481D01*
X172235838Y-85131729D01*
X172236743Y-85132059D01*
G37*
%TD.AperFunction*%
%TD*%
%TA.AperFunction,Conductor*%
%TO.N,Net-(D1-K)*%
G36*
X161011445Y-88891371D02*
G01*
X161420768Y-89300694D01*
X161424195Y-89308967D01*
X161422118Y-89315622D01*
X161288083Y-89509453D01*
X161278234Y-89687237D01*
X161341409Y-89869335D01*
X161420465Y-90082954D01*
X161421076Y-90085373D01*
X161458110Y-90346667D01*
X161455878Y-90355339D01*
X161448168Y-90359893D01*
X161446534Y-90360009D01*
X160467124Y-90360701D01*
X160458849Y-90357280D01*
X160456302Y-90353468D01*
X160453492Y-90346667D01*
X160081839Y-89447065D01*
X160081848Y-89438111D01*
X160088185Y-89431784D01*
X160328337Y-89335991D01*
X160508708Y-89262206D01*
X160656178Y-89183207D01*
X160808494Y-89067434D01*
X160995140Y-88891136D01*
X161003505Y-88887949D01*
X161011445Y-88891371D01*
G37*
%TD.AperFunction*%
%TD*%
%TA.AperFunction,Conductor*%
%TO.N,Net-(D10-A)*%
G36*
X158937801Y-74673576D02*
G01*
X158953421Y-74683067D01*
X159000131Y-74711449D01*
X159005422Y-74718674D01*
X159004055Y-74727523D01*
X159002225Y-74729824D01*
X158939895Y-74790620D01*
X158931581Y-74793943D01*
X158923351Y-74790414D01*
X158920027Y-74782244D01*
X158920027Y-74683576D01*
X158923454Y-74675303D01*
X158931727Y-74671876D01*
X158937801Y-74673576D01*
G37*
%TD.AperFunction*%
%TA.AperFunction,Conductor*%
G36*
X158067538Y-74324672D02*
G01*
X158201840Y-74342112D01*
X158204414Y-74342750D01*
X158458589Y-74437435D01*
X158465146Y-74443534D01*
X158465469Y-74452483D01*
X158459370Y-74459040D01*
X158459209Y-74459112D01*
X158016291Y-74653579D01*
X158007338Y-74653767D01*
X158005902Y-74653092D01*
X157703284Y-74484850D01*
X157697718Y-74477835D01*
X157698497Y-74469406D01*
X157784987Y-74295919D01*
X157791745Y-74290045D01*
X157796961Y-74289537D01*
X158067538Y-74324672D01*
G37*
%TD.AperFunction*%
%TA.AperFunction,Conductor*%
G36*
X158939277Y-73526269D02*
G01*
X158940063Y-73526933D01*
X159114025Y-73673956D01*
X159118132Y-73681914D01*
X159116716Y-73688546D01*
X158941970Y-74005157D01*
X158934972Y-74010744D01*
X158926073Y-74009746D01*
X158920486Y-74002748D01*
X158920027Y-73999503D01*
X158920027Y-73535206D01*
X158923454Y-73526933D01*
X158931727Y-73523506D01*
X158939277Y-73526269D01*
G37*
%TD.AperFunction*%
%TD*%
%TA.AperFunction,Conductor*%
%TO.N,Net-(D10-A)*%
G36*
X166548003Y-89368542D02*
G01*
X166548260Y-89368807D01*
X166640000Y-89466619D01*
X166740000Y-89554928D01*
X166839999Y-89624928D01*
X166939999Y-89676619D01*
X167032005Y-89707331D01*
X167038767Y-89713201D01*
X167040000Y-89718429D01*
X167040000Y-91001570D01*
X167036573Y-91009843D01*
X167032005Y-91012668D01*
X166940004Y-91043377D01*
X166940002Y-91043378D01*
X166839999Y-91095071D01*
X166740000Y-91165070D01*
X166640000Y-91253379D01*
X166639993Y-91253386D01*
X166548260Y-91351192D01*
X166540101Y-91354882D01*
X166531722Y-91351722D01*
X166531457Y-91351465D01*
X165547285Y-90368277D01*
X165543854Y-90360006D01*
X165547277Y-90351731D01*
X165547285Y-90351723D01*
X166531457Y-89368533D01*
X166539732Y-89365111D01*
X166548003Y-89368542D01*
G37*
%TD.AperFunction*%
%TD*%
D19*
X150300000Y-78000000D03*
X149125000Y-85500000D03*
X151665000Y-85500000D03*
X125125000Y-85500000D03*
X127665000Y-85500000D03*
X142250000Y-76650000D03*
X142250000Y-74110000D03*
X173125000Y-85500000D03*
X175665000Y-85500000D03*
X155125000Y-85500000D03*
X157665000Y-85500000D03*
X158525000Y-76675000D03*
X158525000Y-74135000D03*
X143125000Y-85500000D03*
X145665000Y-85500000D03*
X137125000Y-85500000D03*
X139665000Y-85500000D03*
X131125000Y-85500000D03*
X133665000Y-85500000D03*
X161125000Y-85500000D03*
X163665000Y-85500000D03*
X165540000Y-90360000D03*
X163000000Y-90360000D03*
X160460000Y-90360000D03*
X157920000Y-90360000D03*
X155380000Y-90360000D03*
X152840000Y-90360000D03*
X150300000Y-90360000D03*
X147760000Y-90360000D03*
X145220000Y-90360000D03*
X142680000Y-90360000D03*
X140140000Y-90360000D03*
X137600000Y-90360000D03*
X135060000Y-90360000D03*
X167125000Y-85500000D03*
X169665000Y-85500000D03*
X158640000Y-80400000D03*
X166260000Y-80400000D03*
X134490000Y-80250000D03*
X142110000Y-80250000D03*
M02*
