%TF.GenerationSoftware,KiCad,Pcbnew,8.0.1*%
%TF.CreationDate,2024-08-23T15:17:34+02:00*%
%TF.ProjectId,BMW_E30_VFL_SI_Indicator_LED,424d575f-4533-4305-9f56-464c5f53495f,rev?*%
%TF.SameCoordinates,Original*%
%TF.FileFunction,Profile,NP*%
%FSLAX46Y46*%
G04 Gerber Fmt 4.6, Leading zero omitted, Abs format (unit mm)*
G04 Created by KiCad (PCBNEW 8.0.1) date 2024-08-23 15:17:34*
%MOMM*%
%LPD*%
G01*
G04 APERTURE LIST*
%TA.AperFunction,Profile*%
%ADD10C,0.050000*%
%TD*%
G04 APERTURE END LIST*
D10*
X136200000Y-76300000D02*
G75*
G02*
X135700000Y-76800000I-500000J0D01*
G01*
X124700000Y-78200000D02*
X121900000Y-78200000D01*
X179396447Y-104296447D02*
G75*
G02*
X178896447Y-104796447I-500047J47D01*
G01*
X179396447Y-104296447D02*
X179396447Y-78700000D01*
X175600000Y-77700000D02*
X175600000Y-77300000D01*
X175300000Y-102000000D02*
G75*
G02*
X175800000Y-102500000I0J-500000D01*
G01*
X136200000Y-72900000D02*
G75*
G02*
X136700000Y-72400000I500000J0D01*
G01*
X121400000Y-78700000D02*
X121400000Y-101500000D01*
X178900000Y-78200000D02*
G75*
G02*
X179400000Y-78700000I0J-500000D01*
G01*
X175800000Y-102500000D02*
X175800000Y-104296447D01*
X176303553Y-104796447D02*
G75*
G02*
X175803553Y-104296447I47J500047D01*
G01*
X121400000Y-78700000D02*
G75*
G02*
X121900000Y-78200000I500000J0D01*
G01*
X164100000Y-72400000D02*
G75*
G02*
X164600000Y-72900000I0J-500000D01*
G01*
X176100000Y-78200000D02*
G75*
G02*
X175600000Y-77700000I0J500000D01*
G01*
X125200000Y-77300000D02*
G75*
G02*
X125700000Y-76800000I500000J0D01*
G01*
X164600000Y-76300000D02*
X164600000Y-72900000D01*
X121900000Y-102000000D02*
X175300000Y-102000000D01*
X165100000Y-76800000D02*
G75*
G02*
X164600000Y-76300000I0J500000D01*
G01*
X175100000Y-76800000D02*
G75*
G02*
X175600000Y-77300000I0J-500000D01*
G01*
X136200000Y-72900000D02*
X136200000Y-76300000D01*
X176303553Y-104796447D02*
X178896447Y-104796447D01*
X175100000Y-76800000D02*
X165100000Y-76800000D01*
X125200000Y-77300000D02*
X125200000Y-77700000D01*
X121900000Y-102000000D02*
G75*
G02*
X121400000Y-101500000I0J500000D01*
G01*
X135700000Y-76800000D02*
X125700000Y-76800000D01*
X178900000Y-78200000D02*
X176100000Y-78200000D01*
X125200000Y-77700000D02*
G75*
G02*
X124700000Y-78200000I-500000J0D01*
G01*
X136700000Y-72400000D02*
X164100000Y-72400000D01*
M02*
