%TF.GenerationSoftware,KiCad,Pcbnew,8.0.1*%
%TF.CreationDate,2024-06-15T14:56:54+02:00*%
%TF.ProjectId,BMW E30 VFL SI Indicator V2,424d5720-4533-4302-9056-464c20534920,rev?*%
%TF.SameCoordinates,Original*%
%TF.FileFunction,Copper,L1,Top*%
%TF.FilePolarity,Positive*%
%FSLAX46Y46*%
G04 Gerber Fmt 4.6, Leading zero omitted, Abs format (unit mm)*
G04 Created by KiCad (PCBNEW 8.0.1) date 2024-06-15 14:56:54*
%MOMM*%
%LPD*%
G01*
G04 APERTURE LIST*
%TA.AperFunction,ComponentPad*%
%ADD10R,1.800000X1.800000*%
%TD*%
%TA.AperFunction,ComponentPad*%
%ADD11C,1.800000*%
%TD*%
%TA.AperFunction,ComponentPad*%
%ADD12C,2.000000*%
%TD*%
%TA.AperFunction,ComponentPad*%
%ADD13R,2.000000X2.000000*%
%TD*%
%TA.AperFunction,Conductor*%
%ADD14C,1.300000*%
%TD*%
%TA.AperFunction,Conductor*%
%ADD15C,1.000000*%
%TD*%
%ADD16C,0.350000*%
G04 APERTURE END LIST*
D10*
%TO.P,D9,1,K*%
%TO.N,Net-(D9-K)*%
X125125000Y-85500000D03*
D11*
%TO.P,D9,2,A*%
%TO.N,Net-(D1-A)*%
X127665000Y-85500000D03*
%TD*%
D10*
%TO.P,D8,1,K*%
%TO.N,Net-(D8-K)*%
X131125000Y-85500000D03*
D11*
%TO.P,D8,2,A*%
%TO.N,Net-(D1-A)*%
X133665000Y-85500000D03*
%TD*%
D10*
%TO.P,D5,1,K*%
%TO.N,Net-(D5-K)*%
X149125000Y-85500000D03*
D11*
%TO.P,D5,2,A*%
%TO.N,Net-(D1-A)*%
X151665000Y-85500000D03*
%TD*%
D10*
%TO.P,D7,1,K*%
%TO.N,Net-(D7-K)*%
X137125000Y-85500000D03*
D11*
%TO.P,D7,2,A*%
%TO.N,Net-(D1-A)*%
X139665000Y-85500000D03*
%TD*%
D10*
%TO.P,D1,1,K*%
%TO.N,Net-(D1-K)*%
X173125000Y-85500000D03*
D11*
%TO.P,D1,2,A*%
%TO.N,Net-(D1-A)*%
X175665000Y-85500000D03*
%TD*%
D10*
%TO.P,D6,1,K*%
%TO.N,Net-(D6-K)*%
X143125000Y-85500000D03*
D11*
%TO.P,D6,2,A*%
%TO.N,Net-(D1-A)*%
X145665000Y-85500000D03*
%TD*%
D10*
%TO.P,D2,1,K*%
%TO.N,Net-(D2-K)*%
X167125000Y-85500000D03*
D11*
%TO.P,D2,2,A*%
%TO.N,Net-(D1-A)*%
X169665000Y-85500000D03*
%TD*%
D10*
%TO.P,D4,1,K*%
%TO.N,Net-(D4-K)*%
X155125000Y-85500000D03*
D11*
%TO.P,D4,2,A*%
%TO.N,Net-(D1-A)*%
X157665000Y-85500000D03*
%TD*%
D10*
%TO.P,D3,1,K*%
%TO.N,Net-(D3-K)*%
X161125000Y-85500000D03*
D11*
%TO.P,D3,2,A*%
%TO.N,Net-(D1-A)*%
X163665000Y-85500000D03*
%TD*%
D12*
%TO.P,J1,13,BULB_OILSERVICE*%
%TO.N,Net-(J1-BULB_OILSERVICE)*%
X135060000Y-91600000D03*
%TO.P,J1,12,BULB_INSPECTION*%
%TO.N,Net-(J1-BULB_INSPECTION)*%
X137600000Y-91600000D03*
%TO.P,J1,11,LED_G1*%
%TO.N,Net-(D9-K)*%
X140140000Y-91600000D03*
%TO.P,J1,10,LED_G2*%
%TO.N,Net-(D8-K)*%
X142680000Y-91600000D03*
%TO.P,J1,9,LED_G3*%
%TO.N,Net-(D7-K)*%
X145220000Y-91600000D03*
%TO.P,J1,8,LED_G4*%
%TO.N,Net-(D6-K)*%
X147760000Y-91600000D03*
%TO.P,J1,7,LED_G5*%
%TO.N,Net-(D5-K)*%
X150300000Y-91600000D03*
%TO.P,J1,6,LED_Y*%
%TO.N,Net-(D4-K)*%
X152840000Y-91600000D03*
%TO.P,J1,5,LED_R1*%
%TO.N,Net-(D3-K)*%
X155380000Y-91600000D03*
%TO.P,J1,4,LED_R2*%
%TO.N,Net-(D2-K)*%
X157920000Y-91600000D03*
%TO.P,J1,3,LED_R3*%
%TO.N,Net-(D1-K)*%
X160460000Y-91600000D03*
%TO.P,J1,2,GND_LED*%
%TO.N,Net-(D1-A)*%
X163000000Y-91600000D03*
D13*
%TO.P,J1,1,GND_BULB*%
%TO.N,Net-(J1-GND_BULB)*%
X165540000Y-91600000D03*
%TD*%
D11*
%TO.P,LA2,1,-*%
%TO.N,Net-(J1-BULB_INSPECTION)*%
X158500000Y-76700000D03*
%TO.P,LA2,2,+*%
%TO.N,Net-(J1-GND_BULB)*%
X158500000Y-74160000D03*
%TD*%
%TO.P,LA1,1,-*%
%TO.N,Net-(J1-GND_BULB)*%
X142500000Y-74160000D03*
%TO.P,LA1,2,+*%
%TO.N,Net-(J1-BULB_OILSERVICE)*%
X142500000Y-76700000D03*
%TD*%
D14*
%TO.N,Net-(D1-A)*%
X131295787Y-89145787D02*
X137685787Y-89145787D01*
X127665000Y-85515000D02*
X131295787Y-89145787D01*
X127665000Y-85500000D02*
X127665000Y-85515000D01*
X137045787Y-89145787D02*
X137685787Y-89145787D01*
X133665000Y-85765000D02*
X137045787Y-89145787D01*
X133665000Y-85500000D02*
X133665000Y-85765000D01*
X139720000Y-85500000D02*
X143365787Y-89145787D01*
X143365787Y-89145787D02*
X143685787Y-89145787D01*
X139665000Y-85500000D02*
X139720000Y-85500000D01*
X145665000Y-85515000D02*
X149295787Y-89145787D01*
X149295787Y-89145787D02*
X149685787Y-89145787D01*
X145665000Y-85500000D02*
X145665000Y-85515000D01*
X151665000Y-85515000D02*
X155295787Y-89145787D01*
X151665000Y-85500000D02*
X151665000Y-85515000D01*
X155295787Y-89145787D02*
X155685787Y-89145787D01*
X161310787Y-89145787D02*
X161685787Y-89145787D01*
X157665000Y-85500000D02*
X161310787Y-89145787D01*
X163665000Y-88580787D02*
X163000000Y-89245787D01*
X163665000Y-85500000D02*
X163665000Y-88580787D01*
X169665000Y-87147792D02*
X167667005Y-89145787D01*
X169665000Y-85500000D02*
X169665000Y-87147792D01*
X173667005Y-89145787D02*
X167667005Y-89145787D01*
X175665000Y-87147792D02*
X173667005Y-89145787D01*
X175665000Y-85500000D02*
X175665000Y-87147792D01*
X163000000Y-89245787D02*
X162900000Y-89145787D01*
X163000000Y-91600000D02*
X163000000Y-89245787D01*
D15*
%TO.N,Net-(J1-BULB_OILSERVICE)*%
X142500000Y-78500000D02*
X142500000Y-76700000D01*
X141100000Y-79900000D02*
X142500000Y-78500000D01*
X126500000Y-79900000D02*
X141100000Y-79900000D01*
X122900000Y-89500000D02*
X122900000Y-83500000D01*
X122900000Y-83500000D02*
X126500000Y-79900000D01*
X125000000Y-91600000D02*
X122900000Y-89500000D01*
X135060000Y-91600000D02*
X125000000Y-91600000D01*
D14*
%TO.N,Net-(D1-A)*%
X137685787Y-89145787D02*
X143685787Y-89145787D01*
X143685787Y-89145787D02*
X149685787Y-89145787D01*
X149685787Y-89145787D02*
X155685787Y-89145787D01*
X155685787Y-89145787D02*
X161685787Y-89145787D01*
X163000000Y-91600000D02*
X163000000Y-90460000D01*
X161685787Y-89145787D02*
X164040000Y-89145787D01*
X167667005Y-89145787D02*
X164040000Y-89145787D01*
%TD*%
%TA.AperFunction,Conductor*%
%TO.N,Net-(D1-A)*%
G36*
X128309003Y-84872540D02*
G01*
X128309608Y-84873194D01*
X128529127Y-85129549D01*
X128530354Y-85131277D01*
X128656582Y-85348320D01*
X128657094Y-85349305D01*
X128750106Y-85551134D01*
X128750114Y-85551149D01*
X128877149Y-85769582D01*
X129098532Y-86028112D01*
X129101310Y-86036625D01*
X129097918Y-86043995D01*
X128194043Y-86947870D01*
X128185770Y-86951297D01*
X128178105Y-86948437D01*
X128027449Y-86817813D01*
X127921523Y-86725971D01*
X127921521Y-86725969D01*
X127921519Y-86725968D01*
X127706612Y-86595020D01*
X127706601Y-86595014D01*
X127508791Y-86497179D01*
X127507890Y-86496683D01*
X127294257Y-86366511D01*
X127292680Y-86365360D01*
X127239294Y-86319072D01*
X127038083Y-86144615D01*
X127034079Y-86136607D01*
X127036909Y-86128111D01*
X127037448Y-86127531D01*
X127664293Y-85499293D01*
X128292458Y-84872521D01*
X128300734Y-84869104D01*
X128309003Y-84872540D01*
G37*
%TD.AperFunction*%
%TD*%
%TA.AperFunction,Conductor*%
%TO.N,Net-(D1-A)*%
G36*
X134494040Y-85160304D02*
G01*
X134500366Y-85166643D01*
X134500588Y-85167225D01*
X134586903Y-85412488D01*
X134587191Y-85413431D01*
X134637378Y-85606703D01*
X134637385Y-85606725D01*
X134688326Y-85769863D01*
X134688328Y-85769868D01*
X134780806Y-85935449D01*
X134948305Y-86127961D01*
X134948547Y-86128239D01*
X134951392Y-86136730D01*
X134947993Y-86144192D01*
X134044589Y-87047596D01*
X134036316Y-87051023D01*
X134028204Y-87047754D01*
X133792760Y-86821207D01*
X133612236Y-86662647D01*
X133452950Y-86529550D01*
X133452731Y-86529363D01*
X133272518Y-86371077D01*
X133272127Y-86370717D01*
X133037189Y-86144656D01*
X133033603Y-86136450D01*
X133036870Y-86128113D01*
X133036947Y-86128034D01*
X133662642Y-85500947D01*
X133666453Y-85498400D01*
X134485087Y-85160295D01*
X134494040Y-85160304D01*
G37*
%TD.AperFunction*%
%TD*%
%TA.AperFunction,Conductor*%
%TO.N,Net-(D1-A)*%
G36*
X140309129Y-84872414D02*
G01*
X140309625Y-84872943D01*
X140531071Y-85124251D01*
X140532115Y-85125630D01*
X140666825Y-85333985D01*
X140667294Y-85334776D01*
X140770907Y-85526573D01*
X140770920Y-85526596D01*
X140906342Y-85736051D01*
X140906351Y-85736063D01*
X141129336Y-85989119D01*
X141132235Y-85997591D01*
X141128831Y-86005126D01*
X140225533Y-86908424D01*
X140217260Y-86911851D01*
X140209088Y-86908524D01*
X140125006Y-86826466D01*
X140026206Y-86730042D01*
X139880604Y-86606102D01*
X139804935Y-86557802D01*
X139740907Y-86516932D01*
X139740905Y-86516931D01*
X139740900Y-86516928D01*
X139567444Y-86434674D01*
X139567433Y-86434669D01*
X139567428Y-86434667D01*
X139331334Y-86335984D01*
X139325022Y-86329632D01*
X139325031Y-86320724D01*
X139663400Y-85501453D01*
X139665947Y-85497642D01*
X140292585Y-84872394D01*
X140300860Y-84868978D01*
X140309129Y-84872414D01*
G37*
%TD.AperFunction*%
%TD*%
%TA.AperFunction,Conductor*%
%TO.N,Net-(D1-A)*%
G36*
X146309003Y-84872540D02*
G01*
X146309608Y-84873194D01*
X146529127Y-85129549D01*
X146530354Y-85131277D01*
X146656582Y-85348320D01*
X146657094Y-85349305D01*
X146750106Y-85551134D01*
X146750114Y-85551149D01*
X146877149Y-85769582D01*
X147098532Y-86028112D01*
X147101310Y-86036625D01*
X147097918Y-86043995D01*
X146194043Y-86947870D01*
X146185770Y-86951297D01*
X146178105Y-86948437D01*
X146027449Y-86817813D01*
X145921523Y-86725971D01*
X145921521Y-86725969D01*
X145921519Y-86725968D01*
X145706612Y-86595020D01*
X145706601Y-86595014D01*
X145508791Y-86497179D01*
X145507890Y-86496683D01*
X145294257Y-86366511D01*
X145292680Y-86365360D01*
X145239294Y-86319072D01*
X145038083Y-86144615D01*
X145034079Y-86136607D01*
X145036909Y-86128111D01*
X145037448Y-86127531D01*
X145664293Y-85499293D01*
X146292458Y-84872521D01*
X146300734Y-84869104D01*
X146309003Y-84872540D01*
G37*
%TD.AperFunction*%
%TD*%
%TA.AperFunction,Conductor*%
%TO.N,Net-(D1-A)*%
G36*
X152309003Y-84872540D02*
G01*
X152309608Y-84873194D01*
X152529127Y-85129549D01*
X152530354Y-85131277D01*
X152656582Y-85348320D01*
X152657094Y-85349305D01*
X152750106Y-85551134D01*
X152750114Y-85551149D01*
X152877149Y-85769582D01*
X153098532Y-86028112D01*
X153101310Y-86036625D01*
X153097918Y-86043995D01*
X152194043Y-86947870D01*
X152185770Y-86951297D01*
X152178105Y-86948437D01*
X152027449Y-86817813D01*
X151921523Y-86725971D01*
X151921521Y-86725969D01*
X151921519Y-86725968D01*
X151706612Y-86595020D01*
X151706601Y-86595014D01*
X151508791Y-86497179D01*
X151507890Y-86496683D01*
X151294257Y-86366511D01*
X151292680Y-86365360D01*
X151239294Y-86319072D01*
X151038083Y-86144615D01*
X151034079Y-86136607D01*
X151036909Y-86128111D01*
X151037448Y-86127531D01*
X151664293Y-85499293D01*
X152292458Y-84872521D01*
X152300734Y-84869104D01*
X152309003Y-84872540D01*
G37*
%TD.AperFunction*%
%TD*%
%TA.AperFunction,Conductor*%
%TO.N,Net-(D1-A)*%
G36*
X158309032Y-84872512D02*
G01*
X158309613Y-84873138D01*
X158530107Y-85128977D01*
X158531295Y-85130626D01*
X158659764Y-85346239D01*
X158660268Y-85347181D01*
X158755923Y-85547231D01*
X158755927Y-85547239D01*
X158885192Y-85764185D01*
X159107475Y-86022101D01*
X159110280Y-86030605D01*
X159106885Y-86038012D01*
X158203012Y-86941885D01*
X158194739Y-86945312D01*
X158187101Y-86942475D01*
X157929185Y-86720192D01*
X157712239Y-86590927D01*
X157712231Y-86590923D01*
X157512181Y-86495268D01*
X157511239Y-86494764D01*
X157295626Y-86366295D01*
X157293977Y-86365107D01*
X157038138Y-86144613D01*
X157034108Y-86136616D01*
X157036913Y-86128112D01*
X157037494Y-86127486D01*
X157126770Y-86038012D01*
X157664293Y-85499293D01*
X158292486Y-84872493D01*
X158300763Y-84869076D01*
X158309032Y-84872512D01*
G37*
%TD.AperFunction*%
%TD*%
%TA.AperFunction,Conductor*%
%TO.N,Net-(D1-A)*%
G36*
X164552413Y-85499986D02*
G01*
X164560682Y-85503422D01*
X164564100Y-85511699D01*
X164564068Y-85512552D01*
X164539075Y-85849372D01*
X164538749Y-85851378D01*
X164477132Y-86094671D01*
X164476823Y-86095694D01*
X164403002Y-86304798D01*
X164341000Y-86549608D01*
X164315804Y-86889166D01*
X164311774Y-86897163D01*
X164304136Y-86900000D01*
X163025864Y-86900000D01*
X163017591Y-86896573D01*
X163014196Y-86889166D01*
X162989000Y-86549610D01*
X162927000Y-86304805D01*
X162853172Y-86095683D01*
X162852870Y-86094682D01*
X162791249Y-85851372D01*
X162790924Y-85849378D01*
X162765931Y-85512551D01*
X162768736Y-85504048D01*
X162776733Y-85500018D01*
X162777585Y-85499986D01*
X163665000Y-85499000D01*
X164552413Y-85499986D01*
G37*
%TD.AperFunction*%
%TD*%
%TA.AperFunction,Conductor*%
%TO.N,Net-(D1-A)*%
G36*
X170552413Y-85499986D02*
G01*
X170560682Y-85503422D01*
X170564100Y-85511699D01*
X170564068Y-85512552D01*
X170539075Y-85849372D01*
X170538749Y-85851378D01*
X170477132Y-86094671D01*
X170476823Y-86095694D01*
X170403002Y-86304798D01*
X170341000Y-86549608D01*
X170315804Y-86889166D01*
X170311774Y-86897163D01*
X170304136Y-86900000D01*
X169025864Y-86900000D01*
X169017591Y-86896573D01*
X169014196Y-86889166D01*
X168989000Y-86549610D01*
X168927000Y-86304805D01*
X168853172Y-86095683D01*
X168852870Y-86094682D01*
X168791249Y-85851372D01*
X168790924Y-85849378D01*
X168765931Y-85512551D01*
X168768736Y-85504048D01*
X168776733Y-85500018D01*
X168777585Y-85499986D01*
X169665000Y-85499000D01*
X170552413Y-85499986D01*
G37*
%TD.AperFunction*%
%TD*%
%TA.AperFunction,Conductor*%
%TO.N,Net-(D1-A)*%
G36*
X176552413Y-85499986D02*
G01*
X176560682Y-85503422D01*
X176564100Y-85511699D01*
X176564068Y-85512552D01*
X176539075Y-85849372D01*
X176538749Y-85851378D01*
X176477132Y-86094671D01*
X176476823Y-86095694D01*
X176403002Y-86304798D01*
X176341000Y-86549608D01*
X176315804Y-86889166D01*
X176311774Y-86897163D01*
X176304136Y-86900000D01*
X175025864Y-86900000D01*
X175017591Y-86896573D01*
X175014196Y-86889166D01*
X174989000Y-86549610D01*
X174927000Y-86304805D01*
X174853172Y-86095683D01*
X174852870Y-86094682D01*
X174791249Y-85851372D01*
X174790924Y-85849378D01*
X174765931Y-85512551D01*
X174768736Y-85504048D01*
X174776733Y-85500018D01*
X174777585Y-85499986D01*
X175665000Y-85499000D01*
X176552413Y-85499986D01*
G37*
%TD.AperFunction*%
%TD*%
%TA.AperFunction,Conductor*%
%TO.N,Net-(D1-A)*%
G36*
X163646870Y-90103427D02*
G01*
X163650293Y-90111399D01*
X163657351Y-90386043D01*
X163657353Y-90386071D01*
X163683009Y-90588725D01*
X163732383Y-90760110D01*
X163810849Y-90952222D01*
X163919247Y-91206453D01*
X163919339Y-91215407D01*
X163913073Y-91221805D01*
X163912971Y-91221847D01*
X163004487Y-91599136D01*
X162995533Y-91599145D01*
X162995513Y-91599136D01*
X162087028Y-91221847D01*
X162080701Y-91215509D01*
X162080710Y-91206555D01*
X162080752Y-91206453D01*
X162189128Y-90952271D01*
X162267616Y-90760107D01*
X162316988Y-90588733D01*
X162342647Y-90386060D01*
X162349707Y-90111399D01*
X162353345Y-90103217D01*
X162361403Y-90100000D01*
X163638597Y-90100000D01*
X163646870Y-90103427D01*
G37*
%TD.AperFunction*%
%TD*%
%TA.AperFunction,Conductor*%
%TO.N,Net-(J1-BULB_OILSERVICE)*%
G36*
X143320296Y-77039764D02*
G01*
X143326621Y-77046102D01*
X143326612Y-77055056D01*
X143326446Y-77055437D01*
X143215830Y-77297111D01*
X143215602Y-77297581D01*
X143123357Y-77477437D01*
X143123341Y-77477470D01*
X143055715Y-77636640D01*
X143055712Y-77636649D01*
X143014151Y-77826850D01*
X143014149Y-77826864D01*
X143000575Y-78088905D01*
X142996725Y-78096990D01*
X142988891Y-78100000D01*
X142011109Y-78100000D01*
X142002836Y-78096573D01*
X141999425Y-78088905D01*
X141985849Y-77826864D01*
X141985848Y-77826859D01*
X141985848Y-77826853D01*
X141944284Y-77636644D01*
X141918979Y-77577084D01*
X141876657Y-77477470D01*
X141876652Y-77477461D01*
X141876648Y-77477450D01*
X141784386Y-77297562D01*
X141784176Y-77297130D01*
X141673553Y-77055437D01*
X141673226Y-77046488D01*
X141679323Y-77039929D01*
X141679654Y-77039784D01*
X142495512Y-76700863D01*
X142504465Y-76700855D01*
X143320296Y-77039764D01*
G37*
%TD.AperFunction*%
%TD*%
%TA.AperFunction,Conductor*%
%TO.N,Net-(J1-BULB_OILSERVICE)*%
G36*
X134681794Y-90686953D02*
G01*
X134682080Y-90687589D01*
X135059136Y-91595513D01*
X135059145Y-91604467D01*
X135059136Y-91604487D01*
X134682080Y-92512410D01*
X134675742Y-92518737D01*
X134666788Y-92518728D01*
X134666152Y-92518442D01*
X134407008Y-92392240D01*
X134406004Y-92391688D01*
X134217624Y-92275891D01*
X134052437Y-92183352D01*
X133852647Y-92122131D01*
X133570818Y-92100818D01*
X133562827Y-92096777D01*
X133560000Y-92089151D01*
X133560000Y-91110848D01*
X133563427Y-91102575D01*
X133570815Y-91099182D01*
X133852649Y-91077867D01*
X134052435Y-91016647D01*
X134052437Y-91016646D01*
X134217624Y-90924107D01*
X134253658Y-90901956D01*
X134406014Y-90808304D01*
X134406997Y-90807763D01*
X134666152Y-90681556D01*
X134675091Y-90681016D01*
X134681794Y-90686953D01*
G37*
%TD.AperFunction*%
%TD*%
%TA.AperFunction,Conductor*%
%TO.N,Net-(D1-A)*%
G36*
X163647355Y-90463427D02*
G01*
X163650754Y-90470892D01*
X163663690Y-90657669D01*
X163673274Y-90691598D01*
X163702024Y-90793376D01*
X163702029Y-90793390D01*
X163760896Y-90905980D01*
X163760901Y-90905989D01*
X163760906Y-90905998D01*
X163812100Y-90993246D01*
X163835973Y-91033930D01*
X163836434Y-91034796D01*
X163918548Y-91206189D01*
X163919032Y-91215130D01*
X163913051Y-91221796D01*
X163912483Y-91222049D01*
X163004487Y-91599136D01*
X162995533Y-91599145D01*
X162995513Y-91599136D01*
X162087516Y-91222049D01*
X162081189Y-91215711D01*
X162081198Y-91206757D01*
X162081451Y-91206189D01*
X162163570Y-91034784D01*
X162164017Y-91033943D01*
X162239092Y-90905998D01*
X162297972Y-90793385D01*
X162336309Y-90657669D01*
X162349246Y-90470892D01*
X162353236Y-90462875D01*
X162360918Y-90460000D01*
X163639082Y-90460000D01*
X163647355Y-90463427D01*
G37*
%TD.AperFunction*%
%TD*%
D16*
X125125000Y-85500000D03*
X127665000Y-85500000D03*
X131125000Y-85500000D03*
X133665000Y-85500000D03*
X149125000Y-85500000D03*
X151665000Y-85500000D03*
X137125000Y-85500000D03*
X139665000Y-85500000D03*
X173125000Y-85500000D03*
X175665000Y-85500000D03*
X143125000Y-85500000D03*
X145665000Y-85500000D03*
X167125000Y-85500000D03*
X169665000Y-85500000D03*
X155125000Y-85500000D03*
X157665000Y-85500000D03*
X161125000Y-85500000D03*
X163665000Y-85500000D03*
X135060000Y-91600000D03*
X137600000Y-91600000D03*
X140140000Y-91600000D03*
X142680000Y-91600000D03*
X145220000Y-91600000D03*
X147760000Y-91600000D03*
X150300000Y-91600000D03*
X152840000Y-91600000D03*
X155380000Y-91600000D03*
X157920000Y-91600000D03*
X160460000Y-91600000D03*
X163000000Y-91600000D03*
X165540000Y-91600000D03*
X158500000Y-76700000D03*
X158500000Y-74160000D03*
X142500000Y-74160000D03*
X142500000Y-76700000D03*
X150300000Y-78000000D03*
M02*
