G04 #@! TF.GenerationSoftware,KiCad,Pcbnew,8.0.1*
G04 #@! TF.CreationDate,2024-06-04T21:42:42+02:00*
G04 #@! TF.ProjectId,BMW E30 VFL SI Indicator,424d5720-4533-4302-9056-464c20534920,rev?*
G04 #@! TF.SameCoordinates,Original*
G04 #@! TF.FileFunction,Copper,L2,Bot*
G04 #@! TF.FilePolarity,Positive*
%FSLAX46Y46*%
G04 Gerber Fmt 4.6, Leading zero omitted, Abs format (unit mm)*
G04 Created by KiCad (PCBNEW 8.0.1) date 2024-06-04 21:42:42*
%MOMM*%
%LPD*%
G01*
G04 APERTURE LIST*
G04 #@! TA.AperFunction,ComponentPad*
%ADD10R,2.000000X2.000000*%
G04 #@! TD*
G04 #@! TA.AperFunction,ComponentPad*
%ADD11C,2.000000*%
G04 #@! TD*
G04 #@! TA.AperFunction,ComponentPad*
%ADD12R,1.800000X1.800000*%
G04 #@! TD*
G04 #@! TA.AperFunction,ComponentPad*
%ADD13C,1.800000*%
G04 #@! TD*
G04 #@! TA.AperFunction,Conductor*
%ADD14C,0.600000*%
G04 #@! TD*
G04 #@! TA.AperFunction,Conductor*
%ADD15C,0.300000*%
G04 #@! TD*
G04 #@! TA.AperFunction,Conductor*
%ADD16C,1.000000*%
G04 #@! TD*
G04 APERTURE END LIST*
D10*
X165540000Y-91600000D03*
D11*
X163000000Y-91600000D03*
X160460000Y-91600000D03*
X157920000Y-91600000D03*
X155380000Y-91600000D03*
X152840000Y-91600000D03*
X150300000Y-91600000D03*
X147760000Y-91600000D03*
X145220000Y-91600000D03*
X142680000Y-91600000D03*
X140140000Y-91600000D03*
X137600000Y-91600000D03*
X135060000Y-91600000D03*
D12*
X151575000Y-86000000D03*
D13*
X149035000Y-86000000D03*
D12*
X127575000Y-86000000D03*
D13*
X125035000Y-86000000D03*
D12*
X175575000Y-86000000D03*
D13*
X173035000Y-86000000D03*
D12*
X157575000Y-86000000D03*
D13*
X155035000Y-86000000D03*
D12*
X145575000Y-86000000D03*
D13*
X143035000Y-86000000D03*
D12*
X139575000Y-86000000D03*
D13*
X137035000Y-86000000D03*
D12*
X133575000Y-86000000D03*
D13*
X131035000Y-86000000D03*
X158500000Y-76700000D03*
X158500000Y-74160000D03*
X142500000Y-74160000D03*
X142500000Y-76700000D03*
D12*
X163575000Y-86000000D03*
D13*
X161035000Y-86000000D03*
D12*
X169575000Y-86000000D03*
D13*
X167035000Y-86000000D03*
D14*
X169535000Y-89500000D02*
X173035000Y-86000000D01*
X160460000Y-90340000D02*
X161300000Y-89500000D01*
X161300000Y-89500000D02*
X169535000Y-89500000D01*
X160460000Y-91600000D02*
X160460000Y-90340000D01*
X164935000Y-88100000D02*
X167035000Y-86000000D01*
X160800000Y-88100000D02*
X164935000Y-88100000D01*
X157920000Y-90980000D02*
X160800000Y-88100000D01*
D15*
X157920000Y-91600000D02*
X157920000Y-90980000D01*
D14*
X157200000Y-88100000D02*
X158935000Y-88100000D01*
X158935000Y-88100000D02*
X161035000Y-86000000D01*
X155380000Y-89920000D02*
X157200000Y-88100000D01*
X155380000Y-91600000D02*
X155380000Y-89920000D01*
X155035000Y-87765000D02*
X155035000Y-86000000D01*
X152840000Y-89960000D02*
X155035000Y-87765000D01*
X152840000Y-91600000D02*
X152840000Y-89960000D01*
X150300000Y-91600000D02*
X150300000Y-89900000D01*
X149035000Y-88635000D02*
X149035000Y-86000000D01*
X150300000Y-89900000D02*
X149035000Y-88635000D01*
D15*
X143035000Y-86535000D02*
X143035000Y-86000000D01*
X147760000Y-91600000D02*
X147300000Y-91140000D01*
D14*
X147300000Y-91140000D02*
X147300000Y-90800000D01*
X147300000Y-90800000D02*
X143035000Y-86535000D01*
X138100000Y-87700000D02*
X137500000Y-87100000D01*
D15*
X137500000Y-86465000D02*
X137035000Y-86000000D01*
D14*
X137500000Y-87100000D02*
X137500000Y-86465000D01*
X145220000Y-90820000D02*
X142100000Y-87700000D01*
X142100000Y-87700000D02*
X138100000Y-87700000D01*
X145220000Y-91600000D02*
X145220000Y-90820000D01*
X132900000Y-88800000D02*
X131300000Y-87200000D01*
X142680000Y-91600000D02*
X142680000Y-90680000D01*
D15*
X131300000Y-86265000D02*
X131035000Y-86000000D01*
D14*
X140800000Y-88800000D02*
X132900000Y-88800000D01*
X142680000Y-90680000D02*
X140800000Y-88800000D01*
X131300000Y-87200000D02*
X131300000Y-86265000D01*
X140140000Y-91600000D02*
X140140000Y-90440000D01*
X125035000Y-87635000D02*
X125035000Y-86000000D01*
X127300000Y-89900000D02*
X125035000Y-87635000D01*
X140140000Y-90440000D02*
X139600000Y-89900000D01*
X139600000Y-89900000D02*
X127300000Y-89900000D01*
D16*
X162000000Y-75300000D02*
X160860000Y-74160000D01*
X174800000Y-91600000D02*
X177700000Y-88700000D01*
X142500000Y-74160000D02*
X158500000Y-74160000D01*
X160860000Y-74160000D02*
X158500000Y-74160000D01*
X175900000Y-80200000D02*
X164400000Y-80200000D01*
X177700000Y-88700000D02*
X177700000Y-82000000D01*
X162000000Y-77800000D02*
X162000000Y-75300000D01*
X165540000Y-91600000D02*
X174800000Y-91600000D01*
X177700000Y-82000000D02*
X175900000Y-80200000D01*
X164400000Y-80200000D02*
X162000000Y-77800000D01*
X147300000Y-83100000D02*
X145500000Y-81300000D01*
X152700000Y-83100000D02*
X147300000Y-83100000D01*
X124200000Y-81300000D02*
X122800000Y-82700000D01*
X137600000Y-93000000D02*
X137600000Y-91600000D01*
X122800000Y-89900000D02*
X127000000Y-94100000D01*
X122800000Y-82700000D02*
X122800000Y-89900000D01*
X158260000Y-77540000D02*
X152700000Y-83100000D01*
X136500000Y-94100000D02*
X137600000Y-93000000D01*
X145500000Y-81300000D02*
X124200000Y-81300000D01*
X127000000Y-94100000D02*
X136500000Y-94100000D01*
G04 #@! TA.AperFunction,Conductor*
G36*
X172215485Y-85660531D02*
G01*
X173031214Y-85997437D01*
X173037553Y-86003763D01*
X173037562Y-86003785D01*
X173374467Y-86819513D01*
X173374458Y-86828467D01*
X173368119Y-86834793D01*
X173366993Y-86835192D01*
X173094238Y-86916438D01*
X173092068Y-86916866D01*
X172868961Y-86939281D01*
X172868813Y-86939295D01*
X172675492Y-86956250D01*
X172675486Y-86956252D01*
X172481936Y-87024796D01*
X172481935Y-87024796D01*
X172481934Y-87024797D01*
X172265348Y-87195640D01*
X172256730Y-87198073D01*
X172249829Y-87194727D01*
X171840272Y-86785170D01*
X171836845Y-86776897D01*
X171839358Y-86769653D01*
X172010202Y-86553063D01*
X172078747Y-86359513D01*
X172095708Y-86166116D01*
X172118132Y-85942920D01*
X172118557Y-85940769D01*
X172199808Y-85668004D01*
X172205453Y-85661055D01*
X172214360Y-85660133D01*
X172215485Y-85660531D01*
G37*
G04 #@! TD.AperFunction*
G04 #@! TA.AperFunction,Conductor*
G36*
X160425848Y-89966478D02*
G01*
X160426448Y-89967037D01*
X160835645Y-90376234D01*
X160839072Y-90384507D01*
X160837642Y-90390112D01*
X160744781Y-90560251D01*
X160744782Y-90560252D01*
X160744782Y-90560253D01*
X160779218Y-90617952D01*
X160825745Y-90695911D01*
X160825746Y-90695911D01*
X160825747Y-90695913D01*
X161009274Y-90826028D01*
X161009617Y-90826281D01*
X161219180Y-90986628D01*
X161221605Y-90989139D01*
X161375370Y-91205351D01*
X161377372Y-91214079D01*
X161372616Y-91221667D01*
X161370317Y-91222940D01*
X160466525Y-91597708D01*
X160457570Y-91597711D01*
X160453762Y-91595165D01*
X159760590Y-90900605D01*
X159757171Y-90892328D01*
X159760039Y-90884667D01*
X159810763Y-90826281D01*
X159938807Y-90678893D01*
X160045254Y-90505473D01*
X160124996Y-90346010D01*
X160125470Y-90345158D01*
X160231155Y-90172981D01*
X160232294Y-90171430D01*
X160409343Y-89967637D01*
X160417355Y-89963639D01*
X160425848Y-89966478D01*
G37*
G04 #@! TD.AperFunction*
G04 #@! TA.AperFunction,Conductor*
G36*
X166215485Y-85660531D02*
G01*
X167031214Y-85997437D01*
X167037553Y-86003763D01*
X167037562Y-86003785D01*
X167374467Y-86819513D01*
X167374458Y-86828467D01*
X167368119Y-86834793D01*
X167366993Y-86835192D01*
X167094238Y-86916438D01*
X167092068Y-86916866D01*
X166868961Y-86939281D01*
X166868813Y-86939295D01*
X166675492Y-86956250D01*
X166675486Y-86956252D01*
X166481936Y-87024796D01*
X166481935Y-87024796D01*
X166481934Y-87024797D01*
X166265348Y-87195640D01*
X166256730Y-87198073D01*
X166249829Y-87194727D01*
X165840272Y-86785170D01*
X165836845Y-86776897D01*
X165839358Y-86769653D01*
X166010202Y-86553063D01*
X166078747Y-86359513D01*
X166095708Y-86166116D01*
X166118132Y-85942920D01*
X166118557Y-85940769D01*
X166199808Y-85668004D01*
X166205453Y-85661055D01*
X166214360Y-85660133D01*
X166215485Y-85660531D01*
G37*
G04 #@! TD.AperFunction*
G04 #@! TA.AperFunction,Conductor*
G36*
X158386025Y-90105011D02*
G01*
X158795929Y-90514915D01*
X158799356Y-90523188D01*
X158797460Y-90529574D01*
X158667574Y-90728977D01*
X158678271Y-90910688D01*
X158678271Y-90910689D01*
X158768167Y-91096416D01*
X158768236Y-91096559D01*
X158870314Y-91314978D01*
X158871243Y-91317939D01*
X158917634Y-91586316D01*
X158915666Y-91595052D01*
X158908098Y-91599838D01*
X158906113Y-91600009D01*
X157924150Y-91600703D01*
X157915875Y-91597282D01*
X157915861Y-91597268D01*
X157221821Y-90901839D01*
X157218402Y-90893562D01*
X157221837Y-90885293D01*
X157222481Y-90884697D01*
X157476978Y-90667163D01*
X157478710Y-90665939D01*
X157694517Y-90541292D01*
X157695478Y-90540797D01*
X157858442Y-90466484D01*
X157896266Y-90449237D01*
X157896269Y-90449235D01*
X157896283Y-90449229D01*
X158113481Y-90323779D01*
X158370152Y-90104389D01*
X158378665Y-90101620D01*
X158386025Y-90105011D01*
G37*
G04 #@! TD.AperFunction*
G04 #@! TA.AperFunction,Conductor*
G36*
X160215485Y-85660531D02*
G01*
X161031214Y-85997437D01*
X161037553Y-86003763D01*
X161037562Y-86003785D01*
X161374467Y-86819513D01*
X161374458Y-86828467D01*
X161368119Y-86834793D01*
X161366993Y-86835192D01*
X161094238Y-86916438D01*
X161092068Y-86916866D01*
X160868961Y-86939281D01*
X160868813Y-86939295D01*
X160675492Y-86956250D01*
X160675486Y-86956252D01*
X160481936Y-87024796D01*
X160481935Y-87024796D01*
X160481934Y-87024797D01*
X160265348Y-87195640D01*
X160256730Y-87198073D01*
X160249829Y-87194727D01*
X159840272Y-86785170D01*
X159836845Y-86776897D01*
X159839358Y-86769653D01*
X160010202Y-86553063D01*
X160078747Y-86359513D01*
X160095708Y-86166116D01*
X160118132Y-85942920D01*
X160118557Y-85940769D01*
X160199808Y-85668004D01*
X160205453Y-85661055D01*
X160214360Y-85660133D01*
X160215485Y-85660531D01*
G37*
G04 #@! TD.AperFunction*
G04 #@! TA.AperFunction,Conductor*
G36*
X155678052Y-90103427D02*
G01*
X155681373Y-90110128D01*
X155721376Y-90405151D01*
X155829084Y-90599457D01*
X155829087Y-90599461D01*
X155978357Y-90752781D01*
X155978614Y-90753054D01*
X156028852Y-90808164D01*
X156144078Y-90934564D01*
X156145622Y-90936699D01*
X156297399Y-91205825D01*
X156298478Y-91214714D01*
X156292955Y-91221763D01*
X156291695Y-91222377D01*
X155384487Y-91599136D01*
X155375533Y-91599145D01*
X155375513Y-91599136D01*
X154468304Y-91222377D01*
X154461977Y-91216039D01*
X154461986Y-91207085D01*
X154462593Y-91205837D01*
X154614377Y-90936694D01*
X154615916Y-90934567D01*
X154781439Y-90752993D01*
X154781573Y-90752851D01*
X154930913Y-90599460D01*
X155038622Y-90405152D01*
X155078627Y-90110128D01*
X155083135Y-90102390D01*
X155090221Y-90100000D01*
X155669779Y-90100000D01*
X155678052Y-90103427D01*
G37*
G04 #@! TD.AperFunction*
G04 #@! TA.AperFunction,Conductor*
G36*
X155854522Y-86339442D02*
G01*
X155860848Y-86345781D01*
X155860839Y-86354735D01*
X155860325Y-86355814D01*
X155724909Y-86606128D01*
X155723677Y-86607966D01*
X155581739Y-86781612D01*
X155581644Y-86781726D01*
X155456956Y-86930388D01*
X155368565Y-87115715D01*
X155336219Y-87389672D01*
X155331846Y-87397486D01*
X155324600Y-87400000D01*
X154745400Y-87400000D01*
X154737127Y-87396573D01*
X154733781Y-87389672D01*
X154701433Y-87115715D01*
X154613042Y-86930388D01*
X154613041Y-86930387D01*
X154613041Y-86930386D01*
X154488283Y-86781641D01*
X154346320Y-86607965D01*
X154345089Y-86606128D01*
X154209673Y-86355812D01*
X154208752Y-86346907D01*
X154214398Y-86339956D01*
X154215462Y-86339448D01*
X155030512Y-86000863D01*
X155039465Y-86000855D01*
X155854522Y-86339442D01*
G37*
G04 #@! TD.AperFunction*
G04 #@! TA.AperFunction,Conductor*
G36*
X153138052Y-90103427D02*
G01*
X153141373Y-90110128D01*
X153181376Y-90405151D01*
X153289084Y-90599457D01*
X153289087Y-90599461D01*
X153438357Y-90752781D01*
X153438614Y-90753054D01*
X153488852Y-90808164D01*
X153604078Y-90934564D01*
X153605622Y-90936699D01*
X153757399Y-91205825D01*
X153758478Y-91214714D01*
X153752955Y-91221763D01*
X153751695Y-91222377D01*
X152844487Y-91599136D01*
X152835533Y-91599145D01*
X152835513Y-91599136D01*
X151928304Y-91222377D01*
X151921977Y-91216039D01*
X151921986Y-91207085D01*
X151922593Y-91205837D01*
X152074377Y-90936694D01*
X152075916Y-90934567D01*
X152241439Y-90752993D01*
X152241573Y-90752851D01*
X152390913Y-90599460D01*
X152498622Y-90405152D01*
X152538627Y-90110128D01*
X152543135Y-90102390D01*
X152550221Y-90100000D01*
X153129779Y-90100000D01*
X153138052Y-90103427D01*
G37*
G04 #@! TD.AperFunction*
G04 #@! TA.AperFunction,Conductor*
G36*
X150598052Y-90103427D02*
G01*
X150601373Y-90110128D01*
X150641376Y-90405151D01*
X150749084Y-90599457D01*
X150749087Y-90599461D01*
X150898357Y-90752781D01*
X150898614Y-90753054D01*
X150948852Y-90808164D01*
X151064078Y-90934564D01*
X151065622Y-90936699D01*
X151217399Y-91205825D01*
X151218478Y-91214714D01*
X151212955Y-91221763D01*
X151211695Y-91222377D01*
X150304487Y-91599136D01*
X150295533Y-91599145D01*
X150295513Y-91599136D01*
X149388304Y-91222377D01*
X149381977Y-91216039D01*
X149381986Y-91207085D01*
X149382593Y-91205837D01*
X149534377Y-90936694D01*
X149535916Y-90934567D01*
X149701439Y-90752993D01*
X149701573Y-90752851D01*
X149850913Y-90599460D01*
X149958622Y-90405152D01*
X149998627Y-90110128D01*
X150003135Y-90102390D01*
X150010221Y-90100000D01*
X150589779Y-90100000D01*
X150598052Y-90103427D01*
G37*
G04 #@! TD.AperFunction*
G04 #@! TA.AperFunction,Conductor*
G36*
X149854522Y-86339442D02*
G01*
X149860848Y-86345781D01*
X149860839Y-86354735D01*
X149860325Y-86355814D01*
X149724909Y-86606128D01*
X149723677Y-86607966D01*
X149581739Y-86781612D01*
X149581644Y-86781726D01*
X149456956Y-86930388D01*
X149368565Y-87115715D01*
X149336219Y-87389672D01*
X149331846Y-87397486D01*
X149324600Y-87400000D01*
X148745400Y-87400000D01*
X148737127Y-87396573D01*
X148733781Y-87389672D01*
X148701433Y-87115715D01*
X148613042Y-86930388D01*
X148613041Y-86930387D01*
X148613041Y-86930386D01*
X148488283Y-86781641D01*
X148346320Y-86607965D01*
X148345089Y-86606128D01*
X148209673Y-86355812D01*
X148208752Y-86346907D01*
X148214398Y-86339956D01*
X148215462Y-86339448D01*
X149030512Y-86000863D01*
X149039465Y-86000855D01*
X149854522Y-86339442D01*
G37*
G04 #@! TD.AperFunction*
G04 #@! TA.AperFunction,Conductor*
G36*
X143921538Y-85999989D02*
G01*
X143929808Y-86003422D01*
X143933228Y-86011698D01*
X143933112Y-86013330D01*
X143898762Y-86255871D01*
X143898152Y-86258288D01*
X143824552Y-86457334D01*
X143765760Y-86627024D01*
X143765760Y-86627026D01*
X143765760Y-86627027D01*
X143766742Y-86644617D01*
X143775005Y-86792726D01*
X143775005Y-86792727D01*
X143775006Y-86792728D01*
X143815664Y-86851513D01*
X143899576Y-86972837D01*
X143901463Y-86981590D01*
X143898226Y-86987765D01*
X143488574Y-87397417D01*
X143480301Y-87400844D01*
X143472630Y-87397978D01*
X143233139Y-87190010D01*
X143233135Y-87190007D01*
X143032325Y-87066950D01*
X142847594Y-86974798D01*
X142846704Y-86974304D01*
X142647153Y-86852018D01*
X142645595Y-86850876D01*
X142408071Y-86644617D01*
X142404071Y-86636605D01*
X142406908Y-86628112D01*
X142407441Y-86627538D01*
X143030862Y-86002730D01*
X143039127Y-85999296D01*
X143921538Y-85999989D01*
G37*
G04 #@! TD.AperFunction*
G04 #@! TA.AperFunction,Conductor*
G36*
X147123523Y-90198208D02*
G01*
X147325998Y-90374851D01*
X147326008Y-90374858D01*
X147474248Y-90458550D01*
X147499308Y-90472698D01*
X147669997Y-90527138D01*
X147872418Y-90580635D01*
X147873303Y-90580909D01*
X148131063Y-90672013D01*
X148137720Y-90678000D01*
X148138194Y-90686942D01*
X148137977Y-90687510D01*
X147763697Y-91593468D01*
X147757370Y-91599806D01*
X147752875Y-91600701D01*
X146772943Y-91600009D01*
X146764672Y-91596576D01*
X146761251Y-91588301D01*
X146761310Y-91587141D01*
X146786247Y-91342379D01*
X146786527Y-91340768D01*
X146836232Y-91140674D01*
X146866071Y-90970528D01*
X146832212Y-90804331D01*
X146697081Y-90623399D01*
X146694877Y-90614721D01*
X146698181Y-90608128D01*
X147107559Y-90198750D01*
X147115831Y-90195324D01*
X147123523Y-90198208D01*
G37*
G04 #@! TD.AperFunction*
G04 #@! TA.AperFunction,Conductor*
G36*
X137921071Y-85999989D02*
G01*
X137929342Y-86003422D01*
X137932762Y-86011698D01*
X137932585Y-86013717D01*
X137889209Y-86260136D01*
X137888244Y-86263149D01*
X137792203Y-86464317D01*
X137792117Y-86464494D01*
X137706792Y-86635741D01*
X137706792Y-86635742D01*
X137694978Y-86803264D01*
X137768870Y-86917392D01*
X137813705Y-86986642D01*
X137815325Y-86995448D01*
X137812157Y-87001273D01*
X137402452Y-87410978D01*
X137394179Y-87414405D01*
X137386331Y-87411382D01*
X137162040Y-87208509D01*
X137162037Y-87208507D01*
X137162035Y-87208505D01*
X136979515Y-87078940D01*
X136979507Y-87078935D01*
X136979500Y-87078930D01*
X136854021Y-87001273D01*
X136813984Y-86976494D01*
X136813384Y-86976097D01*
X136631704Y-86847129D01*
X136630633Y-86846268D01*
X136407716Y-86644638D01*
X136403879Y-86636547D01*
X136406887Y-86628113D01*
X136407248Y-86627732D01*
X137030862Y-86002730D01*
X137039127Y-85999296D01*
X137921071Y-85999989D01*
G37*
G04 #@! TD.AperFunction*
G04 #@! TA.AperFunction,Conductor*
G36*
X144903333Y-90078324D02*
G01*
X145028006Y-90191733D01*
X145136758Y-90290659D01*
X145220654Y-90351415D01*
X145325511Y-90427350D01*
X145325520Y-90427356D01*
X145325526Y-90427360D01*
X145496384Y-90536171D01*
X145496939Y-90536549D01*
X145684903Y-90672667D01*
X145685898Y-90673475D01*
X145904685Y-90872497D01*
X145918042Y-90884647D01*
X145921856Y-90892749D01*
X145918824Y-90901175D01*
X145918450Y-90901567D01*
X145226237Y-91595165D01*
X145217968Y-91598600D01*
X145213475Y-91597708D01*
X144949528Y-91488259D01*
X144308083Y-91222277D01*
X144301754Y-91215942D01*
X144301757Y-91206987D01*
X144302258Y-91205933D01*
X144393804Y-91036171D01*
X144394468Y-91035090D01*
X144463490Y-90935492D01*
X144494681Y-90890486D01*
X144494689Y-90890473D01*
X144494695Y-90890465D01*
X144563761Y-90763942D01*
X144567177Y-90638121D01*
X144498615Y-90536346D01*
X144476200Y-90503072D01*
X144474420Y-90494296D01*
X144477629Y-90488264D01*
X144887188Y-90078705D01*
X144895460Y-90075279D01*
X144903333Y-90078324D01*
G37*
G04 #@! TD.AperFunction*
G04 #@! TA.AperFunction,Conductor*
G36*
X142480122Y-90055587D02*
G01*
X142693890Y-90262352D01*
X142857463Y-90408576D01*
X142923717Y-90465307D01*
X143001430Y-90531850D01*
X143001562Y-90531965D01*
X143102898Y-90622552D01*
X143164895Y-90677973D01*
X143165220Y-90678276D01*
X143331195Y-90838813D01*
X143378564Y-90884630D01*
X143382128Y-90892845D01*
X143378840Y-90901174D01*
X143378711Y-90901305D01*
X142686237Y-91595165D01*
X142677968Y-91598600D01*
X142673475Y-91597708D01*
X141768692Y-91222530D01*
X141762363Y-91216195D01*
X141762366Y-91207240D01*
X141763162Y-91205669D01*
X141871832Y-91025928D01*
X141873155Y-91024148D01*
X142006379Y-90876684D01*
X142111351Y-90750020D01*
X142140646Y-90622552D01*
X142052449Y-90479725D01*
X142051019Y-90470888D01*
X142054130Y-90465309D01*
X142463716Y-90055723D01*
X142471988Y-90052297D01*
X142480122Y-90055587D01*
G37*
G04 #@! TD.AperFunction*
G04 #@! TA.AperFunction,Conductor*
G36*
X131041523Y-86002291D02*
G01*
X131658593Y-86258197D01*
X131854148Y-86339296D01*
X131860477Y-86345630D01*
X131860473Y-86354585D01*
X131859786Y-86355974D01*
X131756266Y-86534421D01*
X131755184Y-86535980D01*
X131632980Y-86684615D01*
X131540499Y-86813334D01*
X131520788Y-86942194D01*
X131520789Y-86942196D01*
X131611232Y-87084098D01*
X131612789Y-87092916D01*
X131609639Y-87098659D01*
X131200472Y-87507826D01*
X131192199Y-87511253D01*
X131183926Y-87507826D01*
X131183749Y-87507645D01*
X130989069Y-87304348D01*
X130988667Y-87303906D01*
X130852533Y-87146377D01*
X130852324Y-87146129D01*
X130801649Y-87084098D01*
X130738204Y-87006434D01*
X130601756Y-86848541D01*
X130568041Y-86813334D01*
X130543278Y-86787475D01*
X130406512Y-86644654D01*
X130403266Y-86636311D01*
X130406680Y-86628301D01*
X131028764Y-86004834D01*
X131037031Y-86001399D01*
X131041523Y-86002291D01*
G37*
G04 #@! TD.AperFunction*
G04 #@! TA.AperFunction,Conductor*
G36*
X140119622Y-89996091D02*
G01*
X140119973Y-89996457D01*
X140306565Y-90199950D01*
X140307325Y-90200869D01*
X140429767Y-90365295D01*
X140430135Y-90365818D01*
X140528862Y-90514791D01*
X140651853Y-90679954D01*
X140651857Y-90679959D01*
X140651860Y-90679962D01*
X140839542Y-90884643D01*
X140842608Y-90893056D01*
X140839200Y-90900815D01*
X140146237Y-91595165D01*
X140137968Y-91598600D01*
X140133475Y-91597708D01*
X139229447Y-91222843D01*
X139223118Y-91216508D01*
X139223121Y-91207553D01*
X139224280Y-91205418D01*
X139364481Y-91000982D01*
X139366637Y-90998616D01*
X139554158Y-90842571D01*
X139554253Y-90842493D01*
X139715531Y-90713670D01*
X139782293Y-90580823D01*
X139691785Y-90419443D01*
X139690728Y-90410553D01*
X139693716Y-90405451D01*
X140103077Y-89996090D01*
X140111349Y-89992664D01*
X140119622Y-89996091D01*
G37*
G04 #@! TD.AperFunction*
G04 #@! TA.AperFunction,Conductor*
G36*
X125854522Y-86339442D02*
G01*
X125860848Y-86345781D01*
X125860839Y-86354735D01*
X125860325Y-86355814D01*
X125724909Y-86606128D01*
X125723677Y-86607966D01*
X125581739Y-86781612D01*
X125581644Y-86781726D01*
X125456956Y-86930388D01*
X125368565Y-87115715D01*
X125336219Y-87389672D01*
X125331846Y-87397486D01*
X125324600Y-87400000D01*
X124745400Y-87400000D01*
X124737127Y-87396573D01*
X124733781Y-87389672D01*
X124701433Y-87115715D01*
X124613042Y-86930388D01*
X124613041Y-86930387D01*
X124613041Y-86930386D01*
X124488283Y-86781641D01*
X124346320Y-86607965D01*
X124345089Y-86606128D01*
X124209673Y-86355812D01*
X124208752Y-86346907D01*
X124214398Y-86339956D01*
X124215462Y-86339448D01*
X125030512Y-86000863D01*
X125039465Y-86000855D01*
X125854522Y-86339442D01*
G37*
G04 #@! TD.AperFunction*
G04 #@! TA.AperFunction,Conductor*
G36*
X142855056Y-73333387D02*
G01*
X142855437Y-73333553D01*
X143097130Y-73444176D01*
X143097562Y-73444386D01*
X143277450Y-73536648D01*
X143277461Y-73536652D01*
X143277470Y-73536657D01*
X143377084Y-73578979D01*
X143436644Y-73604284D01*
X143626853Y-73645848D01*
X143626859Y-73645848D01*
X143626864Y-73645849D01*
X143818588Y-73655781D01*
X143888905Y-73659425D01*
X143896990Y-73663275D01*
X143900000Y-73671109D01*
X143900000Y-74648890D01*
X143896573Y-74657163D01*
X143888905Y-74660574D01*
X143626864Y-74674149D01*
X143626850Y-74674151D01*
X143436649Y-74715712D01*
X143436640Y-74715715D01*
X143277470Y-74783341D01*
X143277437Y-74783357D01*
X143097581Y-74875602D01*
X143097111Y-74875830D01*
X142855437Y-74986446D01*
X142846489Y-74986773D01*
X142839929Y-74980676D01*
X142839775Y-74980324D01*
X142500863Y-74164487D01*
X142500855Y-74155534D01*
X142500864Y-74155512D01*
X142839764Y-73339702D01*
X142846102Y-73333378D01*
X142855056Y-73333387D01*
G37*
G04 #@! TD.AperFunction*
G04 #@! TA.AperFunction,Conductor*
G36*
X158160070Y-73339323D02*
G01*
X158160236Y-73339704D01*
X158499135Y-74155512D01*
X158499144Y-74164466D01*
X158499135Y-74164488D01*
X158160236Y-74980295D01*
X158153897Y-74986621D01*
X158144943Y-74986612D01*
X158144562Y-74986446D01*
X157902886Y-74875830D01*
X157902416Y-74875602D01*
X157722560Y-74783357D01*
X157722527Y-74783341D01*
X157563357Y-74715715D01*
X157563348Y-74715712D01*
X157373148Y-74674151D01*
X157373134Y-74674149D01*
X157111095Y-74660574D01*
X157103010Y-74656724D01*
X157100000Y-74648890D01*
X157100000Y-73671109D01*
X157103427Y-73662836D01*
X157111094Y-73659425D01*
X157187479Y-73655467D01*
X157373134Y-73645849D01*
X157373138Y-73645848D01*
X157373146Y-73645848D01*
X157563354Y-73604284D01*
X157722548Y-73536648D01*
X157902468Y-73444369D01*
X157902848Y-73444185D01*
X158144562Y-73333552D01*
X158153511Y-73333226D01*
X158160070Y-73339323D01*
G37*
G04 #@! TD.AperFunction*
G04 #@! TA.AperFunction,Conductor*
G36*
X158855056Y-73333387D02*
G01*
X158855437Y-73333553D01*
X159097130Y-73444176D01*
X159097562Y-73444386D01*
X159277450Y-73536648D01*
X159277461Y-73536652D01*
X159277470Y-73536657D01*
X159377084Y-73578979D01*
X159436644Y-73604284D01*
X159626853Y-73645848D01*
X159626859Y-73645848D01*
X159626864Y-73645849D01*
X159818588Y-73655781D01*
X159888905Y-73659425D01*
X159896990Y-73663275D01*
X159900000Y-73671109D01*
X159900000Y-74648890D01*
X159896573Y-74657163D01*
X159888905Y-74660574D01*
X159626864Y-74674149D01*
X159626850Y-74674151D01*
X159436649Y-74715712D01*
X159436640Y-74715715D01*
X159277470Y-74783341D01*
X159277437Y-74783357D01*
X159097581Y-74875602D01*
X159097111Y-74875830D01*
X158855437Y-74986446D01*
X158846489Y-74986773D01*
X158839929Y-74980676D01*
X158839775Y-74980324D01*
X158500863Y-74164487D01*
X158500855Y-74155534D01*
X158500864Y-74155512D01*
X158839764Y-73339702D01*
X158846102Y-73333378D01*
X158855056Y-73333387D01*
G37*
G04 #@! TD.AperFunction*
G04 #@! TA.AperFunction,Conductor*
G36*
X166546699Y-90609844D02*
G01*
X166547997Y-90611390D01*
X166639993Y-90742418D01*
X166639995Y-90742419D01*
X166640000Y-90742426D01*
X166740000Y-90863639D01*
X166839999Y-90963639D01*
X166895260Y-91007178D01*
X166939992Y-91042421D01*
X166939994Y-91042422D01*
X166939999Y-91042426D01*
X167034138Y-91096625D01*
X167039598Y-91103723D01*
X167040000Y-91106765D01*
X167040000Y-92093234D01*
X167036573Y-92101507D01*
X167034138Y-92103374D01*
X166939992Y-92157577D01*
X166839996Y-92236362D01*
X166740003Y-92336356D01*
X166639996Y-92457578D01*
X166639993Y-92457580D01*
X166547997Y-92588609D01*
X166540439Y-92593411D01*
X166531699Y-92591461D01*
X166530153Y-92590163D01*
X165547284Y-91608276D01*
X165543854Y-91600006D01*
X165547277Y-91591731D01*
X165547285Y-91591723D01*
X166035773Y-91103723D01*
X166530154Y-90609835D01*
X166538428Y-90606413D01*
X166546699Y-90609844D01*
G37*
G04 #@! TD.AperFunction*
G04 #@! TA.AperFunction,Conductor*
G36*
X137607933Y-91602294D02*
G01*
X138513736Y-91978470D01*
X138520063Y-91984808D01*
X138520316Y-91993071D01*
X138394840Y-92358909D01*
X138328515Y-92644109D01*
X138328405Y-92644542D01*
X138262847Y-92884530D01*
X138261929Y-92886869D01*
X138135338Y-93128932D01*
X138133857Y-93131120D01*
X137891063Y-93414662D01*
X137883079Y-93418717D01*
X137874566Y-93415939D01*
X137873903Y-93415325D01*
X137182148Y-92723570D01*
X137178721Y-92715297D01*
X137180346Y-92709349D01*
X137218740Y-92644313D01*
X137230856Y-92623790D01*
X137202981Y-92547459D01*
X137119254Y-92476802D01*
X137007278Y-92400768D01*
X137006436Y-92400139D01*
X136902886Y-92315294D01*
X136898658Y-92307400D01*
X136901251Y-92298829D01*
X136902018Y-92297981D01*
X137595174Y-91604825D01*
X137603446Y-91601399D01*
X137607933Y-91602294D01*
G37*
G04 #@! TD.AperFunction*
G04 #@! TA.AperFunction,Conductor*
G36*
X158504121Y-76702714D02*
G01*
X158897108Y-77096576D01*
X159128206Y-77328188D01*
X159131624Y-77336465D01*
X159128263Y-77344659D01*
X158914002Y-77562357D01*
X158759260Y-77725605D01*
X158626969Y-77868053D01*
X158626887Y-77868140D01*
X158472240Y-78031290D01*
X158472088Y-78031448D01*
X158258045Y-78248927D01*
X158249799Y-78252420D01*
X158241499Y-78249059D01*
X157549820Y-77557380D01*
X157546393Y-77549107D01*
X157548710Y-77542118D01*
X157664321Y-77387014D01*
X157693002Y-77243503D01*
X157666588Y-77096576D01*
X157623163Y-76923922D01*
X157622874Y-76922286D01*
X157601326Y-76712886D01*
X157603888Y-76704306D01*
X157611767Y-76700050D01*
X157612939Y-76699989D01*
X158495849Y-76699296D01*
X158504121Y-76702714D01*
G37*
G04 #@! TD.AperFunction*
M02*
