%TF.GenerationSoftware,KiCad,Pcbnew,8.0.1*%
%TF.CreationDate,2024-06-04T21:42:47+02:00*%
%TF.ProjectId,BMW E30 VFL SI Indicator,424d5720-4533-4302-9056-464c20534920,rev?*%
%TF.SameCoordinates,Original*%
%TF.FileFunction,Drillmap*%
%TF.FilePolarity,Positive*%
%FSLAX45Y45*%
G04 Gerber Fmt 4.5, Leading zero omitted, Abs format (unit mm)*
G04 Created by KiCad (PCBNEW 8.0.1) date 2024-06-04 21:42:47*
%MOMM*%
%LPD*%
G01*
G04 APERTURE LIST*
%ADD10C,0.050000*%
%ADD11C,0.200000*%
%ADD12C,0.100000*%
G04 APERTURE END LIST*
D10*
X12520000Y-7820000D02*
X12520000Y-7680000D01*
X17940000Y-10480000D02*
X17940000Y-7820000D01*
X17580000Y-10200000D02*
X17580000Y-10480000D01*
X13620000Y-7240000D02*
X16460000Y-7240000D01*
X17560000Y-7820000D02*
X17560000Y-7680000D01*
X16460000Y-7680000D02*
X16460000Y-7240000D01*
X12140000Y-7820000D02*
X12520000Y-7820000D01*
X17580000Y-10480000D02*
X17940000Y-10480000D01*
X17940000Y-7820000D02*
X17560000Y-7820000D01*
X17560000Y-7680000D02*
X16460000Y-7680000D01*
X12520000Y-7680000D02*
X13620000Y-7680000D01*
X12140000Y-10200000D02*
X12140000Y-7820000D01*
X12140000Y-10200000D02*
X17580000Y-10200000D01*
X13620000Y-7680000D02*
X13620000Y-7240000D01*
D11*
D12*
X12458500Y-8555000D02*
X12548500Y-8645000D01*
X12548500Y-8555000D02*
X12458500Y-8645000D01*
X12712500Y-8555000D02*
X12802500Y-8645000D01*
X12802500Y-8555000D02*
X12712500Y-8645000D01*
X13058500Y-8555000D02*
X13148500Y-8645000D01*
X13148500Y-8555000D02*
X13058500Y-8645000D01*
X13312500Y-8555000D02*
X13402500Y-8645000D01*
X13402500Y-8555000D02*
X13312500Y-8645000D01*
X13658500Y-8555000D02*
X13748500Y-8645000D01*
X13748500Y-8555000D02*
X13658500Y-8645000D01*
X13912500Y-8555000D02*
X14002500Y-8645000D01*
X14002500Y-8555000D02*
X13912500Y-8645000D01*
X14205000Y-7371000D02*
X14295000Y-7461000D01*
X14295000Y-7371000D02*
X14205000Y-7461000D01*
X14205000Y-7625000D02*
X14295000Y-7715000D01*
X14295000Y-7625000D02*
X14205000Y-7715000D01*
X14258500Y-8555000D02*
X14348500Y-8645000D01*
X14348500Y-8555000D02*
X14258500Y-8645000D01*
X14512500Y-8555000D02*
X14602500Y-8645000D01*
X14602500Y-8555000D02*
X14512500Y-8645000D01*
X14858500Y-8555000D02*
X14948500Y-8645000D01*
X14948500Y-8555000D02*
X14858500Y-8645000D01*
X15112500Y-8555000D02*
X15202500Y-8645000D01*
X15202500Y-8555000D02*
X15112500Y-8645000D01*
X15458500Y-8555000D02*
X15548500Y-8645000D01*
X15548500Y-8555000D02*
X15458500Y-8645000D01*
X15712500Y-8555000D02*
X15802500Y-8645000D01*
X15802500Y-8555000D02*
X15712500Y-8645000D01*
X15805000Y-7371000D02*
X15895000Y-7461000D01*
X15895000Y-7371000D02*
X15805000Y-7461000D01*
X15805000Y-7625000D02*
X15895000Y-7715000D01*
X15895000Y-7625000D02*
X15805000Y-7715000D01*
X16058500Y-8555000D02*
X16148500Y-8645000D01*
X16148500Y-8555000D02*
X16058500Y-8645000D01*
X16312500Y-8555000D02*
X16402500Y-8645000D01*
X16402500Y-8555000D02*
X16312500Y-8645000D01*
X16658500Y-8555000D02*
X16748500Y-8645000D01*
X16748500Y-8555000D02*
X16658500Y-8645000D01*
X16912500Y-8555000D02*
X17002500Y-8645000D01*
X17002500Y-8555000D02*
X16912500Y-8645000D01*
X17258500Y-8555000D02*
X17348500Y-8645000D01*
X17348500Y-8555000D02*
X17258500Y-8645000D01*
X17512500Y-8555000D02*
X17602500Y-8645000D01*
X17602500Y-8555000D02*
X17512500Y-8645000D01*
X13556000Y-9160000D02*
G75*
G02*
X13456000Y-9160000I-50000J0D01*
G01*
X13456000Y-9160000D02*
G75*
G02*
X13556000Y-9160000I50000J0D01*
G01*
X13810000Y-9160000D02*
G75*
G02*
X13710000Y-9160000I-50000J0D01*
G01*
X13710000Y-9160000D02*
G75*
G02*
X13810000Y-9160000I50000J0D01*
G01*
X14064000Y-9160000D02*
G75*
G02*
X13964000Y-9160000I-50000J0D01*
G01*
X13964000Y-9160000D02*
G75*
G02*
X14064000Y-9160000I50000J0D01*
G01*
X14318000Y-9160000D02*
G75*
G02*
X14218000Y-9160000I-50000J0D01*
G01*
X14218000Y-9160000D02*
G75*
G02*
X14318000Y-9160000I50000J0D01*
G01*
X14572000Y-9160000D02*
G75*
G02*
X14472000Y-9160000I-50000J0D01*
G01*
X14472000Y-9160000D02*
G75*
G02*
X14572000Y-9160000I50000J0D01*
G01*
X14826000Y-9160000D02*
G75*
G02*
X14726000Y-9160000I-50000J0D01*
G01*
X14726000Y-9160000D02*
G75*
G02*
X14826000Y-9160000I50000J0D01*
G01*
X15080000Y-9160000D02*
G75*
G02*
X14980000Y-9160000I-50000J0D01*
G01*
X14980000Y-9160000D02*
G75*
G02*
X15080000Y-9160000I50000J0D01*
G01*
X15334000Y-9160000D02*
G75*
G02*
X15234000Y-9160000I-50000J0D01*
G01*
X15234000Y-9160000D02*
G75*
G02*
X15334000Y-9160000I50000J0D01*
G01*
X15588000Y-9160000D02*
G75*
G02*
X15488000Y-9160000I-50000J0D01*
G01*
X15488000Y-9160000D02*
G75*
G02*
X15588000Y-9160000I50000J0D01*
G01*
X15842000Y-9160000D02*
G75*
G02*
X15742000Y-9160000I-50000J0D01*
G01*
X15742000Y-9160000D02*
G75*
G02*
X15842000Y-9160000I50000J0D01*
G01*
X16096000Y-9160000D02*
G75*
G02*
X15996000Y-9160000I-50000J0D01*
G01*
X15996000Y-9160000D02*
G75*
G02*
X16096000Y-9160000I50000J0D01*
G01*
X16350000Y-9160000D02*
G75*
G02*
X16250000Y-9160000I-50000J0D01*
G01*
X16250000Y-9160000D02*
G75*
G02*
X16350000Y-9160000I50000J0D01*
G01*
X16604000Y-9160000D02*
G75*
G02*
X16504000Y-9160000I-50000J0D01*
G01*
X16504000Y-9160000D02*
G75*
G02*
X16604000Y-9160000I50000J0D01*
G01*
D11*
X12398277Y-10793984D02*
X12398277Y-10593984D01*
X12398277Y-10593984D02*
X12445896Y-10593984D01*
X12445896Y-10593984D02*
X12474467Y-10603508D01*
X12474467Y-10603508D02*
X12493515Y-10622555D01*
X12493515Y-10622555D02*
X12503039Y-10641603D01*
X12503039Y-10641603D02*
X12512562Y-10679698D01*
X12512562Y-10679698D02*
X12512562Y-10708270D01*
X12512562Y-10708270D02*
X12503039Y-10746365D01*
X12503039Y-10746365D02*
X12493515Y-10765412D01*
X12493515Y-10765412D02*
X12474467Y-10784460D01*
X12474467Y-10784460D02*
X12445896Y-10793984D01*
X12445896Y-10793984D02*
X12398277Y-10793984D01*
X12598277Y-10793984D02*
X12598277Y-10660650D01*
X12598277Y-10698746D02*
X12607801Y-10679698D01*
X12607801Y-10679698D02*
X12617324Y-10670174D01*
X12617324Y-10670174D02*
X12636372Y-10660650D01*
X12636372Y-10660650D02*
X12655420Y-10660650D01*
X12722086Y-10793984D02*
X12722086Y-10660650D01*
X12722086Y-10593984D02*
X12712562Y-10603508D01*
X12712562Y-10603508D02*
X12722086Y-10613031D01*
X12722086Y-10613031D02*
X12731610Y-10603508D01*
X12731610Y-10603508D02*
X12722086Y-10593984D01*
X12722086Y-10593984D02*
X12722086Y-10613031D01*
X12845896Y-10793984D02*
X12826848Y-10784460D01*
X12826848Y-10784460D02*
X12817324Y-10765412D01*
X12817324Y-10765412D02*
X12817324Y-10593984D01*
X12950658Y-10793984D02*
X12931610Y-10784460D01*
X12931610Y-10784460D02*
X12922086Y-10765412D01*
X12922086Y-10765412D02*
X12922086Y-10593984D01*
X13179229Y-10793984D02*
X13179229Y-10593984D01*
X13179229Y-10593984D02*
X13245896Y-10736841D01*
X13245896Y-10736841D02*
X13312562Y-10593984D01*
X13312562Y-10593984D02*
X13312562Y-10793984D01*
X13493515Y-10793984D02*
X13493515Y-10689222D01*
X13493515Y-10689222D02*
X13483991Y-10670174D01*
X13483991Y-10670174D02*
X13464943Y-10660650D01*
X13464943Y-10660650D02*
X13426848Y-10660650D01*
X13426848Y-10660650D02*
X13407801Y-10670174D01*
X13493515Y-10784460D02*
X13474467Y-10793984D01*
X13474467Y-10793984D02*
X13426848Y-10793984D01*
X13426848Y-10793984D02*
X13407801Y-10784460D01*
X13407801Y-10784460D02*
X13398277Y-10765412D01*
X13398277Y-10765412D02*
X13398277Y-10746365D01*
X13398277Y-10746365D02*
X13407801Y-10727317D01*
X13407801Y-10727317D02*
X13426848Y-10717793D01*
X13426848Y-10717793D02*
X13474467Y-10717793D01*
X13474467Y-10717793D02*
X13493515Y-10708270D01*
X13588753Y-10660650D02*
X13588753Y-10860650D01*
X13588753Y-10670174D02*
X13607801Y-10660650D01*
X13607801Y-10660650D02*
X13645896Y-10660650D01*
X13645896Y-10660650D02*
X13664943Y-10670174D01*
X13664943Y-10670174D02*
X13674467Y-10679698D01*
X13674467Y-10679698D02*
X13683991Y-10698746D01*
X13683991Y-10698746D02*
X13683991Y-10755889D01*
X13683991Y-10755889D02*
X13674467Y-10774936D01*
X13674467Y-10774936D02*
X13664943Y-10784460D01*
X13664943Y-10784460D02*
X13645896Y-10793984D01*
X13645896Y-10793984D02*
X13607801Y-10793984D01*
X13607801Y-10793984D02*
X13588753Y-10784460D01*
X13769705Y-10774936D02*
X13779229Y-10784460D01*
X13779229Y-10784460D02*
X13769705Y-10793984D01*
X13769705Y-10793984D02*
X13760182Y-10784460D01*
X13760182Y-10784460D02*
X13769705Y-10774936D01*
X13769705Y-10774936D02*
X13769705Y-10793984D01*
X13769705Y-10670174D02*
X13779229Y-10679698D01*
X13779229Y-10679698D02*
X13769705Y-10689222D01*
X13769705Y-10689222D02*
X13760182Y-10679698D01*
X13760182Y-10679698D02*
X13769705Y-10670174D01*
X13769705Y-10670174D02*
X13769705Y-10689222D01*
D12*
X12047500Y-11077500D02*
X12137500Y-11167500D01*
X12137500Y-11077500D02*
X12047500Y-11167500D01*
D11*
X12436372Y-11013984D02*
X12455420Y-11013984D01*
X12455420Y-11013984D02*
X12474467Y-11023508D01*
X12474467Y-11023508D02*
X12483991Y-11033031D01*
X12483991Y-11033031D02*
X12493515Y-11052079D01*
X12493515Y-11052079D02*
X12503039Y-11090174D01*
X12503039Y-11090174D02*
X12503039Y-11137793D01*
X12503039Y-11137793D02*
X12493515Y-11175889D01*
X12493515Y-11175889D02*
X12483991Y-11194936D01*
X12483991Y-11194936D02*
X12474467Y-11204460D01*
X12474467Y-11204460D02*
X12455420Y-11213984D01*
X12455420Y-11213984D02*
X12436372Y-11213984D01*
X12436372Y-11213984D02*
X12417324Y-11204460D01*
X12417324Y-11204460D02*
X12407801Y-11194936D01*
X12407801Y-11194936D02*
X12398277Y-11175889D01*
X12398277Y-11175889D02*
X12388753Y-11137793D01*
X12388753Y-11137793D02*
X12388753Y-11090174D01*
X12388753Y-11090174D02*
X12398277Y-11052079D01*
X12398277Y-11052079D02*
X12407801Y-11033031D01*
X12407801Y-11033031D02*
X12417324Y-11023508D01*
X12417324Y-11023508D02*
X12436372Y-11013984D01*
X12588753Y-11194936D02*
X12598277Y-11204460D01*
X12598277Y-11204460D02*
X12588753Y-11213984D01*
X12588753Y-11213984D02*
X12579229Y-11204460D01*
X12579229Y-11204460D02*
X12588753Y-11194936D01*
X12588753Y-11194936D02*
X12588753Y-11213984D01*
X12693515Y-11213984D02*
X12731610Y-11213984D01*
X12731610Y-11213984D02*
X12750658Y-11204460D01*
X12750658Y-11204460D02*
X12760182Y-11194936D01*
X12760182Y-11194936D02*
X12779229Y-11166365D01*
X12779229Y-11166365D02*
X12788753Y-11128270D01*
X12788753Y-11128270D02*
X12788753Y-11052079D01*
X12788753Y-11052079D02*
X12779229Y-11033031D01*
X12779229Y-11033031D02*
X12769705Y-11023508D01*
X12769705Y-11023508D02*
X12750658Y-11013984D01*
X12750658Y-11013984D02*
X12712562Y-11013984D01*
X12712562Y-11013984D02*
X12693515Y-11023508D01*
X12693515Y-11023508D02*
X12683991Y-11033031D01*
X12683991Y-11033031D02*
X12674467Y-11052079D01*
X12674467Y-11052079D02*
X12674467Y-11099698D01*
X12674467Y-11099698D02*
X12683991Y-11118746D01*
X12683991Y-11118746D02*
X12693515Y-11128270D01*
X12693515Y-11128270D02*
X12712562Y-11137793D01*
X12712562Y-11137793D02*
X12750658Y-11137793D01*
X12750658Y-11137793D02*
X12769705Y-11128270D01*
X12769705Y-11128270D02*
X12779229Y-11118746D01*
X12779229Y-11118746D02*
X12788753Y-11099698D01*
X12912562Y-11013984D02*
X12931610Y-11013984D01*
X12931610Y-11013984D02*
X12950658Y-11023508D01*
X12950658Y-11023508D02*
X12960182Y-11033031D01*
X12960182Y-11033031D02*
X12969705Y-11052079D01*
X12969705Y-11052079D02*
X12979229Y-11090174D01*
X12979229Y-11090174D02*
X12979229Y-11137793D01*
X12979229Y-11137793D02*
X12969705Y-11175889D01*
X12969705Y-11175889D02*
X12960182Y-11194936D01*
X12960182Y-11194936D02*
X12950658Y-11204460D01*
X12950658Y-11204460D02*
X12931610Y-11213984D01*
X12931610Y-11213984D02*
X12912562Y-11213984D01*
X12912562Y-11213984D02*
X12893515Y-11204460D01*
X12893515Y-11204460D02*
X12883991Y-11194936D01*
X12883991Y-11194936D02*
X12874467Y-11175889D01*
X12874467Y-11175889D02*
X12864943Y-11137793D01*
X12864943Y-11137793D02*
X12864943Y-11090174D01*
X12864943Y-11090174D02*
X12874467Y-11052079D01*
X12874467Y-11052079D02*
X12883991Y-11033031D01*
X12883991Y-11033031D02*
X12893515Y-11023508D01*
X12893515Y-11023508D02*
X12912562Y-11013984D01*
X13103039Y-11013984D02*
X13122086Y-11013984D01*
X13122086Y-11013984D02*
X13141134Y-11023508D01*
X13141134Y-11023508D02*
X13150658Y-11033031D01*
X13150658Y-11033031D02*
X13160182Y-11052079D01*
X13160182Y-11052079D02*
X13169705Y-11090174D01*
X13169705Y-11090174D02*
X13169705Y-11137793D01*
X13169705Y-11137793D02*
X13160182Y-11175889D01*
X13160182Y-11175889D02*
X13150658Y-11194936D01*
X13150658Y-11194936D02*
X13141134Y-11204460D01*
X13141134Y-11204460D02*
X13122086Y-11213984D01*
X13122086Y-11213984D02*
X13103039Y-11213984D01*
X13103039Y-11213984D02*
X13083991Y-11204460D01*
X13083991Y-11204460D02*
X13074467Y-11194936D01*
X13074467Y-11194936D02*
X13064943Y-11175889D01*
X13064943Y-11175889D02*
X13055420Y-11137793D01*
X13055420Y-11137793D02*
X13055420Y-11090174D01*
X13055420Y-11090174D02*
X13064943Y-11052079D01*
X13064943Y-11052079D02*
X13074467Y-11033031D01*
X13074467Y-11033031D02*
X13083991Y-11023508D01*
X13083991Y-11023508D02*
X13103039Y-11013984D01*
X13255420Y-11213984D02*
X13255420Y-11080650D01*
X13255420Y-11099698D02*
X13264943Y-11090174D01*
X13264943Y-11090174D02*
X13283991Y-11080650D01*
X13283991Y-11080650D02*
X13312563Y-11080650D01*
X13312563Y-11080650D02*
X13331610Y-11090174D01*
X13331610Y-11090174D02*
X13341134Y-11109222D01*
X13341134Y-11109222D02*
X13341134Y-11213984D01*
X13341134Y-11109222D02*
X13350658Y-11090174D01*
X13350658Y-11090174D02*
X13369705Y-11080650D01*
X13369705Y-11080650D02*
X13398277Y-11080650D01*
X13398277Y-11080650D02*
X13417324Y-11090174D01*
X13417324Y-11090174D02*
X13426848Y-11109222D01*
X13426848Y-11109222D02*
X13426848Y-11213984D01*
X13522086Y-11213984D02*
X13522086Y-11080650D01*
X13522086Y-11099698D02*
X13531610Y-11090174D01*
X13531610Y-11090174D02*
X13550658Y-11080650D01*
X13550658Y-11080650D02*
X13579229Y-11080650D01*
X13579229Y-11080650D02*
X13598277Y-11090174D01*
X13598277Y-11090174D02*
X13607801Y-11109222D01*
X13607801Y-11109222D02*
X13607801Y-11213984D01*
X13607801Y-11109222D02*
X13617324Y-11090174D01*
X13617324Y-11090174D02*
X13636372Y-11080650D01*
X13636372Y-11080650D02*
X13664943Y-11080650D01*
X13664943Y-11080650D02*
X13683991Y-11090174D01*
X13683991Y-11090174D02*
X13693515Y-11109222D01*
X13693515Y-11109222D02*
X13693515Y-11213984D01*
X14083991Y-11004460D02*
X13912563Y-11261603D01*
X14341134Y-11013984D02*
X14360182Y-11013984D01*
X14360182Y-11013984D02*
X14379229Y-11023508D01*
X14379229Y-11023508D02*
X14388753Y-11033031D01*
X14388753Y-11033031D02*
X14398277Y-11052079D01*
X14398277Y-11052079D02*
X14407801Y-11090174D01*
X14407801Y-11090174D02*
X14407801Y-11137793D01*
X14407801Y-11137793D02*
X14398277Y-11175889D01*
X14398277Y-11175889D02*
X14388753Y-11194936D01*
X14388753Y-11194936D02*
X14379229Y-11204460D01*
X14379229Y-11204460D02*
X14360182Y-11213984D01*
X14360182Y-11213984D02*
X14341134Y-11213984D01*
X14341134Y-11213984D02*
X14322086Y-11204460D01*
X14322086Y-11204460D02*
X14312563Y-11194936D01*
X14312563Y-11194936D02*
X14303039Y-11175889D01*
X14303039Y-11175889D02*
X14293515Y-11137793D01*
X14293515Y-11137793D02*
X14293515Y-11090174D01*
X14293515Y-11090174D02*
X14303039Y-11052079D01*
X14303039Y-11052079D02*
X14312563Y-11033031D01*
X14312563Y-11033031D02*
X14322086Y-11023508D01*
X14322086Y-11023508D02*
X14341134Y-11013984D01*
X14493515Y-11194936D02*
X14503039Y-11204460D01*
X14503039Y-11204460D02*
X14493515Y-11213984D01*
X14493515Y-11213984D02*
X14483991Y-11204460D01*
X14483991Y-11204460D02*
X14493515Y-11194936D01*
X14493515Y-11194936D02*
X14493515Y-11213984D01*
X14626848Y-11013984D02*
X14645896Y-11013984D01*
X14645896Y-11013984D02*
X14664944Y-11023508D01*
X14664944Y-11023508D02*
X14674467Y-11033031D01*
X14674467Y-11033031D02*
X14683991Y-11052079D01*
X14683991Y-11052079D02*
X14693515Y-11090174D01*
X14693515Y-11090174D02*
X14693515Y-11137793D01*
X14693515Y-11137793D02*
X14683991Y-11175889D01*
X14683991Y-11175889D02*
X14674467Y-11194936D01*
X14674467Y-11194936D02*
X14664944Y-11204460D01*
X14664944Y-11204460D02*
X14645896Y-11213984D01*
X14645896Y-11213984D02*
X14626848Y-11213984D01*
X14626848Y-11213984D02*
X14607801Y-11204460D01*
X14607801Y-11204460D02*
X14598277Y-11194936D01*
X14598277Y-11194936D02*
X14588753Y-11175889D01*
X14588753Y-11175889D02*
X14579229Y-11137793D01*
X14579229Y-11137793D02*
X14579229Y-11090174D01*
X14579229Y-11090174D02*
X14588753Y-11052079D01*
X14588753Y-11052079D02*
X14598277Y-11033031D01*
X14598277Y-11033031D02*
X14607801Y-11023508D01*
X14607801Y-11023508D02*
X14626848Y-11013984D01*
X14760182Y-11013984D02*
X14883991Y-11013984D01*
X14883991Y-11013984D02*
X14817325Y-11090174D01*
X14817325Y-11090174D02*
X14845896Y-11090174D01*
X14845896Y-11090174D02*
X14864944Y-11099698D01*
X14864944Y-11099698D02*
X14874467Y-11109222D01*
X14874467Y-11109222D02*
X14883991Y-11128270D01*
X14883991Y-11128270D02*
X14883991Y-11175889D01*
X14883991Y-11175889D02*
X14874467Y-11194936D01*
X14874467Y-11194936D02*
X14864944Y-11204460D01*
X14864944Y-11204460D02*
X14845896Y-11213984D01*
X14845896Y-11213984D02*
X14788753Y-11213984D01*
X14788753Y-11213984D02*
X14769706Y-11204460D01*
X14769706Y-11204460D02*
X14760182Y-11194936D01*
X15064944Y-11013984D02*
X14969706Y-11013984D01*
X14969706Y-11013984D02*
X14960182Y-11109222D01*
X14960182Y-11109222D02*
X14969706Y-11099698D01*
X14969706Y-11099698D02*
X14988753Y-11090174D01*
X14988753Y-11090174D02*
X15036372Y-11090174D01*
X15036372Y-11090174D02*
X15055420Y-11099698D01*
X15055420Y-11099698D02*
X15064944Y-11109222D01*
X15064944Y-11109222D02*
X15074467Y-11128270D01*
X15074467Y-11128270D02*
X15074467Y-11175889D01*
X15074467Y-11175889D02*
X15064944Y-11194936D01*
X15064944Y-11194936D02*
X15055420Y-11204460D01*
X15055420Y-11204460D02*
X15036372Y-11213984D01*
X15036372Y-11213984D02*
X14988753Y-11213984D01*
X14988753Y-11213984D02*
X14969706Y-11204460D01*
X14969706Y-11204460D02*
X14960182Y-11194936D01*
X15245896Y-11080650D02*
X15245896Y-11213984D01*
X15198277Y-11004460D02*
X15150658Y-11147317D01*
X15150658Y-11147317D02*
X15274467Y-11147317D01*
X15341134Y-11013984D02*
X15341134Y-11052079D01*
X15417325Y-11013984D02*
X15417325Y-11052079D01*
X15712563Y-11290174D02*
X15703039Y-11280650D01*
X15703039Y-11280650D02*
X15683991Y-11252079D01*
X15683991Y-11252079D02*
X15674468Y-11233031D01*
X15674468Y-11233031D02*
X15664944Y-11204460D01*
X15664944Y-11204460D02*
X15655420Y-11156841D01*
X15655420Y-11156841D02*
X15655420Y-11118746D01*
X15655420Y-11118746D02*
X15664944Y-11071127D01*
X15664944Y-11071127D02*
X15674468Y-11042555D01*
X15674468Y-11042555D02*
X15683991Y-11023508D01*
X15683991Y-11023508D02*
X15703039Y-10994936D01*
X15703039Y-10994936D02*
X15712563Y-10985412D01*
X15779229Y-11033031D02*
X15788753Y-11023508D01*
X15788753Y-11023508D02*
X15807801Y-11013984D01*
X15807801Y-11013984D02*
X15855420Y-11013984D01*
X15855420Y-11013984D02*
X15874468Y-11023508D01*
X15874468Y-11023508D02*
X15883991Y-11033031D01*
X15883991Y-11033031D02*
X15893515Y-11052079D01*
X15893515Y-11052079D02*
X15893515Y-11071127D01*
X15893515Y-11071127D02*
X15883991Y-11099698D01*
X15883991Y-11099698D02*
X15769706Y-11213984D01*
X15769706Y-11213984D02*
X15893515Y-11213984D01*
X15969706Y-11033031D02*
X15979229Y-11023508D01*
X15979229Y-11023508D02*
X15998277Y-11013984D01*
X15998277Y-11013984D02*
X16045896Y-11013984D01*
X16045896Y-11013984D02*
X16064944Y-11023508D01*
X16064944Y-11023508D02*
X16074468Y-11033031D01*
X16074468Y-11033031D02*
X16083991Y-11052079D01*
X16083991Y-11052079D02*
X16083991Y-11071127D01*
X16083991Y-11071127D02*
X16074468Y-11099698D01*
X16074468Y-11099698D02*
X15960182Y-11213984D01*
X15960182Y-11213984D02*
X16083991Y-11213984D01*
X16322087Y-11213984D02*
X16322087Y-11013984D01*
X16407801Y-11213984D02*
X16407801Y-11109222D01*
X16407801Y-11109222D02*
X16398277Y-11090174D01*
X16398277Y-11090174D02*
X16379230Y-11080650D01*
X16379230Y-11080650D02*
X16350658Y-11080650D01*
X16350658Y-11080650D02*
X16331610Y-11090174D01*
X16331610Y-11090174D02*
X16322087Y-11099698D01*
X16531610Y-11213984D02*
X16512563Y-11204460D01*
X16512563Y-11204460D02*
X16503039Y-11194936D01*
X16503039Y-11194936D02*
X16493515Y-11175889D01*
X16493515Y-11175889D02*
X16493515Y-11118746D01*
X16493515Y-11118746D02*
X16503039Y-11099698D01*
X16503039Y-11099698D02*
X16512563Y-11090174D01*
X16512563Y-11090174D02*
X16531610Y-11080650D01*
X16531610Y-11080650D02*
X16560182Y-11080650D01*
X16560182Y-11080650D02*
X16579230Y-11090174D01*
X16579230Y-11090174D02*
X16588753Y-11099698D01*
X16588753Y-11099698D02*
X16598277Y-11118746D01*
X16598277Y-11118746D02*
X16598277Y-11175889D01*
X16598277Y-11175889D02*
X16588753Y-11194936D01*
X16588753Y-11194936D02*
X16579230Y-11204460D01*
X16579230Y-11204460D02*
X16560182Y-11213984D01*
X16560182Y-11213984D02*
X16531610Y-11213984D01*
X16712563Y-11213984D02*
X16693515Y-11204460D01*
X16693515Y-11204460D02*
X16683991Y-11185412D01*
X16683991Y-11185412D02*
X16683991Y-11013984D01*
X16864944Y-11204460D02*
X16845896Y-11213984D01*
X16845896Y-11213984D02*
X16807801Y-11213984D01*
X16807801Y-11213984D02*
X16788753Y-11204460D01*
X16788753Y-11204460D02*
X16779230Y-11185412D01*
X16779230Y-11185412D02*
X16779230Y-11109222D01*
X16779230Y-11109222D02*
X16788753Y-11090174D01*
X16788753Y-11090174D02*
X16807801Y-11080650D01*
X16807801Y-11080650D02*
X16845896Y-11080650D01*
X16845896Y-11080650D02*
X16864944Y-11090174D01*
X16864944Y-11090174D02*
X16874468Y-11109222D01*
X16874468Y-11109222D02*
X16874468Y-11128270D01*
X16874468Y-11128270D02*
X16779230Y-11147317D01*
X16950658Y-11204460D02*
X16969706Y-11213984D01*
X16969706Y-11213984D02*
X17007801Y-11213984D01*
X17007801Y-11213984D02*
X17026849Y-11204460D01*
X17026849Y-11204460D02*
X17036373Y-11185412D01*
X17036373Y-11185412D02*
X17036373Y-11175889D01*
X17036373Y-11175889D02*
X17026849Y-11156841D01*
X17026849Y-11156841D02*
X17007801Y-11147317D01*
X17007801Y-11147317D02*
X16979230Y-11147317D01*
X16979230Y-11147317D02*
X16960182Y-11137793D01*
X16960182Y-11137793D02*
X16950658Y-11118746D01*
X16950658Y-11118746D02*
X16950658Y-11109222D01*
X16950658Y-11109222D02*
X16960182Y-11090174D01*
X16960182Y-11090174D02*
X16979230Y-11080650D01*
X16979230Y-11080650D02*
X17007801Y-11080650D01*
X17007801Y-11080650D02*
X17026849Y-11090174D01*
X17103039Y-11290174D02*
X17112563Y-11280650D01*
X17112563Y-11280650D02*
X17131611Y-11252079D01*
X17131611Y-11252079D02*
X17141134Y-11233031D01*
X17141134Y-11233031D02*
X17150658Y-11204460D01*
X17150658Y-11204460D02*
X17160182Y-11156841D01*
X17160182Y-11156841D02*
X17160182Y-11118746D01*
X17160182Y-11118746D02*
X17150658Y-11071127D01*
X17150658Y-11071127D02*
X17141134Y-11042555D01*
X17141134Y-11042555D02*
X17131611Y-11023508D01*
X17131611Y-11023508D02*
X17112563Y-10994936D01*
X17112563Y-10994936D02*
X17103039Y-10985412D01*
D12*
X12137500Y-11386500D02*
G75*
G02*
X12037500Y-11386500I-50000J0D01*
G01*
X12037500Y-11386500D02*
G75*
G02*
X12137500Y-11386500I50000J0D01*
G01*
D11*
X12503039Y-11477984D02*
X12388753Y-11477984D01*
X12445896Y-11477984D02*
X12445896Y-11277984D01*
X12445896Y-11277984D02*
X12426848Y-11306555D01*
X12426848Y-11306555D02*
X12407801Y-11325603D01*
X12407801Y-11325603D02*
X12388753Y-11335127D01*
X12588753Y-11458936D02*
X12598277Y-11468460D01*
X12598277Y-11468460D02*
X12588753Y-11477984D01*
X12588753Y-11477984D02*
X12579229Y-11468460D01*
X12579229Y-11468460D02*
X12588753Y-11458936D01*
X12588753Y-11458936D02*
X12588753Y-11477984D01*
X12722086Y-11277984D02*
X12741134Y-11277984D01*
X12741134Y-11277984D02*
X12760182Y-11287508D01*
X12760182Y-11287508D02*
X12769705Y-11297031D01*
X12769705Y-11297031D02*
X12779229Y-11316079D01*
X12779229Y-11316079D02*
X12788753Y-11354174D01*
X12788753Y-11354174D02*
X12788753Y-11401793D01*
X12788753Y-11401793D02*
X12779229Y-11439888D01*
X12779229Y-11439888D02*
X12769705Y-11458936D01*
X12769705Y-11458936D02*
X12760182Y-11468460D01*
X12760182Y-11468460D02*
X12741134Y-11477984D01*
X12741134Y-11477984D02*
X12722086Y-11477984D01*
X12722086Y-11477984D02*
X12703039Y-11468460D01*
X12703039Y-11468460D02*
X12693515Y-11458936D01*
X12693515Y-11458936D02*
X12683991Y-11439888D01*
X12683991Y-11439888D02*
X12674467Y-11401793D01*
X12674467Y-11401793D02*
X12674467Y-11354174D01*
X12674467Y-11354174D02*
X12683991Y-11316079D01*
X12683991Y-11316079D02*
X12693515Y-11297031D01*
X12693515Y-11297031D02*
X12703039Y-11287508D01*
X12703039Y-11287508D02*
X12722086Y-11277984D01*
X12912562Y-11277984D02*
X12931610Y-11277984D01*
X12931610Y-11277984D02*
X12950658Y-11287508D01*
X12950658Y-11287508D02*
X12960182Y-11297031D01*
X12960182Y-11297031D02*
X12969705Y-11316079D01*
X12969705Y-11316079D02*
X12979229Y-11354174D01*
X12979229Y-11354174D02*
X12979229Y-11401793D01*
X12979229Y-11401793D02*
X12969705Y-11439888D01*
X12969705Y-11439888D02*
X12960182Y-11458936D01*
X12960182Y-11458936D02*
X12950658Y-11468460D01*
X12950658Y-11468460D02*
X12931610Y-11477984D01*
X12931610Y-11477984D02*
X12912562Y-11477984D01*
X12912562Y-11477984D02*
X12893515Y-11468460D01*
X12893515Y-11468460D02*
X12883991Y-11458936D01*
X12883991Y-11458936D02*
X12874467Y-11439888D01*
X12874467Y-11439888D02*
X12864943Y-11401793D01*
X12864943Y-11401793D02*
X12864943Y-11354174D01*
X12864943Y-11354174D02*
X12874467Y-11316079D01*
X12874467Y-11316079D02*
X12883991Y-11297031D01*
X12883991Y-11297031D02*
X12893515Y-11287508D01*
X12893515Y-11287508D02*
X12912562Y-11277984D01*
X13103039Y-11277984D02*
X13122086Y-11277984D01*
X13122086Y-11277984D02*
X13141134Y-11287508D01*
X13141134Y-11287508D02*
X13150658Y-11297031D01*
X13150658Y-11297031D02*
X13160182Y-11316079D01*
X13160182Y-11316079D02*
X13169705Y-11354174D01*
X13169705Y-11354174D02*
X13169705Y-11401793D01*
X13169705Y-11401793D02*
X13160182Y-11439888D01*
X13160182Y-11439888D02*
X13150658Y-11458936D01*
X13150658Y-11458936D02*
X13141134Y-11468460D01*
X13141134Y-11468460D02*
X13122086Y-11477984D01*
X13122086Y-11477984D02*
X13103039Y-11477984D01*
X13103039Y-11477984D02*
X13083991Y-11468460D01*
X13083991Y-11468460D02*
X13074467Y-11458936D01*
X13074467Y-11458936D02*
X13064943Y-11439888D01*
X13064943Y-11439888D02*
X13055420Y-11401793D01*
X13055420Y-11401793D02*
X13055420Y-11354174D01*
X13055420Y-11354174D02*
X13064943Y-11316079D01*
X13064943Y-11316079D02*
X13074467Y-11297031D01*
X13074467Y-11297031D02*
X13083991Y-11287508D01*
X13083991Y-11287508D02*
X13103039Y-11277984D01*
X13255420Y-11477984D02*
X13255420Y-11344650D01*
X13255420Y-11363698D02*
X13264943Y-11354174D01*
X13264943Y-11354174D02*
X13283991Y-11344650D01*
X13283991Y-11344650D02*
X13312563Y-11344650D01*
X13312563Y-11344650D02*
X13331610Y-11354174D01*
X13331610Y-11354174D02*
X13341134Y-11373222D01*
X13341134Y-11373222D02*
X13341134Y-11477984D01*
X13341134Y-11373222D02*
X13350658Y-11354174D01*
X13350658Y-11354174D02*
X13369705Y-11344650D01*
X13369705Y-11344650D02*
X13398277Y-11344650D01*
X13398277Y-11344650D02*
X13417324Y-11354174D01*
X13417324Y-11354174D02*
X13426848Y-11373222D01*
X13426848Y-11373222D02*
X13426848Y-11477984D01*
X13522086Y-11477984D02*
X13522086Y-11344650D01*
X13522086Y-11363698D02*
X13531610Y-11354174D01*
X13531610Y-11354174D02*
X13550658Y-11344650D01*
X13550658Y-11344650D02*
X13579229Y-11344650D01*
X13579229Y-11344650D02*
X13598277Y-11354174D01*
X13598277Y-11354174D02*
X13607801Y-11373222D01*
X13607801Y-11373222D02*
X13607801Y-11477984D01*
X13607801Y-11373222D02*
X13617324Y-11354174D01*
X13617324Y-11354174D02*
X13636372Y-11344650D01*
X13636372Y-11344650D02*
X13664943Y-11344650D01*
X13664943Y-11344650D02*
X13683991Y-11354174D01*
X13683991Y-11354174D02*
X13693515Y-11373222D01*
X13693515Y-11373222D02*
X13693515Y-11477984D01*
X14083991Y-11268460D02*
X13912563Y-11525603D01*
X14341134Y-11277984D02*
X14360182Y-11277984D01*
X14360182Y-11277984D02*
X14379229Y-11287508D01*
X14379229Y-11287508D02*
X14388753Y-11297031D01*
X14388753Y-11297031D02*
X14398277Y-11316079D01*
X14398277Y-11316079D02*
X14407801Y-11354174D01*
X14407801Y-11354174D02*
X14407801Y-11401793D01*
X14407801Y-11401793D02*
X14398277Y-11439888D01*
X14398277Y-11439888D02*
X14388753Y-11458936D01*
X14388753Y-11458936D02*
X14379229Y-11468460D01*
X14379229Y-11468460D02*
X14360182Y-11477984D01*
X14360182Y-11477984D02*
X14341134Y-11477984D01*
X14341134Y-11477984D02*
X14322086Y-11468460D01*
X14322086Y-11468460D02*
X14312563Y-11458936D01*
X14312563Y-11458936D02*
X14303039Y-11439888D01*
X14303039Y-11439888D02*
X14293515Y-11401793D01*
X14293515Y-11401793D02*
X14293515Y-11354174D01*
X14293515Y-11354174D02*
X14303039Y-11316079D01*
X14303039Y-11316079D02*
X14312563Y-11297031D01*
X14312563Y-11297031D02*
X14322086Y-11287508D01*
X14322086Y-11287508D02*
X14341134Y-11277984D01*
X14493515Y-11458936D02*
X14503039Y-11468460D01*
X14503039Y-11468460D02*
X14493515Y-11477984D01*
X14493515Y-11477984D02*
X14483991Y-11468460D01*
X14483991Y-11468460D02*
X14493515Y-11458936D01*
X14493515Y-11458936D02*
X14493515Y-11477984D01*
X14626848Y-11277984D02*
X14645896Y-11277984D01*
X14645896Y-11277984D02*
X14664944Y-11287508D01*
X14664944Y-11287508D02*
X14674467Y-11297031D01*
X14674467Y-11297031D02*
X14683991Y-11316079D01*
X14683991Y-11316079D02*
X14693515Y-11354174D01*
X14693515Y-11354174D02*
X14693515Y-11401793D01*
X14693515Y-11401793D02*
X14683991Y-11439888D01*
X14683991Y-11439888D02*
X14674467Y-11458936D01*
X14674467Y-11458936D02*
X14664944Y-11468460D01*
X14664944Y-11468460D02*
X14645896Y-11477984D01*
X14645896Y-11477984D02*
X14626848Y-11477984D01*
X14626848Y-11477984D02*
X14607801Y-11468460D01*
X14607801Y-11468460D02*
X14598277Y-11458936D01*
X14598277Y-11458936D02*
X14588753Y-11439888D01*
X14588753Y-11439888D02*
X14579229Y-11401793D01*
X14579229Y-11401793D02*
X14579229Y-11354174D01*
X14579229Y-11354174D02*
X14588753Y-11316079D01*
X14588753Y-11316079D02*
X14598277Y-11297031D01*
X14598277Y-11297031D02*
X14607801Y-11287508D01*
X14607801Y-11287508D02*
X14626848Y-11277984D01*
X14760182Y-11277984D02*
X14883991Y-11277984D01*
X14883991Y-11277984D02*
X14817325Y-11354174D01*
X14817325Y-11354174D02*
X14845896Y-11354174D01*
X14845896Y-11354174D02*
X14864944Y-11363698D01*
X14864944Y-11363698D02*
X14874467Y-11373222D01*
X14874467Y-11373222D02*
X14883991Y-11392269D01*
X14883991Y-11392269D02*
X14883991Y-11439888D01*
X14883991Y-11439888D02*
X14874467Y-11458936D01*
X14874467Y-11458936D02*
X14864944Y-11468460D01*
X14864944Y-11468460D02*
X14845896Y-11477984D01*
X14845896Y-11477984D02*
X14788753Y-11477984D01*
X14788753Y-11477984D02*
X14769706Y-11468460D01*
X14769706Y-11468460D02*
X14760182Y-11458936D01*
X14979229Y-11477984D02*
X15017325Y-11477984D01*
X15017325Y-11477984D02*
X15036372Y-11468460D01*
X15036372Y-11468460D02*
X15045896Y-11458936D01*
X15045896Y-11458936D02*
X15064944Y-11430365D01*
X15064944Y-11430365D02*
X15074467Y-11392269D01*
X15074467Y-11392269D02*
X15074467Y-11316079D01*
X15074467Y-11316079D02*
X15064944Y-11297031D01*
X15064944Y-11297031D02*
X15055420Y-11287508D01*
X15055420Y-11287508D02*
X15036372Y-11277984D01*
X15036372Y-11277984D02*
X14998277Y-11277984D01*
X14998277Y-11277984D02*
X14979229Y-11287508D01*
X14979229Y-11287508D02*
X14969706Y-11297031D01*
X14969706Y-11297031D02*
X14960182Y-11316079D01*
X14960182Y-11316079D02*
X14960182Y-11363698D01*
X14960182Y-11363698D02*
X14969706Y-11382746D01*
X14969706Y-11382746D02*
X14979229Y-11392269D01*
X14979229Y-11392269D02*
X14998277Y-11401793D01*
X14998277Y-11401793D02*
X15036372Y-11401793D01*
X15036372Y-11401793D02*
X15055420Y-11392269D01*
X15055420Y-11392269D02*
X15064944Y-11382746D01*
X15064944Y-11382746D02*
X15074467Y-11363698D01*
X15245896Y-11344650D02*
X15245896Y-11477984D01*
X15198277Y-11268460D02*
X15150658Y-11411317D01*
X15150658Y-11411317D02*
X15274467Y-11411317D01*
X15341134Y-11277984D02*
X15341134Y-11316079D01*
X15417325Y-11277984D02*
X15417325Y-11316079D01*
X15712563Y-11554174D02*
X15703039Y-11544650D01*
X15703039Y-11544650D02*
X15683991Y-11516079D01*
X15683991Y-11516079D02*
X15674468Y-11497031D01*
X15674468Y-11497031D02*
X15664944Y-11468460D01*
X15664944Y-11468460D02*
X15655420Y-11420841D01*
X15655420Y-11420841D02*
X15655420Y-11382746D01*
X15655420Y-11382746D02*
X15664944Y-11335127D01*
X15664944Y-11335127D02*
X15674468Y-11306555D01*
X15674468Y-11306555D02*
X15683991Y-11287508D01*
X15683991Y-11287508D02*
X15703039Y-11258936D01*
X15703039Y-11258936D02*
X15712563Y-11249412D01*
X15893515Y-11477984D02*
X15779229Y-11477984D01*
X15836372Y-11477984D02*
X15836372Y-11277984D01*
X15836372Y-11277984D02*
X15817325Y-11306555D01*
X15817325Y-11306555D02*
X15798277Y-11325603D01*
X15798277Y-11325603D02*
X15779229Y-11335127D01*
X15960182Y-11277984D02*
X16083991Y-11277984D01*
X16083991Y-11277984D02*
X16017325Y-11354174D01*
X16017325Y-11354174D02*
X16045896Y-11354174D01*
X16045896Y-11354174D02*
X16064944Y-11363698D01*
X16064944Y-11363698D02*
X16074468Y-11373222D01*
X16074468Y-11373222D02*
X16083991Y-11392269D01*
X16083991Y-11392269D02*
X16083991Y-11439888D01*
X16083991Y-11439888D02*
X16074468Y-11458936D01*
X16074468Y-11458936D02*
X16064944Y-11468460D01*
X16064944Y-11468460D02*
X16045896Y-11477984D01*
X16045896Y-11477984D02*
X15988753Y-11477984D01*
X15988753Y-11477984D02*
X15969706Y-11468460D01*
X15969706Y-11468460D02*
X15960182Y-11458936D01*
X16322087Y-11477984D02*
X16322087Y-11277984D01*
X16407801Y-11477984D02*
X16407801Y-11373222D01*
X16407801Y-11373222D02*
X16398277Y-11354174D01*
X16398277Y-11354174D02*
X16379230Y-11344650D01*
X16379230Y-11344650D02*
X16350658Y-11344650D01*
X16350658Y-11344650D02*
X16331610Y-11354174D01*
X16331610Y-11354174D02*
X16322087Y-11363698D01*
X16531610Y-11477984D02*
X16512563Y-11468460D01*
X16512563Y-11468460D02*
X16503039Y-11458936D01*
X16503039Y-11458936D02*
X16493515Y-11439888D01*
X16493515Y-11439888D02*
X16493515Y-11382746D01*
X16493515Y-11382746D02*
X16503039Y-11363698D01*
X16503039Y-11363698D02*
X16512563Y-11354174D01*
X16512563Y-11354174D02*
X16531610Y-11344650D01*
X16531610Y-11344650D02*
X16560182Y-11344650D01*
X16560182Y-11344650D02*
X16579230Y-11354174D01*
X16579230Y-11354174D02*
X16588753Y-11363698D01*
X16588753Y-11363698D02*
X16598277Y-11382746D01*
X16598277Y-11382746D02*
X16598277Y-11439888D01*
X16598277Y-11439888D02*
X16588753Y-11458936D01*
X16588753Y-11458936D02*
X16579230Y-11468460D01*
X16579230Y-11468460D02*
X16560182Y-11477984D01*
X16560182Y-11477984D02*
X16531610Y-11477984D01*
X16712563Y-11477984D02*
X16693515Y-11468460D01*
X16693515Y-11468460D02*
X16683991Y-11449412D01*
X16683991Y-11449412D02*
X16683991Y-11277984D01*
X16864944Y-11468460D02*
X16845896Y-11477984D01*
X16845896Y-11477984D02*
X16807801Y-11477984D01*
X16807801Y-11477984D02*
X16788753Y-11468460D01*
X16788753Y-11468460D02*
X16779230Y-11449412D01*
X16779230Y-11449412D02*
X16779230Y-11373222D01*
X16779230Y-11373222D02*
X16788753Y-11354174D01*
X16788753Y-11354174D02*
X16807801Y-11344650D01*
X16807801Y-11344650D02*
X16845896Y-11344650D01*
X16845896Y-11344650D02*
X16864944Y-11354174D01*
X16864944Y-11354174D02*
X16874468Y-11373222D01*
X16874468Y-11373222D02*
X16874468Y-11392269D01*
X16874468Y-11392269D02*
X16779230Y-11411317D01*
X16950658Y-11468460D02*
X16969706Y-11477984D01*
X16969706Y-11477984D02*
X17007801Y-11477984D01*
X17007801Y-11477984D02*
X17026849Y-11468460D01*
X17026849Y-11468460D02*
X17036373Y-11449412D01*
X17036373Y-11449412D02*
X17036373Y-11439888D01*
X17036373Y-11439888D02*
X17026849Y-11420841D01*
X17026849Y-11420841D02*
X17007801Y-11411317D01*
X17007801Y-11411317D02*
X16979230Y-11411317D01*
X16979230Y-11411317D02*
X16960182Y-11401793D01*
X16960182Y-11401793D02*
X16950658Y-11382746D01*
X16950658Y-11382746D02*
X16950658Y-11373222D01*
X16950658Y-11373222D02*
X16960182Y-11354174D01*
X16960182Y-11354174D02*
X16979230Y-11344650D01*
X16979230Y-11344650D02*
X17007801Y-11344650D01*
X17007801Y-11344650D02*
X17026849Y-11354174D01*
X17103039Y-11554174D02*
X17112563Y-11544650D01*
X17112563Y-11544650D02*
X17131611Y-11516079D01*
X17131611Y-11516079D02*
X17141134Y-11497031D01*
X17141134Y-11497031D02*
X17150658Y-11468460D01*
X17150658Y-11468460D02*
X17160182Y-11420841D01*
X17160182Y-11420841D02*
X17160182Y-11382746D01*
X17160182Y-11382746D02*
X17150658Y-11335127D01*
X17150658Y-11335127D02*
X17141134Y-11306555D01*
X17141134Y-11306555D02*
X17131611Y-11287508D01*
X17131611Y-11287508D02*
X17112563Y-11258936D01*
X17112563Y-11258936D02*
X17103039Y-11249412D01*
M02*
