G04 #@! TF.GenerationSoftware,KiCad,Pcbnew,8.0.1*
G04 #@! TF.CreationDate,2024-06-04T21:42:42+02:00*
G04 #@! TF.ProjectId,BMW E30 VFL SI Indicator,424d5720-4533-4302-9056-464c20534920,rev?*
G04 #@! TF.SameCoordinates,Original*
G04 #@! TF.FileFunction,Legend,Top*
G04 #@! TF.FilePolarity,Positive*
%FSLAX46Y46*%
G04 Gerber Fmt 4.6, Leading zero omitted, Abs format (unit mm)*
G04 Created by KiCad (PCBNEW 8.0.1) date 2024-06-04 21:42:42*
%MOMM*%
%LPD*%
G01*
G04 APERTURE LIST*
%ADD10C,0.300000*%
%ADD11C,0.120000*%
G04 APERTURE END LIST*
D10*
G36*
X176564466Y-99855680D02*
G01*
X176603132Y-99892671D01*
X176655744Y-99994004D01*
X176720923Y-100245196D01*
X176723312Y-100565432D01*
X176662713Y-100817334D01*
X176608575Y-100929867D01*
X176571584Y-100968532D01*
X176481375Y-101015369D01*
X176408677Y-101016586D01*
X176320103Y-100973975D01*
X176281440Y-100936986D01*
X176228824Y-100835649D01*
X176163647Y-100584460D01*
X176161258Y-100264223D01*
X176221857Y-100012320D01*
X176275994Y-99899789D01*
X176312984Y-99861125D01*
X176403197Y-99814286D01*
X176475893Y-99813069D01*
X176564466Y-99855680D01*
G37*
G36*
X171921610Y-97440764D02*
G01*
X171960276Y-97477755D01*
X172012888Y-97579088D01*
X172078067Y-97830280D01*
X172080456Y-98150516D01*
X172019857Y-98402418D01*
X171965719Y-98514951D01*
X171928728Y-98553616D01*
X171838519Y-98600453D01*
X171765821Y-98601670D01*
X171677247Y-98559059D01*
X171638584Y-98522070D01*
X171585968Y-98420733D01*
X171520791Y-98169544D01*
X171518402Y-97849307D01*
X171579001Y-97597404D01*
X171633138Y-97484873D01*
X171670128Y-97446209D01*
X171760341Y-97399370D01*
X171833037Y-97398153D01*
X171921610Y-97440764D01*
G37*
G36*
X178470356Y-101481495D02*
G01*
X171054191Y-101481495D01*
X171054191Y-99683589D01*
X172293464Y-99683589D01*
X172299984Y-99712262D01*
X172796877Y-101194098D01*
X172797613Y-101204448D01*
X172805916Y-101221055D01*
X172811972Y-101239113D01*
X172818994Y-101247210D01*
X172823787Y-101256795D01*
X172837993Y-101269116D01*
X172850319Y-101283328D01*
X172859906Y-101288121D01*
X172868001Y-101295142D01*
X172885843Y-101301089D01*
X172902667Y-101309501D01*
X172913357Y-101310260D01*
X172923525Y-101313650D01*
X172942281Y-101312317D01*
X172961047Y-101313651D01*
X172971217Y-101310260D01*
X172981906Y-101309501D01*
X172998727Y-101301090D01*
X173016571Y-101295142D01*
X173024667Y-101288119D01*
X173034253Y-101283327D01*
X173046576Y-101269118D01*
X173060785Y-101256795D01*
X173065577Y-101247209D01*
X173072600Y-101239113D01*
X173084588Y-101212262D01*
X173461536Y-100074639D01*
X173722035Y-100074639D01*
X173726184Y-100133019D01*
X173752358Y-100185368D01*
X173796573Y-100223715D01*
X173852096Y-100242222D01*
X173910476Y-100238073D01*
X173937939Y-100227564D01*
X174080481Y-100153554D01*
X174097049Y-100146692D01*
X174102819Y-100141956D01*
X174105682Y-100140470D01*
X174108278Y-100137476D01*
X174119780Y-100128037D01*
X174150242Y-100096806D01*
X174151975Y-101016700D01*
X173841593Y-101017710D01*
X173787521Y-101040108D01*
X173746137Y-101081492D01*
X173723739Y-101135564D01*
X173723739Y-101194092D01*
X173746137Y-101248164D01*
X173787521Y-101289548D01*
X173841593Y-101311946D01*
X173870857Y-101314828D01*
X174757264Y-101311946D01*
X174811336Y-101289548D01*
X174852720Y-101248164D01*
X174875118Y-101194092D01*
X174875118Y-101135564D01*
X174869774Y-101122663D01*
X175152310Y-101122663D01*
X175174707Y-101176735D01*
X175193362Y-101199466D01*
X175287520Y-101289549D01*
X175309917Y-101298825D01*
X175341592Y-101311946D01*
X175400120Y-101311946D01*
X175440687Y-101295142D01*
X175454191Y-101289549D01*
X175454195Y-101289544D01*
X175476921Y-101270895D01*
X175567005Y-101176736D01*
X175567006Y-101176735D01*
X175589403Y-101122663D01*
X175589403Y-101064137D01*
X175567006Y-101010065D01*
X175548351Y-100987334D01*
X175454191Y-100897250D01*
X175422517Y-100884130D01*
X175400120Y-100874853D01*
X175341592Y-100874853D01*
X175319195Y-100884130D01*
X175287521Y-100897250D01*
X175287520Y-100897251D01*
X175264789Y-100915906D01*
X175174729Y-101010042D01*
X175174707Y-101010065D01*
X175152310Y-101064137D01*
X175152310Y-101122663D01*
X174869774Y-101122663D01*
X174852720Y-101081492D01*
X174811336Y-101040108D01*
X174757264Y-101017710D01*
X174728000Y-101014828D01*
X174449147Y-101015734D01*
X174447678Y-100236257D01*
X175863714Y-100236257D01*
X175866310Y-100584430D01*
X175863891Y-100600691D01*
X175866567Y-100618785D01*
X175866596Y-100622664D01*
X175867443Y-100624708D01*
X175868193Y-100629780D01*
X175939450Y-100904400D01*
X175940469Y-100918733D01*
X175948857Y-100940653D01*
X175949514Y-100943185D01*
X175950158Y-100944055D01*
X175950978Y-100946196D01*
X176024987Y-101088738D01*
X176031850Y-101105306D01*
X176036585Y-101111076D01*
X176038072Y-101113939D01*
X176041065Y-101116535D01*
X176050505Y-101128037D01*
X176125660Y-101199938D01*
X176136033Y-101211899D01*
X176142256Y-101215816D01*
X176144665Y-101218121D01*
X176148326Y-101219637D01*
X176160918Y-101227564D01*
X176285443Y-101287470D01*
X176287521Y-101289548D01*
X176303643Y-101296226D01*
X176331239Y-101309502D01*
X176336614Y-101309883D01*
X176341593Y-101311946D01*
X176370857Y-101314828D01*
X176492381Y-101312793D01*
X176494952Y-101313650D01*
X176511521Y-101312472D01*
X176542978Y-101311946D01*
X176547956Y-101309883D01*
X176553332Y-101309502D01*
X176580796Y-101298992D01*
X176723337Y-101224983D01*
X176739906Y-101218121D01*
X176745676Y-101213385D01*
X176748539Y-101211899D01*
X176751135Y-101208905D01*
X176762637Y-101199466D01*
X176834538Y-101124310D01*
X176846499Y-101113938D01*
X176850416Y-101107714D01*
X176852721Y-101105306D01*
X176854237Y-101101644D01*
X176862164Y-101089053D01*
X176927305Y-100953645D01*
X176935056Y-100943186D01*
X176942899Y-100921231D01*
X176944102Y-100918732D01*
X176944178Y-100917650D01*
X176944949Y-100915495D01*
X177011819Y-100637524D01*
X177017975Y-100622664D01*
X177019763Y-100604500D01*
X177020680Y-100600692D01*
X177020354Y-100598503D01*
X177020857Y-100593400D01*
X177018260Y-100245225D01*
X177020680Y-100228965D01*
X177018003Y-100210870D01*
X177017975Y-100206993D01*
X177017128Y-100204948D01*
X177016378Y-100199876D01*
X176945120Y-99925257D01*
X176944102Y-99910924D01*
X176935714Y-99889005D01*
X176935056Y-99886470D01*
X176934409Y-99885597D01*
X176933592Y-99883461D01*
X176859583Y-99740918D01*
X176852720Y-99724349D01*
X176847984Y-99718578D01*
X176846499Y-99715718D01*
X176843507Y-99713123D01*
X176834065Y-99701618D01*
X176758918Y-99629725D01*
X176748539Y-99617758D01*
X176742310Y-99613837D01*
X176739905Y-99611536D01*
X176736248Y-99610021D01*
X176723653Y-99602093D01*
X176599128Y-99542186D01*
X176597050Y-99540108D01*
X176580918Y-99533426D01*
X176553333Y-99520155D01*
X176547958Y-99519773D01*
X176542978Y-99517710D01*
X176513714Y-99514828D01*
X176392188Y-99516862D01*
X176389618Y-99516006D01*
X176373053Y-99517183D01*
X176341593Y-99517710D01*
X176336612Y-99519773D01*
X176331238Y-99520155D01*
X176303774Y-99530664D01*
X176161230Y-99604674D01*
X176144665Y-99611536D01*
X176138894Y-99616271D01*
X176136032Y-99617758D01*
X176133435Y-99620751D01*
X176121935Y-99630190D01*
X176050037Y-99705339D01*
X176038072Y-99715717D01*
X176034153Y-99721942D01*
X176031851Y-99724349D01*
X176030335Y-99728007D01*
X176022407Y-99740603D01*
X175957265Y-99876010D01*
X175949514Y-99886471D01*
X175941670Y-99908425D01*
X175940469Y-99910923D01*
X175940392Y-99912003D01*
X175939621Y-99914162D01*
X175872751Y-100192131D01*
X175866596Y-100206993D01*
X175864807Y-100225158D01*
X175863891Y-100228966D01*
X175864216Y-100231153D01*
X175863714Y-100236257D01*
X174447678Y-100236257D01*
X174446627Y-99678827D01*
X174449428Y-99664670D01*
X174446573Y-99650400D01*
X174446546Y-99635564D01*
X174440862Y-99621843D01*
X174437950Y-99607281D01*
X174429771Y-99595068D01*
X174424148Y-99581492D01*
X174413649Y-99570993D01*
X174405384Y-99558651D01*
X174393153Y-99550497D01*
X174382764Y-99540108D01*
X174369045Y-99534425D01*
X174356685Y-99526185D01*
X174342266Y-99523332D01*
X174328692Y-99517710D01*
X174313841Y-99517710D01*
X174299271Y-99514828D01*
X174284861Y-99517710D01*
X174270164Y-99517710D01*
X174256442Y-99523393D01*
X174241881Y-99526306D01*
X174229668Y-99534484D01*
X174216092Y-99540108D01*
X174205593Y-99550606D01*
X174193251Y-99558872D01*
X174174819Y-99581380D01*
X174174708Y-99581492D01*
X174174687Y-99581542D01*
X174174621Y-99581623D01*
X174048269Y-99775339D01*
X173930300Y-99896286D01*
X173778889Y-99974901D01*
X173740542Y-100019116D01*
X173722035Y-100074639D01*
X173461536Y-100074639D01*
X173591109Y-99683588D01*
X173586959Y-99625208D01*
X173560785Y-99572861D01*
X173516571Y-99534514D01*
X173461047Y-99516005D01*
X173402667Y-99520155D01*
X173350319Y-99546328D01*
X173311972Y-99590543D01*
X173299984Y-99617394D01*
X172942936Y-100694959D01*
X172572600Y-99590543D01*
X172534253Y-99546329D01*
X172481906Y-99520155D01*
X172423525Y-99516006D01*
X172368001Y-99534514D01*
X172323787Y-99572861D01*
X172297613Y-99625208D01*
X172293464Y-99683589D01*
X171054191Y-99683589D01*
X171054191Y-99107213D01*
X173935143Y-99107213D01*
X173946621Y-99164602D01*
X173979187Y-99213232D01*
X174027886Y-99245697D01*
X174085301Y-99257055D01*
X174142690Y-99245577D01*
X174191320Y-99213011D01*
X174209951Y-99190260D01*
X174483279Y-98779175D01*
X175580882Y-98779175D01*
X175603279Y-98833247D01*
X175644665Y-98874633D01*
X175667463Y-98884076D01*
X175698736Y-98897030D01*
X175728000Y-98899912D01*
X176685836Y-98897030D01*
X176739908Y-98874632D01*
X176781292Y-98833248D01*
X176803690Y-98779176D01*
X176803690Y-98720648D01*
X176781292Y-98666576D01*
X176739908Y-98625192D01*
X176685836Y-98602794D01*
X176656572Y-98599912D01*
X176087240Y-98601625D01*
X176455998Y-98231151D01*
X177079178Y-98231151D01*
X177080882Y-98255128D01*
X177080882Y-98279176D01*
X177082944Y-98284156D01*
X177083327Y-98289532D01*
X177094079Y-98311036D01*
X177103280Y-98333248D01*
X177107090Y-98337058D01*
X177109501Y-98341879D01*
X177127662Y-98357630D01*
X177144664Y-98374632D01*
X177149643Y-98376694D01*
X177153715Y-98380226D01*
X177176521Y-98387828D01*
X177198736Y-98397030D01*
X177206387Y-98397783D01*
X177209239Y-98398734D01*
X177213188Y-98398453D01*
X177228000Y-98399912D01*
X177794101Y-98398208D01*
X177795168Y-98779176D01*
X177817566Y-98833248D01*
X177858950Y-98874632D01*
X177913022Y-98897030D01*
X177971550Y-98897030D01*
X178025622Y-98874632D01*
X178067006Y-98833248D01*
X178089404Y-98779176D01*
X178092286Y-98749912D01*
X178091298Y-98397314D01*
X178185835Y-98397030D01*
X178239907Y-98374632D01*
X178281291Y-98333248D01*
X178303689Y-98279176D01*
X178303689Y-98220648D01*
X178281291Y-98166576D01*
X178239907Y-98125192D01*
X178185835Y-98102794D01*
X178156571Y-98099912D01*
X178090466Y-98100110D01*
X178089404Y-97720648D01*
X178067006Y-97666576D01*
X178025622Y-97625192D01*
X177971550Y-97602794D01*
X177913022Y-97602794D01*
X177858950Y-97625192D01*
X177817566Y-97666576D01*
X177795168Y-97720648D01*
X177792286Y-97749912D01*
X177793269Y-98101005D01*
X177434850Y-98102083D01*
X177733965Y-97197245D01*
X177729816Y-97138865D01*
X177703642Y-97086518D01*
X177659428Y-97048170D01*
X177603903Y-97029662D01*
X177545523Y-97033811D01*
X177493176Y-97059985D01*
X177454829Y-97104199D01*
X177442840Y-97131050D01*
X177089636Y-98199513D01*
X177080882Y-98220648D01*
X177080882Y-98225996D01*
X177079178Y-98231151D01*
X176455998Y-98231151D01*
X176672637Y-98013504D01*
X176677109Y-98011269D01*
X176692321Y-97993729D01*
X176709864Y-97976105D01*
X176711927Y-97971123D01*
X176715457Y-97967054D01*
X176727445Y-97940204D01*
X176796302Y-97725583D01*
X176803690Y-97707748D01*
X176804427Y-97700256D01*
X176805394Y-97697245D01*
X176805113Y-97693295D01*
X176806572Y-97678484D01*
X176804537Y-97556957D01*
X176805394Y-97554387D01*
X176804216Y-97537822D01*
X176803690Y-97506362D01*
X176801626Y-97501381D01*
X176801245Y-97496007D01*
X176790736Y-97468543D01*
X176716725Y-97326000D01*
X176709864Y-97309433D01*
X176705127Y-97303661D01*
X176703642Y-97300801D01*
X176700649Y-97298205D01*
X176691209Y-97286703D01*
X176616059Y-97214806D01*
X176605683Y-97202842D01*
X176599457Y-97198923D01*
X176597050Y-97196620D01*
X176593390Y-97195104D01*
X176580797Y-97187177D01*
X176456269Y-97127268D01*
X176454193Y-97125192D01*
X176438075Y-97118515D01*
X176410476Y-97105238D01*
X176405098Y-97104855D01*
X176400121Y-97102794D01*
X176370857Y-97099912D01*
X176036424Y-97102406D01*
X176032476Y-97101090D01*
X176011313Y-97102593D01*
X175984451Y-97102794D01*
X175979473Y-97104855D01*
X175974096Y-97105238D01*
X175946633Y-97115748D01*
X175804090Y-97189757D01*
X175787521Y-97196620D01*
X175781749Y-97201356D01*
X175778889Y-97202842D01*
X175776293Y-97205834D01*
X175764791Y-97215275D01*
X175674708Y-97309434D01*
X175652311Y-97363506D01*
X175652311Y-97422032D01*
X175674708Y-97476104D01*
X175716094Y-97517490D01*
X175770166Y-97539887D01*
X175828692Y-97539887D01*
X175882764Y-97517490D01*
X175905495Y-97498835D01*
X175955843Y-97446208D01*
X176045467Y-97399675D01*
X176331761Y-97397539D01*
X176421611Y-97440765D01*
X176460275Y-97477755D01*
X176507113Y-97567966D01*
X176508472Y-97649120D01*
X176457317Y-97808563D01*
X175603279Y-98666577D01*
X175590576Y-98697246D01*
X175584001Y-98713120D01*
X175580882Y-98720649D01*
X175580882Y-98779175D01*
X174483279Y-98779175D01*
X175509499Y-97235741D01*
X175520857Y-97178326D01*
X175509379Y-97120937D01*
X175476813Y-97072307D01*
X175428114Y-97039842D01*
X175370700Y-97028484D01*
X175313310Y-97039962D01*
X175264680Y-97072528D01*
X175246050Y-97095279D01*
X173946501Y-99049798D01*
X173935143Y-99107213D01*
X171054191Y-99107213D01*
X171054191Y-97821341D01*
X171220858Y-97821341D01*
X171223454Y-98169514D01*
X171221035Y-98185775D01*
X171223711Y-98203869D01*
X171223740Y-98207748D01*
X171224587Y-98209792D01*
X171225337Y-98214864D01*
X171296594Y-98489484D01*
X171297613Y-98503817D01*
X171306001Y-98525737D01*
X171306658Y-98528269D01*
X171307302Y-98529139D01*
X171308122Y-98531280D01*
X171382131Y-98673822D01*
X171388994Y-98690390D01*
X171393729Y-98696160D01*
X171395216Y-98699023D01*
X171398209Y-98701619D01*
X171407649Y-98713121D01*
X171482804Y-98785022D01*
X171493177Y-98796983D01*
X171499400Y-98800900D01*
X171501809Y-98803205D01*
X171505470Y-98804721D01*
X171518062Y-98812648D01*
X171642587Y-98872554D01*
X171644665Y-98874632D01*
X171660787Y-98881310D01*
X171688383Y-98894586D01*
X171693758Y-98894967D01*
X171698737Y-98897030D01*
X171728001Y-98899912D01*
X171849525Y-98897877D01*
X171852096Y-98898734D01*
X171868665Y-98897556D01*
X171900122Y-98897030D01*
X171905100Y-98894967D01*
X171910476Y-98894586D01*
X171937940Y-98884076D01*
X172080481Y-98810067D01*
X172097050Y-98803205D01*
X172102820Y-98798469D01*
X172105683Y-98796983D01*
X172108279Y-98793989D01*
X172119781Y-98784550D01*
X172191682Y-98709394D01*
X172203643Y-98699022D01*
X172207560Y-98692798D01*
X172209865Y-98690390D01*
X172211381Y-98686728D01*
X172219308Y-98674137D01*
X172284449Y-98538729D01*
X172292200Y-98528270D01*
X172300043Y-98506315D01*
X172301246Y-98503816D01*
X172301322Y-98502734D01*
X172302093Y-98500579D01*
X172368963Y-98222608D01*
X172375119Y-98207748D01*
X172376907Y-98189584D01*
X172377824Y-98185776D01*
X172377498Y-98183587D01*
X172378001Y-98178484D01*
X172376511Y-97978678D01*
X172650129Y-97978678D01*
X172652311Y-97985909D01*
X172652311Y-97993462D01*
X172660702Y-98013721D01*
X172667036Y-98034710D01*
X172671817Y-98040554D01*
X172674709Y-98047534D01*
X172690213Y-98063037D01*
X172704097Y-98080007D01*
X172710753Y-98083578D01*
X172716095Y-98088919D01*
X172736349Y-98097308D01*
X172755672Y-98107674D01*
X172763189Y-98108425D01*
X172770167Y-98111316D01*
X172792090Y-98111316D01*
X172813909Y-98113498D01*
X172821140Y-98111316D01*
X172828693Y-98111316D01*
X172848952Y-98102924D01*
X172869941Y-98096591D01*
X172875785Y-98091809D01*
X172882765Y-98088918D01*
X172905496Y-98070263D01*
X172955844Y-98017636D01*
X173045466Y-97971104D01*
X173331762Y-97968968D01*
X173421611Y-98012193D01*
X173460274Y-98049182D01*
X173506808Y-98138808D01*
X173508944Y-98425102D01*
X173465719Y-98514951D01*
X173428730Y-98553614D01*
X173339103Y-98600148D01*
X173052810Y-98602284D01*
X172962959Y-98559059D01*
X172882765Y-98482335D01*
X172828693Y-98459937D01*
X172770167Y-98459937D01*
X172716095Y-98482334D01*
X172674709Y-98523719D01*
X172652311Y-98577791D01*
X172652311Y-98636317D01*
X172674708Y-98690389D01*
X172693362Y-98713120D01*
X172768510Y-98785016D01*
X172778890Y-98796984D01*
X172785115Y-98800902D01*
X172787521Y-98803204D01*
X172791179Y-98804719D01*
X172803776Y-98812648D01*
X172928301Y-98872554D01*
X172930379Y-98874632D01*
X172946501Y-98881310D01*
X172974097Y-98894586D01*
X172979472Y-98894967D01*
X172984451Y-98897030D01*
X173013715Y-98899912D01*
X173348146Y-98897417D01*
X173352095Y-98898734D01*
X173373257Y-98897230D01*
X173400121Y-98897030D01*
X173405099Y-98894967D01*
X173410475Y-98894586D01*
X173437938Y-98884076D01*
X173580478Y-98810068D01*
X173597051Y-98803204D01*
X173602821Y-98798468D01*
X173605682Y-98796983D01*
X173608276Y-98793991D01*
X173619782Y-98784549D01*
X173691677Y-98709399D01*
X173703642Y-98699023D01*
X173707560Y-98692797D01*
X173709864Y-98690390D01*
X173711379Y-98686730D01*
X173719307Y-98674137D01*
X173779213Y-98549612D01*
X173781292Y-98547534D01*
X173787973Y-98531402D01*
X173801245Y-98503817D01*
X173801626Y-98498442D01*
X173803690Y-98493462D01*
X173806572Y-98464198D01*
X173804077Y-98129765D01*
X173805394Y-98125816D01*
X173803890Y-98104658D01*
X173803690Y-98077791D01*
X173801626Y-98072810D01*
X173801245Y-98067436D01*
X173790736Y-98039972D01*
X173716725Y-97897428D01*
X173709864Y-97880863D01*
X173705128Y-97875092D01*
X173703642Y-97872230D01*
X173700648Y-97869633D01*
X173691210Y-97858133D01*
X173616057Y-97786233D01*
X173605682Y-97774270D01*
X173599458Y-97770352D01*
X173597051Y-97768049D01*
X173593391Y-97766533D01*
X173580797Y-97758605D01*
X173456269Y-97698697D01*
X173454193Y-97696621D01*
X173438071Y-97689943D01*
X173410475Y-97676667D01*
X173405099Y-97676285D01*
X173400121Y-97674223D01*
X173370857Y-97671341D01*
X173036426Y-97673835D01*
X173032478Y-97672519D01*
X173011315Y-97674022D01*
X172984451Y-97674223D01*
X172979472Y-97676285D01*
X172977777Y-97676405D01*
X173004399Y-97399394D01*
X173614407Y-97397030D01*
X173668479Y-97374632D01*
X173709863Y-97333248D01*
X173732261Y-97279176D01*
X173732261Y-97220648D01*
X173709863Y-97166576D01*
X173668479Y-97125192D01*
X173614407Y-97102794D01*
X173585143Y-97099912D01*
X172876823Y-97102657D01*
X172856377Y-97100613D01*
X172849246Y-97102764D01*
X172841593Y-97102794D01*
X172821330Y-97111187D01*
X172800345Y-97117519D01*
X172794500Y-97122300D01*
X172787521Y-97125192D01*
X172772015Y-97140697D01*
X172755048Y-97154580D01*
X172751477Y-97161235D01*
X172746137Y-97166576D01*
X172737745Y-97186833D01*
X172727381Y-97206155D01*
X172725166Y-97217202D01*
X172723739Y-97220648D01*
X172723739Y-97224322D01*
X172721601Y-97234987D01*
X172654943Y-97928580D01*
X172652311Y-97934936D01*
X172652311Y-97955973D01*
X172650129Y-97978678D01*
X172376511Y-97978678D01*
X172375404Y-97830309D01*
X172377824Y-97814049D01*
X172375147Y-97795954D01*
X172375119Y-97792077D01*
X172374272Y-97790032D01*
X172373522Y-97784960D01*
X172302264Y-97510341D01*
X172301246Y-97496008D01*
X172292858Y-97474089D01*
X172292200Y-97471554D01*
X172291553Y-97470681D01*
X172290736Y-97468545D01*
X172216727Y-97326002D01*
X172209864Y-97309433D01*
X172205128Y-97303662D01*
X172203643Y-97300802D01*
X172200651Y-97298207D01*
X172191209Y-97286702D01*
X172116062Y-97214809D01*
X172105683Y-97202842D01*
X172099454Y-97198921D01*
X172097049Y-97196620D01*
X172093392Y-97195105D01*
X172080797Y-97187177D01*
X171956272Y-97127270D01*
X171954194Y-97125192D01*
X171938062Y-97118510D01*
X171910477Y-97105239D01*
X171905102Y-97104857D01*
X171900122Y-97102794D01*
X171870858Y-97099912D01*
X171749332Y-97101946D01*
X171746762Y-97101090D01*
X171730197Y-97102267D01*
X171698737Y-97102794D01*
X171693756Y-97104857D01*
X171688382Y-97105239D01*
X171660918Y-97115748D01*
X171518374Y-97189758D01*
X171501809Y-97196620D01*
X171496038Y-97201355D01*
X171493176Y-97202842D01*
X171490579Y-97205835D01*
X171479079Y-97215274D01*
X171407181Y-97290423D01*
X171395216Y-97300801D01*
X171391297Y-97307026D01*
X171388995Y-97309433D01*
X171387479Y-97313091D01*
X171379551Y-97325687D01*
X171314409Y-97461094D01*
X171306658Y-97471555D01*
X171298814Y-97493509D01*
X171297613Y-97496007D01*
X171297536Y-97497087D01*
X171296765Y-97499246D01*
X171229895Y-97777215D01*
X171223740Y-97792077D01*
X171221951Y-97810242D01*
X171221035Y-97814050D01*
X171221360Y-97816237D01*
X171220858Y-97821341D01*
X171054191Y-97821341D01*
X171054191Y-94834996D01*
X172256571Y-94834996D01*
X172259453Y-96364260D01*
X172281851Y-96418332D01*
X172323235Y-96459716D01*
X172377307Y-96482114D01*
X172435835Y-96482114D01*
X172489907Y-96459716D01*
X172531291Y-96418332D01*
X172553689Y-96364260D01*
X172556571Y-96334996D01*
X172556492Y-96292831D01*
X173473739Y-96292831D01*
X173496136Y-96346903D01*
X173514791Y-96369634D01*
X173608949Y-96459717D01*
X173631346Y-96468993D01*
X173663021Y-96482114D01*
X173721549Y-96482114D01*
X173759783Y-96466276D01*
X173775620Y-96459717D01*
X173775624Y-96459712D01*
X173798350Y-96441063D01*
X173888434Y-96346904D01*
X173888435Y-96346903D01*
X173910832Y-96292831D01*
X173910832Y-96234305D01*
X173888435Y-96180233D01*
X173869780Y-96157502D01*
X173775620Y-96067418D01*
X173742325Y-96053627D01*
X173721549Y-96045021D01*
X173663021Y-96045021D01*
X173642245Y-96053627D01*
X173608950Y-96067418D01*
X173608949Y-96067419D01*
X173586218Y-96086074D01*
X173496158Y-96180210D01*
X173496136Y-96180233D01*
X173473739Y-96234305D01*
X173473739Y-96292831D01*
X172556492Y-96292831D01*
X172555371Y-95698471D01*
X172935835Y-95696400D01*
X172989907Y-95674002D01*
X173031291Y-95632618D01*
X173053689Y-95578546D01*
X173053689Y-95520018D01*
X173036223Y-95477853D01*
X175328000Y-95477853D01*
X175330441Y-95684210D01*
X175328177Y-95699430D01*
X175330834Y-95717400D01*
X175330882Y-95721403D01*
X175331729Y-95723447D01*
X175332479Y-95728519D01*
X175403736Y-96003139D01*
X175404755Y-96017472D01*
X175413143Y-96039392D01*
X175413800Y-96041924D01*
X175414444Y-96042794D01*
X175415264Y-96044935D01*
X175489274Y-96187478D01*
X175496136Y-96204045D01*
X175500871Y-96209815D01*
X175502358Y-96212678D01*
X175505351Y-96215274D01*
X175514791Y-96226776D01*
X175643708Y-96352521D01*
X175645215Y-96355535D01*
X175659500Y-96367925D01*
X175680378Y-96388289D01*
X175685357Y-96390351D01*
X175689429Y-96393883D01*
X175716280Y-96405871D01*
X175930909Y-96474729D01*
X175948736Y-96482114D01*
X175956224Y-96482851D01*
X175959240Y-96483819D01*
X175963194Y-96483537D01*
X175978000Y-96484996D01*
X176122207Y-96482581D01*
X176139617Y-96483819D01*
X176146876Y-96482168D01*
X176150121Y-96482114D01*
X176153778Y-96480598D01*
X176168291Y-96477299D01*
X176360854Y-96410686D01*
X176364407Y-96410686D01*
X176382401Y-96403232D01*
X176409428Y-96393883D01*
X176413501Y-96390349D01*
X176418479Y-96388288D01*
X176441210Y-96369633D01*
X176514687Y-96292831D01*
X176830882Y-96292831D01*
X176853279Y-96346903D01*
X176871934Y-96369634D01*
X176966092Y-96459717D01*
X176988489Y-96468993D01*
X177020164Y-96482114D01*
X177078692Y-96482114D01*
X177116926Y-96466276D01*
X177132763Y-96459717D01*
X177132767Y-96459712D01*
X177155493Y-96441063D01*
X177245577Y-96346904D01*
X177245578Y-96346903D01*
X177267975Y-96292831D01*
X177267975Y-96234305D01*
X177245578Y-96180233D01*
X177226923Y-96157502D01*
X177132763Y-96067418D01*
X177099468Y-96053627D01*
X177078692Y-96045021D01*
X177020164Y-96045021D01*
X176999388Y-96053627D01*
X176966093Y-96067418D01*
X176966092Y-96067419D01*
X176943361Y-96086074D01*
X176853301Y-96180210D01*
X176853279Y-96180233D01*
X176830882Y-96234305D01*
X176830882Y-96292831D01*
X176514687Y-96292831D01*
X176531292Y-96275474D01*
X176548344Y-96234306D01*
X176553689Y-96221403D01*
X176556571Y-96192139D01*
X176553689Y-95662875D01*
X176531291Y-95608803D01*
X176489907Y-95567419D01*
X176435835Y-95545021D01*
X176406571Y-95542139D01*
X176091593Y-95545021D01*
X176037521Y-95567419D01*
X175996137Y-95608803D01*
X175973739Y-95662875D01*
X175973739Y-95721403D01*
X175996137Y-95775475D01*
X176037521Y-95816859D01*
X176091593Y-95839257D01*
X176120857Y-95842139D01*
X176257380Y-95840889D01*
X176258952Y-96129506D01*
X176256512Y-96132056D01*
X176102592Y-96185301D01*
X176007365Y-96186896D01*
X175847250Y-96135527D01*
X175746541Y-96037295D01*
X175693110Y-95934388D01*
X175627892Y-95683041D01*
X175625783Y-95504828D01*
X175686143Y-95253917D01*
X175740026Y-95141914D01*
X175840989Y-95038404D01*
X175995993Y-94984783D01*
X176153797Y-94982915D01*
X176295524Y-95051098D01*
X176353904Y-95055247D01*
X176409426Y-95036740D01*
X176453642Y-94998393D01*
X176479816Y-94946044D01*
X176483965Y-94887664D01*
X176465457Y-94832141D01*
X176427111Y-94787926D01*
X176402225Y-94772261D01*
X176277700Y-94712354D01*
X176275622Y-94710276D01*
X176259490Y-94703594D01*
X176231905Y-94690323D01*
X176226530Y-94689941D01*
X176221550Y-94687878D01*
X176192286Y-94684996D01*
X175978294Y-94687528D01*
X175959239Y-94686174D01*
X175951910Y-94687840D01*
X175948736Y-94687878D01*
X175945074Y-94689394D01*
X175930565Y-94692694D01*
X175738005Y-94759307D01*
X175734451Y-94759307D01*
X175716442Y-94766766D01*
X175689429Y-94776111D01*
X175685359Y-94779640D01*
X175680378Y-94781704D01*
X175657648Y-94800359D01*
X175516626Y-94944939D01*
X175502358Y-94957314D01*
X175498357Y-94963669D01*
X175496136Y-94965947D01*
X175494620Y-94969606D01*
X175486693Y-94982200D01*
X175421550Y-95117607D01*
X175413800Y-95128068D01*
X175405956Y-95150022D01*
X175404755Y-95152520D01*
X175404678Y-95153600D01*
X175403907Y-95155759D01*
X175337038Y-95433727D01*
X175330882Y-95448589D01*
X175329093Y-95466754D01*
X175328177Y-95470562D01*
X175328502Y-95472749D01*
X175328000Y-95477853D01*
X173036223Y-95477853D01*
X173031291Y-95465946D01*
X172989907Y-95424562D01*
X172935835Y-95402164D01*
X172906571Y-95399282D01*
X172554811Y-95401197D01*
X172554025Y-94984424D01*
X173150121Y-94982114D01*
X173204193Y-94959716D01*
X173245577Y-94918332D01*
X173267975Y-94864260D01*
X173267975Y-94805732D01*
X173245577Y-94751660D01*
X173204193Y-94710276D01*
X173150121Y-94687878D01*
X173120857Y-94684996D01*
X172377307Y-94687878D01*
X172323235Y-94710276D01*
X172281851Y-94751660D01*
X172259453Y-94805732D01*
X172256571Y-94834996D01*
X171054191Y-94834996D01*
X171054191Y-94518329D01*
X178470356Y-94518329D01*
X178470356Y-101481495D01*
G37*
G36*
X130416317Y-97322380D02*
G01*
X130517029Y-97420613D01*
X130570459Y-97523518D01*
X130635677Y-97774866D01*
X130637786Y-97953079D01*
X130577426Y-98203990D01*
X130523543Y-98315994D01*
X130422583Y-98419503D01*
X130267806Y-98473044D01*
X130078147Y-98474459D01*
X130075880Y-97271812D01*
X130254548Y-97270479D01*
X130416317Y-97322380D01*
G37*
G36*
X132050080Y-97313510D02*
G01*
X132149667Y-97410645D01*
X132207047Y-97631781D01*
X132209566Y-98094476D01*
X132152962Y-98329771D01*
X132059297Y-98425801D01*
X131967999Y-98473203D01*
X131753001Y-98475170D01*
X131663915Y-98432313D01*
X131564330Y-98335179D01*
X131506950Y-98114043D01*
X131504431Y-97651347D01*
X131561034Y-97416053D01*
X131654700Y-97320024D01*
X131746000Y-97272620D01*
X131960996Y-97270653D01*
X132050080Y-97313510D01*
G37*
G36*
X123202696Y-95621963D02*
G01*
X123232131Y-95650124D01*
X123278806Y-95740022D01*
X123280508Y-95883793D01*
X123237575Y-95973035D01*
X123200584Y-96011700D01*
X123111126Y-96058147D01*
X122721006Y-96060019D01*
X122720085Y-95571471D01*
X123039888Y-95569730D01*
X123202696Y-95621963D01*
G37*
G36*
X123122039Y-94898849D02*
G01*
X123160703Y-94935839D01*
X123207541Y-95026050D01*
X123208758Y-95098747D01*
X123166147Y-95187320D01*
X123129157Y-95225984D01*
X123039656Y-95272454D01*
X122719525Y-95274197D01*
X122718739Y-94857193D01*
X123031906Y-94855487D01*
X123122039Y-94898849D01*
G37*
G36*
X131907752Y-94898848D02*
G01*
X131946418Y-94935839D01*
X131999030Y-95037172D01*
X132064209Y-95288364D01*
X132066598Y-95608600D01*
X132005999Y-95860502D01*
X131951861Y-95973035D01*
X131914870Y-96011700D01*
X131824661Y-96058537D01*
X131751963Y-96059754D01*
X131663389Y-96017143D01*
X131624726Y-95980154D01*
X131572110Y-95878817D01*
X131506933Y-95627628D01*
X131504544Y-95307391D01*
X131565143Y-95055488D01*
X131619280Y-94942957D01*
X131656270Y-94904293D01*
X131746483Y-94857454D01*
X131819179Y-94856237D01*
X131907752Y-94898848D01*
G37*
G36*
X132816525Y-101354495D02*
G01*
X121897476Y-101354495D01*
X121897476Y-99823542D01*
X122064143Y-99823542D01*
X122066177Y-99945067D01*
X122065321Y-99947638D01*
X122066498Y-99964207D01*
X122067025Y-99995664D01*
X122069087Y-100000642D01*
X122069469Y-100006018D01*
X122079979Y-100033482D01*
X122153988Y-100176025D01*
X122160851Y-100192593D01*
X122165585Y-100198361D01*
X122167072Y-100201225D01*
X122170066Y-100203821D01*
X122179506Y-100215324D01*
X122254655Y-100287219D01*
X122265032Y-100299184D01*
X122271257Y-100303102D01*
X122273665Y-100305406D01*
X122277324Y-100306921D01*
X122289918Y-100314849D01*
X122425325Y-100379991D01*
X122435786Y-100387742D01*
X122457740Y-100395585D01*
X122460238Y-100396787D01*
X122461318Y-100396863D01*
X122463477Y-100397635D01*
X122723791Y-100460257D01*
X122836326Y-100514395D01*
X122874988Y-100551384D01*
X122921827Y-100641597D01*
X122923044Y-100714293D01*
X122880433Y-100802867D01*
X122843444Y-100841530D01*
X122753817Y-100888064D01*
X122459453Y-100890260D01*
X122232903Y-100817577D01*
X122174523Y-100821727D01*
X122122176Y-100847901D01*
X122083828Y-100892115D01*
X122065320Y-100947640D01*
X122069470Y-101006020D01*
X122095644Y-101058367D01*
X122139858Y-101096715D01*
X122166709Y-101108703D01*
X122381338Y-101177561D01*
X122399165Y-101184946D01*
X122406653Y-101185683D01*
X122409669Y-101186651D01*
X122413623Y-101186369D01*
X122428429Y-101187828D01*
X122762860Y-101185333D01*
X122766809Y-101186650D01*
X122787971Y-101185146D01*
X122814835Y-101184946D01*
X122819813Y-101182883D01*
X122825189Y-101182502D01*
X122852652Y-101171992D01*
X122995192Y-101097984D01*
X123011765Y-101091120D01*
X123017535Y-101086384D01*
X123020396Y-101084899D01*
X123022990Y-101081907D01*
X123034496Y-101072465D01*
X123106391Y-100997315D01*
X123118356Y-100986939D01*
X123122274Y-100980713D01*
X123124578Y-100978306D01*
X123126093Y-100974646D01*
X123134021Y-100962053D01*
X123193927Y-100837528D01*
X123196006Y-100835450D01*
X123202687Y-100819318D01*
X123215959Y-100791733D01*
X123216340Y-100786358D01*
X123218404Y-100781378D01*
X123221286Y-100752114D01*
X123219251Y-100630588D01*
X123220108Y-100628018D01*
X123218930Y-100611453D01*
X123218404Y-100579993D01*
X123216340Y-100575012D01*
X123215959Y-100569638D01*
X123205450Y-100542174D01*
X123131439Y-100399630D01*
X123124578Y-100383065D01*
X123119842Y-100377294D01*
X123118356Y-100374432D01*
X123115362Y-100371835D01*
X123105924Y-100360335D01*
X123030774Y-100288437D01*
X123020397Y-100276472D01*
X123014171Y-100272553D01*
X123011765Y-100270251D01*
X123008106Y-100268735D01*
X122995511Y-100260807D01*
X122860099Y-100195662D01*
X122849642Y-100187914D01*
X122827695Y-100180073D01*
X122825190Y-100178868D01*
X122824106Y-100178791D01*
X122821951Y-100178021D01*
X122561635Y-100115398D01*
X122449103Y-100061261D01*
X122410438Y-100024270D01*
X122363601Y-99934061D01*
X122362384Y-99861362D01*
X122404995Y-99772788D01*
X122441984Y-99734125D01*
X122531610Y-99687591D01*
X122825978Y-99685395D01*
X123052525Y-99758079D01*
X123110905Y-99753930D01*
X123163252Y-99727756D01*
X123201600Y-99683542D01*
X123220108Y-99628018D01*
X123215959Y-99569638D01*
X123200054Y-99537828D01*
X123564142Y-99537828D01*
X123567024Y-101067092D01*
X123589422Y-101121164D01*
X123630806Y-101162548D01*
X123684878Y-101184946D01*
X123743406Y-101184946D01*
X123797478Y-101162548D01*
X123838862Y-101121164D01*
X123861260Y-101067092D01*
X123864142Y-101037828D01*
X123861315Y-99537828D01*
X125421285Y-99537828D01*
X125424167Y-101067092D01*
X125446565Y-101121164D01*
X125487949Y-101162548D01*
X125542021Y-101184946D01*
X125571285Y-101187828D01*
X126314835Y-101184946D01*
X126368907Y-101162548D01*
X126410291Y-101121164D01*
X126432689Y-101067092D01*
X126432689Y-101008564D01*
X126410291Y-100954492D01*
X126368907Y-100913108D01*
X126314835Y-100890710D01*
X126285571Y-100887828D01*
X125721006Y-100890016D01*
X125718458Y-99537828D01*
X126635571Y-99537828D01*
X126638453Y-101067092D01*
X126660851Y-101121164D01*
X126702235Y-101162548D01*
X126756307Y-101184946D01*
X126814835Y-101184946D01*
X126868907Y-101162548D01*
X126910291Y-101121164D01*
X126932689Y-101067092D01*
X126935571Y-101037828D01*
X126933956Y-100180685D01*
X127278429Y-100180685D01*
X127280870Y-100387042D01*
X127278606Y-100402262D01*
X127281263Y-100420232D01*
X127281311Y-100424235D01*
X127282158Y-100426279D01*
X127282908Y-100431351D01*
X127354165Y-100705971D01*
X127355184Y-100720304D01*
X127363572Y-100742224D01*
X127364229Y-100744756D01*
X127364873Y-100745626D01*
X127365693Y-100747767D01*
X127439703Y-100890310D01*
X127446565Y-100906877D01*
X127451300Y-100912647D01*
X127452787Y-100915510D01*
X127455780Y-100918106D01*
X127465220Y-100929608D01*
X127594137Y-101055353D01*
X127595644Y-101058367D01*
X127609929Y-101070757D01*
X127630807Y-101091121D01*
X127635786Y-101093183D01*
X127639858Y-101096715D01*
X127666709Y-101108703D01*
X127881338Y-101177561D01*
X127899165Y-101184946D01*
X127906653Y-101185683D01*
X127909669Y-101186651D01*
X127913623Y-101186369D01*
X127928429Y-101187828D01*
X128072636Y-101185413D01*
X128090046Y-101186651D01*
X128097305Y-101185000D01*
X128100550Y-101184946D01*
X128104207Y-101183430D01*
X128118720Y-101180131D01*
X128311283Y-101113518D01*
X128314836Y-101113518D01*
X128332830Y-101106064D01*
X128359857Y-101096715D01*
X128363930Y-101093181D01*
X128368908Y-101091120D01*
X128391639Y-101072465D01*
X128481721Y-100978306D01*
X128501892Y-100929608D01*
X128504118Y-100924235D01*
X128507000Y-100894971D01*
X128504118Y-100365707D01*
X128481720Y-100311635D01*
X128440336Y-100270251D01*
X128386264Y-100247853D01*
X128357000Y-100244971D01*
X128042022Y-100247853D01*
X127987950Y-100270251D01*
X127946566Y-100311635D01*
X127924168Y-100365707D01*
X127924168Y-100424235D01*
X127946566Y-100478307D01*
X127987950Y-100519691D01*
X128042022Y-100542089D01*
X128071286Y-100544971D01*
X128207809Y-100543721D01*
X128209381Y-100832338D01*
X128206941Y-100834888D01*
X128053021Y-100888133D01*
X127957794Y-100889728D01*
X127797679Y-100838359D01*
X127696970Y-100740127D01*
X127643539Y-100637220D01*
X127578321Y-100385873D01*
X127576212Y-100207660D01*
X127636572Y-99956749D01*
X127690455Y-99844746D01*
X127791418Y-99741236D01*
X127946422Y-99687615D01*
X128104226Y-99685747D01*
X128245953Y-99753930D01*
X128304333Y-99758079D01*
X128359855Y-99739572D01*
X128404071Y-99701225D01*
X128430245Y-99648876D01*
X128434394Y-99590496D01*
X128416838Y-99537828D01*
X128849857Y-99537828D01*
X128852739Y-101067092D01*
X128875137Y-101121164D01*
X128916521Y-101162548D01*
X128970593Y-101184946D01*
X129029121Y-101184946D01*
X129083193Y-101162548D01*
X129124577Y-101121164D01*
X129146975Y-101067092D01*
X129149857Y-101037828D01*
X129148658Y-100401630D01*
X129708624Y-100399809D01*
X129709882Y-101067092D01*
X129732280Y-101121164D01*
X129773664Y-101162548D01*
X129827736Y-101184946D01*
X129886264Y-101184946D01*
X129940336Y-101162548D01*
X129981720Y-101121164D01*
X130004118Y-101067092D01*
X130007000Y-101037828D01*
X130004228Y-99567092D01*
X130209883Y-99567092D01*
X130232281Y-99621164D01*
X130273665Y-99662548D01*
X130327737Y-99684946D01*
X130357001Y-99687828D01*
X130635852Y-99686921D01*
X130638454Y-101067092D01*
X130660852Y-101121164D01*
X130702236Y-101162548D01*
X130756308Y-101184946D01*
X130814836Y-101184946D01*
X130868908Y-101162548D01*
X130910292Y-101121164D01*
X130932690Y-101067092D01*
X130935572Y-101037828D01*
X130933283Y-99823542D01*
X131492715Y-99823542D01*
X131494749Y-99945067D01*
X131493893Y-99947638D01*
X131495070Y-99964207D01*
X131495597Y-99995664D01*
X131497659Y-100000642D01*
X131498041Y-100006018D01*
X131508551Y-100033482D01*
X131582560Y-100176025D01*
X131589423Y-100192593D01*
X131594157Y-100198361D01*
X131595644Y-100201225D01*
X131598638Y-100203821D01*
X131608078Y-100215324D01*
X131683227Y-100287219D01*
X131693604Y-100299184D01*
X131699829Y-100303102D01*
X131702237Y-100305406D01*
X131705896Y-100306921D01*
X131718490Y-100314849D01*
X131853897Y-100379991D01*
X131864358Y-100387742D01*
X131886312Y-100395585D01*
X131888810Y-100396787D01*
X131889890Y-100396863D01*
X131892049Y-100397635D01*
X132152363Y-100460257D01*
X132264898Y-100514395D01*
X132303560Y-100551384D01*
X132350399Y-100641597D01*
X132351616Y-100714293D01*
X132309005Y-100802867D01*
X132272016Y-100841530D01*
X132182389Y-100888064D01*
X131888025Y-100890260D01*
X131661475Y-100817577D01*
X131603095Y-100821727D01*
X131550748Y-100847901D01*
X131512400Y-100892115D01*
X131493892Y-100947640D01*
X131498042Y-101006020D01*
X131524216Y-101058367D01*
X131568430Y-101096715D01*
X131595281Y-101108703D01*
X131809910Y-101177561D01*
X131827737Y-101184946D01*
X131835225Y-101185683D01*
X131838241Y-101186651D01*
X131842195Y-101186369D01*
X131857001Y-101187828D01*
X132191432Y-101185333D01*
X132195381Y-101186650D01*
X132216543Y-101185146D01*
X132243407Y-101184946D01*
X132248385Y-101182883D01*
X132253761Y-101182502D01*
X132281224Y-101171992D01*
X132423764Y-101097984D01*
X132440337Y-101091120D01*
X132446107Y-101086384D01*
X132448968Y-101084899D01*
X132451562Y-101081907D01*
X132463068Y-101072465D01*
X132534963Y-100997315D01*
X132546928Y-100986939D01*
X132550846Y-100980713D01*
X132553150Y-100978306D01*
X132554665Y-100974646D01*
X132562593Y-100962053D01*
X132622499Y-100837528D01*
X132624578Y-100835450D01*
X132631259Y-100819318D01*
X132644531Y-100791733D01*
X132644912Y-100786358D01*
X132646976Y-100781378D01*
X132649858Y-100752114D01*
X132647823Y-100630588D01*
X132648680Y-100628018D01*
X132647502Y-100611453D01*
X132646976Y-100579993D01*
X132644912Y-100575012D01*
X132644531Y-100569638D01*
X132634022Y-100542174D01*
X132560011Y-100399630D01*
X132553150Y-100383065D01*
X132548414Y-100377294D01*
X132546928Y-100374432D01*
X132543934Y-100371835D01*
X132534496Y-100360335D01*
X132459346Y-100288437D01*
X132448969Y-100276472D01*
X132442743Y-100272553D01*
X132440337Y-100270251D01*
X132436678Y-100268735D01*
X132424083Y-100260807D01*
X132288671Y-100195662D01*
X132278214Y-100187914D01*
X132256267Y-100180073D01*
X132253762Y-100178868D01*
X132252678Y-100178791D01*
X132250523Y-100178021D01*
X131990207Y-100115398D01*
X131877675Y-100061261D01*
X131839010Y-100024270D01*
X131792173Y-99934061D01*
X131790956Y-99861362D01*
X131833567Y-99772788D01*
X131870556Y-99734125D01*
X131960182Y-99687591D01*
X132254550Y-99685395D01*
X132481097Y-99758079D01*
X132539477Y-99753930D01*
X132591824Y-99727756D01*
X132630172Y-99683542D01*
X132648680Y-99628018D01*
X132644531Y-99569638D01*
X132618357Y-99517290D01*
X132574143Y-99478943D01*
X132547292Y-99466954D01*
X132332670Y-99398097D01*
X132314836Y-99390710D01*
X132307344Y-99389972D01*
X132304333Y-99389006D01*
X132300383Y-99389286D01*
X132285572Y-99387828D01*
X131951139Y-99390322D01*
X131947190Y-99389006D01*
X131926032Y-99390509D01*
X131899165Y-99390710D01*
X131894184Y-99392773D01*
X131888810Y-99393155D01*
X131861346Y-99403664D01*
X131718802Y-99477674D01*
X131702237Y-99484536D01*
X131696466Y-99489271D01*
X131693604Y-99490758D01*
X131691007Y-99493751D01*
X131679507Y-99503190D01*
X131607609Y-99578339D01*
X131595644Y-99588717D01*
X131591725Y-99594942D01*
X131589423Y-99597349D01*
X131587907Y-99601007D01*
X131579979Y-99613603D01*
X131520072Y-99738128D01*
X131517995Y-99740206D01*
X131511316Y-99756328D01*
X131498041Y-99783924D01*
X131497659Y-99789299D01*
X131495597Y-99794278D01*
X131492715Y-99823542D01*
X130933283Y-99823542D01*
X130933024Y-99685955D01*
X131243408Y-99684946D01*
X131297480Y-99662548D01*
X131338864Y-99621164D01*
X131361262Y-99567092D01*
X131361262Y-99508564D01*
X131338864Y-99454492D01*
X131297480Y-99413108D01*
X131243408Y-99390710D01*
X131214144Y-99387828D01*
X130327737Y-99390710D01*
X130273665Y-99413108D01*
X130232281Y-99454492D01*
X130209883Y-99508564D01*
X130209883Y-99567092D01*
X130004228Y-99567092D01*
X130004118Y-99508564D01*
X129981720Y-99454492D01*
X129940336Y-99413108D01*
X129886264Y-99390710D01*
X129827736Y-99390710D01*
X129773664Y-99413108D01*
X129732280Y-99454492D01*
X129709882Y-99508564D01*
X129707000Y-99537828D01*
X129708064Y-100102598D01*
X129148097Y-100104418D01*
X129146975Y-99508564D01*
X129124577Y-99454492D01*
X129083193Y-99413108D01*
X129029121Y-99390710D01*
X128970593Y-99390710D01*
X128916521Y-99413108D01*
X128875137Y-99454492D01*
X128852739Y-99508564D01*
X128849857Y-99537828D01*
X128416838Y-99537828D01*
X128415886Y-99534973D01*
X128377540Y-99490758D01*
X128352654Y-99475093D01*
X128228129Y-99415186D01*
X128226051Y-99413108D01*
X128209919Y-99406426D01*
X128182334Y-99393155D01*
X128176959Y-99392773D01*
X128171979Y-99390710D01*
X128142715Y-99387828D01*
X127928723Y-99390360D01*
X127909668Y-99389006D01*
X127902339Y-99390672D01*
X127899165Y-99390710D01*
X127895503Y-99392226D01*
X127880994Y-99395526D01*
X127688434Y-99462139D01*
X127684880Y-99462139D01*
X127666871Y-99469598D01*
X127639858Y-99478943D01*
X127635788Y-99482472D01*
X127630807Y-99484536D01*
X127608077Y-99503191D01*
X127467055Y-99647771D01*
X127452787Y-99660146D01*
X127448786Y-99666501D01*
X127446565Y-99668779D01*
X127445049Y-99672438D01*
X127437122Y-99685032D01*
X127371979Y-99820439D01*
X127364229Y-99830900D01*
X127356385Y-99852854D01*
X127355184Y-99855352D01*
X127355107Y-99856432D01*
X127354336Y-99858591D01*
X127287467Y-100136559D01*
X127281311Y-100151421D01*
X127279522Y-100169586D01*
X127278606Y-100173394D01*
X127278931Y-100175581D01*
X127278429Y-100180685D01*
X126933956Y-100180685D01*
X126932689Y-99508564D01*
X126910291Y-99454492D01*
X126868907Y-99413108D01*
X126814835Y-99390710D01*
X126756307Y-99390710D01*
X126702235Y-99413108D01*
X126660851Y-99454492D01*
X126638453Y-99508564D01*
X126635571Y-99537828D01*
X125718458Y-99537828D01*
X125718403Y-99508564D01*
X125696005Y-99454492D01*
X125654621Y-99413108D01*
X125600549Y-99390710D01*
X125542021Y-99390710D01*
X125487949Y-99413108D01*
X125446565Y-99454492D01*
X125424167Y-99508564D01*
X125421285Y-99537828D01*
X123861315Y-99537828D01*
X123861260Y-99508564D01*
X123838862Y-99454492D01*
X123797478Y-99413108D01*
X123743406Y-99390710D01*
X123684878Y-99390710D01*
X123630806Y-99413108D01*
X123589422Y-99454492D01*
X123567024Y-99508564D01*
X123564142Y-99537828D01*
X123200054Y-99537828D01*
X123189785Y-99517290D01*
X123145571Y-99478943D01*
X123118720Y-99466954D01*
X122904098Y-99398097D01*
X122886264Y-99390710D01*
X122878772Y-99389972D01*
X122875761Y-99389006D01*
X122871811Y-99389286D01*
X122857000Y-99387828D01*
X122522567Y-99390322D01*
X122518618Y-99389006D01*
X122497460Y-99390509D01*
X122470593Y-99390710D01*
X122465612Y-99392773D01*
X122460238Y-99393155D01*
X122432774Y-99403664D01*
X122290230Y-99477674D01*
X122273665Y-99484536D01*
X122267894Y-99489271D01*
X122265032Y-99490758D01*
X122262435Y-99493751D01*
X122250935Y-99503190D01*
X122179037Y-99578339D01*
X122167072Y-99588717D01*
X122163153Y-99594942D01*
X122160851Y-99597349D01*
X122159335Y-99601007D01*
X122151407Y-99613603D01*
X122091500Y-99738128D01*
X122089423Y-99740206D01*
X122082744Y-99756328D01*
X122069469Y-99783924D01*
X122069087Y-99789299D01*
X122067025Y-99794278D01*
X122064143Y-99823542D01*
X121897476Y-99823542D01*
X121897476Y-97141673D01*
X122065321Y-97141673D01*
X122071841Y-97170346D01*
X122568734Y-98652182D01*
X122569470Y-98662532D01*
X122577773Y-98679139D01*
X122583829Y-98697197D01*
X122590851Y-98705294D01*
X122595644Y-98714879D01*
X122609850Y-98727200D01*
X122622176Y-98741412D01*
X122631763Y-98746205D01*
X122639858Y-98753226D01*
X122657700Y-98759173D01*
X122674524Y-98767585D01*
X122685214Y-98768344D01*
X122695382Y-98771734D01*
X122714138Y-98770401D01*
X122732904Y-98771735D01*
X122743074Y-98768344D01*
X122753763Y-98767585D01*
X122770584Y-98759174D01*
X122788428Y-98753226D01*
X122796524Y-98746203D01*
X122806110Y-98741411D01*
X122818433Y-98727202D01*
X122832642Y-98714879D01*
X122837434Y-98705293D01*
X122844457Y-98697197D01*
X122856445Y-98670346D01*
X123355890Y-97163025D01*
X123357555Y-97170346D01*
X123854448Y-98652182D01*
X123855184Y-98662532D01*
X123863487Y-98679139D01*
X123869543Y-98697197D01*
X123876565Y-98705294D01*
X123881358Y-98714879D01*
X123895564Y-98727200D01*
X123907890Y-98741412D01*
X123917477Y-98746205D01*
X123925572Y-98753226D01*
X123943414Y-98759173D01*
X123960238Y-98767585D01*
X123970928Y-98768344D01*
X123981096Y-98771734D01*
X123999852Y-98770401D01*
X124018618Y-98771735D01*
X124028788Y-98768344D01*
X124039477Y-98767585D01*
X124056298Y-98759174D01*
X124074142Y-98753226D01*
X124082238Y-98746203D01*
X124091824Y-98741411D01*
X124104147Y-98727202D01*
X124118356Y-98714879D01*
X124123148Y-98705293D01*
X124130171Y-98697197D01*
X124142159Y-98670346D01*
X124648680Y-97141672D01*
X124647346Y-97122912D01*
X124849856Y-97122912D01*
X124852738Y-98652176D01*
X124875136Y-98706248D01*
X124916520Y-98747632D01*
X124970592Y-98770030D01*
X125029120Y-98770030D01*
X125083192Y-98747632D01*
X125124576Y-98706248D01*
X125146974Y-98652176D01*
X125149856Y-98622912D01*
X125148656Y-97986387D01*
X125529120Y-97984316D01*
X125583192Y-97961918D01*
X125624576Y-97920534D01*
X125646974Y-97866462D01*
X125646974Y-97807934D01*
X125624576Y-97753862D01*
X125583192Y-97712478D01*
X125529120Y-97690080D01*
X125499856Y-97687198D01*
X125148096Y-97689113D01*
X125147310Y-97272340D01*
X125743406Y-97270030D01*
X125797478Y-97247632D01*
X125838862Y-97206248D01*
X125861260Y-97152176D01*
X125861260Y-97122912D01*
X126135570Y-97122912D01*
X126138452Y-98652176D01*
X126160850Y-98706248D01*
X126202234Y-98747632D01*
X126256306Y-98770030D01*
X126285570Y-98772912D01*
X127029120Y-98770030D01*
X127083192Y-98747632D01*
X127124576Y-98706248D01*
X127146974Y-98652176D01*
X127146974Y-98593648D01*
X127124576Y-98539576D01*
X127083192Y-98498192D01*
X127029120Y-98475794D01*
X126999856Y-98472912D01*
X126435291Y-98475100D01*
X126432778Y-97141673D01*
X128279606Y-97141673D01*
X128286126Y-97170346D01*
X128783019Y-98652182D01*
X128783755Y-98662532D01*
X128792058Y-98679139D01*
X128798114Y-98697197D01*
X128805136Y-98705294D01*
X128809929Y-98714879D01*
X128824135Y-98727200D01*
X128836461Y-98741412D01*
X128846048Y-98746205D01*
X128854143Y-98753226D01*
X128871985Y-98759173D01*
X128888809Y-98767585D01*
X128899499Y-98768344D01*
X128909667Y-98771734D01*
X128928423Y-98770401D01*
X128947189Y-98771735D01*
X128957359Y-98768344D01*
X128968048Y-98767585D01*
X128984869Y-98759174D01*
X129002713Y-98753226D01*
X129010809Y-98746203D01*
X129020395Y-98741411D01*
X129032718Y-98727202D01*
X129046927Y-98714879D01*
X129051719Y-98705293D01*
X129058742Y-98697197D01*
X129070730Y-98670346D01*
X129577251Y-97141672D01*
X129575917Y-97122912D01*
X129778427Y-97122912D01*
X129781309Y-98652176D01*
X129803707Y-98706248D01*
X129845091Y-98747632D01*
X129899163Y-98770030D01*
X129928427Y-98772912D01*
X130283619Y-98770262D01*
X130304330Y-98771735D01*
X130311726Y-98770053D01*
X130314834Y-98770030D01*
X130318491Y-98768514D01*
X130333004Y-98765215D01*
X130525567Y-98698602D01*
X130529119Y-98698602D01*
X130547115Y-98691147D01*
X130574141Y-98681799D01*
X130578212Y-98678267D01*
X130583192Y-98676205D01*
X130605922Y-98657550D01*
X130746942Y-98512969D01*
X130761212Y-98500594D01*
X130765212Y-98494238D01*
X130767434Y-98491961D01*
X130768949Y-98488301D01*
X130776877Y-98475708D01*
X130842019Y-98340300D01*
X130849770Y-98329840D01*
X130857613Y-98307885D01*
X130858815Y-98305388D01*
X130858891Y-98304307D01*
X130859663Y-98302149D01*
X130926531Y-98024180D01*
X130932688Y-98009319D01*
X130934476Y-97991153D01*
X130935393Y-97987346D01*
X130935067Y-97985158D01*
X130935570Y-97980055D01*
X130933128Y-97773697D01*
X130935393Y-97758478D01*
X130932735Y-97740507D01*
X130932688Y-97736505D01*
X130931840Y-97734460D01*
X130931091Y-97729389D01*
X130903463Y-97622912D01*
X131206999Y-97622912D01*
X131209670Y-98113443D01*
X131207176Y-98130203D01*
X131209860Y-98148352D01*
X131209881Y-98152176D01*
X131210728Y-98154220D01*
X131211478Y-98159292D01*
X131281309Y-98428415D01*
X131281309Y-98437889D01*
X131287889Y-98453775D01*
X131292799Y-98472697D01*
X131299438Y-98481657D01*
X131303706Y-98491961D01*
X131322361Y-98514692D01*
X131466947Y-98655719D01*
X131479318Y-98669983D01*
X131485671Y-98673982D01*
X131487950Y-98676205D01*
X131491611Y-98677721D01*
X131504203Y-98685648D01*
X131628728Y-98745554D01*
X131630806Y-98747632D01*
X131646928Y-98754310D01*
X131674524Y-98767586D01*
X131679899Y-98767967D01*
X131684878Y-98770030D01*
X131714142Y-98772912D01*
X131977401Y-98770503D01*
X131981094Y-98771734D01*
X132001522Y-98770282D01*
X132029120Y-98770030D01*
X132034098Y-98767967D01*
X132039474Y-98767586D01*
X132066938Y-98757076D01*
X132209476Y-98683069D01*
X132226049Y-98676205D01*
X132231820Y-98671468D01*
X132234681Y-98669983D01*
X132237276Y-98666990D01*
X132248779Y-98657550D01*
X132378780Y-98524267D01*
X132386354Y-98519723D01*
X132396284Y-98506321D01*
X132410291Y-98491961D01*
X132414557Y-98481659D01*
X132421198Y-98472698D01*
X132431091Y-98445007D01*
X132497961Y-98167036D01*
X132504117Y-98152176D01*
X132505905Y-98134012D01*
X132506822Y-98130204D01*
X132506496Y-98128015D01*
X132506999Y-98122912D01*
X132504327Y-97632379D01*
X132506822Y-97615620D01*
X132504137Y-97597470D01*
X132504117Y-97593648D01*
X132503270Y-97591603D01*
X132502520Y-97586531D01*
X132432688Y-97317407D01*
X132432688Y-97307935D01*
X132426108Y-97292049D01*
X132421198Y-97273126D01*
X132414558Y-97264165D01*
X132410291Y-97253862D01*
X132391636Y-97231132D01*
X132247055Y-97090110D01*
X132234681Y-97075842D01*
X132228325Y-97071841D01*
X132226048Y-97069620D01*
X132222388Y-97068104D01*
X132209795Y-97060177D01*
X132085270Y-97000270D01*
X132083192Y-96998192D01*
X132067060Y-96991510D01*
X132039475Y-96978239D01*
X132034100Y-96977857D01*
X132029120Y-96975794D01*
X131999856Y-96972912D01*
X131736595Y-96975320D01*
X131732903Y-96974090D01*
X131712479Y-96975541D01*
X131684878Y-96975794D01*
X131679897Y-96977857D01*
X131674523Y-96978239D01*
X131647059Y-96988748D01*
X131504515Y-97062758D01*
X131487950Y-97069620D01*
X131482179Y-97074355D01*
X131479317Y-97075842D01*
X131476720Y-97078836D01*
X131465219Y-97088275D01*
X131335215Y-97221557D01*
X131327643Y-97226101D01*
X131317716Y-97239498D01*
X131303706Y-97253862D01*
X131299437Y-97264167D01*
X131292799Y-97273127D01*
X131282906Y-97300818D01*
X131216037Y-97578786D01*
X131209881Y-97593648D01*
X131208092Y-97611813D01*
X131207176Y-97615621D01*
X131207501Y-97617808D01*
X131206999Y-97622912D01*
X130903463Y-97622912D01*
X130859833Y-97454768D01*
X130858815Y-97440436D01*
X130850426Y-97418512D01*
X130849770Y-97415984D01*
X130849125Y-97415114D01*
X130848306Y-97412972D01*
X130774297Y-97270432D01*
X130767434Y-97253862D01*
X130762697Y-97248090D01*
X130761212Y-97245230D01*
X130758219Y-97242634D01*
X130748779Y-97231132D01*
X130619862Y-97105388D01*
X130618355Y-97102374D01*
X130604065Y-97089980D01*
X130583191Y-97069620D01*
X130578211Y-97067557D01*
X130574141Y-97064027D01*
X130547290Y-97052038D01*
X130332668Y-96983181D01*
X130314834Y-96975794D01*
X130307342Y-96975056D01*
X130304331Y-96974090D01*
X130300381Y-96974370D01*
X130285570Y-96972912D01*
X129899163Y-96975794D01*
X129845091Y-96998192D01*
X129803707Y-97039576D01*
X129781309Y-97093648D01*
X129778427Y-97122912D01*
X129575917Y-97122912D01*
X129573101Y-97083292D01*
X129546927Y-97030945D01*
X129502713Y-96992598D01*
X129447189Y-96974089D01*
X129388809Y-96978239D01*
X129336461Y-97004412D01*
X129298114Y-97048627D01*
X129286126Y-97075478D01*
X128929078Y-98153043D01*
X128558742Y-97048627D01*
X128520395Y-97004413D01*
X128468048Y-96978239D01*
X128409667Y-96974090D01*
X128354143Y-96992598D01*
X128309929Y-97030945D01*
X128283755Y-97083292D01*
X128279606Y-97141673D01*
X126432778Y-97141673D01*
X126432688Y-97093648D01*
X126410290Y-97039576D01*
X126368906Y-96998192D01*
X126314834Y-96975794D01*
X126256306Y-96975794D01*
X126202234Y-96998192D01*
X126160850Y-97039576D01*
X126138452Y-97093648D01*
X126135570Y-97122912D01*
X125861260Y-97122912D01*
X125861260Y-97093648D01*
X125838862Y-97039576D01*
X125797478Y-96998192D01*
X125743406Y-96975794D01*
X125714142Y-96972912D01*
X124970592Y-96975794D01*
X124916520Y-96998192D01*
X124875136Y-97039576D01*
X124852738Y-97093648D01*
X124849856Y-97122912D01*
X124647346Y-97122912D01*
X124644530Y-97083292D01*
X124618356Y-97030945D01*
X124574142Y-96992598D01*
X124518618Y-96974089D01*
X124460238Y-96978239D01*
X124407890Y-97004412D01*
X124369543Y-97048627D01*
X124357555Y-97075478D01*
X124000507Y-98153043D01*
X123630171Y-97048627D01*
X123591824Y-97004413D01*
X123539477Y-96978239D01*
X123481096Y-96974090D01*
X123425572Y-96992598D01*
X123381358Y-97030945D01*
X123357000Y-97079660D01*
X123332642Y-97030945D01*
X123288428Y-96992598D01*
X123232904Y-96974089D01*
X123174524Y-96978239D01*
X123122176Y-97004412D01*
X123083829Y-97048627D01*
X123071841Y-97075478D01*
X122714793Y-98153043D01*
X122344457Y-97048627D01*
X122306110Y-97004413D01*
X122253763Y-96978239D01*
X122195382Y-96974090D01*
X122139858Y-96992598D01*
X122095644Y-97030945D01*
X122069470Y-97083292D01*
X122065321Y-97141673D01*
X121897476Y-97141673D01*
X121897476Y-94707996D01*
X122421285Y-94707996D01*
X122424167Y-96237260D01*
X122446565Y-96291332D01*
X122487949Y-96332716D01*
X122542021Y-96355114D01*
X122571285Y-96357996D01*
X123119594Y-96355365D01*
X123123952Y-96356818D01*
X123146193Y-96355237D01*
X123171978Y-96355114D01*
X123176956Y-96353051D01*
X123182332Y-96352670D01*
X123209796Y-96342160D01*
X123352337Y-96268151D01*
X123368906Y-96261289D01*
X123374676Y-96256553D01*
X123377539Y-96255067D01*
X123380135Y-96252073D01*
X123391637Y-96242634D01*
X123463538Y-96167478D01*
X123475499Y-96157106D01*
X123479416Y-96150882D01*
X123481721Y-96148474D01*
X123483237Y-96144812D01*
X123491164Y-96132221D01*
X123551070Y-96007695D01*
X123553148Y-96005618D01*
X123559826Y-95989495D01*
X123573102Y-95961900D01*
X123573483Y-95956524D01*
X123575546Y-95951546D01*
X123578428Y-95922282D01*
X123576153Y-95730048D01*
X123577250Y-95726758D01*
X123575887Y-95707579D01*
X123575546Y-95678732D01*
X123573483Y-95673753D01*
X123573102Y-95668378D01*
X123562592Y-95640915D01*
X123488586Y-95498377D01*
X123481721Y-95481804D01*
X123476983Y-95476031D01*
X123475499Y-95473172D01*
X123472507Y-95470577D01*
X123463066Y-95459073D01*
X123404921Y-95403444D01*
X123404070Y-95401743D01*
X123394137Y-95393128D01*
X123387403Y-95386685D01*
X123392108Y-95381766D01*
X123404070Y-95371393D01*
X123407987Y-95365170D01*
X123410292Y-95362761D01*
X123411808Y-95359098D01*
X123419735Y-95346507D01*
X123479641Y-95221982D01*
X123481720Y-95219904D01*
X123488401Y-95203772D01*
X123501673Y-95176187D01*
X123502054Y-95170812D01*
X123504118Y-95165832D01*
X123507000Y-95136568D01*
X123504965Y-95015041D01*
X123505822Y-95012471D01*
X123504644Y-94995906D01*
X123504118Y-94964446D01*
X123502054Y-94959465D01*
X123501673Y-94954091D01*
X123491164Y-94926627D01*
X123417153Y-94784084D01*
X123410292Y-94767517D01*
X123405555Y-94761745D01*
X123404070Y-94758885D01*
X123401077Y-94756289D01*
X123391637Y-94744787D01*
X123353181Y-94707996D01*
X123921285Y-94707996D01*
X123924167Y-96237260D01*
X123946565Y-96291332D01*
X123987949Y-96332716D01*
X124042021Y-96355114D01*
X124100549Y-96355114D01*
X124154621Y-96332716D01*
X124196005Y-96291332D01*
X124218403Y-96237260D01*
X124221285Y-96207996D01*
X124219718Y-95377011D01*
X124435555Y-95836662D01*
X124443025Y-95857203D01*
X124447490Y-95862079D01*
X124450345Y-95868158D01*
X124467150Y-95883548D01*
X124482552Y-95900366D01*
X124488595Y-95903186D01*
X124493508Y-95907685D01*
X124514928Y-95915474D01*
X124535590Y-95925116D01*
X124542247Y-95925408D01*
X124548510Y-95927686D01*
X124571289Y-95926685D01*
X124594060Y-95927686D01*
X124600319Y-95925409D01*
X124606981Y-95925117D01*
X124627648Y-95915472D01*
X124649063Y-95907685D01*
X124653976Y-95903185D01*
X124660018Y-95900366D01*
X124675413Y-95883553D01*
X124692226Y-95868158D01*
X124697194Y-95859769D01*
X124699545Y-95857203D01*
X124700864Y-95853573D01*
X124707212Y-95842858D01*
X124922548Y-95378543D01*
X124924167Y-96237260D01*
X124946565Y-96291332D01*
X124987949Y-96332716D01*
X125042021Y-96355114D01*
X125100549Y-96355114D01*
X125154621Y-96332716D01*
X125196005Y-96291332D01*
X125218403Y-96237260D01*
X125221285Y-96207996D01*
X125218468Y-94713603D01*
X125492819Y-94713603D01*
X125496793Y-94742739D01*
X125855093Y-96235441D01*
X125857876Y-96256382D01*
X125861708Y-96263002D01*
X125863518Y-96270540D01*
X125876289Y-96288187D01*
X125887199Y-96307032D01*
X125893314Y-96311713D01*
X125897831Y-96317954D01*
X125916381Y-96329369D01*
X125933674Y-96342606D01*
X125941115Y-96344590D01*
X125947675Y-96348627D01*
X125969178Y-96352074D01*
X125990226Y-96357687D01*
X125997861Y-96356672D01*
X126005464Y-96357891D01*
X126026653Y-96352846D01*
X126048243Y-96349977D01*
X126054906Y-96346119D01*
X126062401Y-96344335D01*
X126080048Y-96331563D01*
X126098893Y-96320654D01*
X126103574Y-96314538D01*
X126109815Y-96310022D01*
X126121230Y-96291471D01*
X126134467Y-96274179D01*
X126138514Y-96263384D01*
X126140488Y-96260178D01*
X126141063Y-96256587D01*
X126144792Y-96246645D01*
X126285578Y-95713274D01*
X126427349Y-96239555D01*
X126430655Y-96260178D01*
X126434655Y-96266679D01*
X126436676Y-96274179D01*
X126449912Y-96291471D01*
X126461328Y-96310022D01*
X126467568Y-96314538D01*
X126472250Y-96320654D01*
X126491094Y-96331563D01*
X126508742Y-96344335D01*
X126516236Y-96346119D01*
X126522900Y-96349977D01*
X126544489Y-96352846D01*
X126565679Y-96357891D01*
X126573281Y-96356672D01*
X126580917Y-96357687D01*
X126601964Y-96352074D01*
X126623468Y-96348627D01*
X126630027Y-96344590D01*
X126637469Y-96342606D01*
X126654761Y-96329369D01*
X126673312Y-96317954D01*
X126677828Y-96311713D01*
X126683944Y-96307032D01*
X126694853Y-96288187D01*
X126707625Y-96270540D01*
X126711383Y-96259635D01*
X126713267Y-96256382D01*
X126713745Y-96252782D01*
X126717207Y-96242739D01*
X127078324Y-94713603D01*
X127077425Y-94707996D01*
X128492714Y-94707996D01*
X128495596Y-96237260D01*
X128517994Y-96291332D01*
X128559378Y-96332716D01*
X128613450Y-96355114D01*
X128642714Y-96357996D01*
X129386264Y-96355114D01*
X129440336Y-96332716D01*
X129481720Y-96291332D01*
X129504118Y-96237260D01*
X129504118Y-96178732D01*
X129481720Y-96124660D01*
X129451462Y-96094402D01*
X129709882Y-96094402D01*
X129732279Y-96148474D01*
X129750934Y-96171205D01*
X129826089Y-96243106D01*
X129836462Y-96255067D01*
X129842685Y-96258984D01*
X129845094Y-96261289D01*
X129848755Y-96262805D01*
X129861347Y-96270732D01*
X129985872Y-96330638D01*
X129987950Y-96332716D01*
X130004072Y-96339394D01*
X130031668Y-96352670D01*
X130037043Y-96353051D01*
X130042022Y-96355114D01*
X130071286Y-96357996D01*
X130476967Y-96355442D01*
X130481095Y-96356818D01*
X130502740Y-96355280D01*
X130529121Y-96355114D01*
X130534099Y-96353051D01*
X130539475Y-96352670D01*
X130566938Y-96342160D01*
X130709478Y-96268152D01*
X130726051Y-96261288D01*
X130731821Y-96256552D01*
X130734682Y-96255067D01*
X130737276Y-96252075D01*
X130748782Y-96242633D01*
X130820677Y-96167483D01*
X130832642Y-96157107D01*
X130836560Y-96150881D01*
X130838864Y-96148474D01*
X130840379Y-96144814D01*
X130848307Y-96132221D01*
X130908213Y-96007696D01*
X130910292Y-96005618D01*
X130916973Y-95989486D01*
X130930245Y-95961901D01*
X130930626Y-95956526D01*
X130932690Y-95951546D01*
X130935572Y-95922282D01*
X130933077Y-95587849D01*
X130934394Y-95583900D01*
X130932890Y-95562742D01*
X130932690Y-95535875D01*
X130930626Y-95530894D01*
X130930245Y-95525520D01*
X130919736Y-95498056D01*
X130845725Y-95355512D01*
X130838864Y-95338947D01*
X130834128Y-95333176D01*
X130832642Y-95330314D01*
X130829648Y-95327717D01*
X130820210Y-95316217D01*
X130781753Y-95279425D01*
X131207000Y-95279425D01*
X131209596Y-95627598D01*
X131207177Y-95643859D01*
X131209853Y-95661953D01*
X131209882Y-95665832D01*
X131210729Y-95667876D01*
X131211479Y-95672948D01*
X131282736Y-95947568D01*
X131283755Y-95961901D01*
X131292143Y-95983821D01*
X131292800Y-95986353D01*
X131293444Y-95987223D01*
X131294264Y-95989364D01*
X131368273Y-96131906D01*
X131375136Y-96148474D01*
X131379871Y-96154244D01*
X131381358Y-96157107D01*
X131384351Y-96159703D01*
X131393791Y-96171205D01*
X131468946Y-96243106D01*
X131479319Y-96255067D01*
X131485542Y-96258984D01*
X131487951Y-96261289D01*
X131491612Y-96262805D01*
X131504204Y-96270732D01*
X131628729Y-96330638D01*
X131630807Y-96332716D01*
X131646929Y-96339394D01*
X131674525Y-96352670D01*
X131679900Y-96353051D01*
X131684879Y-96355114D01*
X131714143Y-96357996D01*
X131835667Y-96355961D01*
X131838238Y-96356818D01*
X131854807Y-96355640D01*
X131886264Y-96355114D01*
X131891242Y-96353051D01*
X131896618Y-96352670D01*
X131924082Y-96342160D01*
X132066623Y-96268151D01*
X132083192Y-96261289D01*
X132088962Y-96256553D01*
X132091825Y-96255067D01*
X132094421Y-96252073D01*
X132105923Y-96242634D01*
X132177824Y-96167478D01*
X132189785Y-96157106D01*
X132193702Y-96150882D01*
X132196007Y-96148474D01*
X132197523Y-96144812D01*
X132205450Y-96132221D01*
X132270591Y-95996813D01*
X132278342Y-95986354D01*
X132286185Y-95964399D01*
X132287388Y-95961900D01*
X132287464Y-95960818D01*
X132288235Y-95958663D01*
X132355105Y-95680692D01*
X132361261Y-95665832D01*
X132363049Y-95647668D01*
X132363966Y-95643860D01*
X132363640Y-95641671D01*
X132364143Y-95636568D01*
X132361546Y-95288393D01*
X132363966Y-95272133D01*
X132361289Y-95254038D01*
X132361261Y-95250161D01*
X132360414Y-95248116D01*
X132359664Y-95243044D01*
X132288406Y-94968425D01*
X132287388Y-94954092D01*
X132279000Y-94932173D01*
X132278342Y-94929638D01*
X132277695Y-94928765D01*
X132276878Y-94926629D01*
X132202869Y-94784086D01*
X132196006Y-94767517D01*
X132191270Y-94761746D01*
X132189785Y-94758886D01*
X132186793Y-94756291D01*
X132177351Y-94744786D01*
X132102204Y-94672893D01*
X132091825Y-94660926D01*
X132085596Y-94657005D01*
X132083191Y-94654704D01*
X132079534Y-94653189D01*
X132066939Y-94645261D01*
X131942414Y-94585354D01*
X131940336Y-94583276D01*
X131924204Y-94576594D01*
X131896619Y-94563323D01*
X131891244Y-94562941D01*
X131886264Y-94560878D01*
X131857000Y-94557996D01*
X131735474Y-94560030D01*
X131732904Y-94559174D01*
X131716339Y-94560351D01*
X131684879Y-94560878D01*
X131679898Y-94562941D01*
X131674524Y-94563323D01*
X131647060Y-94573832D01*
X131504516Y-94647842D01*
X131487951Y-94654704D01*
X131482180Y-94659439D01*
X131479318Y-94660926D01*
X131476721Y-94663919D01*
X131465221Y-94673358D01*
X131393323Y-94748507D01*
X131381358Y-94758885D01*
X131377439Y-94765110D01*
X131375137Y-94767517D01*
X131373621Y-94771175D01*
X131365693Y-94783771D01*
X131300551Y-94919178D01*
X131292800Y-94929639D01*
X131284956Y-94951593D01*
X131283755Y-94954091D01*
X131283678Y-94955171D01*
X131282907Y-94957330D01*
X131216037Y-95235299D01*
X131209882Y-95250161D01*
X131208093Y-95268326D01*
X131207177Y-95272134D01*
X131207502Y-95274321D01*
X131207000Y-95279425D01*
X130781753Y-95279425D01*
X130745057Y-95244317D01*
X130734682Y-95232354D01*
X130728458Y-95228436D01*
X130726051Y-95226133D01*
X130722391Y-95224617D01*
X130709797Y-95216689D01*
X130589153Y-95158650D01*
X130894327Y-94807296D01*
X130910292Y-94791332D01*
X130912205Y-94786713D01*
X130915560Y-94782851D01*
X130923365Y-94759771D01*
X130932690Y-94737260D01*
X130932690Y-94732198D01*
X130934310Y-94727408D01*
X130932690Y-94703107D01*
X130932690Y-94678732D01*
X130930753Y-94674056D01*
X130930417Y-94669012D01*
X130919618Y-94647176D01*
X130910292Y-94624660D01*
X130906715Y-94621083D01*
X130904473Y-94616549D01*
X130886137Y-94600505D01*
X130868908Y-94583276D01*
X130864233Y-94581339D01*
X130860426Y-94578008D01*
X130837350Y-94570204D01*
X130814836Y-94560878D01*
X130807694Y-94560174D01*
X130804984Y-94559258D01*
X130801049Y-94559520D01*
X130785572Y-94557996D01*
X129827736Y-94560878D01*
X129773664Y-94583276D01*
X129732280Y-94624660D01*
X129709882Y-94678732D01*
X129709882Y-94737260D01*
X129732280Y-94791332D01*
X129773664Y-94832716D01*
X129827736Y-94855114D01*
X129857000Y-94857996D01*
X130458178Y-94856187D01*
X130176823Y-95180117D01*
X130160852Y-95196089D01*
X130158938Y-95200709D01*
X130155584Y-95204571D01*
X130147777Y-95227652D01*
X130138454Y-95250161D01*
X130138454Y-95255220D01*
X130136833Y-95260013D01*
X130138454Y-95284322D01*
X130138454Y-95308689D01*
X130140390Y-95313364D01*
X130140727Y-95318409D01*
X130151525Y-95340244D01*
X130160852Y-95362761D01*
X130164428Y-95366337D01*
X130166671Y-95370872D01*
X130185006Y-95386915D01*
X130202236Y-95404145D01*
X130206910Y-95406081D01*
X130210718Y-95409413D01*
X130233799Y-95417219D01*
X130256308Y-95426543D01*
X130263445Y-95427245D01*
X130266160Y-95428164D01*
X130270099Y-95427901D01*
X130285572Y-95429425D01*
X130461369Y-95427344D01*
X130550611Y-95470277D01*
X130589274Y-95507266D01*
X130635808Y-95596892D01*
X130637944Y-95883186D01*
X130594719Y-95973035D01*
X130557730Y-96011698D01*
X130468175Y-96058195D01*
X130110544Y-96060446D01*
X130020532Y-96017143D01*
X129940335Y-95940418D01*
X129886263Y-95918021D01*
X129827737Y-95918021D01*
X129773665Y-95940418D01*
X129732279Y-95981804D01*
X129709882Y-96035876D01*
X129709882Y-96094402D01*
X129451462Y-96094402D01*
X129440336Y-96083276D01*
X129386264Y-96060878D01*
X129357000Y-96057996D01*
X128792435Y-96060184D01*
X128791514Y-95571471D01*
X129171978Y-95569400D01*
X129226050Y-95547002D01*
X129267434Y-95505618D01*
X129289832Y-95451546D01*
X129289832Y-95393018D01*
X129267434Y-95338946D01*
X129226050Y-95297562D01*
X129171978Y-95275164D01*
X129142714Y-95272282D01*
X128790954Y-95274197D01*
X128790168Y-94857424D01*
X129386264Y-94855114D01*
X129440336Y-94832716D01*
X129481720Y-94791332D01*
X129504118Y-94737260D01*
X129504118Y-94678732D01*
X129481720Y-94624660D01*
X129440336Y-94583276D01*
X129386264Y-94560878D01*
X129357000Y-94557996D01*
X128613450Y-94560878D01*
X128559378Y-94583276D01*
X128517994Y-94624660D01*
X128495596Y-94678732D01*
X128492714Y-94707996D01*
X127077425Y-94707996D01*
X127069060Y-94655814D01*
X127038387Y-94605970D01*
X126990973Y-94571657D01*
X126934036Y-94558101D01*
X126876247Y-94567365D01*
X126826403Y-94598038D01*
X126792090Y-94645452D01*
X126782508Y-94673253D01*
X126563275Y-95601582D01*
X126430060Y-95107061D01*
X126427552Y-95088182D01*
X126422732Y-95079857D01*
X126420181Y-95070385D01*
X126408146Y-95054663D01*
X126398229Y-95037532D01*
X126390513Y-95031625D01*
X126384607Y-95023910D01*
X126367475Y-95013992D01*
X126351754Y-95001958D01*
X126342363Y-94999453D01*
X126333957Y-94994587D01*
X126314335Y-94991979D01*
X126295202Y-94986877D01*
X126285571Y-94988156D01*
X126275940Y-94986877D01*
X126256806Y-94991979D01*
X126237185Y-94994587D01*
X126228778Y-94999453D01*
X126219388Y-95001958D01*
X126203666Y-95013992D01*
X126186535Y-95023910D01*
X126180628Y-95031625D01*
X126172913Y-95037532D01*
X126162995Y-95054663D01*
X126150961Y-95070385D01*
X126145569Y-95084762D01*
X126143590Y-95088182D01*
X126143207Y-95091062D01*
X126140636Y-95097919D01*
X126008144Y-95599862D01*
X125779053Y-94645452D01*
X125744740Y-94598038D01*
X125694896Y-94567365D01*
X125637107Y-94558101D01*
X125580170Y-94571657D01*
X125532756Y-94605970D01*
X125502083Y-94655814D01*
X125492819Y-94713603D01*
X125218468Y-94713603D01*
X125218461Y-94709888D01*
X125219546Y-94685220D01*
X125218409Y-94682094D01*
X125218403Y-94678732D01*
X125208442Y-94654686D01*
X125199545Y-94630218D01*
X125197285Y-94627750D01*
X125196005Y-94624660D01*
X125177607Y-94606262D01*
X125160018Y-94587055D01*
X125156984Y-94585639D01*
X125154621Y-94583276D01*
X125130590Y-94573322D01*
X125106981Y-94562304D01*
X125103636Y-94562157D01*
X125100549Y-94560878D01*
X125074525Y-94560878D01*
X125048510Y-94559735D01*
X125045367Y-94560878D01*
X125042021Y-94560878D01*
X125017968Y-94570841D01*
X124993508Y-94579736D01*
X124991040Y-94581995D01*
X124987949Y-94583276D01*
X124969540Y-94601684D01*
X124950345Y-94619263D01*
X124947995Y-94623229D01*
X124946565Y-94624660D01*
X124945209Y-94627932D01*
X124935358Y-94644563D01*
X124572001Y-95428042D01*
X124205322Y-94647152D01*
X124196005Y-94624660D01*
X124193658Y-94622313D01*
X124192226Y-94619263D01*
X124173018Y-94601673D01*
X124154621Y-94583276D01*
X124151530Y-94581995D01*
X124149063Y-94579736D01*
X124124597Y-94570839D01*
X124100549Y-94560878D01*
X124097203Y-94560878D01*
X124094060Y-94559735D01*
X124068056Y-94560878D01*
X124042021Y-94560878D01*
X124038930Y-94562158D01*
X124035590Y-94562305D01*
X124011994Y-94573315D01*
X123987949Y-94583276D01*
X123985585Y-94585639D01*
X123982552Y-94587055D01*
X123964962Y-94606262D01*
X123946565Y-94624660D01*
X123945284Y-94627750D01*
X123943025Y-94630218D01*
X123934128Y-94654683D01*
X123924167Y-94678732D01*
X123923715Y-94683320D01*
X123923024Y-94685221D01*
X123923179Y-94688759D01*
X123921285Y-94707996D01*
X123353181Y-94707996D01*
X123316487Y-94672890D01*
X123306111Y-94660926D01*
X123299885Y-94657007D01*
X123297478Y-94654704D01*
X123293818Y-94653188D01*
X123281225Y-94645261D01*
X123156697Y-94585352D01*
X123154621Y-94583276D01*
X123138503Y-94576599D01*
X123110904Y-94563322D01*
X123105526Y-94562939D01*
X123100549Y-94560878D01*
X123071285Y-94557996D01*
X122542021Y-94560878D01*
X122487949Y-94583276D01*
X122446565Y-94624660D01*
X122424167Y-94678732D01*
X122421285Y-94707996D01*
X121897476Y-94707996D01*
X121897476Y-94391329D01*
X132816525Y-94391329D01*
X132816525Y-101354495D01*
G37*
G36*
X168634691Y-81991680D02*
G01*
X168673357Y-82028671D01*
X168720031Y-82118568D01*
X168721733Y-82262339D01*
X168678800Y-82351581D01*
X168641809Y-82390246D01*
X168552351Y-82436693D01*
X168371966Y-82437558D01*
X168366402Y-82436577D01*
X168361748Y-82437608D01*
X168160885Y-82438571D01*
X168159964Y-81950120D01*
X168544469Y-81948275D01*
X168634691Y-81991680D01*
G37*
G36*
X169186320Y-83617460D02*
G01*
X167695843Y-83617460D01*
X167695843Y-81800828D01*
X167862510Y-81800828D01*
X167865392Y-83330092D01*
X167887790Y-83384164D01*
X167929174Y-83425548D01*
X167983246Y-83447946D01*
X168041774Y-83447946D01*
X168095846Y-83425548D01*
X168137230Y-83384164D01*
X168159628Y-83330092D01*
X168162510Y-83300828D01*
X168161445Y-82735827D01*
X168290918Y-82735206D01*
X168765911Y-83409169D01*
X168815268Y-83440622D01*
X168872904Y-83450793D01*
X168930046Y-83438134D01*
X168977994Y-83404570D01*
X169009447Y-83355213D01*
X169019618Y-83297577D01*
X169006959Y-83240435D01*
X168992538Y-83214809D01*
X168645732Y-82722729D01*
X168651021Y-82720706D01*
X168793562Y-82646697D01*
X168810131Y-82639835D01*
X168815901Y-82635099D01*
X168818764Y-82633613D01*
X168821360Y-82630619D01*
X168832862Y-82621180D01*
X168904763Y-82546024D01*
X168916724Y-82535652D01*
X168920641Y-82529428D01*
X168922946Y-82527020D01*
X168924462Y-82523358D01*
X168932389Y-82510767D01*
X168992295Y-82386241D01*
X168994373Y-82384164D01*
X169001051Y-82368041D01*
X169014327Y-82340446D01*
X169014708Y-82335070D01*
X169016771Y-82330092D01*
X169019653Y-82300828D01*
X169017378Y-82108594D01*
X169018475Y-82105304D01*
X169017112Y-82086125D01*
X169016771Y-82057278D01*
X169014708Y-82052299D01*
X169014327Y-82046924D01*
X169003817Y-82019461D01*
X168929808Y-81876918D01*
X168922945Y-81860349D01*
X168918209Y-81854578D01*
X168916724Y-81851718D01*
X168913732Y-81849123D01*
X168904290Y-81837618D01*
X168829143Y-81765725D01*
X168818764Y-81753758D01*
X168812535Y-81749837D01*
X168810130Y-81747536D01*
X168806473Y-81746021D01*
X168793878Y-81738093D01*
X168669353Y-81678186D01*
X168667275Y-81676108D01*
X168651143Y-81669426D01*
X168623558Y-81656155D01*
X168618183Y-81655773D01*
X168613203Y-81653710D01*
X168583939Y-81650828D01*
X167983246Y-81653710D01*
X167929174Y-81676108D01*
X167887790Y-81717492D01*
X167865392Y-81771564D01*
X167862510Y-81800828D01*
X167695843Y-81800828D01*
X167695843Y-81484161D01*
X169186320Y-81484161D01*
X169186320Y-83617460D01*
G37*
G36*
X133086320Y-83617495D02*
G01*
X131524415Y-83617495D01*
X131524415Y-82443685D01*
X131691082Y-82443685D01*
X131693523Y-82650042D01*
X131691259Y-82665262D01*
X131693916Y-82683232D01*
X131693964Y-82687235D01*
X131694811Y-82689279D01*
X131695561Y-82694351D01*
X131766818Y-82968971D01*
X131767837Y-82983304D01*
X131776225Y-83005224D01*
X131776882Y-83007756D01*
X131777526Y-83008626D01*
X131778346Y-83010767D01*
X131852356Y-83153310D01*
X131859218Y-83169877D01*
X131863953Y-83175647D01*
X131865440Y-83178510D01*
X131868433Y-83181106D01*
X131877873Y-83192608D01*
X132006790Y-83318353D01*
X132008297Y-83321367D01*
X132022582Y-83333757D01*
X132043460Y-83354121D01*
X132048439Y-83356183D01*
X132052511Y-83359715D01*
X132079362Y-83371703D01*
X132293991Y-83440561D01*
X132311818Y-83447946D01*
X132319306Y-83448683D01*
X132322322Y-83449651D01*
X132326276Y-83449369D01*
X132341082Y-83450828D01*
X132485289Y-83448413D01*
X132502699Y-83449651D01*
X132509958Y-83448000D01*
X132513203Y-83447946D01*
X132516860Y-83446430D01*
X132531373Y-83443131D01*
X132723936Y-83376518D01*
X132727489Y-83376518D01*
X132745483Y-83369064D01*
X132772510Y-83359715D01*
X132776583Y-83356181D01*
X132781561Y-83354120D01*
X132804292Y-83335465D01*
X132894374Y-83241306D01*
X132914545Y-83192608D01*
X132916771Y-83187235D01*
X132919653Y-83157971D01*
X132916771Y-82628707D01*
X132894373Y-82574635D01*
X132852989Y-82533251D01*
X132798917Y-82510853D01*
X132769653Y-82507971D01*
X132454675Y-82510853D01*
X132400603Y-82533251D01*
X132359219Y-82574635D01*
X132336821Y-82628707D01*
X132336821Y-82687235D01*
X132359219Y-82741307D01*
X132400603Y-82782691D01*
X132454675Y-82805089D01*
X132483939Y-82807971D01*
X132620462Y-82806721D01*
X132622034Y-83095338D01*
X132619594Y-83097888D01*
X132465674Y-83151133D01*
X132370447Y-83152728D01*
X132210332Y-83101359D01*
X132109623Y-83003127D01*
X132056192Y-82900220D01*
X131990974Y-82648873D01*
X131988865Y-82470660D01*
X132049225Y-82219749D01*
X132103108Y-82107746D01*
X132204071Y-82004236D01*
X132359075Y-81950615D01*
X132516879Y-81948747D01*
X132658606Y-82016930D01*
X132716986Y-82021079D01*
X132772508Y-82002572D01*
X132816724Y-81964225D01*
X132842898Y-81911876D01*
X132847047Y-81853496D01*
X132828539Y-81797973D01*
X132790193Y-81753758D01*
X132765307Y-81738093D01*
X132640782Y-81678186D01*
X132638704Y-81676108D01*
X132622572Y-81669426D01*
X132594987Y-81656155D01*
X132589612Y-81655773D01*
X132584632Y-81653710D01*
X132555368Y-81650828D01*
X132341376Y-81653360D01*
X132322321Y-81652006D01*
X132314992Y-81653672D01*
X132311818Y-81653710D01*
X132308156Y-81655226D01*
X132293647Y-81658526D01*
X132101087Y-81725139D01*
X132097533Y-81725139D01*
X132079524Y-81732598D01*
X132052511Y-81741943D01*
X132048441Y-81745472D01*
X132043460Y-81747536D01*
X132020730Y-81766191D01*
X131879708Y-81910771D01*
X131865440Y-81923146D01*
X131861439Y-81929501D01*
X131859218Y-81931779D01*
X131857702Y-81935438D01*
X131849775Y-81948032D01*
X131784632Y-82083439D01*
X131776882Y-82093900D01*
X131769038Y-82115854D01*
X131767837Y-82118352D01*
X131767760Y-82119432D01*
X131766989Y-82121591D01*
X131700120Y-82399559D01*
X131693964Y-82414421D01*
X131692175Y-82432586D01*
X131691259Y-82436394D01*
X131691584Y-82438581D01*
X131691082Y-82443685D01*
X131524415Y-82443685D01*
X131524415Y-81484161D01*
X133086320Y-81484161D01*
X133086320Y-83617495D01*
G37*
G36*
X145086320Y-83617495D02*
G01*
X143524415Y-83617495D01*
X143524415Y-82443685D01*
X143691082Y-82443685D01*
X143693523Y-82650042D01*
X143691259Y-82665262D01*
X143693916Y-82683232D01*
X143693964Y-82687235D01*
X143694811Y-82689279D01*
X143695561Y-82694351D01*
X143766818Y-82968971D01*
X143767837Y-82983304D01*
X143776225Y-83005224D01*
X143776882Y-83007756D01*
X143777526Y-83008626D01*
X143778346Y-83010767D01*
X143852356Y-83153310D01*
X143859218Y-83169877D01*
X143863953Y-83175647D01*
X143865440Y-83178510D01*
X143868433Y-83181106D01*
X143877873Y-83192608D01*
X144006790Y-83318353D01*
X144008297Y-83321367D01*
X144022582Y-83333757D01*
X144043460Y-83354121D01*
X144048439Y-83356183D01*
X144052511Y-83359715D01*
X144079362Y-83371703D01*
X144293991Y-83440561D01*
X144311818Y-83447946D01*
X144319306Y-83448683D01*
X144322322Y-83449651D01*
X144326276Y-83449369D01*
X144341082Y-83450828D01*
X144485289Y-83448413D01*
X144502699Y-83449651D01*
X144509958Y-83448000D01*
X144513203Y-83447946D01*
X144516860Y-83446430D01*
X144531373Y-83443131D01*
X144723936Y-83376518D01*
X144727489Y-83376518D01*
X144745483Y-83369064D01*
X144772510Y-83359715D01*
X144776583Y-83356181D01*
X144781561Y-83354120D01*
X144804292Y-83335465D01*
X144894374Y-83241306D01*
X144914545Y-83192608D01*
X144916771Y-83187235D01*
X144919653Y-83157971D01*
X144916771Y-82628707D01*
X144894373Y-82574635D01*
X144852989Y-82533251D01*
X144798917Y-82510853D01*
X144769653Y-82507971D01*
X144454675Y-82510853D01*
X144400603Y-82533251D01*
X144359219Y-82574635D01*
X144336821Y-82628707D01*
X144336821Y-82687235D01*
X144359219Y-82741307D01*
X144400603Y-82782691D01*
X144454675Y-82805089D01*
X144483939Y-82807971D01*
X144620462Y-82806721D01*
X144622034Y-83095338D01*
X144619594Y-83097888D01*
X144465674Y-83151133D01*
X144370447Y-83152728D01*
X144210332Y-83101359D01*
X144109623Y-83003127D01*
X144056192Y-82900220D01*
X143990974Y-82648873D01*
X143988865Y-82470660D01*
X144049225Y-82219749D01*
X144103108Y-82107746D01*
X144204071Y-82004236D01*
X144359075Y-81950615D01*
X144516879Y-81948747D01*
X144658606Y-82016930D01*
X144716986Y-82021079D01*
X144772508Y-82002572D01*
X144816724Y-81964225D01*
X144842898Y-81911876D01*
X144847047Y-81853496D01*
X144828539Y-81797973D01*
X144790193Y-81753758D01*
X144765307Y-81738093D01*
X144640782Y-81678186D01*
X144638704Y-81676108D01*
X144622572Y-81669426D01*
X144594987Y-81656155D01*
X144589612Y-81655773D01*
X144584632Y-81653710D01*
X144555368Y-81650828D01*
X144341376Y-81653360D01*
X144322321Y-81652006D01*
X144314992Y-81653672D01*
X144311818Y-81653710D01*
X144308156Y-81655226D01*
X144293647Y-81658526D01*
X144101087Y-81725139D01*
X144097533Y-81725139D01*
X144079524Y-81732598D01*
X144052511Y-81741943D01*
X144048441Y-81745472D01*
X144043460Y-81747536D01*
X144020730Y-81766191D01*
X143879708Y-81910771D01*
X143865440Y-81923146D01*
X143861439Y-81929501D01*
X143859218Y-81931779D01*
X143857702Y-81935438D01*
X143849775Y-81948032D01*
X143784632Y-82083439D01*
X143776882Y-82093900D01*
X143769038Y-82115854D01*
X143767837Y-82118352D01*
X143767760Y-82119432D01*
X143766989Y-82121591D01*
X143700120Y-82399559D01*
X143693964Y-82414421D01*
X143692175Y-82432586D01*
X143691259Y-82436394D01*
X143691584Y-82438581D01*
X143691082Y-82443685D01*
X143524415Y-82443685D01*
X143524415Y-81484161D01*
X145086320Y-81484161D01*
X145086320Y-83617495D01*
G37*
G36*
X139086320Y-83617495D02*
G01*
X137524415Y-83617495D01*
X137524415Y-82443685D01*
X137691082Y-82443685D01*
X137693523Y-82650042D01*
X137691259Y-82665262D01*
X137693916Y-82683232D01*
X137693964Y-82687235D01*
X137694811Y-82689279D01*
X137695561Y-82694351D01*
X137766818Y-82968971D01*
X137767837Y-82983304D01*
X137776225Y-83005224D01*
X137776882Y-83007756D01*
X137777526Y-83008626D01*
X137778346Y-83010767D01*
X137852356Y-83153310D01*
X137859218Y-83169877D01*
X137863953Y-83175647D01*
X137865440Y-83178510D01*
X137868433Y-83181106D01*
X137877873Y-83192608D01*
X138006790Y-83318353D01*
X138008297Y-83321367D01*
X138022582Y-83333757D01*
X138043460Y-83354121D01*
X138048439Y-83356183D01*
X138052511Y-83359715D01*
X138079362Y-83371703D01*
X138293991Y-83440561D01*
X138311818Y-83447946D01*
X138319306Y-83448683D01*
X138322322Y-83449651D01*
X138326276Y-83449369D01*
X138341082Y-83450828D01*
X138485289Y-83448413D01*
X138502699Y-83449651D01*
X138509958Y-83448000D01*
X138513203Y-83447946D01*
X138516860Y-83446430D01*
X138531373Y-83443131D01*
X138723936Y-83376518D01*
X138727489Y-83376518D01*
X138745483Y-83369064D01*
X138772510Y-83359715D01*
X138776583Y-83356181D01*
X138781561Y-83354120D01*
X138804292Y-83335465D01*
X138894374Y-83241306D01*
X138914545Y-83192608D01*
X138916771Y-83187235D01*
X138919653Y-83157971D01*
X138916771Y-82628707D01*
X138894373Y-82574635D01*
X138852989Y-82533251D01*
X138798917Y-82510853D01*
X138769653Y-82507971D01*
X138454675Y-82510853D01*
X138400603Y-82533251D01*
X138359219Y-82574635D01*
X138336821Y-82628707D01*
X138336821Y-82687235D01*
X138359219Y-82741307D01*
X138400603Y-82782691D01*
X138454675Y-82805089D01*
X138483939Y-82807971D01*
X138620462Y-82806721D01*
X138622034Y-83095338D01*
X138619594Y-83097888D01*
X138465674Y-83151133D01*
X138370447Y-83152728D01*
X138210332Y-83101359D01*
X138109623Y-83003127D01*
X138056192Y-82900220D01*
X137990974Y-82648873D01*
X137988865Y-82470660D01*
X138049225Y-82219749D01*
X138103108Y-82107746D01*
X138204071Y-82004236D01*
X138359075Y-81950615D01*
X138516879Y-81948747D01*
X138658606Y-82016930D01*
X138716986Y-82021079D01*
X138772508Y-82002572D01*
X138816724Y-81964225D01*
X138842898Y-81911876D01*
X138847047Y-81853496D01*
X138828539Y-81797973D01*
X138790193Y-81753758D01*
X138765307Y-81738093D01*
X138640782Y-81678186D01*
X138638704Y-81676108D01*
X138622572Y-81669426D01*
X138594987Y-81656155D01*
X138589612Y-81655773D01*
X138584632Y-81653710D01*
X138555368Y-81650828D01*
X138341376Y-81653360D01*
X138322321Y-81652006D01*
X138314992Y-81653672D01*
X138311818Y-81653710D01*
X138308156Y-81655226D01*
X138293647Y-81658526D01*
X138101087Y-81725139D01*
X138097533Y-81725139D01*
X138079524Y-81732598D01*
X138052511Y-81741943D01*
X138048441Y-81745472D01*
X138043460Y-81747536D01*
X138020730Y-81766191D01*
X137879708Y-81910771D01*
X137865440Y-81923146D01*
X137861439Y-81929501D01*
X137859218Y-81931779D01*
X137857702Y-81935438D01*
X137849775Y-81948032D01*
X137784632Y-82083439D01*
X137776882Y-82093900D01*
X137769038Y-82115854D01*
X137767837Y-82118352D01*
X137767760Y-82119432D01*
X137766989Y-82121591D01*
X137700120Y-82399559D01*
X137693964Y-82414421D01*
X137692175Y-82432586D01*
X137691259Y-82436394D01*
X137691584Y-82438581D01*
X137691082Y-82443685D01*
X137524415Y-82443685D01*
X137524415Y-81484161D01*
X139086320Y-81484161D01*
X139086320Y-83617495D01*
G37*
G36*
X151086320Y-83617495D02*
G01*
X149524415Y-83617495D01*
X149524415Y-82443685D01*
X149691082Y-82443685D01*
X149693523Y-82650042D01*
X149691259Y-82665262D01*
X149693916Y-82683232D01*
X149693964Y-82687235D01*
X149694811Y-82689279D01*
X149695561Y-82694351D01*
X149766818Y-82968971D01*
X149767837Y-82983304D01*
X149776225Y-83005224D01*
X149776882Y-83007756D01*
X149777526Y-83008626D01*
X149778346Y-83010767D01*
X149852356Y-83153310D01*
X149859218Y-83169877D01*
X149863953Y-83175647D01*
X149865440Y-83178510D01*
X149868433Y-83181106D01*
X149877873Y-83192608D01*
X150006790Y-83318353D01*
X150008297Y-83321367D01*
X150022582Y-83333757D01*
X150043460Y-83354121D01*
X150048439Y-83356183D01*
X150052511Y-83359715D01*
X150079362Y-83371703D01*
X150293991Y-83440561D01*
X150311818Y-83447946D01*
X150319306Y-83448683D01*
X150322322Y-83449651D01*
X150326276Y-83449369D01*
X150341082Y-83450828D01*
X150485289Y-83448413D01*
X150502699Y-83449651D01*
X150509958Y-83448000D01*
X150513203Y-83447946D01*
X150516860Y-83446430D01*
X150531373Y-83443131D01*
X150723936Y-83376518D01*
X150727489Y-83376518D01*
X150745483Y-83369064D01*
X150772510Y-83359715D01*
X150776583Y-83356181D01*
X150781561Y-83354120D01*
X150804292Y-83335465D01*
X150894374Y-83241306D01*
X150914545Y-83192608D01*
X150916771Y-83187235D01*
X150919653Y-83157971D01*
X150916771Y-82628707D01*
X150894373Y-82574635D01*
X150852989Y-82533251D01*
X150798917Y-82510853D01*
X150769653Y-82507971D01*
X150454675Y-82510853D01*
X150400603Y-82533251D01*
X150359219Y-82574635D01*
X150336821Y-82628707D01*
X150336821Y-82687235D01*
X150359219Y-82741307D01*
X150400603Y-82782691D01*
X150454675Y-82805089D01*
X150483939Y-82807971D01*
X150620462Y-82806721D01*
X150622034Y-83095338D01*
X150619594Y-83097888D01*
X150465674Y-83151133D01*
X150370447Y-83152728D01*
X150210332Y-83101359D01*
X150109623Y-83003127D01*
X150056192Y-82900220D01*
X149990974Y-82648873D01*
X149988865Y-82470660D01*
X150049225Y-82219749D01*
X150103108Y-82107746D01*
X150204071Y-82004236D01*
X150359075Y-81950615D01*
X150516879Y-81948747D01*
X150658606Y-82016930D01*
X150716986Y-82021079D01*
X150772508Y-82002572D01*
X150816724Y-81964225D01*
X150842898Y-81911876D01*
X150847047Y-81853496D01*
X150828539Y-81797973D01*
X150790193Y-81753758D01*
X150765307Y-81738093D01*
X150640782Y-81678186D01*
X150638704Y-81676108D01*
X150622572Y-81669426D01*
X150594987Y-81656155D01*
X150589612Y-81655773D01*
X150584632Y-81653710D01*
X150555368Y-81650828D01*
X150341376Y-81653360D01*
X150322321Y-81652006D01*
X150314992Y-81653672D01*
X150311818Y-81653710D01*
X150308156Y-81655226D01*
X150293647Y-81658526D01*
X150101087Y-81725139D01*
X150097533Y-81725139D01*
X150079524Y-81732598D01*
X150052511Y-81741943D01*
X150048441Y-81745472D01*
X150043460Y-81747536D01*
X150020730Y-81766191D01*
X149879708Y-81910771D01*
X149865440Y-81923146D01*
X149861439Y-81929501D01*
X149859218Y-81931779D01*
X149857702Y-81935438D01*
X149849775Y-81948032D01*
X149784632Y-82083439D01*
X149776882Y-82093900D01*
X149769038Y-82115854D01*
X149767837Y-82118352D01*
X149767760Y-82119432D01*
X149766989Y-82121591D01*
X149700120Y-82399559D01*
X149693964Y-82414421D01*
X149692175Y-82432586D01*
X149691259Y-82436394D01*
X149691584Y-82438581D01*
X149691082Y-82443685D01*
X149524415Y-82443685D01*
X149524415Y-81484161D01*
X151086320Y-81484161D01*
X151086320Y-83617495D01*
G37*
G36*
X157114854Y-83614613D02*
G01*
X155481595Y-83614613D01*
X155481595Y-81797480D01*
X155648262Y-81797480D01*
X155658396Y-81855123D01*
X155671676Y-81881359D01*
X156148376Y-82625521D01*
X156151107Y-83330092D01*
X156173505Y-83384164D01*
X156214889Y-83425548D01*
X156268961Y-83447946D01*
X156327489Y-83447946D01*
X156381561Y-83425548D01*
X156422945Y-83384164D01*
X156445343Y-83330092D01*
X156448225Y-83300828D01*
X156445640Y-82634064D01*
X156938054Y-81855123D01*
X156948187Y-81797480D01*
X156935491Y-81740348D01*
X156901898Y-81692422D01*
X156852520Y-81660999D01*
X156794877Y-81650866D01*
X156737744Y-81663562D01*
X156689818Y-81697155D01*
X156671676Y-81720297D01*
X156299050Y-82309747D01*
X155906632Y-81697155D01*
X155858705Y-81663562D01*
X155801573Y-81650865D01*
X155743930Y-81660999D01*
X155694552Y-81692421D01*
X155660959Y-81740348D01*
X155648262Y-81797480D01*
X155481595Y-81797480D01*
X155481595Y-81484198D01*
X157114854Y-81484198D01*
X157114854Y-83614613D01*
G37*
G36*
X174634691Y-81991680D02*
G01*
X174673357Y-82028671D01*
X174720031Y-82118568D01*
X174721733Y-82262339D01*
X174678800Y-82351581D01*
X174641809Y-82390246D01*
X174552351Y-82436693D01*
X174371966Y-82437558D01*
X174366402Y-82436577D01*
X174361748Y-82437608D01*
X174160885Y-82438571D01*
X174159964Y-81950120D01*
X174544469Y-81948275D01*
X174634691Y-81991680D01*
G37*
G36*
X175186320Y-83617460D02*
G01*
X173695843Y-83617460D01*
X173695843Y-81800828D01*
X173862510Y-81800828D01*
X173865392Y-83330092D01*
X173887790Y-83384164D01*
X173929174Y-83425548D01*
X173983246Y-83447946D01*
X174041774Y-83447946D01*
X174095846Y-83425548D01*
X174137230Y-83384164D01*
X174159628Y-83330092D01*
X174162510Y-83300828D01*
X174161445Y-82735827D01*
X174290918Y-82735206D01*
X174765911Y-83409169D01*
X174815268Y-83440622D01*
X174872904Y-83450793D01*
X174930046Y-83438134D01*
X174977994Y-83404570D01*
X175009447Y-83355213D01*
X175019618Y-83297577D01*
X175006959Y-83240435D01*
X174992538Y-83214809D01*
X174645732Y-82722729D01*
X174651021Y-82720706D01*
X174793562Y-82646697D01*
X174810131Y-82639835D01*
X174815901Y-82635099D01*
X174818764Y-82633613D01*
X174821360Y-82630619D01*
X174832862Y-82621180D01*
X174904763Y-82546024D01*
X174916724Y-82535652D01*
X174920641Y-82529428D01*
X174922946Y-82527020D01*
X174924462Y-82523358D01*
X174932389Y-82510767D01*
X174992295Y-82386241D01*
X174994373Y-82384164D01*
X175001051Y-82368041D01*
X175014327Y-82340446D01*
X175014708Y-82335070D01*
X175016771Y-82330092D01*
X175019653Y-82300828D01*
X175017378Y-82108594D01*
X175018475Y-82105304D01*
X175017112Y-82086125D01*
X175016771Y-82057278D01*
X175014708Y-82052299D01*
X175014327Y-82046924D01*
X175003817Y-82019461D01*
X174929808Y-81876918D01*
X174922945Y-81860349D01*
X174918209Y-81854578D01*
X174916724Y-81851718D01*
X174913732Y-81849123D01*
X174904290Y-81837618D01*
X174829143Y-81765725D01*
X174818764Y-81753758D01*
X174812535Y-81749837D01*
X174810130Y-81747536D01*
X174806473Y-81746021D01*
X174793878Y-81738093D01*
X174669353Y-81678186D01*
X174667275Y-81676108D01*
X174651143Y-81669426D01*
X174623558Y-81656155D01*
X174618183Y-81655773D01*
X174613203Y-81653710D01*
X174583939Y-81650828D01*
X173983246Y-81653710D01*
X173929174Y-81676108D01*
X173887790Y-81717492D01*
X173865392Y-81771564D01*
X173862510Y-81800828D01*
X173695843Y-81800828D01*
X173695843Y-81484161D01*
X175186320Y-81484161D01*
X175186320Y-83617460D01*
G37*
G36*
X127086320Y-83617495D02*
G01*
X125524415Y-83617495D01*
X125524415Y-82443685D01*
X125691082Y-82443685D01*
X125693523Y-82650042D01*
X125691259Y-82665262D01*
X125693916Y-82683232D01*
X125693964Y-82687235D01*
X125694811Y-82689279D01*
X125695561Y-82694351D01*
X125766818Y-82968971D01*
X125767837Y-82983304D01*
X125776225Y-83005224D01*
X125776882Y-83007756D01*
X125777526Y-83008626D01*
X125778346Y-83010767D01*
X125852356Y-83153310D01*
X125859218Y-83169877D01*
X125863953Y-83175647D01*
X125865440Y-83178510D01*
X125868433Y-83181106D01*
X125877873Y-83192608D01*
X126006790Y-83318353D01*
X126008297Y-83321367D01*
X126022582Y-83333757D01*
X126043460Y-83354121D01*
X126048439Y-83356183D01*
X126052511Y-83359715D01*
X126079362Y-83371703D01*
X126293991Y-83440561D01*
X126311818Y-83447946D01*
X126319306Y-83448683D01*
X126322322Y-83449651D01*
X126326276Y-83449369D01*
X126341082Y-83450828D01*
X126485289Y-83448413D01*
X126502699Y-83449651D01*
X126509958Y-83448000D01*
X126513203Y-83447946D01*
X126516860Y-83446430D01*
X126531373Y-83443131D01*
X126723936Y-83376518D01*
X126727489Y-83376518D01*
X126745483Y-83369064D01*
X126772510Y-83359715D01*
X126776583Y-83356181D01*
X126781561Y-83354120D01*
X126804292Y-83335465D01*
X126894374Y-83241306D01*
X126914545Y-83192608D01*
X126916771Y-83187235D01*
X126919653Y-83157971D01*
X126916771Y-82628707D01*
X126894373Y-82574635D01*
X126852989Y-82533251D01*
X126798917Y-82510853D01*
X126769653Y-82507971D01*
X126454675Y-82510853D01*
X126400603Y-82533251D01*
X126359219Y-82574635D01*
X126336821Y-82628707D01*
X126336821Y-82687235D01*
X126359219Y-82741307D01*
X126400603Y-82782691D01*
X126454675Y-82805089D01*
X126483939Y-82807971D01*
X126620462Y-82806721D01*
X126622034Y-83095338D01*
X126619594Y-83097888D01*
X126465674Y-83151133D01*
X126370447Y-83152728D01*
X126210332Y-83101359D01*
X126109623Y-83003127D01*
X126056192Y-82900220D01*
X125990974Y-82648873D01*
X125988865Y-82470660D01*
X126049225Y-82219749D01*
X126103108Y-82107746D01*
X126204071Y-82004236D01*
X126359075Y-81950615D01*
X126516879Y-81948747D01*
X126658606Y-82016930D01*
X126716986Y-82021079D01*
X126772508Y-82002572D01*
X126816724Y-81964225D01*
X126842898Y-81911876D01*
X126847047Y-81853496D01*
X126828539Y-81797973D01*
X126790193Y-81753758D01*
X126765307Y-81738093D01*
X126640782Y-81678186D01*
X126638704Y-81676108D01*
X126622572Y-81669426D01*
X126594987Y-81656155D01*
X126589612Y-81655773D01*
X126584632Y-81653710D01*
X126555368Y-81650828D01*
X126341376Y-81653360D01*
X126322321Y-81652006D01*
X126314992Y-81653672D01*
X126311818Y-81653710D01*
X126308156Y-81655226D01*
X126293647Y-81658526D01*
X126101087Y-81725139D01*
X126097533Y-81725139D01*
X126079524Y-81732598D01*
X126052511Y-81741943D01*
X126048441Y-81745472D01*
X126043460Y-81747536D01*
X126020730Y-81766191D01*
X125879708Y-81910771D01*
X125865440Y-81923146D01*
X125861439Y-81929501D01*
X125859218Y-81931779D01*
X125857702Y-81935438D01*
X125849775Y-81948032D01*
X125784632Y-82083439D01*
X125776882Y-82093900D01*
X125769038Y-82115854D01*
X125767837Y-82118352D01*
X125767760Y-82119432D01*
X125766989Y-82121591D01*
X125700120Y-82399559D01*
X125693964Y-82414421D01*
X125692175Y-82432586D01*
X125691259Y-82436394D01*
X125691584Y-82438581D01*
X125691082Y-82443685D01*
X125524415Y-82443685D01*
X125524415Y-81484161D01*
X127086320Y-81484161D01*
X127086320Y-83617495D01*
G37*
G36*
X162634691Y-81991680D02*
G01*
X162673357Y-82028671D01*
X162720031Y-82118568D01*
X162721733Y-82262339D01*
X162678800Y-82351581D01*
X162641809Y-82390246D01*
X162552351Y-82436693D01*
X162371966Y-82437558D01*
X162366402Y-82436577D01*
X162361748Y-82437608D01*
X162160885Y-82438571D01*
X162159964Y-81950120D01*
X162544469Y-81948275D01*
X162634691Y-81991680D01*
G37*
G36*
X163186320Y-83617460D02*
G01*
X161695843Y-83617460D01*
X161695843Y-81800828D01*
X161862510Y-81800828D01*
X161865392Y-83330092D01*
X161887790Y-83384164D01*
X161929174Y-83425548D01*
X161983246Y-83447946D01*
X162041774Y-83447946D01*
X162095846Y-83425548D01*
X162137230Y-83384164D01*
X162159628Y-83330092D01*
X162162510Y-83300828D01*
X162161445Y-82735827D01*
X162290918Y-82735206D01*
X162765911Y-83409169D01*
X162815268Y-83440622D01*
X162872904Y-83450793D01*
X162930046Y-83438134D01*
X162977994Y-83404570D01*
X163009447Y-83355213D01*
X163019618Y-83297577D01*
X163006959Y-83240435D01*
X162992538Y-83214809D01*
X162645732Y-82722729D01*
X162651021Y-82720706D01*
X162793562Y-82646697D01*
X162810131Y-82639835D01*
X162815901Y-82635099D01*
X162818764Y-82633613D01*
X162821360Y-82630619D01*
X162832862Y-82621180D01*
X162904763Y-82546024D01*
X162916724Y-82535652D01*
X162920641Y-82529428D01*
X162922946Y-82527020D01*
X162924462Y-82523358D01*
X162932389Y-82510767D01*
X162992295Y-82386241D01*
X162994373Y-82384164D01*
X163001051Y-82368041D01*
X163014327Y-82340446D01*
X163014708Y-82335070D01*
X163016771Y-82330092D01*
X163019653Y-82300828D01*
X163017378Y-82108594D01*
X163018475Y-82105304D01*
X163017112Y-82086125D01*
X163016771Y-82057278D01*
X163014708Y-82052299D01*
X163014327Y-82046924D01*
X163003817Y-82019461D01*
X162929808Y-81876918D01*
X162922945Y-81860349D01*
X162918209Y-81854578D01*
X162916724Y-81851718D01*
X162913732Y-81849123D01*
X162904290Y-81837618D01*
X162829143Y-81765725D01*
X162818764Y-81753758D01*
X162812535Y-81749837D01*
X162810130Y-81747536D01*
X162806473Y-81746021D01*
X162793878Y-81738093D01*
X162669353Y-81678186D01*
X162667275Y-81676108D01*
X162651143Y-81669426D01*
X162623558Y-81656155D01*
X162618183Y-81655773D01*
X162613203Y-81653710D01*
X162583939Y-81650828D01*
X161983246Y-81653710D01*
X161929174Y-81676108D01*
X161887790Y-81717492D01*
X161865392Y-81771564D01*
X161862510Y-81800828D01*
X161695843Y-81800828D01*
X161695843Y-81484161D01*
X163186320Y-81484161D01*
X163186320Y-83617460D01*
G37*
D11*
X133730000Y-93060000D02*
X166870000Y-93060000D01*
X133730000Y-101690000D02*
X133730000Y-93060000D01*
X133730000Y-101690000D02*
X166870000Y-101690000D01*
X136330000Y-101690000D02*
X136330000Y-93060000D01*
X138870000Y-101690000D02*
X138870000Y-93060000D01*
X141410000Y-101690000D02*
X141410000Y-93060000D01*
X143950000Y-101690000D02*
X143950000Y-93060000D01*
X146490000Y-101690000D02*
X146490000Y-93060000D01*
X149030000Y-101690000D02*
X149030000Y-93060000D01*
X151570000Y-101690000D02*
X151570000Y-93060000D01*
X154110000Y-101690000D02*
X154110000Y-93060000D01*
X156650000Y-101690000D02*
X156650000Y-93060000D01*
X159190000Y-101690000D02*
X159190000Y-93060000D01*
X161730000Y-101690000D02*
X161730000Y-93060000D01*
X164270000Y-101690000D02*
X164270000Y-93060000D01*
X165954000Y-90076000D02*
X167064000Y-90076000D01*
X166870000Y-101690000D02*
X166870000Y-93060000D01*
X167064000Y-90076000D02*
X167064000Y-91406000D01*
X151865000Y-84920000D02*
X151865000Y-84764000D01*
X151865000Y-87236000D02*
X151865000Y-87080000D01*
X148632666Y-84921392D02*
G75*
G02*
X151864999Y-84764485I1672334J-1078608D01*
G01*
X149263871Y-84920164D02*
G75*
G02*
X151345960Y-84920001I1041129J-1079836D01*
G01*
X151345960Y-87079999D02*
G75*
G02*
X149263871Y-87079836I-1040960J1079999D01*
G01*
X151864999Y-87235515D02*
G75*
G02*
X148632666Y-87078608I-1559999J1235515D01*
G01*
X127865000Y-84920000D02*
X127865000Y-84764000D01*
X127865000Y-87236000D02*
X127865000Y-87080000D01*
X124632666Y-84921392D02*
G75*
G02*
X127864999Y-84764485I1672334J-1078608D01*
G01*
X125263871Y-84920164D02*
G75*
G02*
X127345960Y-84920001I1041129J-1079836D01*
G01*
X127345960Y-87079999D02*
G75*
G02*
X125263871Y-87079836I-1040960J1079999D01*
G01*
X127864999Y-87235515D02*
G75*
G02*
X124632666Y-87078608I-1559999J1235515D01*
G01*
X175865000Y-84920000D02*
X175865000Y-84764000D01*
X175865000Y-87236000D02*
X175865000Y-87080000D01*
X172632666Y-84921392D02*
G75*
G02*
X175864999Y-84764485I1672334J-1078608D01*
G01*
X173263871Y-84920164D02*
G75*
G02*
X175345960Y-84920001I1041129J-1079836D01*
G01*
X175345960Y-87079999D02*
G75*
G02*
X173263871Y-87079836I-1040960J1079999D01*
G01*
X175864999Y-87235515D02*
G75*
G02*
X172632666Y-87078608I-1559999J1235515D01*
G01*
X157865000Y-84920000D02*
X157865000Y-84764000D01*
X157865000Y-87236000D02*
X157865000Y-87080000D01*
X154632666Y-84921392D02*
G75*
G02*
X157864999Y-84764485I1672334J-1078608D01*
G01*
X155263871Y-84920164D02*
G75*
G02*
X157345960Y-84920001I1041129J-1079836D01*
G01*
X157345960Y-87079999D02*
G75*
G02*
X155263871Y-87079836I-1040960J1079999D01*
G01*
X157864999Y-87235515D02*
G75*
G02*
X154632666Y-87078608I-1559999J1235515D01*
G01*
X145865000Y-84920000D02*
X145865000Y-84764000D01*
X145865000Y-87236000D02*
X145865000Y-87080000D01*
X142632666Y-84921392D02*
G75*
G02*
X145864999Y-84764485I1672334J-1078608D01*
G01*
X143263871Y-84920164D02*
G75*
G02*
X145345960Y-84920001I1041129J-1079836D01*
G01*
X145345960Y-87079999D02*
G75*
G02*
X143263871Y-87079836I-1040960J1079999D01*
G01*
X145864999Y-87235515D02*
G75*
G02*
X142632666Y-87078608I-1559999J1235515D01*
G01*
X139865000Y-84920000D02*
X139865000Y-84764000D01*
X139865000Y-87236000D02*
X139865000Y-87080000D01*
X136632666Y-84921392D02*
G75*
G02*
X139864999Y-84764485I1672334J-1078608D01*
G01*
X137263871Y-84920164D02*
G75*
G02*
X139345960Y-84920001I1041129J-1079836D01*
G01*
X139345960Y-87079999D02*
G75*
G02*
X137263871Y-87079836I-1040960J1079999D01*
G01*
X139864999Y-87235515D02*
G75*
G02*
X136632666Y-87078608I-1559999J1235515D01*
G01*
X133865000Y-84920000D02*
X133865000Y-84764000D01*
X133865000Y-87236000D02*
X133865000Y-87080000D01*
X130632666Y-84921392D02*
G75*
G02*
X133864999Y-84764485I1672334J-1078608D01*
G01*
X131263871Y-84920164D02*
G75*
G02*
X133345960Y-84920001I1041129J-1079836D01*
G01*
X133345960Y-87079999D02*
G75*
G02*
X131263871Y-87079836I-1040960J1079999D01*
G01*
X133864999Y-87235515D02*
G75*
G02*
X130632666Y-87078608I-1559999J1235515D01*
G01*
X163865000Y-84920000D02*
X163865000Y-84764000D01*
X163865000Y-87236000D02*
X163865000Y-87080000D01*
X160632666Y-84921392D02*
G75*
G02*
X163864999Y-84764485I1672334J-1078608D01*
G01*
X161263871Y-84920164D02*
G75*
G02*
X163345960Y-84920001I1041129J-1079836D01*
G01*
X163345960Y-87079999D02*
G75*
G02*
X161263871Y-87079836I-1040960J1079999D01*
G01*
X163864999Y-87235515D02*
G75*
G02*
X160632666Y-87078608I-1559999J1235515D01*
G01*
X169865000Y-84920000D02*
X169865000Y-84764000D01*
X169865000Y-87236000D02*
X169865000Y-87080000D01*
X166632666Y-84921392D02*
G75*
G02*
X169864999Y-84764485I1672334J-1078608D01*
G01*
X167263871Y-84920164D02*
G75*
G02*
X169345960Y-84920001I1041129J-1079836D01*
G01*
X169345960Y-87079999D02*
G75*
G02*
X167263871Y-87079836I-1040960J1079999D01*
G01*
X169864999Y-87235515D02*
G75*
G02*
X166632666Y-87078608I-1559999J1235515D01*
G01*
M02*
