%TF.GenerationSoftware,KiCad,Pcbnew,8.0.1*%
%TF.CreationDate,2024-06-06T00:05:14+02:00*%
%TF.ProjectId,BMW E30 VFL SI Board,424d5720-4533-4302-9056-464c20534920,rev?*%
%TF.SameCoordinates,Original*%
%TF.FileFunction,Soldermask,Bot*%
%TF.FilePolarity,Negative*%
%FSLAX46Y46*%
G04 Gerber Fmt 4.6, Leading zero omitted, Abs format (unit mm)*
G04 Created by KiCad (PCBNEW 8.0.1) date 2024-06-06 00:05:14*
%MOMM*%
%LPD*%
G01*
G04 APERTURE LIST*
G04 Aperture macros list*
%AMRoundRect*
0 Rectangle with rounded corners*
0 $1 Rounding radius*
0 $2 $3 $4 $5 $6 $7 $8 $9 X,Y pos of 4 corners*
0 Add a 4 corners polygon primitive as box body*
4,1,4,$2,$3,$4,$5,$6,$7,$8,$9,$2,$3,0*
0 Add four circle primitives for the rounded corners*
1,1,$1+$1,$2,$3*
1,1,$1+$1,$4,$5*
1,1,$1+$1,$6,$7*
1,1,$1+$1,$8,$9*
0 Add four rect primitives between the rounded corners*
20,1,$1+$1,$2,$3,$4,$5,0*
20,1,$1+$1,$4,$5,$6,$7,0*
20,1,$1+$1,$6,$7,$8,$9,0*
20,1,$1+$1,$8,$9,$2,$3,0*%
%AMFreePoly0*
4,1,19,0.500000,-0.750000,0.000000,-0.750000,0.000000,-0.744911,-0.071157,-0.744911,-0.207708,-0.704816,-0.327430,-0.627875,-0.420627,-0.520320,-0.479746,-0.390866,-0.500000,-0.250000,-0.500000,0.250000,-0.479746,0.390866,-0.420627,0.520320,-0.327430,0.627875,-0.207708,0.704816,-0.071157,0.744911,0.000000,0.744911,0.000000,0.750000,0.500000,0.750000,0.500000,-0.750000,0.500000,-0.750000,
$1*%
%AMFreePoly1*
4,1,19,0.000000,0.744911,0.071157,0.744911,0.207708,0.704816,0.327430,0.627875,0.420627,0.520320,0.479746,0.390866,0.500000,0.250000,0.500000,-0.250000,0.479746,-0.390866,0.420627,-0.520320,0.327430,-0.627875,0.207708,-0.704816,0.071157,-0.744911,0.000000,-0.744911,0.000000,-0.750000,-0.500000,-0.750000,-0.500000,0.750000,0.000000,0.750000,0.000000,0.744911,0.000000,0.744911,
$1*%
G04 Aperture macros list end*
%ADD10FreePoly0,270.000000*%
%ADD11FreePoly1,270.000000*%
%ADD12R,1.700000X1.700000*%
%ADD13O,1.700000X1.700000*%
%ADD14R,1.600000X1.600000*%
%ADD15O,1.600000X1.600000*%
%ADD16R,2.200000X2.200000*%
%ADD17O,2.200000X2.200000*%
%ADD18C,1.600000*%
%ADD19R,2.400000X2.400000*%
%ADD20O,2.400000X2.400000*%
%ADD21R,1.500000X1.500000*%
%ADD22C,1.500000*%
%ADD23C,3.000000*%
%ADD24C,1.000000*%
%ADD25C,2.400000*%
%ADD26R,3.800000X4.000000*%
%ADD27RoundRect,0.500000X-0.900000X-1.500000X0.900000X-1.500000X0.900000X1.500000X-0.900000X1.500000X0*%
%ADD28R,1.500000X1.000000*%
G04 APERTURE END LIST*
D10*
%TO.C,JP11*%
X319811200Y-134359200D03*
D11*
X319811200Y-135659200D03*
%TD*%
D12*
%TO.C,JP10*%
X316915600Y-133785000D03*
D13*
X316915600Y-136325000D03*
%TD*%
D14*
%TO.C,D3*%
X122504000Y-114232000D03*
D15*
X122504000Y-104072000D03*
%TD*%
D16*
%TO.C,D8*%
X178384000Y-107882000D03*
D17*
X178384000Y-120582000D03*
%TD*%
D18*
%TO.C,R34*%
X170764000Y-140648000D03*
D15*
X170764000Y-130488000D03*
%TD*%
D18*
%TO.C,C3*%
X117424000Y-119312000D03*
X122424000Y-119312000D03*
%TD*%
D19*
%TO.C,C10*%
X270840000Y-140140000D03*
D20*
X270840000Y-117640000D03*
%TD*%
D18*
%TO.C,R19*%
X99136000Y-145728000D03*
D15*
X99136000Y-135568000D03*
%TD*%
D18*
%TO.C,R103*%
X91516000Y-142172000D03*
D15*
X91516000Y-132012000D03*
%TD*%
D18*
%TO.C,R9*%
X76784000Y-132012000D03*
D15*
X76784000Y-121852000D03*
%TD*%
D18*
%TO.C,R109*%
X160604000Y-106612000D03*
D15*
X160604000Y-124392000D03*
%TD*%
D18*
%TO.C,R11*%
X88988000Y-138362000D03*
D15*
X88988000Y-120582000D03*
%TD*%
D18*
%TO.C,R45*%
X266268000Y-114232000D03*
D15*
X266268000Y-104072000D03*
%TD*%
D18*
%TO.C,R17*%
X93040000Y-125408000D03*
D15*
X93040000Y-115248000D03*
%TD*%
D21*
%TO.C,Q1*%
X92024000Y-148120000D03*
D22*
X94564000Y-148120000D03*
X97104000Y-148120000D03*
%TD*%
D18*
%TO.C,R3*%
X79324000Y-149284000D03*
D15*
X79324000Y-139124000D03*
%TD*%
D18*
%TO.C,R47*%
X295224000Y-123884000D03*
D15*
X295224000Y-108644000D03*
%TD*%
D18*
%TO.C,R39*%
X164160000Y-114486000D03*
D15*
X164160000Y-101786000D03*
%TD*%
D18*
%TO.C,R105*%
X113868000Y-123122000D03*
D15*
X113868000Y-115502000D03*
%TD*%
D23*
%TO.C,BT1*%
X240468000Y-131492000D03*
X240468000Y-121332000D03*
X190468000Y-126412000D03*
%TD*%
D18*
%TO.C,R112*%
X216484000Y-149030000D03*
D15*
X216484000Y-141410000D03*
%TD*%
D18*
%TO.C,C4*%
X163144000Y-124392000D03*
X163144000Y-119392000D03*
%TD*%
D21*
%TO.C,K1*%
X290652000Y-141540000D03*
D22*
X290652000Y-139000000D03*
X290652000Y-128840000D03*
X298272000Y-139000000D03*
X298272000Y-141540000D03*
%TD*%
D18*
%TO.C,R40*%
X169240000Y-119312000D03*
D15*
X169240000Y-109152000D03*
%TD*%
D16*
%TO.C,D9*%
X269824000Y-102294000D03*
D17*
X269824000Y-114994000D03*
%TD*%
D18*
%TO.C,R26*%
X138760000Y-122868000D03*
D15*
X138760000Y-102548000D03*
%TD*%
D12*
%TO.C,J1*%
X230100000Y-138000000D03*
D13*
X227560000Y-138000000D03*
X225020000Y-138000000D03*
X222480000Y-138000000D03*
X219940000Y-138000000D03*
X217400000Y-138000000D03*
X214860000Y-138000000D03*
X212320000Y-138000000D03*
X209780000Y-138000000D03*
X207240000Y-138000000D03*
X204700000Y-138000000D03*
X202160000Y-138000000D03*
X199620000Y-138000000D03*
%TD*%
D18*
%TO.C,R15*%
X86944000Y-115756000D03*
D15*
X86944000Y-105596000D03*
%TD*%
D19*
%TO.C,C11*%
X281000000Y-140140000D03*
D20*
X281000000Y-117640000D03*
%TD*%
D14*
%TO.C,D2*%
X119964000Y-114232000D03*
D15*
X119964000Y-104072000D03*
%TD*%
D16*
%TO.C,D10*%
X277444000Y-105342000D03*
D17*
X277444000Y-118042000D03*
%TD*%
D18*
%TO.C,R22*%
X117424000Y-114232000D03*
D15*
X117424000Y-104072000D03*
%TD*%
D18*
%TO.C,R5*%
X84404000Y-149284000D03*
D15*
X84404000Y-139124000D03*
%TD*%
D14*
%TO.C,D6*%
X172288000Y-109152000D03*
D15*
X172288000Y-119312000D03*
%TD*%
D21*
%TO.C,Q4*%
X152984000Y-102548000D03*
D22*
X152984000Y-105088000D03*
X152984000Y-107628000D03*
%TD*%
D18*
%TO.C,R38*%
X181940000Y-143188000D03*
D15*
X181940000Y-127948000D03*
%TD*%
D14*
%TO.C,U2*%
X99131000Y-111936000D03*
D15*
X101671000Y-111936000D03*
X104211000Y-111936000D03*
X106751000Y-111936000D03*
X109291000Y-111936000D03*
X111831000Y-111936000D03*
X114371000Y-111936000D03*
X114371000Y-104316000D03*
X111831000Y-104316000D03*
X109291000Y-104316000D03*
X106751000Y-104316000D03*
X104211000Y-104316000D03*
X101671000Y-104316000D03*
X99131000Y-104316000D03*
%TD*%
D18*
%TO.C,R37*%
X179400000Y-143188000D03*
D15*
X179400000Y-127948000D03*
%TD*%
D18*
%TO.C,R14*%
X81864000Y-115756000D03*
D15*
X81864000Y-105596000D03*
%TD*%
D18*
%TO.C,R13*%
X79324000Y-115756000D03*
D15*
X79324000Y-105596000D03*
%TD*%
D18*
%TO.C,C8*%
X258648000Y-116732000D03*
X258648000Y-111732000D03*
%TD*%
D14*
%TO.C,D7*%
X175336000Y-107882000D03*
D15*
X175336000Y-120582000D03*
%TD*%
D14*
%TO.C,D11*%
X284556000Y-140140000D03*
D15*
X284556000Y-129980000D03*
%TD*%
D23*
%TO.C,BT2*%
X190600000Y-107628000D03*
X190600000Y-117788000D03*
X240600000Y-112708000D03*
%TD*%
D18*
%TO.C,R8*%
X74244000Y-132012000D03*
D15*
X74244000Y-121852000D03*
%TD*%
D21*
%TO.C,Q6*%
X206832000Y-148120000D03*
D22*
X209372000Y-148120000D03*
X211912000Y-148120000D03*
%TD*%
D18*
%TO.C,R16*%
X90500000Y-115756000D03*
D15*
X90500000Y-105596000D03*
%TD*%
D18*
%TO.C,R10*%
X86944000Y-137092000D03*
D15*
X86944000Y-124392000D03*
%TD*%
D18*
%TO.C,C6*%
X245440000Y-120248000D03*
X245440000Y-115248000D03*
%TD*%
D14*
%TO.C,D4*%
X155016000Y-112708000D03*
D15*
X155016000Y-122868000D03*
%TD*%
D18*
%TO.C,R36*%
X176860000Y-143188000D03*
D15*
X176860000Y-127948000D03*
%TD*%
D18*
%TO.C,R35*%
X173304000Y-140648000D03*
D15*
X173304000Y-130488000D03*
%TD*%
D24*
%TO.C,Y1*%
X119286000Y-146678000D03*
X119286000Y-144778000D03*
%TD*%
D18*
%TO.C,R20*%
X99136000Y-132012000D03*
D15*
X99136000Y-116772000D03*
%TD*%
D21*
%TO.C,Q5*%
X196672000Y-148120000D03*
D22*
X199212000Y-148120000D03*
X201752000Y-148120000D03*
%TD*%
D18*
%TO.C,R107*%
X147904000Y-123139000D03*
D15*
X147904000Y-110439000D03*
%TD*%
D18*
%TO.C,R30*%
X160604000Y-140648000D03*
D15*
X160604000Y-130488000D03*
%TD*%
D18*
%TO.C,R25*%
X132664000Y-114232000D03*
D15*
X132664000Y-104072000D03*
%TD*%
D19*
%TO.C,C9*%
X259156000Y-120180000D03*
D20*
X259156000Y-142680000D03*
%TD*%
D18*
%TO.C,R29*%
X158064000Y-111692000D03*
D15*
X158064000Y-101532000D03*
%TD*%
D21*
%TO.C,Q8*%
X283180000Y-102548000D03*
D22*
X283180000Y-105088000D03*
X283180000Y-107628000D03*
%TD*%
D21*
%TO.C,Q7*%
X248128000Y-137600000D03*
D22*
X248128000Y-140140000D03*
X248128000Y-142680000D03*
%TD*%
D18*
%TO.C,R101*%
X81864000Y-133536000D03*
D15*
X81864000Y-118296000D03*
%TD*%
D18*
%TO.C,R7*%
X71704000Y-132012000D03*
D15*
X71704000Y-121852000D03*
%TD*%
D18*
%TO.C,R12*%
X76784000Y-113216000D03*
D15*
X76784000Y-103056000D03*
%TD*%
D18*
%TO.C,R18*%
X96596000Y-124646000D03*
D15*
X96596000Y-111946000D03*
%TD*%
D18*
%TO.C,R100*%
X79324000Y-133536000D03*
D15*
X79324000Y-118296000D03*
%TD*%
D18*
%TO.C,R42*%
X253060000Y-145728000D03*
D15*
X253060000Y-130488000D03*
%TD*%
D18*
%TO.C,C12*%
X302376000Y-123884000D03*
X307376000Y-123884000D03*
%TD*%
%TO.C,C5*%
X166740000Y-105088000D03*
X171740000Y-105088000D03*
%TD*%
%TO.C,C1*%
X102692000Y-121812000D03*
X102692000Y-116812000D03*
%TD*%
D25*
%TO.C,R41*%
X185496000Y-133282000D03*
D20*
X185496000Y-110422000D03*
%TD*%
D26*
%TO.C,J2*%
X247100000Y-102500000D03*
D27*
X243100000Y-102500000D03*
X239600000Y-102500000D03*
X236100000Y-102500000D03*
X232600000Y-102500000D03*
X229100000Y-102500000D03*
X225600000Y-102500000D03*
X222100000Y-102500000D03*
X218600000Y-102500000D03*
X215100000Y-102500000D03*
X211600000Y-102500000D03*
X208100000Y-102500000D03*
X204600000Y-102500000D03*
X201100000Y-102500000D03*
X197600000Y-102500000D03*
X194100000Y-102500000D03*
X190600000Y-102500000D03*
X187100000Y-102500000D03*
X183600000Y-102500000D03*
%TD*%
D18*
%TO.C,R31*%
X163144000Y-140648000D03*
D15*
X163144000Y-130488000D03*
%TD*%
D18*
%TO.C,R111*%
X188036000Y-133536000D03*
D15*
X188036000Y-113216000D03*
%TD*%
D18*
%TO.C,R48*%
X298780000Y-123884000D03*
D15*
X298780000Y-108644000D03*
%TD*%
D18*
%TO.C,R33*%
X168224000Y-140648000D03*
D15*
X168224000Y-130488000D03*
%TD*%
D14*
%TO.C,U1*%
X106756000Y-140500000D03*
D15*
X109296000Y-140500000D03*
X111836000Y-140500000D03*
X114376000Y-140500000D03*
X116916000Y-140500000D03*
X119456000Y-140500000D03*
X121996000Y-140500000D03*
X124536000Y-140500000D03*
X127076000Y-140500000D03*
X129616000Y-140500000D03*
X132156000Y-140500000D03*
X134696000Y-140500000D03*
X137236000Y-140500000D03*
X139776000Y-140500000D03*
X142316000Y-140500000D03*
X144856000Y-140500000D03*
X147396000Y-140500000D03*
X149936000Y-140500000D03*
X152476000Y-140500000D03*
X155016000Y-140500000D03*
X155016000Y-125260000D03*
X152476000Y-125260000D03*
X149936000Y-125260000D03*
X147396000Y-125260000D03*
X144856000Y-125260000D03*
X142316000Y-125260000D03*
X139776000Y-125260000D03*
X137236000Y-125260000D03*
X134696000Y-125260000D03*
X132156000Y-125260000D03*
X129616000Y-125260000D03*
X127076000Y-125260000D03*
X124536000Y-125260000D03*
X121996000Y-125260000D03*
X119456000Y-125260000D03*
X116916000Y-125260000D03*
X114376000Y-125260000D03*
X111836000Y-125260000D03*
X109296000Y-125260000D03*
X106756000Y-125260000D03*
%TD*%
D21*
%TO.C,Q3*%
X136368000Y-109152000D03*
D22*
X136368000Y-111692000D03*
X136368000Y-114232000D03*
%TD*%
D18*
%TO.C,R27*%
X145364000Y-118042000D03*
D15*
X145364000Y-105342000D03*
%TD*%
D18*
%TO.C,R46*%
X290144000Y-112708000D03*
D15*
X290144000Y-102548000D03*
%TD*%
D18*
%TO.C,R108*%
X151460000Y-122868000D03*
D15*
X151460000Y-112708000D03*
%TD*%
D18*
%TO.C,R32*%
X165712000Y-140648000D03*
D15*
X165712000Y-130488000D03*
%TD*%
D18*
%TO.C,C7*%
X248488000Y-122828000D03*
X248488000Y-117828000D03*
%TD*%
%TO.C,R23*%
X125044000Y-114232000D03*
D15*
X125044000Y-104072000D03*
%TD*%
D18*
%TO.C,R102*%
X84404000Y-136855000D03*
D15*
X84404000Y-124155000D03*
%TD*%
D18*
%TO.C,R28*%
X158064000Y-124392000D03*
D15*
X158064000Y-114232000D03*
%TD*%
D18*
%TO.C,C2*%
X108788000Y-121812000D03*
X108788000Y-116812000D03*
%TD*%
%TO.C,R24*%
X127584000Y-114232000D03*
D15*
X127584000Y-104072000D03*
%TD*%
D18*
%TO.C,R6*%
X69164000Y-132012000D03*
D15*
X69164000Y-121852000D03*
%TD*%
D18*
%TO.C,R44*%
X262204000Y-117788000D03*
D15*
X262204000Y-102548000D03*
%TD*%
D14*
%TO.C,D1*%
X96596000Y-132012000D03*
D15*
X96596000Y-142172000D03*
%TD*%
D18*
%TO.C,R2*%
X76784000Y-149284000D03*
D15*
X76784000Y-139124000D03*
%TD*%
D18*
%TO.C,R113*%
X292684000Y-119058000D03*
D15*
X292684000Y-111438000D03*
%TD*%
D18*
%TO.C,R104*%
X104216000Y-146998000D03*
D15*
X104216000Y-124138000D03*
%TD*%
D18*
%TO.C,R1*%
X74244000Y-149284000D03*
D15*
X74244000Y-139124000D03*
%TD*%
D18*
%TO.C,R43*%
X251536000Y-122868000D03*
D15*
X251536000Y-112708000D03*
%TD*%
D18*
%TO.C,R4*%
X81864000Y-149284000D03*
D15*
X81864000Y-139124000D03*
%TD*%
D18*
%TO.C,R106*%
X141300000Y-117788000D03*
D15*
X141300000Y-102548000D03*
%TD*%
D18*
%TO.C,R110*%
X183464000Y-124138000D03*
D15*
X183464000Y-106358000D03*
%TD*%
D14*
%TO.C,D5*%
X166700000Y-109406000D03*
D15*
X166700000Y-117026000D03*
%TD*%
D18*
%TO.C,R21*%
X101676000Y-143188000D03*
D15*
X101676000Y-133028000D03*
%TD*%
D21*
%TO.C,Q2*%
X113868000Y-148416000D03*
D22*
X111328000Y-148416000D03*
X108788000Y-148416000D03*
%TD*%
D28*
%TO.C,JP5*%
X67132000Y-135426000D03*
X67132000Y-136726000D03*
%TD*%
%TO.C,JP1*%
X67232000Y-103930000D03*
X67232000Y-105230000D03*
%TD*%
%TO.C,JP9*%
X67208200Y-149472200D03*
X67208200Y-150772200D03*
%TD*%
%TO.C,JP2*%
X67232000Y-107486000D03*
X67232000Y-108786000D03*
%TD*%
%TO.C,JP6*%
X67132000Y-138982000D03*
X67132000Y-140282000D03*
%TD*%
%TO.C,JP4*%
X67232000Y-114598000D03*
X67232000Y-115898000D03*
%TD*%
%TO.C,JP8*%
X67208200Y-146144800D03*
X67208200Y-147444800D03*
%TD*%
%TO.C,JP3*%
X67232000Y-111042000D03*
X67232000Y-112342000D03*
%TD*%
%TO.C,JP7*%
X67182800Y-142538000D03*
X67182800Y-143838000D03*
%TD*%
M02*
