M48
METRIC,TZ
T1C0.500
T2C0.800
T3C1.000
T4C1.100
T5C1.200
%
G90
G05
T1
X119286Y-144778
X119286Y-146678
T2
X69164Y-121852
X69164Y-132012
X71704Y-121852
X71704Y-132012
X74244Y-121852
X74244Y-132012
X74244Y-139124
X74244Y-149284
X76784Y-103056
X76784Y-113216
X76784Y-121852
X76784Y-132012
X76784Y-139124
X76784Y-149284
X79324Y-105596
X79324Y-115756
X79324Y-118296
X79324Y-133536
X79324Y-139124
X79324Y-149284
X81864Y-105596
X81864Y-115756
X81864Y-118296
X81864Y-133536
X81864Y-139124
X81864Y-149284
X84404Y-124155
X84404Y-136855
X84404Y-139124
X84404Y-149284
X86944Y-105596
X86944Y-115756
X86944Y-124392
X86944Y-137092
X88988Y-120582
X88988Y-138362
X90500Y-105596
X90500Y-115756
X91516Y-132012
X91516Y-142172
X92024Y-148120
X93040Y-115248
X93040Y-125408
X94564Y-148120
X96596Y-111946
X96596Y-124646
X96596Y-132012
X96596Y-142172
X97104Y-148120
X99131Y-104316
X99131Y-111936
X99136Y-116772
X99136Y-132012
X99136Y-135568
X99136Y-145728
X101671Y-104316
X101671Y-111936
X101676Y-133028
X101676Y-143188
X102692Y-116812
X102692Y-121812
X104211Y-104316
X104211Y-111936
X104216Y-124138
X104216Y-146998
X106751Y-104316
X106751Y-111936
X106756Y-125260
X106756Y-140500
X108788Y-116812
X108788Y-121812
X108788Y-148416
X109291Y-104316
X109291Y-111936
X109296Y-125260
X109296Y-140500
X111328Y-148416
X111831Y-104316
X111831Y-111936
X111836Y-125260
X111836Y-140500
X113868Y-115502
X113868Y-123122
X113868Y-148416
X114371Y-104316
X114371Y-111936
X114376Y-125260
X114376Y-140500
X116916Y-125260
X116916Y-140500
X117424Y-104072
X117424Y-114232
X117424Y-119312
X119456Y-125260
X119456Y-140500
X119964Y-104072
X119964Y-114232
X121996Y-125260
X121996Y-140500
X122424Y-119312
X122504Y-104072
X122504Y-114232
X124536Y-125260
X124536Y-140500
X125044Y-104072
X125044Y-114232
X127076Y-125260
X127076Y-140500
X127584Y-104072
X127584Y-114232
X129616Y-125260
X129616Y-140500
X132156Y-125260
X132156Y-140500
X132664Y-104072
X132664Y-114232
X134696Y-125260
X134696Y-140500
X136368Y-109152
X136368Y-111692
X136368Y-114232
X137236Y-125260
X137236Y-140500
X138760Y-102548
X138760Y-122868
X139776Y-125260
X139776Y-140500
X141300Y-102548
X141300Y-117788
X142316Y-125260
X142316Y-140500
X144856Y-125260
X144856Y-140500
X145364Y-105342
X145364Y-118042
X147396Y-125260
X147396Y-140500
X147904Y-110439
X147904Y-123139
X149936Y-125260
X149936Y-140500
X151460Y-112708
X151460Y-122868
X152476Y-125260
X152476Y-140500
X152984Y-102548
X152984Y-105088
X152984Y-107628
X155016Y-112708
X155016Y-122868
X155016Y-125260
X155016Y-140500
X158064Y-101532
X158064Y-111692
X158064Y-114232
X158064Y-124392
X160604Y-106612
X160604Y-124392
X160604Y-130488
X160604Y-140648
X163144Y-119392
X163144Y-124392
X163144Y-130488
X163144Y-140648
X164160Y-101786
X164160Y-114486
X165712Y-130488
X165712Y-140648
X166700Y-109406
X166700Y-117026
X166740Y-105088
X168224Y-130488
X168224Y-140648
X169240Y-109152
X169240Y-119312
X170764Y-130488
X170764Y-140648
X171740Y-105088
X172288Y-109152
X172288Y-119312
X173304Y-130488
X173304Y-140648
X175336Y-107882
X175336Y-120582
X176860Y-127948
X176860Y-143188
X179400Y-127948
X179400Y-143188
X181940Y-127948
X181940Y-143188
X183464Y-106358
X183464Y-124138
X188036Y-113216
X188036Y-133536
X196672Y-148120
X199212Y-148120
X201752Y-148120
X206832Y-148120
X209372Y-148120
X211912Y-148120
X216484Y-141410
X216484Y-149030
X245440Y-115248
X245440Y-120248
X248128Y-137600
X248128Y-140140
X248128Y-142680
X248488Y-117828
X248488Y-122828
X251536Y-112708
X251536Y-122868
X253060Y-130488
X253060Y-145728
X258648Y-111732
X258648Y-116732
X262204Y-102548
X262204Y-117788
X266268Y-104072
X266268Y-114232
X283180Y-102548
X283180Y-105088
X283180Y-107628
X284556Y-129980
X284556Y-140140
X290144Y-102548
X290144Y-112708
X292684Y-111438
X292684Y-119058
X295224Y-108644
X295224Y-123884
X298780Y-108644
X298780Y-123884
X302376Y-123884
X307376Y-123884
T3
X190468Y-126412
X190600Y-107628
X190600Y-117788
X199620Y-138000
X202160Y-138000
X204700Y-138000
X207240Y-138000
X209780Y-138000
X212320Y-138000
X214860Y-138000
X217400Y-138000
X219940Y-138000
X222480Y-138000
X225020Y-138000
X227560Y-138000
X230100Y-138000
X240468Y-121332
X240468Y-131492
X240600Y-112708
X290652Y-128840
X290652Y-139000
X290652Y-141540
X298272Y-139000
X298272Y-141540
X316916Y-133785
X316916Y-136325
T4
X178384Y-107882
X178384Y-120582
X269824Y-102294
X269824Y-114994
X277444Y-105342
X277444Y-118042
T5
X185496Y-110422
X185496Y-133282
X259156Y-120180
X259156Y-142680
X270840Y-117640
X270840Y-140140
X281000Y-117640
X281000Y-140140
T3
G00X183600Y-101900
M15
G01X183600Y-103100
M16
G05
G00X187100Y-101900
M15
G01X187100Y-103100
M16
G05
G00X190600Y-101900
M15
G01X190600Y-103100
M16
G05
G00X194100Y-101900
M15
G01X194100Y-103100
M16
G05
G00X197600Y-101900
M15
G01X197600Y-103100
M16
G05
G00X201100Y-101900
M15
G01X201100Y-103100
M16
G05
G00X204600Y-101900
M15
G01X204600Y-103100
M16
G05
G00X208100Y-101900
M15
G01X208100Y-103100
M16
G05
G00X211600Y-101900
M15
G01X211600Y-103100
M16
G05
G00X215100Y-101900
M15
G01X215100Y-103100
M16
G05
G00X218600Y-101900
M15
G01X218600Y-103100
M16
G05
G00X222100Y-101900
M15
G01X222100Y-103100
M16
G05
G00X225600Y-101900
M15
G01X225600Y-103100
M16
G05
G00X229100Y-101900
M15
G01X229100Y-103100
M16
G05
G00X232600Y-101900
M15
G01X232600Y-103100
M16
G05
G00X236100Y-101900
M15
G01X236100Y-103100
M16
G05
G00X239600Y-101900
M15
G01X239600Y-103100
M16
G05
G00X243100Y-101900
M15
G01X243100Y-103100
M16
G05
G00X246600Y-101900
M15
G01X246600Y-103100
M16
G05
M30
