%TF.GenerationSoftware,KiCad,Pcbnew,8.0.1*%
%TF.CreationDate,2024-06-22T15:15:02+02:00*%
%TF.ProjectId,BMW E30 VFL SI Indicator,424d5720-4533-4302-9056-464c20534920,rev?*%
%TF.SameCoordinates,Original*%
%TF.FileFunction,Legend,Bot*%
%TF.FilePolarity,Positive*%
%FSLAX46Y46*%
G04 Gerber Fmt 4.6, Leading zero omitted, Abs format (unit mm)*
G04 Created by KiCad (PCBNEW 8.0.1) date 2024-06-22 15:15:02*
%MOMM*%
%LPD*%
G01*
G04 APERTURE LIST*
%ADD10C,0.300000*%
%ADD11C,0.350000*%
G04 APERTURE END LIST*
D10*
G36*
X123430211Y-98788881D02*
G01*
X123468875Y-98825871D01*
X123521489Y-98927205D01*
X123586666Y-99178396D01*
X123589055Y-99498632D01*
X123528456Y-99750535D01*
X123474319Y-99863067D01*
X123437330Y-99901730D01*
X123347117Y-99948569D01*
X123274420Y-99949786D01*
X123185846Y-99907175D01*
X123147184Y-99870187D01*
X123094569Y-99768850D01*
X123029390Y-99517658D01*
X123027001Y-99197424D01*
X123087601Y-98945520D01*
X123141737Y-98832989D01*
X123178729Y-98794324D01*
X123268940Y-98747486D01*
X123341636Y-98746269D01*
X123430211Y-98788881D01*
G37*
G36*
X135287352Y-98788881D02*
G01*
X135326016Y-98825871D01*
X135378630Y-98927205D01*
X135443807Y-99178396D01*
X135446196Y-99498632D01*
X135385597Y-99750535D01*
X135331460Y-99863067D01*
X135294471Y-99901730D01*
X135204258Y-99948569D01*
X135131561Y-99949786D01*
X135042987Y-99907175D01*
X135004325Y-99870187D01*
X134951710Y-99768850D01*
X134886531Y-99517658D01*
X134884142Y-99197424D01*
X134944742Y-98945520D01*
X134998878Y-98832989D01*
X135035870Y-98794324D01*
X135126081Y-98747486D01*
X135198777Y-98746269D01*
X135287352Y-98788881D01*
G37*
G36*
X123802084Y-96819539D02*
G01*
X123604340Y-96820488D01*
X123596993Y-96818861D01*
X123587306Y-96820570D01*
X123418925Y-96821378D01*
X123328702Y-96777973D01*
X123290037Y-96740982D01*
X123243363Y-96651086D01*
X123241661Y-96507314D01*
X123284594Y-96418072D01*
X123321583Y-96379409D01*
X123411044Y-96332960D01*
X123801163Y-96331088D01*
X123802084Y-96819539D01*
G37*
G36*
X135910408Y-100771838D02*
G01*
X122562790Y-100771838D01*
X122562790Y-99169457D01*
X122729457Y-99169457D01*
X122732053Y-99517630D01*
X122729634Y-99533891D01*
X122732310Y-99551986D01*
X122732339Y-99555864D01*
X122733185Y-99557908D01*
X122733936Y-99562981D01*
X122805194Y-99837601D01*
X122806213Y-99851933D01*
X122814601Y-99873853D01*
X122815258Y-99876385D01*
X122815902Y-99877255D01*
X122816722Y-99879396D01*
X122890733Y-100021942D01*
X122897594Y-100038505D01*
X122902328Y-100044274D01*
X122903816Y-100047139D01*
X122906810Y-100049736D01*
X122916248Y-100061236D01*
X122991401Y-100133137D01*
X123001776Y-100145099D01*
X123007999Y-100149016D01*
X123010407Y-100151320D01*
X123014066Y-100152835D01*
X123026661Y-100160764D01*
X123151186Y-100220670D01*
X123153264Y-100222748D01*
X123169386Y-100229426D01*
X123196982Y-100242702D01*
X123202357Y-100243083D01*
X123207336Y-100245146D01*
X123236600Y-100248028D01*
X123358124Y-100245993D01*
X123360695Y-100246850D01*
X123377264Y-100245672D01*
X123408721Y-100245146D01*
X123413699Y-100243083D01*
X123419075Y-100242702D01*
X123446538Y-100232192D01*
X123589078Y-100158184D01*
X123605651Y-100151320D01*
X123611421Y-100146584D01*
X123614282Y-100145099D01*
X123616876Y-100142107D01*
X123628382Y-100132665D01*
X123700277Y-100057515D01*
X123702181Y-100055864D01*
X124160911Y-100055864D01*
X124163137Y-100061237D01*
X124183308Y-100109935D01*
X124183309Y-100109936D01*
X124201964Y-100132667D01*
X124296122Y-100222748D01*
X124296123Y-100222749D01*
X124318921Y-100232192D01*
X124350194Y-100245146D01*
X124350195Y-100245146D01*
X124350196Y-100245146D01*
X124408721Y-100245146D01*
X124408722Y-100245146D01*
X124439995Y-100232192D01*
X124462793Y-100222749D01*
X124485524Y-100204094D01*
X124575607Y-100109936D01*
X124598003Y-100055863D01*
X124598003Y-100029454D01*
X124598004Y-99997338D01*
X124575607Y-99943265D01*
X124556953Y-99920535D01*
X124462794Y-99830451D01*
X124462793Y-99830450D01*
X124431119Y-99817330D01*
X124408722Y-99808053D01*
X124350194Y-99808053D01*
X124327797Y-99817330D01*
X124296123Y-99830450D01*
X124273392Y-99849105D01*
X124183308Y-99943265D01*
X124163138Y-99991962D01*
X124160911Y-99997338D01*
X124160911Y-100055864D01*
X123702181Y-100055864D01*
X123712242Y-100047139D01*
X123716160Y-100040913D01*
X123718464Y-100038506D01*
X123719979Y-100034846D01*
X123727907Y-100022253D01*
X123793049Y-99886845D01*
X123800800Y-99876385D01*
X123808643Y-99854430D01*
X123809845Y-99851933D01*
X123809921Y-99850852D01*
X123810693Y-99848694D01*
X123877561Y-99570725D01*
X123883718Y-99555864D01*
X123885506Y-99537698D01*
X123886423Y-99533891D01*
X123886097Y-99531703D01*
X123886600Y-99526600D01*
X123884003Y-99178426D01*
X123886423Y-99162166D01*
X123883746Y-99144071D01*
X123883718Y-99140193D01*
X123882870Y-99138148D01*
X123882121Y-99133077D01*
X123817424Y-98883742D01*
X124872314Y-98883742D01*
X124874728Y-99027958D01*
X124873492Y-99045361D01*
X124875141Y-99052615D01*
X124875196Y-99055864D01*
X124876712Y-99059525D01*
X124880012Y-99074035D01*
X124946625Y-99266594D01*
X124946625Y-99270148D01*
X124954083Y-99288154D01*
X124963429Y-99315170D01*
X124966959Y-99319240D01*
X124969022Y-99324220D01*
X124987677Y-99346951D01*
X125592633Y-99949105D01*
X124993050Y-99950910D01*
X124938978Y-99973308D01*
X124897594Y-100014692D01*
X124875196Y-100068764D01*
X124875196Y-100127292D01*
X124897594Y-100181364D01*
X124938978Y-100222748D01*
X124993050Y-100245146D01*
X125022314Y-100248028D01*
X125980150Y-100245146D01*
X126011423Y-100232192D01*
X126034221Y-100222749D01*
X126075607Y-100181363D01*
X126088726Y-100149689D01*
X126098004Y-100127292D01*
X126098004Y-100068764D01*
X126090478Y-100050594D01*
X126075607Y-100014692D01*
X126056952Y-99991962D01*
X125226235Y-99165093D01*
X125172008Y-99008337D01*
X125170555Y-98921562D01*
X125213166Y-98832989D01*
X125250156Y-98794325D01*
X125339782Y-98747791D01*
X125626076Y-98745655D01*
X125715924Y-98788879D01*
X125796121Y-98865606D01*
X125850194Y-98888002D01*
X125908720Y-98888002D01*
X125962792Y-98865606D01*
X126004178Y-98824220D01*
X126026574Y-98770148D01*
X126026574Y-98711622D01*
X126004178Y-98657549D01*
X125985523Y-98634819D01*
X125966677Y-98616789D01*
X126159206Y-98616789D01*
X126165726Y-98645462D01*
X126662619Y-100127298D01*
X126663355Y-100137648D01*
X126671658Y-100154255D01*
X126677714Y-100172313D01*
X126684736Y-100180410D01*
X126689529Y-100189995D01*
X126703735Y-100202316D01*
X126716061Y-100216528D01*
X126725648Y-100221321D01*
X126733743Y-100228342D01*
X126751585Y-100234289D01*
X126768409Y-100242701D01*
X126779099Y-100243460D01*
X126789267Y-100246850D01*
X126808023Y-100245517D01*
X126826789Y-100246851D01*
X126836959Y-100243460D01*
X126847648Y-100242701D01*
X126864469Y-100234290D01*
X126882313Y-100228342D01*
X126890409Y-100221319D01*
X126899995Y-100216527D01*
X126912318Y-100202318D01*
X126926527Y-100189995D01*
X126931319Y-100180409D01*
X126938342Y-100172313D01*
X126950330Y-100145462D01*
X127122024Y-99627292D01*
X128660910Y-99627292D01*
X128683308Y-99681364D01*
X128724692Y-99722748D01*
X128778764Y-99745146D01*
X128808028Y-99748028D01*
X128874133Y-99747829D01*
X128875196Y-100127292D01*
X128897594Y-100181364D01*
X128938978Y-100222748D01*
X128993050Y-100245146D01*
X129051578Y-100245146D01*
X129105650Y-100222748D01*
X129147034Y-100181364D01*
X129169432Y-100127292D01*
X129172314Y-100098028D01*
X129171330Y-99746934D01*
X129732782Y-99745245D01*
X129755359Y-99746850D01*
X129760421Y-99745162D01*
X129765863Y-99745146D01*
X129788079Y-99735943D01*
X129810884Y-99728342D01*
X129814955Y-99724810D01*
X129819935Y-99722748D01*
X129836940Y-99705742D01*
X129855098Y-99689994D01*
X129857507Y-99685175D01*
X129861319Y-99681364D01*
X129870522Y-99659146D01*
X129881272Y-99637647D01*
X129881653Y-99632272D01*
X129883717Y-99627292D01*
X129883717Y-99603243D01*
X129885421Y-99579267D01*
X129883717Y-99571773D01*
X129883717Y-99568764D01*
X129882200Y-99565102D01*
X129878901Y-99550593D01*
X129654773Y-98883742D01*
X130158027Y-98883742D01*
X130160441Y-99027958D01*
X130159205Y-99045361D01*
X130160854Y-99052615D01*
X130160909Y-99055864D01*
X130162425Y-99059525D01*
X130165725Y-99074035D01*
X130232338Y-99266594D01*
X130232338Y-99270148D01*
X130239796Y-99288154D01*
X130249142Y-99315170D01*
X130252672Y-99319240D01*
X130254735Y-99324220D01*
X130273390Y-99346951D01*
X130878346Y-99949105D01*
X130278763Y-99950910D01*
X130224691Y-99973308D01*
X130183307Y-100014692D01*
X130160909Y-100068764D01*
X130160909Y-100127292D01*
X130183307Y-100181364D01*
X130224691Y-100222748D01*
X130278763Y-100245146D01*
X130308027Y-100248028D01*
X131265863Y-100245146D01*
X131297136Y-100232192D01*
X131319934Y-100222749D01*
X131361320Y-100181363D01*
X131374439Y-100149689D01*
X131383717Y-100127292D01*
X131383717Y-100068764D01*
X131376191Y-100050594D01*
X131361320Y-100014692D01*
X131342665Y-99991962D01*
X130511948Y-99165093D01*
X130457721Y-99008337D01*
X130456268Y-98921562D01*
X130498879Y-98832989D01*
X130535869Y-98794325D01*
X130625495Y-98747791D01*
X130911789Y-98745655D01*
X131001637Y-98788879D01*
X131081834Y-98865606D01*
X131135907Y-98888002D01*
X131194433Y-98888002D01*
X131248505Y-98865606D01*
X131289891Y-98824220D01*
X131312287Y-98770148D01*
X131312287Y-98711622D01*
X131289891Y-98657549D01*
X131271236Y-98634819D01*
X131196086Y-98562922D01*
X131185710Y-98550958D01*
X131179484Y-98547039D01*
X131177077Y-98544736D01*
X131173417Y-98543220D01*
X131160824Y-98535293D01*
X131142426Y-98526442D01*
X131443742Y-98526442D01*
X131455100Y-98583857D01*
X131468934Y-98609805D01*
X132773279Y-100561127D01*
X132821909Y-100593693D01*
X132879299Y-100605171D01*
X132936713Y-100593813D01*
X132985412Y-100561348D01*
X133017978Y-100512718D01*
X133029456Y-100455329D01*
X133018098Y-100397914D01*
X133004264Y-100371966D01*
X132391440Y-99455171D01*
X133158027Y-99455171D01*
X133160521Y-99789603D01*
X133159205Y-99793553D01*
X133160708Y-99814710D01*
X133160909Y-99841578D01*
X133162972Y-99846558D01*
X133163354Y-99851933D01*
X133173863Y-99879396D01*
X133247872Y-100021938D01*
X133254735Y-100038506D01*
X133259470Y-100044276D01*
X133260957Y-100047139D01*
X133263950Y-100049735D01*
X133273390Y-100061237D01*
X133348545Y-100133138D01*
X133358918Y-100145099D01*
X133365141Y-100149016D01*
X133367550Y-100151321D01*
X133371211Y-100152837D01*
X133383803Y-100160764D01*
X133508328Y-100220670D01*
X133510406Y-100222748D01*
X133526528Y-100229426D01*
X133554124Y-100242702D01*
X133559499Y-100243083D01*
X133564478Y-100245146D01*
X133593742Y-100248028D01*
X133928174Y-100245533D01*
X133932123Y-100246850D01*
X133953285Y-100245346D01*
X133980149Y-100245146D01*
X133985127Y-100243083D01*
X133990503Y-100242702D01*
X134017967Y-100232192D01*
X134160510Y-100158182D01*
X134177078Y-100151320D01*
X134182846Y-100146585D01*
X134185710Y-100145099D01*
X134188306Y-100142104D01*
X134199809Y-100132665D01*
X134289891Y-100038506D01*
X134312288Y-99984433D01*
X134312287Y-99925907D01*
X134289890Y-99871835D01*
X134248504Y-99830450D01*
X134194432Y-99808053D01*
X134135906Y-99808054D01*
X134081834Y-99830451D01*
X134059103Y-99849106D01*
X134008755Y-99901732D01*
X133919133Y-99948264D01*
X133632837Y-99950400D01*
X133542988Y-99907175D01*
X133504325Y-99870186D01*
X133457790Y-99780560D01*
X133455654Y-99494266D01*
X133498879Y-99404418D01*
X133535870Y-99365753D01*
X133625494Y-99319220D01*
X133911789Y-99317084D01*
X134001638Y-99360309D01*
X134047509Y-99404195D01*
X134049361Y-99407646D01*
X134061484Y-99417565D01*
X134081834Y-99437034D01*
X134088812Y-99439924D01*
X134094658Y-99444707D01*
X134115649Y-99451040D01*
X134135906Y-99459431D01*
X134143458Y-99459431D01*
X134150690Y-99461613D01*
X134172506Y-99459431D01*
X134194432Y-99459432D01*
X134201410Y-99456541D01*
X134208927Y-99455790D01*
X134228246Y-99445425D01*
X134248504Y-99437035D01*
X134253846Y-99431692D01*
X134260502Y-99428122D01*
X134274382Y-99411156D01*
X134289890Y-99395650D01*
X134292780Y-99388670D01*
X134297563Y-99382826D01*
X134303897Y-99361831D01*
X134312287Y-99341578D01*
X134312287Y-99334028D01*
X134314470Y-99326794D01*
X134314426Y-99297388D01*
X134301134Y-99169457D01*
X134586598Y-99169457D01*
X134589194Y-99517630D01*
X134586775Y-99533891D01*
X134589451Y-99551986D01*
X134589480Y-99555864D01*
X134590326Y-99557908D01*
X134591077Y-99562981D01*
X134662335Y-99837601D01*
X134663354Y-99851933D01*
X134671742Y-99873853D01*
X134672399Y-99876385D01*
X134673043Y-99877255D01*
X134673863Y-99879396D01*
X134747874Y-100021942D01*
X134754735Y-100038505D01*
X134759469Y-100044274D01*
X134760957Y-100047139D01*
X134763951Y-100049736D01*
X134773389Y-100061236D01*
X134848542Y-100133137D01*
X134858917Y-100145099D01*
X134865140Y-100149016D01*
X134867548Y-100151320D01*
X134871207Y-100152835D01*
X134883802Y-100160764D01*
X135008327Y-100220670D01*
X135010405Y-100222748D01*
X135026527Y-100229426D01*
X135054123Y-100242702D01*
X135059498Y-100243083D01*
X135064477Y-100245146D01*
X135093741Y-100248028D01*
X135215265Y-100245993D01*
X135217836Y-100246850D01*
X135234405Y-100245672D01*
X135265862Y-100245146D01*
X135270840Y-100243083D01*
X135276216Y-100242702D01*
X135303679Y-100232192D01*
X135446219Y-100158184D01*
X135462792Y-100151320D01*
X135468562Y-100146584D01*
X135471423Y-100145099D01*
X135474017Y-100142107D01*
X135485523Y-100132665D01*
X135557418Y-100057515D01*
X135569383Y-100047139D01*
X135573301Y-100040913D01*
X135575605Y-100038506D01*
X135577120Y-100034846D01*
X135585048Y-100022253D01*
X135650190Y-99886845D01*
X135657941Y-99876385D01*
X135665784Y-99854430D01*
X135666986Y-99851933D01*
X135667062Y-99850852D01*
X135667834Y-99848694D01*
X135734702Y-99570725D01*
X135740859Y-99555864D01*
X135742647Y-99537698D01*
X135743564Y-99533891D01*
X135743238Y-99531703D01*
X135743741Y-99526600D01*
X135741144Y-99178426D01*
X135743564Y-99162166D01*
X135740887Y-99144071D01*
X135740859Y-99140193D01*
X135740011Y-99138148D01*
X135739262Y-99133077D01*
X135668004Y-98858455D01*
X135666986Y-98844123D01*
X135658597Y-98822199D01*
X135657941Y-98819671D01*
X135657296Y-98818801D01*
X135656477Y-98816659D01*
X135582466Y-98674116D01*
X135575605Y-98657549D01*
X135570868Y-98651777D01*
X135569383Y-98648917D01*
X135566390Y-98646321D01*
X135556950Y-98634819D01*
X135481800Y-98562922D01*
X135471424Y-98550958D01*
X135465198Y-98547039D01*
X135462791Y-98544736D01*
X135459131Y-98543220D01*
X135446538Y-98535293D01*
X135322010Y-98475384D01*
X135319934Y-98473308D01*
X135303816Y-98466631D01*
X135276217Y-98453354D01*
X135270839Y-98452971D01*
X135265862Y-98450910D01*
X135236598Y-98448028D01*
X135115072Y-98450062D01*
X135112502Y-98449206D01*
X135095937Y-98450383D01*
X135064477Y-98450910D01*
X135059496Y-98452973D01*
X135054122Y-98453355D01*
X135026658Y-98463864D01*
X134884115Y-98537874D01*
X134867548Y-98544736D01*
X134861776Y-98549472D01*
X134858916Y-98550958D01*
X134856320Y-98553950D01*
X134844818Y-98563391D01*
X134772921Y-98638540D01*
X134760957Y-98648917D01*
X134757038Y-98655142D01*
X134754735Y-98657550D01*
X134753219Y-98661209D01*
X134745292Y-98673803D01*
X134680149Y-98809210D01*
X134672399Y-98819671D01*
X134664555Y-98841625D01*
X134663354Y-98844123D01*
X134663277Y-98845203D01*
X134662506Y-98847362D01*
X134595636Y-99125330D01*
X134589480Y-99140193D01*
X134587691Y-99158358D01*
X134586775Y-99162166D01*
X134587100Y-99164353D01*
X134586598Y-99169457D01*
X134301134Y-99169457D01*
X134240860Y-98589324D01*
X134240860Y-98568764D01*
X134238008Y-98561880D01*
X134237218Y-98554271D01*
X134226853Y-98534949D01*
X134218462Y-98514692D01*
X134213121Y-98509351D01*
X134209551Y-98502696D01*
X134192583Y-98488813D01*
X134177078Y-98473308D01*
X134170098Y-98470416D01*
X134164254Y-98465635D01*
X134143265Y-98459301D01*
X134123006Y-98450910D01*
X134111794Y-98449805D01*
X134108222Y-98448728D01*
X134104564Y-98449093D01*
X134093742Y-98448028D01*
X133350192Y-98450910D01*
X133296120Y-98473308D01*
X133254736Y-98514692D01*
X133232338Y-98568764D01*
X133232338Y-98627292D01*
X133254736Y-98681364D01*
X133296120Y-98722748D01*
X133350192Y-98745146D01*
X133379456Y-98748028D01*
X133958286Y-98745784D01*
X133987250Y-99024551D01*
X133985127Y-99024401D01*
X133980149Y-99022339D01*
X133950885Y-99019457D01*
X133616452Y-99021951D01*
X133612504Y-99020635D01*
X133591341Y-99022138D01*
X133564478Y-99022339D01*
X133559499Y-99024401D01*
X133554124Y-99024783D01*
X133526661Y-99035293D01*
X133384123Y-99109298D01*
X133367550Y-99116164D01*
X133361777Y-99120901D01*
X133358918Y-99122386D01*
X133356323Y-99125377D01*
X133344819Y-99134819D01*
X133272921Y-99209969D01*
X133260957Y-99220346D01*
X133257038Y-99226571D01*
X133254735Y-99228979D01*
X133253219Y-99232638D01*
X133245292Y-99245232D01*
X133185385Y-99369756D01*
X133183307Y-99371835D01*
X133176625Y-99387966D01*
X133163354Y-99415552D01*
X133162972Y-99420926D01*
X133160909Y-99425907D01*
X133158027Y-99455171D01*
X132391440Y-99455171D01*
X131699919Y-98420644D01*
X131651289Y-98388078D01*
X131593900Y-98376600D01*
X131536485Y-98387958D01*
X131487786Y-98420423D01*
X131455220Y-98469053D01*
X131443742Y-98526442D01*
X131142426Y-98526442D01*
X131036299Y-98475386D01*
X131034221Y-98473308D01*
X131018089Y-98466626D01*
X130990504Y-98453355D01*
X130985129Y-98452973D01*
X130980149Y-98450910D01*
X130950885Y-98448028D01*
X130616452Y-98450522D01*
X130612503Y-98449206D01*
X130591345Y-98450709D01*
X130564478Y-98450910D01*
X130559497Y-98452973D01*
X130554123Y-98453355D01*
X130526659Y-98463864D01*
X130384115Y-98537874D01*
X130367550Y-98544736D01*
X130361779Y-98549471D01*
X130358917Y-98550958D01*
X130356320Y-98553951D01*
X130344820Y-98563390D01*
X130272922Y-98638539D01*
X130260957Y-98648917D01*
X130257038Y-98655142D01*
X130254736Y-98657549D01*
X130253220Y-98661207D01*
X130245292Y-98673803D01*
X130185385Y-98798327D01*
X130183307Y-98800406D01*
X130176625Y-98816537D01*
X130163354Y-98844123D01*
X130162972Y-98849497D01*
X130160909Y-98854478D01*
X130158027Y-98883742D01*
X129654773Y-98883742D01*
X129509770Y-98452315D01*
X129471423Y-98408101D01*
X129419076Y-98381927D01*
X129360695Y-98377778D01*
X129305171Y-98396286D01*
X129260957Y-98434633D01*
X129234783Y-98486980D01*
X129230634Y-98545361D01*
X129237154Y-98574034D01*
X129531110Y-99448646D01*
X129170498Y-99449731D01*
X129169432Y-99068764D01*
X129147034Y-99014692D01*
X129105650Y-98973308D01*
X129051578Y-98950910D01*
X128993050Y-98950910D01*
X128938978Y-98973308D01*
X128897594Y-99014692D01*
X128875196Y-99068764D01*
X128872314Y-99098028D01*
X128873301Y-99450625D01*
X128778764Y-99450910D01*
X128724692Y-99473308D01*
X128683308Y-99514692D01*
X128660910Y-99568764D01*
X128660910Y-99627292D01*
X127122024Y-99627292D01*
X127456851Y-98616788D01*
X127452701Y-98558408D01*
X127426527Y-98506061D01*
X127382313Y-98467714D01*
X127326789Y-98449205D01*
X127268409Y-98453355D01*
X127216061Y-98479528D01*
X127177714Y-98523743D01*
X127165726Y-98550594D01*
X126808678Y-99628159D01*
X126438342Y-98523743D01*
X126399995Y-98479529D01*
X126347648Y-98453355D01*
X126289267Y-98449206D01*
X126233743Y-98467714D01*
X126189529Y-98506061D01*
X126163355Y-98558408D01*
X126159206Y-98616789D01*
X125966677Y-98616789D01*
X125910373Y-98562922D01*
X125899997Y-98550958D01*
X125893771Y-98547039D01*
X125891364Y-98544736D01*
X125887704Y-98543220D01*
X125875111Y-98535293D01*
X125750586Y-98475386D01*
X125748508Y-98473308D01*
X125732376Y-98466626D01*
X125704791Y-98453355D01*
X125699416Y-98452973D01*
X125694436Y-98450910D01*
X125665172Y-98448028D01*
X125330739Y-98450522D01*
X125326790Y-98449206D01*
X125305632Y-98450709D01*
X125278765Y-98450910D01*
X125273784Y-98452973D01*
X125268410Y-98453355D01*
X125240946Y-98463864D01*
X125098402Y-98537874D01*
X125081837Y-98544736D01*
X125076066Y-98549471D01*
X125073204Y-98550958D01*
X125070607Y-98553951D01*
X125059107Y-98563390D01*
X124987209Y-98638539D01*
X124975244Y-98648917D01*
X124971325Y-98655142D01*
X124969023Y-98657549D01*
X124967507Y-98661207D01*
X124959579Y-98673803D01*
X124899672Y-98798327D01*
X124897594Y-98800406D01*
X124890912Y-98816537D01*
X124877641Y-98844123D01*
X124877259Y-98849497D01*
X124875196Y-98854478D01*
X124872314Y-98883742D01*
X123817424Y-98883742D01*
X123810863Y-98858455D01*
X123809845Y-98844123D01*
X123801456Y-98822199D01*
X123800800Y-98819671D01*
X123800155Y-98818801D01*
X123799336Y-98816659D01*
X123725325Y-98674116D01*
X123718464Y-98657549D01*
X123713727Y-98651777D01*
X123712242Y-98648917D01*
X123709249Y-98646321D01*
X123699809Y-98634819D01*
X123624659Y-98562922D01*
X123614283Y-98550958D01*
X123608057Y-98547039D01*
X123605650Y-98544736D01*
X123601990Y-98543220D01*
X123589397Y-98535293D01*
X123464869Y-98475384D01*
X123462793Y-98473308D01*
X123446675Y-98466631D01*
X123419076Y-98453354D01*
X123413698Y-98452971D01*
X123408721Y-98450910D01*
X123379457Y-98448028D01*
X123257931Y-98450062D01*
X123255361Y-98449206D01*
X123238796Y-98450383D01*
X123207336Y-98450910D01*
X123202355Y-98452973D01*
X123196981Y-98453355D01*
X123169517Y-98463864D01*
X123026974Y-98537874D01*
X123010407Y-98544736D01*
X123004635Y-98549472D01*
X123001775Y-98550958D01*
X122999179Y-98553950D01*
X122987677Y-98563391D01*
X122915780Y-98638540D01*
X122903816Y-98648917D01*
X122899897Y-98655142D01*
X122897594Y-98657550D01*
X122896078Y-98661209D01*
X122888151Y-98673803D01*
X122823008Y-98809210D01*
X122815258Y-98819671D01*
X122807414Y-98841625D01*
X122806213Y-98844123D01*
X122806136Y-98845203D01*
X122805365Y-98847362D01*
X122738495Y-99125330D01*
X122732339Y-99140193D01*
X122730550Y-99158358D01*
X122729634Y-99162166D01*
X122729959Y-99164353D01*
X122729457Y-99169457D01*
X122562790Y-99169457D01*
X122562790Y-96468826D01*
X122943742Y-96468826D01*
X122946016Y-96661059D01*
X122944920Y-96664350D01*
X122946282Y-96683528D01*
X122946624Y-96712376D01*
X122948686Y-96717354D01*
X122949068Y-96722730D01*
X122959578Y-96750194D01*
X123033586Y-96892735D01*
X123040449Y-96909304D01*
X123045184Y-96915074D01*
X123046671Y-96917937D01*
X123049664Y-96920533D01*
X123059104Y-96932035D01*
X123134259Y-97003936D01*
X123144632Y-97015897D01*
X123150855Y-97019814D01*
X123153264Y-97022119D01*
X123156925Y-97023635D01*
X123169517Y-97031562D01*
X123294042Y-97091468D01*
X123296120Y-97093546D01*
X123312242Y-97100224D01*
X123317829Y-97102912D01*
X122956436Y-97622719D01*
X122943777Y-97679861D01*
X122953948Y-97737497D01*
X122985401Y-97786854D01*
X123033349Y-97820418D01*
X123090491Y-97833077D01*
X123148127Y-97822906D01*
X123197484Y-97791453D01*
X123216627Y-97769131D01*
X123669717Y-97117433D01*
X123802644Y-97116795D01*
X123803767Y-97712376D01*
X123826165Y-97766448D01*
X123867549Y-97807832D01*
X123921621Y-97830230D01*
X123980149Y-97830230D01*
X124034221Y-97807832D01*
X124075605Y-97766448D01*
X124098003Y-97712376D01*
X124446624Y-97712376D01*
X124469022Y-97766448D01*
X124510406Y-97807832D01*
X124564478Y-97830230D01*
X124593742Y-97833112D01*
X125337292Y-97830230D01*
X125391364Y-97807832D01*
X125432748Y-97766448D01*
X125455146Y-97712376D01*
X125455146Y-97712374D01*
X125458028Y-97683112D01*
X125455201Y-96183112D01*
X125872314Y-96183112D01*
X125875124Y-97674361D01*
X125872680Y-97693589D01*
X125875177Y-97702747D01*
X125875196Y-97712376D01*
X125882831Y-97730808D01*
X125888080Y-97750053D01*
X125893934Y-97757612D01*
X125897594Y-97766448D01*
X125911701Y-97780555D01*
X125923915Y-97796327D01*
X125932217Y-97801071D01*
X125938978Y-97807832D01*
X125957408Y-97815466D01*
X125974731Y-97825365D01*
X125984216Y-97826570D01*
X125993050Y-97830230D01*
X126013000Y-97830230D01*
X126032791Y-97832746D01*
X126042016Y-97830230D01*
X126051578Y-97830230D01*
X126070010Y-97822594D01*
X126089255Y-97817346D01*
X126096814Y-97811491D01*
X126105650Y-97807832D01*
X126119757Y-97793724D01*
X126135529Y-97781511D01*
X126144234Y-97769247D01*
X126147034Y-97766448D01*
X126148172Y-97763700D01*
X126152550Y-97757533D01*
X126730510Y-96742238D01*
X126732339Y-97712376D01*
X126754737Y-97766448D01*
X126796121Y-97807832D01*
X126850193Y-97830230D01*
X126908721Y-97830230D01*
X126962793Y-97807832D01*
X127004177Y-97766448D01*
X127026575Y-97712376D01*
X127029457Y-97683112D01*
X127026646Y-96191861D01*
X127027759Y-96183112D01*
X127443743Y-96183112D01*
X127446625Y-97712376D01*
X127469023Y-97766448D01*
X127510407Y-97807832D01*
X127564479Y-97830230D01*
X127623007Y-97830230D01*
X127677079Y-97807832D01*
X127718463Y-97766448D01*
X127740861Y-97712376D01*
X128089482Y-97712376D01*
X128111880Y-97766448D01*
X128153264Y-97807832D01*
X128207336Y-97830230D01*
X128236600Y-97833112D01*
X128980150Y-97830230D01*
X129034222Y-97807832D01*
X129075606Y-97766448D01*
X129098004Y-97712376D01*
X129098004Y-97712374D01*
X129100886Y-97683112D01*
X129098059Y-96183112D01*
X129515172Y-96183112D01*
X129518054Y-97712376D01*
X129540452Y-97766448D01*
X129581836Y-97807832D01*
X129635908Y-97830230D01*
X129694436Y-97830230D01*
X129748508Y-97807832D01*
X129789892Y-97766448D01*
X129812290Y-97712376D01*
X129815172Y-97683112D01*
X129813605Y-96852127D01*
X130029442Y-97311778D01*
X130036912Y-97332319D01*
X130041377Y-97337195D01*
X130044232Y-97343274D01*
X130061037Y-97358664D01*
X130076439Y-97375482D01*
X130082482Y-97378302D01*
X130087395Y-97382801D01*
X130108815Y-97390590D01*
X130129477Y-97400232D01*
X130136134Y-97400524D01*
X130142397Y-97402802D01*
X130165176Y-97401801D01*
X130187947Y-97402802D01*
X130194206Y-97400525D01*
X130200868Y-97400233D01*
X130221535Y-97390588D01*
X130242950Y-97382801D01*
X130247863Y-97378301D01*
X130253905Y-97375482D01*
X130269300Y-97358669D01*
X130286113Y-97343274D01*
X130291081Y-97334885D01*
X130293432Y-97332319D01*
X130294751Y-97328689D01*
X130301099Y-97317974D01*
X130516435Y-96853659D01*
X130518054Y-97712376D01*
X130540452Y-97766448D01*
X130581836Y-97807832D01*
X130635908Y-97830230D01*
X130694436Y-97830230D01*
X130748508Y-97807832D01*
X130789892Y-97766448D01*
X130812290Y-97712376D01*
X130815172Y-97683112D01*
X130813960Y-97040255D01*
X131158029Y-97040255D01*
X131160911Y-97569519D01*
X131183309Y-97623591D01*
X131183312Y-97623594D01*
X131201962Y-97646320D01*
X131260106Y-97701948D01*
X131260958Y-97703651D01*
X131270893Y-97712268D01*
X131296121Y-97736404D01*
X131301097Y-97738465D01*
X131305172Y-97741999D01*
X131332023Y-97753987D01*
X131546652Y-97822845D01*
X131564479Y-97830230D01*
X131571967Y-97830967D01*
X131574983Y-97831935D01*
X131578937Y-97831653D01*
X131593743Y-97833112D01*
X131737950Y-97830697D01*
X131755360Y-97831935D01*
X131762619Y-97830284D01*
X131765864Y-97830230D01*
X131769521Y-97828714D01*
X131784034Y-97825415D01*
X131976597Y-97758802D01*
X131980149Y-97758802D01*
X131998145Y-97751347D01*
X132025171Y-97741999D01*
X132029242Y-97738467D01*
X132034222Y-97736405D01*
X132056952Y-97717750D01*
X132131862Y-97640948D01*
X133803768Y-97640948D01*
X133808058Y-97651304D01*
X133826165Y-97695019D01*
X133826166Y-97695020D01*
X133844821Y-97717751D01*
X133938979Y-97807832D01*
X133938980Y-97807833D01*
X133961947Y-97817346D01*
X133993051Y-97830230D01*
X133993052Y-97830230D01*
X133993053Y-97830230D01*
X134051578Y-97830230D01*
X134051579Y-97830230D01*
X134082683Y-97817346D01*
X134105650Y-97807833D01*
X134128381Y-97789178D01*
X134218464Y-97695020D01*
X134240860Y-97640947D01*
X134240860Y-97613499D01*
X134240861Y-97582422D01*
X134218464Y-97528349D01*
X134199810Y-97505619D01*
X134105651Y-97415535D01*
X134105650Y-97415534D01*
X134068707Y-97400232D01*
X134051579Y-97393137D01*
X133993051Y-97393137D01*
X133975923Y-97400232D01*
X133938980Y-97415534D01*
X133916249Y-97434189D01*
X133826165Y-97528349D01*
X133809113Y-97569519D01*
X133803768Y-97582422D01*
X133803768Y-97640948D01*
X132131862Y-97640948D01*
X132197972Y-97573169D01*
X132212242Y-97560794D01*
X132216242Y-97554438D01*
X132218464Y-97552161D01*
X132219979Y-97548501D01*
X132227907Y-97535908D01*
X132293049Y-97400500D01*
X132300800Y-97390040D01*
X132308643Y-97368085D01*
X132309845Y-97365588D01*
X132309921Y-97364507D01*
X132310693Y-97362349D01*
X132377561Y-97084380D01*
X132383718Y-97069519D01*
X132385506Y-97051353D01*
X132386423Y-97047546D01*
X132386097Y-97045358D01*
X132386600Y-97040255D01*
X132384158Y-96833897D01*
X132386423Y-96818678D01*
X132383765Y-96800707D01*
X132383718Y-96796705D01*
X132382870Y-96794660D01*
X132382121Y-96789589D01*
X132310863Y-96514968D01*
X132309845Y-96500636D01*
X132301456Y-96478712D01*
X132300800Y-96476184D01*
X132300155Y-96475314D01*
X132299336Y-96473172D01*
X132225327Y-96330632D01*
X132218464Y-96314062D01*
X132213727Y-96308290D01*
X132212242Y-96305430D01*
X132209249Y-96302834D01*
X132199809Y-96291332D01*
X132118861Y-96212376D01*
X134446625Y-96212376D01*
X134469023Y-96266448D01*
X134510407Y-96307832D01*
X134564479Y-96330230D01*
X134593743Y-96333112D01*
X135158307Y-96330923D01*
X135159093Y-96748208D01*
X134778765Y-96750280D01*
X134724693Y-96772678D01*
X134683309Y-96814062D01*
X134660911Y-96868134D01*
X134660911Y-96926662D01*
X134683309Y-96980734D01*
X134724693Y-97022118D01*
X134778765Y-97044516D01*
X134808029Y-97047398D01*
X135159654Y-97045483D01*
X135160911Y-97712376D01*
X135183309Y-97766448D01*
X135224693Y-97807832D01*
X135278765Y-97830230D01*
X135337293Y-97830230D01*
X135391365Y-97807832D01*
X135432749Y-97766448D01*
X135455147Y-97712376D01*
X135458029Y-97683112D01*
X135455147Y-96153848D01*
X135432749Y-96099776D01*
X135391365Y-96058392D01*
X135337293Y-96035994D01*
X135308029Y-96033112D01*
X134564479Y-96035994D01*
X134510407Y-96058392D01*
X134469023Y-96099776D01*
X134446625Y-96153848D01*
X134446625Y-96212376D01*
X132118861Y-96212376D01*
X132070892Y-96165588D01*
X132069385Y-96162574D01*
X132055095Y-96150180D01*
X132034221Y-96129820D01*
X132029241Y-96127757D01*
X132025171Y-96124227D01*
X131998320Y-96112238D01*
X131783698Y-96043381D01*
X131765864Y-96035994D01*
X131758372Y-96035256D01*
X131755361Y-96034290D01*
X131751411Y-96034570D01*
X131736600Y-96033112D01*
X131544366Y-96035386D01*
X131541076Y-96034290D01*
X131521897Y-96035652D01*
X131493051Y-96035994D01*
X131488073Y-96038055D01*
X131482696Y-96038438D01*
X131455233Y-96048948D01*
X131287489Y-96136042D01*
X131249143Y-96180257D01*
X131230635Y-96235779D01*
X131234783Y-96294160D01*
X131260958Y-96346509D01*
X131305173Y-96384855D01*
X131360695Y-96403363D01*
X131419076Y-96399215D01*
X131446539Y-96388705D01*
X131554341Y-96332733D01*
X131706371Y-96330933D01*
X131867347Y-96382580D01*
X131968059Y-96480813D01*
X132021489Y-96583718D01*
X132086707Y-96835066D01*
X132088816Y-97013279D01*
X132028456Y-97264190D01*
X131974573Y-97376194D01*
X131873613Y-97479703D01*
X131718335Y-97533417D01*
X131623108Y-97535012D01*
X131462332Y-97483430D01*
X131457695Y-97478994D01*
X131456115Y-97188900D01*
X131623007Y-97187373D01*
X131677079Y-97164975D01*
X131718463Y-97123591D01*
X131740861Y-97069519D01*
X131740861Y-97010991D01*
X131718463Y-96956919D01*
X131677079Y-96915535D01*
X131623007Y-96893137D01*
X131593743Y-96890255D01*
X131278765Y-96893137D01*
X131224693Y-96915535D01*
X131183309Y-96956919D01*
X131160911Y-97010991D01*
X131158029Y-97040255D01*
X130813960Y-97040255D01*
X130812348Y-96185004D01*
X130813433Y-96160336D01*
X130812296Y-96157210D01*
X130812290Y-96153848D01*
X130802329Y-96129802D01*
X130793432Y-96105334D01*
X130791172Y-96102866D01*
X130789892Y-96099776D01*
X130771494Y-96081378D01*
X130753905Y-96062171D01*
X130750871Y-96060755D01*
X130748508Y-96058392D01*
X130724477Y-96048438D01*
X130700868Y-96037420D01*
X130697523Y-96037273D01*
X130694436Y-96035994D01*
X130668412Y-96035994D01*
X130642397Y-96034851D01*
X130639254Y-96035994D01*
X130635908Y-96035994D01*
X130611855Y-96045957D01*
X130587395Y-96054852D01*
X130584927Y-96057111D01*
X130581836Y-96058392D01*
X130563427Y-96076800D01*
X130544232Y-96094379D01*
X130541882Y-96098345D01*
X130540452Y-96099776D01*
X130539096Y-96103048D01*
X130529245Y-96119679D01*
X130165888Y-96903158D01*
X129799209Y-96122268D01*
X129789892Y-96099776D01*
X129787545Y-96097429D01*
X129786113Y-96094379D01*
X129766905Y-96076789D01*
X129748508Y-96058392D01*
X129745417Y-96057111D01*
X129742950Y-96054852D01*
X129718484Y-96045955D01*
X129694436Y-96035994D01*
X129691090Y-96035994D01*
X129687947Y-96034851D01*
X129661943Y-96035994D01*
X129635908Y-96035994D01*
X129632817Y-96037274D01*
X129629477Y-96037421D01*
X129605881Y-96048431D01*
X129581836Y-96058392D01*
X129579472Y-96060755D01*
X129576439Y-96062171D01*
X129558849Y-96081378D01*
X129540452Y-96099776D01*
X129539171Y-96102866D01*
X129536912Y-96105334D01*
X129528015Y-96129799D01*
X129518054Y-96153848D01*
X129517602Y-96158436D01*
X129516911Y-96160337D01*
X129517066Y-96163875D01*
X129515172Y-96183112D01*
X129098059Y-96183112D01*
X129098004Y-96153848D01*
X129075606Y-96099776D01*
X129034222Y-96058392D01*
X128980150Y-96035994D01*
X128950886Y-96033112D01*
X128207336Y-96035994D01*
X128153264Y-96058392D01*
X128111880Y-96099776D01*
X128089482Y-96153848D01*
X128089482Y-96212376D01*
X128111880Y-96266448D01*
X128153264Y-96307832D01*
X128207336Y-96330230D01*
X128236600Y-96333112D01*
X128801164Y-96330923D01*
X128801950Y-96748208D01*
X128421622Y-96750280D01*
X128367550Y-96772678D01*
X128326166Y-96814062D01*
X128303768Y-96868134D01*
X128303768Y-96926662D01*
X128326166Y-96980734D01*
X128367550Y-97022118D01*
X128421622Y-97044516D01*
X128450886Y-97047398D01*
X128802511Y-97045483D01*
X128803431Y-97533683D01*
X128207336Y-97535994D01*
X128153264Y-97558392D01*
X128111880Y-97599776D01*
X128089482Y-97653848D01*
X128089482Y-97712376D01*
X127740861Y-97712376D01*
X127743743Y-97683112D01*
X127740861Y-96153848D01*
X127718463Y-96099776D01*
X127677079Y-96058392D01*
X127623007Y-96035994D01*
X127564479Y-96035994D01*
X127510407Y-96058392D01*
X127469023Y-96099776D01*
X127446625Y-96153848D01*
X127443743Y-96183112D01*
X127027759Y-96183112D01*
X127029091Y-96172634D01*
X127026593Y-96163475D01*
X127026575Y-96153848D01*
X127018939Y-96135415D01*
X127013691Y-96116171D01*
X127007836Y-96108611D01*
X127004177Y-96099776D01*
X126990069Y-96085668D01*
X126977856Y-96069897D01*
X126969553Y-96065152D01*
X126962793Y-96058392D01*
X126944362Y-96050757D01*
X126927040Y-96040859D01*
X126917554Y-96039653D01*
X126908721Y-96035994D01*
X126888771Y-96035994D01*
X126868980Y-96033478D01*
X126859755Y-96035994D01*
X126850193Y-96035994D01*
X126831764Y-96043627D01*
X126812516Y-96048877D01*
X126804954Y-96054733D01*
X126796121Y-96058392D01*
X126782015Y-96072497D01*
X126766242Y-96084713D01*
X126757536Y-96096976D01*
X126754737Y-96099776D01*
X126753598Y-96102523D01*
X126749221Y-96108691D01*
X126171260Y-97123984D01*
X126169432Y-96153848D01*
X126147034Y-96099776D01*
X126105650Y-96058392D01*
X126051578Y-96035994D01*
X125993050Y-96035994D01*
X125938978Y-96058392D01*
X125897594Y-96099776D01*
X125875196Y-96153848D01*
X125872314Y-96183112D01*
X125455201Y-96183112D01*
X125455146Y-96153848D01*
X125432748Y-96099776D01*
X125391364Y-96058392D01*
X125337292Y-96035994D01*
X125308028Y-96033112D01*
X124564478Y-96035994D01*
X124510406Y-96058392D01*
X124469022Y-96099776D01*
X124446624Y-96153848D01*
X124446624Y-96212376D01*
X124469022Y-96266448D01*
X124510406Y-96307832D01*
X124564478Y-96330230D01*
X124593742Y-96333112D01*
X125158306Y-96330923D01*
X125159092Y-96748208D01*
X124778764Y-96750280D01*
X124724692Y-96772678D01*
X124683308Y-96814062D01*
X124660910Y-96868134D01*
X124660910Y-96926662D01*
X124683308Y-96980734D01*
X124724692Y-97022118D01*
X124778764Y-97044516D01*
X124808028Y-97047398D01*
X125159653Y-97045483D01*
X125160573Y-97533683D01*
X124564478Y-97535994D01*
X124510406Y-97558392D01*
X124469022Y-97599776D01*
X124446624Y-97653848D01*
X124446624Y-97712376D01*
X124098003Y-97712376D01*
X124100885Y-97683112D01*
X124098003Y-96153848D01*
X124075605Y-96099776D01*
X124034221Y-96058392D01*
X123980149Y-96035994D01*
X123950885Y-96033112D01*
X123402575Y-96035742D01*
X123398217Y-96034290D01*
X123375981Y-96035870D01*
X123350192Y-96035994D01*
X123345211Y-96038057D01*
X123339837Y-96038439D01*
X123312373Y-96048948D01*
X123169829Y-96122958D01*
X123153264Y-96129820D01*
X123147493Y-96134555D01*
X123144631Y-96136042D01*
X123142034Y-96139035D01*
X123130534Y-96148474D01*
X123058636Y-96223623D01*
X123046671Y-96234001D01*
X123042752Y-96240226D01*
X123040450Y-96242633D01*
X123038934Y-96246291D01*
X123031006Y-96258887D01*
X122971099Y-96383412D01*
X122969022Y-96385490D01*
X122962343Y-96401612D01*
X122949068Y-96429208D01*
X122948686Y-96434583D01*
X122946624Y-96439562D01*
X122943742Y-96468826D01*
X122562790Y-96468826D01*
X122562790Y-95866445D01*
X135910408Y-95866445D01*
X135910408Y-100771838D01*
G37*
G36*
X168389084Y-96805511D02*
G01*
X168488669Y-96902645D01*
X168546048Y-97123780D01*
X168548567Y-97586476D01*
X168491964Y-97821771D01*
X168398301Y-97917798D01*
X168306998Y-97965203D01*
X168092002Y-97967170D01*
X168002916Y-97924313D01*
X167903332Y-97827178D01*
X167845951Y-97606041D01*
X167843432Y-97143348D01*
X167900036Y-96908053D01*
X167993701Y-96812024D01*
X168085001Y-96764620D01*
X168299997Y-96762653D01*
X168389084Y-96805511D01*
G37*
G36*
X169977118Y-97966011D02*
G01*
X169798453Y-97967344D01*
X169636679Y-97915443D01*
X169535970Y-97817211D01*
X169482539Y-97714304D01*
X169417321Y-97462957D01*
X169415212Y-97284744D01*
X169475572Y-97033833D01*
X169529455Y-96921830D01*
X169630418Y-96818320D01*
X169785189Y-96764779D01*
X169974851Y-96763364D01*
X169977118Y-97966011D01*
G37*
G36*
X168389610Y-94390849D02*
G01*
X168428274Y-94427839D01*
X168480888Y-94529173D01*
X168546065Y-94780364D01*
X168548454Y-95100600D01*
X168487855Y-95352503D01*
X168433718Y-95465035D01*
X168396729Y-95503698D01*
X168306516Y-95550537D01*
X168233819Y-95551754D01*
X168145245Y-95509143D01*
X168106583Y-95472155D01*
X168053968Y-95370818D01*
X167988789Y-95119626D01*
X167986400Y-94799392D01*
X168047000Y-94547488D01*
X168101136Y-94434957D01*
X168138128Y-94396292D01*
X168228339Y-94349454D01*
X168301035Y-94348237D01*
X168389610Y-94390849D01*
G37*
G36*
X177334259Y-95550703D02*
G01*
X176949754Y-95552548D01*
X176859531Y-95509143D01*
X176820866Y-95472152D01*
X176774192Y-95382256D01*
X176772490Y-95238484D01*
X176815423Y-95149242D01*
X176846058Y-95117221D01*
X176999372Y-95064185D01*
X177333339Y-95062367D01*
X177334259Y-95550703D01*
G37*
G36*
X177332778Y-94765092D02*
G01*
X177021092Y-94766790D01*
X176930960Y-94723429D01*
X176892297Y-94686440D01*
X176845457Y-94596227D01*
X176844240Y-94523530D01*
X176886851Y-94434957D01*
X176923841Y-94396293D01*
X177013342Y-94349823D01*
X177331993Y-94348088D01*
X177332778Y-94765092D01*
G37*
G36*
X178155523Y-100846495D02*
G01*
X167236474Y-100846495D01*
X167236474Y-100101257D01*
X167403141Y-100101257D01*
X167405175Y-100222782D01*
X167404319Y-100225353D01*
X167405496Y-100241917D01*
X167406023Y-100273378D01*
X167408086Y-100278358D01*
X167408468Y-100283733D01*
X167418977Y-100311196D01*
X167492986Y-100453738D01*
X167499849Y-100470306D01*
X167504584Y-100476076D01*
X167506071Y-100478939D01*
X167509064Y-100481535D01*
X167518504Y-100493037D01*
X167593659Y-100564938D01*
X167604032Y-100576899D01*
X167610255Y-100580816D01*
X167612664Y-100583121D01*
X167616325Y-100584637D01*
X167628917Y-100592564D01*
X167753442Y-100652470D01*
X167755520Y-100654548D01*
X167771642Y-100661226D01*
X167799238Y-100674502D01*
X167804613Y-100674883D01*
X167809592Y-100676946D01*
X167838856Y-100679828D01*
X168194048Y-100677178D01*
X168214759Y-100678651D01*
X168222155Y-100676969D01*
X168225263Y-100676946D01*
X168228920Y-100675430D01*
X168243433Y-100672131D01*
X168484569Y-100588714D01*
X168528783Y-100550367D01*
X168554957Y-100498020D01*
X168559106Y-100439640D01*
X168540598Y-100384115D01*
X168502251Y-100339901D01*
X168449904Y-100313727D01*
X168391524Y-100309578D01*
X168362850Y-100316097D01*
X168178237Y-100379960D01*
X167877951Y-100382200D01*
X167788102Y-100338975D01*
X167749439Y-100301986D01*
X167702599Y-100211773D01*
X167701382Y-100139077D01*
X167743993Y-100050504D01*
X167780984Y-100011839D01*
X167882319Y-99959224D01*
X168149856Y-99889805D01*
X168164189Y-99888787D01*
X168186109Y-99880398D01*
X168188641Y-99879742D01*
X168189511Y-99879097D01*
X168191652Y-99878278D01*
X168334198Y-99804266D01*
X168350761Y-99797406D01*
X168356530Y-99792671D01*
X168359395Y-99791184D01*
X168361992Y-99788189D01*
X168373492Y-99778752D01*
X168445393Y-99703598D01*
X168457355Y-99693224D01*
X168461272Y-99687000D01*
X168463576Y-99684593D01*
X168465091Y-99680933D01*
X168473020Y-99668339D01*
X168532926Y-99543813D01*
X168535004Y-99541736D01*
X168541682Y-99525613D01*
X168554958Y-99498018D01*
X168555339Y-99492642D01*
X168557402Y-99487664D01*
X168560284Y-99458400D01*
X168558249Y-99336874D01*
X168559106Y-99334304D01*
X168557928Y-99317734D01*
X168557402Y-99286278D01*
X168555339Y-99281299D01*
X168554958Y-99275924D01*
X168544448Y-99248461D01*
X168470439Y-99105918D01*
X168463576Y-99089349D01*
X168458840Y-99083578D01*
X168457355Y-99080718D01*
X168454363Y-99078123D01*
X168444921Y-99066618D01*
X168437054Y-99059092D01*
X168691738Y-99059092D01*
X168714136Y-99113164D01*
X168755520Y-99154548D01*
X168809592Y-99176946D01*
X168838856Y-99179828D01*
X169117707Y-99178921D01*
X169120309Y-100559092D01*
X169142707Y-100613164D01*
X169184091Y-100654548D01*
X169238163Y-100676946D01*
X169296691Y-100676946D01*
X169350763Y-100654548D01*
X169392147Y-100613164D01*
X169414545Y-100559092D01*
X169417427Y-100529828D01*
X169414879Y-99177955D01*
X169725262Y-99176946D01*
X169779334Y-99154548D01*
X169820718Y-99113164D01*
X169843116Y-99059092D01*
X169843116Y-99029828D01*
X170045999Y-99029828D01*
X170048881Y-100559092D01*
X170071279Y-100613164D01*
X170112663Y-100654548D01*
X170166735Y-100676946D01*
X170225263Y-100676946D01*
X170279335Y-100654548D01*
X170320719Y-100613164D01*
X170343117Y-100559092D01*
X170345999Y-100529828D01*
X170344800Y-99893630D01*
X170904766Y-99891809D01*
X170906024Y-100559092D01*
X170928422Y-100613164D01*
X170969806Y-100654548D01*
X171023878Y-100676946D01*
X171082406Y-100676946D01*
X171136478Y-100654548D01*
X171177862Y-100613164D01*
X171200260Y-100559092D01*
X171203142Y-100529828D01*
X171201930Y-99886971D01*
X171545999Y-99886971D01*
X171548881Y-100416235D01*
X171571279Y-100470307D01*
X171571282Y-100470310D01*
X171589932Y-100493036D01*
X171648076Y-100548664D01*
X171648928Y-100550367D01*
X171658863Y-100558984D01*
X171684091Y-100583120D01*
X171689067Y-100585181D01*
X171693142Y-100588715D01*
X171719993Y-100600703D01*
X171934622Y-100669561D01*
X171952449Y-100676946D01*
X171959937Y-100677683D01*
X171962953Y-100678651D01*
X171966907Y-100678369D01*
X171981713Y-100679828D01*
X172125920Y-100677413D01*
X172143330Y-100678651D01*
X172150589Y-100677000D01*
X172153834Y-100676946D01*
X172157491Y-100675430D01*
X172172004Y-100672131D01*
X172364567Y-100605518D01*
X172368119Y-100605518D01*
X172386115Y-100598063D01*
X172413141Y-100588715D01*
X172417212Y-100585183D01*
X172422192Y-100583121D01*
X172444922Y-100564466D01*
X172585942Y-100419885D01*
X172600212Y-100407510D01*
X172604212Y-100401154D01*
X172606434Y-100398877D01*
X172607949Y-100395217D01*
X172615877Y-100382624D01*
X172681019Y-100247216D01*
X172688770Y-100236756D01*
X172696613Y-100214801D01*
X172697815Y-100212304D01*
X172697891Y-100211223D01*
X172698663Y-100209065D01*
X172765531Y-99931096D01*
X172771688Y-99916235D01*
X172773476Y-99898069D01*
X172774393Y-99894262D01*
X172774067Y-99892074D01*
X172774570Y-99886971D01*
X172772128Y-99680613D01*
X172774393Y-99665394D01*
X172771735Y-99647423D01*
X172771688Y-99643421D01*
X172770840Y-99641376D01*
X172770091Y-99636305D01*
X172698833Y-99361684D01*
X172697815Y-99347352D01*
X172689426Y-99325428D01*
X172688770Y-99322900D01*
X172688125Y-99322030D01*
X172687306Y-99319888D01*
X172613297Y-99177348D01*
X172606434Y-99160778D01*
X172601697Y-99155006D01*
X172600212Y-99152146D01*
X172597219Y-99149550D01*
X172587779Y-99138048D01*
X172476828Y-99029828D01*
X173117428Y-99029828D01*
X173120310Y-100559092D01*
X173142708Y-100613164D01*
X173184092Y-100654548D01*
X173238164Y-100676946D01*
X173296692Y-100676946D01*
X173350764Y-100654548D01*
X173392148Y-100613164D01*
X173414546Y-100559092D01*
X173620310Y-100559092D01*
X173642708Y-100613164D01*
X173684092Y-100654548D01*
X173738164Y-100676946D01*
X173767428Y-100679828D01*
X174510978Y-100676946D01*
X174565050Y-100654548D01*
X174606434Y-100613164D01*
X174628832Y-100559092D01*
X174631714Y-100529828D01*
X174628887Y-99029828D01*
X176188857Y-99029828D01*
X176191739Y-100559092D01*
X176214137Y-100613164D01*
X176255521Y-100654548D01*
X176309593Y-100676946D01*
X176368121Y-100676946D01*
X176422193Y-100654548D01*
X176463577Y-100613164D01*
X176485975Y-100559092D01*
X176488857Y-100529828D01*
X176488049Y-100101257D01*
X176831713Y-100101257D01*
X176833747Y-100222782D01*
X176832891Y-100225353D01*
X176834068Y-100241917D01*
X176834595Y-100273378D01*
X176836658Y-100278358D01*
X176837040Y-100283733D01*
X176847549Y-100311196D01*
X176921558Y-100453738D01*
X176928421Y-100470306D01*
X176933156Y-100476076D01*
X176934643Y-100478939D01*
X176937636Y-100481535D01*
X176947076Y-100493037D01*
X177022231Y-100564938D01*
X177032604Y-100576899D01*
X177038827Y-100580816D01*
X177041236Y-100583121D01*
X177044897Y-100584637D01*
X177057489Y-100592564D01*
X177182014Y-100652470D01*
X177184092Y-100654548D01*
X177200214Y-100661226D01*
X177227810Y-100674502D01*
X177233185Y-100674883D01*
X177238164Y-100676946D01*
X177267428Y-100679828D01*
X177622620Y-100677178D01*
X177643331Y-100678651D01*
X177650727Y-100676969D01*
X177653835Y-100676946D01*
X177657492Y-100675430D01*
X177672005Y-100672131D01*
X177913141Y-100588714D01*
X177957355Y-100550367D01*
X177983529Y-100498020D01*
X177987678Y-100439640D01*
X177969170Y-100384115D01*
X177930823Y-100339901D01*
X177878476Y-100313727D01*
X177820096Y-100309578D01*
X177791422Y-100316097D01*
X177606809Y-100379960D01*
X177306523Y-100382200D01*
X177216674Y-100338975D01*
X177178011Y-100301986D01*
X177131171Y-100211773D01*
X177129954Y-100139077D01*
X177172565Y-100050504D01*
X177209556Y-100011839D01*
X177310891Y-99959224D01*
X177578428Y-99889805D01*
X177592761Y-99888787D01*
X177614681Y-99880398D01*
X177617213Y-99879742D01*
X177618083Y-99879097D01*
X177620224Y-99878278D01*
X177762770Y-99804266D01*
X177779333Y-99797406D01*
X177785102Y-99792671D01*
X177787967Y-99791184D01*
X177790564Y-99788189D01*
X177802064Y-99778752D01*
X177873965Y-99703598D01*
X177885927Y-99693224D01*
X177889844Y-99687000D01*
X177892148Y-99684593D01*
X177893663Y-99680933D01*
X177901592Y-99668339D01*
X177961498Y-99543813D01*
X177963576Y-99541736D01*
X177970254Y-99525613D01*
X177983530Y-99498018D01*
X177983911Y-99492642D01*
X177985974Y-99487664D01*
X177988856Y-99458400D01*
X177986821Y-99336874D01*
X177987678Y-99334304D01*
X177986500Y-99317734D01*
X177985974Y-99286278D01*
X177983911Y-99281299D01*
X177983530Y-99275924D01*
X177973020Y-99248461D01*
X177899011Y-99105918D01*
X177892148Y-99089349D01*
X177887412Y-99083578D01*
X177885927Y-99080718D01*
X177882935Y-99078123D01*
X177873493Y-99066618D01*
X177798346Y-98994725D01*
X177787967Y-98982758D01*
X177781738Y-98978837D01*
X177779333Y-98976536D01*
X177775676Y-98975021D01*
X177763081Y-98967093D01*
X177638556Y-98907186D01*
X177636478Y-98905108D01*
X177620346Y-98898426D01*
X177592761Y-98885155D01*
X177587386Y-98884773D01*
X177582406Y-98882710D01*
X177553142Y-98879828D01*
X177197939Y-98882477D01*
X177177238Y-98881006D01*
X177169846Y-98882686D01*
X177166735Y-98882710D01*
X177163073Y-98884226D01*
X177148564Y-98887526D01*
X176907428Y-98970943D01*
X176863213Y-99009291D01*
X176837040Y-99061638D01*
X176832891Y-99120018D01*
X176851399Y-99175542D01*
X176889747Y-99219757D01*
X176942094Y-99245930D01*
X177000474Y-99250079D01*
X177029147Y-99243559D01*
X177213759Y-99179695D01*
X177514046Y-99177455D01*
X177603894Y-99220680D01*
X177642560Y-99257671D01*
X177689397Y-99347881D01*
X177690614Y-99420579D01*
X177648003Y-99509153D01*
X177611015Y-99547815D01*
X177509677Y-99600431D01*
X177242141Y-99669850D01*
X177227809Y-99670869D01*
X177205885Y-99679257D01*
X177203357Y-99679914D01*
X177202487Y-99680558D01*
X177200345Y-99681378D01*
X177057802Y-99755387D01*
X177041236Y-99762250D01*
X177035465Y-99766985D01*
X177032603Y-99768472D01*
X177030006Y-99771466D01*
X177018505Y-99780905D01*
X176946607Y-99856055D01*
X176934643Y-99866432D01*
X176930724Y-99872657D01*
X176928421Y-99875065D01*
X176926905Y-99878724D01*
X176918978Y-99891318D01*
X176859071Y-100015842D01*
X176856993Y-100017921D01*
X176850311Y-100034052D01*
X176837040Y-100061638D01*
X176836658Y-100067012D01*
X176834595Y-100071993D01*
X176831713Y-100101257D01*
X176488049Y-100101257D01*
X176485975Y-99000564D01*
X176463577Y-98946492D01*
X176422193Y-98905108D01*
X176368121Y-98882710D01*
X176309593Y-98882710D01*
X176255521Y-98905108D01*
X176214137Y-98946492D01*
X176191739Y-99000564D01*
X176188857Y-99029828D01*
X174628887Y-99029828D01*
X174628832Y-99000564D01*
X174606434Y-98946492D01*
X174565050Y-98905108D01*
X174510978Y-98882710D01*
X174452450Y-98882710D01*
X174398378Y-98905108D01*
X174356994Y-98946492D01*
X174334596Y-99000564D01*
X174331714Y-99029828D01*
X174334259Y-100380399D01*
X173738164Y-100382710D01*
X173684092Y-100405108D01*
X173642708Y-100446492D01*
X173620310Y-100500564D01*
X173620310Y-100559092D01*
X173414546Y-100559092D01*
X173417428Y-100529828D01*
X173414546Y-99000564D01*
X173392148Y-98946492D01*
X173350764Y-98905108D01*
X173296692Y-98882710D01*
X173238164Y-98882710D01*
X173184092Y-98905108D01*
X173142708Y-98946492D01*
X173120310Y-99000564D01*
X173117428Y-99029828D01*
X172476828Y-99029828D01*
X172458862Y-99012304D01*
X172457355Y-99009290D01*
X172443065Y-98996896D01*
X172422191Y-98976536D01*
X172417211Y-98974473D01*
X172413141Y-98970943D01*
X172386290Y-98958954D01*
X172171668Y-98890097D01*
X172153834Y-98882710D01*
X172146342Y-98881972D01*
X172143331Y-98881006D01*
X172139381Y-98881286D01*
X172124570Y-98879828D01*
X171932336Y-98882102D01*
X171929046Y-98881006D01*
X171909867Y-98882368D01*
X171881021Y-98882710D01*
X171876043Y-98884771D01*
X171870666Y-98885154D01*
X171843203Y-98895664D01*
X171675459Y-98982758D01*
X171637113Y-99026973D01*
X171618605Y-99082495D01*
X171622753Y-99140876D01*
X171648928Y-99193225D01*
X171693143Y-99231571D01*
X171748665Y-99250079D01*
X171807046Y-99245931D01*
X171834509Y-99235421D01*
X171942311Y-99179449D01*
X172094341Y-99177649D01*
X172255317Y-99229296D01*
X172356029Y-99327529D01*
X172409459Y-99430434D01*
X172474677Y-99681782D01*
X172476786Y-99859995D01*
X172416426Y-100110906D01*
X172362543Y-100222910D01*
X172261583Y-100326419D01*
X172106305Y-100380133D01*
X172011078Y-100381728D01*
X171850302Y-100330146D01*
X171845665Y-100325710D01*
X171844085Y-100035616D01*
X172010977Y-100034089D01*
X172065049Y-100011691D01*
X172106433Y-99970307D01*
X172128831Y-99916235D01*
X172128831Y-99857707D01*
X172106433Y-99803635D01*
X172065049Y-99762251D01*
X172010977Y-99739853D01*
X171981713Y-99736971D01*
X171666735Y-99739853D01*
X171612663Y-99762251D01*
X171571279Y-99803635D01*
X171548881Y-99857707D01*
X171545999Y-99886971D01*
X171201930Y-99886971D01*
X171200260Y-99000564D01*
X171177862Y-98946492D01*
X171136478Y-98905108D01*
X171082406Y-98882710D01*
X171023878Y-98882710D01*
X170969806Y-98905108D01*
X170928422Y-98946492D01*
X170906024Y-99000564D01*
X170903142Y-99029828D01*
X170904206Y-99594598D01*
X170344239Y-99596418D01*
X170343117Y-99000564D01*
X170320719Y-98946492D01*
X170279335Y-98905108D01*
X170225263Y-98882710D01*
X170166735Y-98882710D01*
X170112663Y-98905108D01*
X170071279Y-98946492D01*
X170048881Y-99000564D01*
X170045999Y-99029828D01*
X169843116Y-99029828D01*
X169843116Y-99000564D01*
X169820718Y-98946492D01*
X169779334Y-98905108D01*
X169725262Y-98882710D01*
X169695998Y-98879828D01*
X168809592Y-98882710D01*
X168755520Y-98905108D01*
X168714136Y-98946492D01*
X168691738Y-99000564D01*
X168691738Y-99059092D01*
X168437054Y-99059092D01*
X168369774Y-98994725D01*
X168359395Y-98982758D01*
X168353166Y-98978837D01*
X168350761Y-98976536D01*
X168347104Y-98975021D01*
X168334509Y-98967093D01*
X168209984Y-98907186D01*
X168207906Y-98905108D01*
X168191774Y-98898426D01*
X168164189Y-98885155D01*
X168158814Y-98884773D01*
X168153834Y-98882710D01*
X168124570Y-98879828D01*
X167769367Y-98882477D01*
X167748666Y-98881006D01*
X167741274Y-98882686D01*
X167738163Y-98882710D01*
X167734501Y-98884226D01*
X167719992Y-98887526D01*
X167478856Y-98970943D01*
X167434641Y-99009291D01*
X167408468Y-99061638D01*
X167404319Y-99120018D01*
X167422827Y-99175542D01*
X167461175Y-99219757D01*
X167513522Y-99245930D01*
X167571902Y-99250079D01*
X167600575Y-99243559D01*
X167785187Y-99179695D01*
X168085474Y-99177455D01*
X168175322Y-99220680D01*
X168213988Y-99257671D01*
X168260825Y-99347881D01*
X168262042Y-99420579D01*
X168219431Y-99509153D01*
X168182443Y-99547815D01*
X168081105Y-99600431D01*
X167813569Y-99669850D01*
X167799237Y-99670869D01*
X167777313Y-99679257D01*
X167774785Y-99679914D01*
X167773915Y-99680558D01*
X167771773Y-99681378D01*
X167629230Y-99755387D01*
X167612664Y-99762250D01*
X167606893Y-99766985D01*
X167604031Y-99768472D01*
X167601434Y-99771466D01*
X167589933Y-99780905D01*
X167518035Y-99856055D01*
X167506071Y-99866432D01*
X167502152Y-99872657D01*
X167499849Y-99875065D01*
X167498333Y-99878724D01*
X167490406Y-99891318D01*
X167430499Y-100015842D01*
X167428421Y-100017921D01*
X167421739Y-100034052D01*
X167408468Y-100061638D01*
X167408086Y-100067012D01*
X167406023Y-100071993D01*
X167403141Y-100101257D01*
X167236474Y-100101257D01*
X167236474Y-97114912D01*
X167546000Y-97114912D01*
X167548671Y-97605443D01*
X167546177Y-97622203D01*
X167548861Y-97640353D01*
X167548882Y-97644176D01*
X167549728Y-97646220D01*
X167550479Y-97651293D01*
X167620311Y-97920416D01*
X167620311Y-97929888D01*
X167626890Y-97945773D01*
X167631801Y-97964697D01*
X167638440Y-97973657D01*
X167642708Y-97983961D01*
X167661363Y-98006692D01*
X167805952Y-98147723D01*
X167818319Y-98161983D01*
X167824669Y-98165980D01*
X167826950Y-98168205D01*
X167830613Y-98169722D01*
X167843204Y-98177648D01*
X167967729Y-98237554D01*
X167969807Y-98239632D01*
X167985929Y-98246310D01*
X168013525Y-98259586D01*
X168018900Y-98259967D01*
X168023879Y-98262030D01*
X168053143Y-98264912D01*
X168316402Y-98262503D01*
X168320095Y-98263734D01*
X168340523Y-98262282D01*
X168368121Y-98262030D01*
X168373099Y-98259967D01*
X168378475Y-98259586D01*
X168405938Y-98249076D01*
X168548472Y-98175071D01*
X168565051Y-98168205D01*
X168570824Y-98163466D01*
X168573682Y-98161983D01*
X168576275Y-98158993D01*
X168587781Y-98149550D01*
X168717782Y-98016267D01*
X168725356Y-98011723D01*
X168735285Y-97998322D01*
X168749293Y-97983961D01*
X168753560Y-97973657D01*
X168760200Y-97964697D01*
X168770093Y-97937006D01*
X168836961Y-97659037D01*
X168843118Y-97644176D01*
X168844906Y-97626010D01*
X168845823Y-97622203D01*
X168845497Y-97620015D01*
X168846000Y-97614912D01*
X168844055Y-97257769D01*
X169117429Y-97257769D01*
X169119870Y-97464126D01*
X169117606Y-97479346D01*
X169120263Y-97497316D01*
X169120311Y-97501319D01*
X169121158Y-97503363D01*
X169121908Y-97508435D01*
X169193165Y-97783055D01*
X169194184Y-97797388D01*
X169202572Y-97819308D01*
X169203229Y-97821840D01*
X169203873Y-97822710D01*
X169204693Y-97824851D01*
X169278703Y-97967394D01*
X169285565Y-97983961D01*
X169290300Y-97989731D01*
X169291787Y-97992594D01*
X169294780Y-97995190D01*
X169304220Y-98006692D01*
X169433137Y-98132437D01*
X169434644Y-98135451D01*
X169448929Y-98147841D01*
X169469807Y-98168205D01*
X169474786Y-98170267D01*
X169478858Y-98173799D01*
X169505709Y-98185787D01*
X169720338Y-98254645D01*
X169738165Y-98262030D01*
X169745653Y-98262767D01*
X169748669Y-98263735D01*
X169752623Y-98263453D01*
X169767429Y-98264912D01*
X170153836Y-98262030D01*
X170207908Y-98239632D01*
X170249292Y-98198248D01*
X170271690Y-98144176D01*
X170274572Y-98114912D01*
X170271781Y-96633673D01*
X170475749Y-96633673D01*
X170482269Y-96662346D01*
X170979162Y-98144182D01*
X170979898Y-98154532D01*
X170988201Y-98171139D01*
X170994257Y-98189197D01*
X171001279Y-98197294D01*
X171006072Y-98206879D01*
X171020278Y-98219200D01*
X171032604Y-98233412D01*
X171042191Y-98238205D01*
X171050286Y-98245226D01*
X171068128Y-98251173D01*
X171084952Y-98259585D01*
X171095642Y-98260344D01*
X171105810Y-98263734D01*
X171124566Y-98262401D01*
X171143332Y-98263735D01*
X171153502Y-98260344D01*
X171164191Y-98259585D01*
X171181012Y-98251174D01*
X171198856Y-98245226D01*
X171206952Y-98238203D01*
X171216538Y-98233411D01*
X171228861Y-98219202D01*
X171243070Y-98206879D01*
X171247862Y-98197293D01*
X171254885Y-98189197D01*
X171266873Y-98162346D01*
X171272894Y-98144176D01*
X172906025Y-98144176D01*
X172928423Y-98198248D01*
X172969807Y-98239632D01*
X173023879Y-98262030D01*
X173053143Y-98264912D01*
X173796693Y-98262030D01*
X173850765Y-98239632D01*
X173892149Y-98198248D01*
X173914547Y-98144176D01*
X173917429Y-98114912D01*
X173914657Y-96644176D01*
X174191739Y-96644176D01*
X174214137Y-96698248D01*
X174255521Y-96739632D01*
X174309593Y-96762030D01*
X174338857Y-96764912D01*
X174903421Y-96762723D01*
X174904207Y-97180008D01*
X174523879Y-97182080D01*
X174469807Y-97204478D01*
X174428423Y-97245862D01*
X174406025Y-97299934D01*
X174406025Y-97358462D01*
X174428423Y-97412534D01*
X174469807Y-97453918D01*
X174523879Y-97476316D01*
X174553143Y-97479198D01*
X174904768Y-97477283D01*
X174906025Y-98144176D01*
X174928423Y-98198248D01*
X174969807Y-98239632D01*
X175023879Y-98262030D01*
X175082407Y-98262030D01*
X175136479Y-98239632D01*
X175177863Y-98198248D01*
X175200261Y-98144176D01*
X175203143Y-98114912D01*
X175200352Y-96633673D01*
X175404320Y-96633673D01*
X175410840Y-96662346D01*
X175907733Y-98144182D01*
X175908469Y-98154532D01*
X175916772Y-98171139D01*
X175922828Y-98189197D01*
X175929850Y-98197294D01*
X175934643Y-98206879D01*
X175948849Y-98219200D01*
X175961175Y-98233412D01*
X175970762Y-98238205D01*
X175978857Y-98245226D01*
X175996699Y-98251173D01*
X176013523Y-98259585D01*
X176024213Y-98260344D01*
X176034381Y-98263734D01*
X176053137Y-98262401D01*
X176071903Y-98263735D01*
X176082073Y-98260344D01*
X176092762Y-98259585D01*
X176109583Y-98251174D01*
X176127427Y-98245226D01*
X176135523Y-98238203D01*
X176145109Y-98233411D01*
X176157432Y-98219202D01*
X176171641Y-98206879D01*
X176176433Y-98197293D01*
X176183456Y-98189197D01*
X176195444Y-98162346D01*
X176694889Y-96655025D01*
X176696554Y-96662346D01*
X177193447Y-98144182D01*
X177194183Y-98154532D01*
X177202486Y-98171139D01*
X177208542Y-98189197D01*
X177215564Y-98197294D01*
X177220357Y-98206879D01*
X177234563Y-98219200D01*
X177246889Y-98233412D01*
X177256476Y-98238205D01*
X177264571Y-98245226D01*
X177282413Y-98251173D01*
X177299237Y-98259585D01*
X177309927Y-98260344D01*
X177320095Y-98263734D01*
X177338851Y-98262401D01*
X177357617Y-98263735D01*
X177367787Y-98260344D01*
X177378476Y-98259585D01*
X177395297Y-98251174D01*
X177413141Y-98245226D01*
X177421237Y-98238203D01*
X177430823Y-98233411D01*
X177443146Y-98219202D01*
X177457355Y-98206879D01*
X177462147Y-98197293D01*
X177469170Y-98189197D01*
X177481158Y-98162346D01*
X177987679Y-96633672D01*
X177983529Y-96575292D01*
X177957355Y-96522945D01*
X177913141Y-96484598D01*
X177857617Y-96466089D01*
X177799237Y-96470239D01*
X177746889Y-96496412D01*
X177708542Y-96540627D01*
X177696554Y-96567478D01*
X177339506Y-97645043D01*
X176969170Y-96540627D01*
X176930823Y-96496413D01*
X176878476Y-96470239D01*
X176820095Y-96466090D01*
X176764571Y-96484598D01*
X176720357Y-96522945D01*
X176695999Y-96571660D01*
X176671641Y-96522945D01*
X176627427Y-96484598D01*
X176571903Y-96466089D01*
X176513523Y-96470239D01*
X176461175Y-96496412D01*
X176422828Y-96540627D01*
X176410840Y-96567478D01*
X176053792Y-97645043D01*
X175683456Y-96540627D01*
X175645109Y-96496413D01*
X175592762Y-96470239D01*
X175534381Y-96466090D01*
X175478857Y-96484598D01*
X175434643Y-96522945D01*
X175408469Y-96575292D01*
X175404320Y-96633673D01*
X175200352Y-96633673D01*
X175200261Y-96585648D01*
X175177863Y-96531576D01*
X175136479Y-96490192D01*
X175082407Y-96467794D01*
X175053143Y-96464912D01*
X174309593Y-96467794D01*
X174255521Y-96490192D01*
X174214137Y-96531576D01*
X174191739Y-96585648D01*
X174191739Y-96644176D01*
X173914657Y-96644176D01*
X173914547Y-96585648D01*
X173892149Y-96531576D01*
X173850765Y-96490192D01*
X173796693Y-96467794D01*
X173738165Y-96467794D01*
X173684093Y-96490192D01*
X173642709Y-96531576D01*
X173620311Y-96585648D01*
X173617429Y-96614912D01*
X173619974Y-97965483D01*
X173023879Y-97967794D01*
X172969807Y-97990192D01*
X172928423Y-98031576D01*
X172906025Y-98085648D01*
X172906025Y-98144176D01*
X171272894Y-98144176D01*
X171773394Y-96633672D01*
X171769244Y-96575292D01*
X171743070Y-96522945D01*
X171698856Y-96484598D01*
X171643332Y-96466089D01*
X171584952Y-96470239D01*
X171532604Y-96496412D01*
X171494257Y-96540627D01*
X171482269Y-96567478D01*
X171125221Y-97645043D01*
X170754885Y-96540627D01*
X170716538Y-96496413D01*
X170664191Y-96470239D01*
X170605810Y-96466090D01*
X170550286Y-96484598D01*
X170506072Y-96522945D01*
X170479898Y-96575292D01*
X170475749Y-96633673D01*
X170271781Y-96633673D01*
X170271690Y-96585648D01*
X170249292Y-96531576D01*
X170207908Y-96490192D01*
X170153836Y-96467794D01*
X170124572Y-96464912D01*
X169769369Y-96467561D01*
X169748668Y-96466090D01*
X169741276Y-96467770D01*
X169738165Y-96467794D01*
X169734503Y-96469310D01*
X169719994Y-96472610D01*
X169527434Y-96539223D01*
X169523880Y-96539223D01*
X169505871Y-96546682D01*
X169478858Y-96556027D01*
X169474788Y-96559556D01*
X169469807Y-96561620D01*
X169447077Y-96580275D01*
X169306055Y-96724855D01*
X169291787Y-96737230D01*
X169287786Y-96743585D01*
X169285565Y-96745863D01*
X169284049Y-96749522D01*
X169276122Y-96762116D01*
X169210979Y-96897523D01*
X169203229Y-96907984D01*
X169195385Y-96929938D01*
X169194184Y-96932436D01*
X169194107Y-96933516D01*
X169193336Y-96935675D01*
X169126467Y-97213643D01*
X169120311Y-97228505D01*
X169118522Y-97246670D01*
X169117606Y-97250478D01*
X169117931Y-97252665D01*
X169117429Y-97257769D01*
X168844055Y-97257769D01*
X168843328Y-97124380D01*
X168845823Y-97107621D01*
X168843138Y-97089471D01*
X168843118Y-97085648D01*
X168842270Y-97083603D01*
X168841521Y-97078532D01*
X168771690Y-96809408D01*
X168771690Y-96799935D01*
X168765109Y-96784047D01*
X168760200Y-96765127D01*
X168753561Y-96756167D01*
X168749293Y-96745862D01*
X168730638Y-96723132D01*
X168586057Y-96582110D01*
X168573683Y-96567842D01*
X168567327Y-96563841D01*
X168565050Y-96561620D01*
X168561390Y-96560104D01*
X168548797Y-96552177D01*
X168424269Y-96492268D01*
X168422193Y-96490192D01*
X168406075Y-96483515D01*
X168378476Y-96470238D01*
X168373098Y-96469855D01*
X168368121Y-96467794D01*
X168338857Y-96464912D01*
X168075596Y-96467320D01*
X168071904Y-96466090D01*
X168051480Y-96467541D01*
X168023879Y-96467794D01*
X168018898Y-96469857D01*
X168013524Y-96470239D01*
X167986060Y-96480748D01*
X167843520Y-96554756D01*
X167826950Y-96561620D01*
X167821178Y-96566356D01*
X167818318Y-96567842D01*
X167815722Y-96570834D01*
X167804220Y-96580275D01*
X167674219Y-96713556D01*
X167666645Y-96718101D01*
X167656715Y-96731501D01*
X167642708Y-96745863D01*
X167638440Y-96756166D01*
X167631801Y-96765127D01*
X167621908Y-96792818D01*
X167555038Y-97070785D01*
X167548882Y-97085648D01*
X167547093Y-97103813D01*
X167546177Y-97107621D01*
X167546502Y-97109808D01*
X167546000Y-97114912D01*
X167236474Y-97114912D01*
X167236474Y-94771425D01*
X167688856Y-94771425D01*
X167691452Y-95119598D01*
X167689033Y-95135859D01*
X167691709Y-95153954D01*
X167691738Y-95157832D01*
X167692584Y-95159876D01*
X167693335Y-95164949D01*
X167764593Y-95439569D01*
X167765612Y-95453901D01*
X167774000Y-95475821D01*
X167774657Y-95478353D01*
X167775301Y-95479223D01*
X167776121Y-95481364D01*
X167850132Y-95623910D01*
X167856993Y-95640473D01*
X167861727Y-95646242D01*
X167863215Y-95649107D01*
X167866209Y-95651704D01*
X167875647Y-95663204D01*
X167950800Y-95735105D01*
X167961175Y-95747067D01*
X167967398Y-95750984D01*
X167969806Y-95753288D01*
X167973465Y-95754803D01*
X167986060Y-95762732D01*
X168110585Y-95822638D01*
X168112663Y-95824716D01*
X168128785Y-95831394D01*
X168156381Y-95844670D01*
X168161756Y-95845051D01*
X168166735Y-95847114D01*
X168195999Y-95849996D01*
X168317523Y-95847961D01*
X168320094Y-95848818D01*
X168336663Y-95847640D01*
X168368120Y-95847114D01*
X168373098Y-95845051D01*
X168378474Y-95844670D01*
X168405937Y-95834160D01*
X168548477Y-95760152D01*
X168565050Y-95753288D01*
X168570820Y-95748552D01*
X168573681Y-95747067D01*
X168576275Y-95744075D01*
X168587781Y-95734633D01*
X168659676Y-95659483D01*
X168671641Y-95649107D01*
X168675559Y-95642881D01*
X168677863Y-95640474D01*
X168679378Y-95636814D01*
X168687306Y-95624221D01*
X168752448Y-95488813D01*
X168760199Y-95478353D01*
X168768042Y-95456398D01*
X168769244Y-95453901D01*
X168769320Y-95452820D01*
X168770092Y-95450662D01*
X168836960Y-95172693D01*
X168843117Y-95157832D01*
X168844905Y-95139666D01*
X168845822Y-95135859D01*
X168845496Y-95133671D01*
X168845999Y-95128568D01*
X168845466Y-95057139D01*
X169117427Y-95057139D01*
X169119921Y-95391571D01*
X169118605Y-95395521D01*
X169120108Y-95416678D01*
X169120309Y-95443546D01*
X169122372Y-95448526D01*
X169122754Y-95453901D01*
X169133263Y-95481364D01*
X169207272Y-95623906D01*
X169214135Y-95640474D01*
X169218870Y-95646244D01*
X169220357Y-95649107D01*
X169223350Y-95651703D01*
X169232790Y-95663205D01*
X169307945Y-95735106D01*
X169318318Y-95747067D01*
X169324541Y-95750984D01*
X169326950Y-95753289D01*
X169330611Y-95754805D01*
X169343203Y-95762732D01*
X169467728Y-95822638D01*
X169469806Y-95824716D01*
X169485928Y-95831394D01*
X169513524Y-95844670D01*
X169518899Y-95845051D01*
X169523878Y-95847114D01*
X169553142Y-95849996D01*
X169958824Y-95847442D01*
X169962951Y-95848818D01*
X169984596Y-95847280D01*
X170010977Y-95847114D01*
X170015955Y-95845051D01*
X170021331Y-95844670D01*
X170048795Y-95834160D01*
X170191336Y-95760151D01*
X170207905Y-95753289D01*
X170213675Y-95748553D01*
X170216538Y-95747067D01*
X170219134Y-95744073D01*
X170230636Y-95734634D01*
X170235777Y-95729260D01*
X170548881Y-95729260D01*
X170571279Y-95783332D01*
X170612663Y-95824716D01*
X170666735Y-95847114D01*
X170695999Y-95849996D01*
X171439549Y-95847114D01*
X171493621Y-95824716D01*
X171535005Y-95783332D01*
X171557403Y-95729260D01*
X171560285Y-95699996D01*
X171557469Y-94205603D01*
X172974676Y-94205603D01*
X172978650Y-94234739D01*
X173336949Y-95727441D01*
X173339732Y-95748382D01*
X173343564Y-95755002D01*
X173345374Y-95762540D01*
X173358145Y-95780187D01*
X173369055Y-95799032D01*
X173375170Y-95803713D01*
X173379687Y-95809954D01*
X173398237Y-95821369D01*
X173415530Y-95834606D01*
X173422971Y-95836590D01*
X173429531Y-95840627D01*
X173451038Y-95844075D01*
X173472082Y-95849687D01*
X173479714Y-95848672D01*
X173487320Y-95849892D01*
X173508515Y-95844845D01*
X173530099Y-95841977D01*
X173536761Y-95838119D01*
X173544257Y-95836335D01*
X173561902Y-95823564D01*
X173580749Y-95812654D01*
X173585431Y-95806537D01*
X173591670Y-95802022D01*
X173603083Y-95783475D01*
X173616323Y-95766179D01*
X173620371Y-95755383D01*
X173622344Y-95752178D01*
X173622919Y-95748588D01*
X173626648Y-95738646D01*
X173767435Y-95205274D01*
X173909205Y-95731555D01*
X173912511Y-95752178D01*
X173916511Y-95758679D01*
X173918532Y-95766179D01*
X173931768Y-95783471D01*
X173943184Y-95802022D01*
X173949424Y-95806538D01*
X173954106Y-95812654D01*
X173972950Y-95823563D01*
X173990598Y-95836335D01*
X173998092Y-95838119D01*
X174004756Y-95841977D01*
X174026345Y-95844846D01*
X174047535Y-95849891D01*
X174055137Y-95848672D01*
X174062773Y-95849687D01*
X174083820Y-95844074D01*
X174105324Y-95840627D01*
X174111883Y-95836590D01*
X174119325Y-95834606D01*
X174136617Y-95821369D01*
X174155168Y-95809954D01*
X174159684Y-95803713D01*
X174165800Y-95799032D01*
X174176709Y-95780187D01*
X174189481Y-95762540D01*
X174193239Y-95751635D01*
X174195123Y-95748382D01*
X174195601Y-95744782D01*
X174199063Y-95734739D01*
X174560180Y-94205603D01*
X174559281Y-94199996D01*
X174831714Y-94199996D01*
X174834596Y-95729260D01*
X174856994Y-95783332D01*
X174898378Y-95824716D01*
X174952450Y-95847114D01*
X175010978Y-95847114D01*
X175065050Y-95824716D01*
X175106434Y-95783332D01*
X175128832Y-95729260D01*
X175131714Y-95699996D01*
X175130147Y-94869011D01*
X175345984Y-95328662D01*
X175353454Y-95349203D01*
X175357919Y-95354079D01*
X175360774Y-95360158D01*
X175377579Y-95375548D01*
X175392981Y-95392366D01*
X175399024Y-95395186D01*
X175403937Y-95399685D01*
X175425357Y-95407474D01*
X175446019Y-95417116D01*
X175452676Y-95417408D01*
X175458939Y-95419686D01*
X175481718Y-95418685D01*
X175504489Y-95419686D01*
X175510748Y-95417409D01*
X175517410Y-95417117D01*
X175538077Y-95407472D01*
X175559492Y-95399685D01*
X175564405Y-95395185D01*
X175570447Y-95392366D01*
X175585842Y-95375553D01*
X175602655Y-95360158D01*
X175607623Y-95351769D01*
X175609974Y-95349203D01*
X175611293Y-95345573D01*
X175617641Y-95334858D01*
X175832977Y-94870543D01*
X175834596Y-95729260D01*
X175856994Y-95783332D01*
X175898378Y-95824716D01*
X175952450Y-95847114D01*
X176010978Y-95847114D01*
X176065050Y-95824716D01*
X176106434Y-95783332D01*
X176128832Y-95729260D01*
X176131714Y-95699996D01*
X176130771Y-95199996D01*
X176474571Y-95199996D01*
X176476845Y-95392229D01*
X176475749Y-95395520D01*
X176477111Y-95414698D01*
X176477453Y-95443546D01*
X176479515Y-95448524D01*
X176479897Y-95453900D01*
X176490407Y-95481364D01*
X176564415Y-95623905D01*
X176571278Y-95640474D01*
X176576013Y-95646244D01*
X176577500Y-95649107D01*
X176580493Y-95651703D01*
X176589933Y-95663205D01*
X176665088Y-95735106D01*
X176675461Y-95747067D01*
X176681684Y-95750984D01*
X176684093Y-95753289D01*
X176687754Y-95754805D01*
X176700346Y-95762732D01*
X176824871Y-95822638D01*
X176826949Y-95824716D01*
X176843071Y-95831394D01*
X176870667Y-95844670D01*
X176876042Y-95845051D01*
X176881021Y-95847114D01*
X176910285Y-95849996D01*
X177510978Y-95847114D01*
X177565050Y-95824716D01*
X177606434Y-95783332D01*
X177628832Y-95729260D01*
X177631714Y-95699996D01*
X177628832Y-94170732D01*
X177606434Y-94116660D01*
X177565050Y-94075276D01*
X177510978Y-94052878D01*
X177481714Y-94049996D01*
X177004732Y-94052593D01*
X177000475Y-94051174D01*
X176978493Y-94052736D01*
X176952450Y-94052878D01*
X176947469Y-94054941D01*
X176942095Y-94055323D01*
X176914631Y-94065832D01*
X176772087Y-94139842D01*
X176755522Y-94146704D01*
X176749751Y-94151439D01*
X176746889Y-94152926D01*
X176744292Y-94155919D01*
X176732792Y-94165358D01*
X176660894Y-94240507D01*
X176648929Y-94250885D01*
X176645010Y-94257110D01*
X176642708Y-94259517D01*
X176641192Y-94263175D01*
X176633264Y-94275771D01*
X176573357Y-94400295D01*
X176571279Y-94402374D01*
X176564597Y-94418505D01*
X176551326Y-94446091D01*
X176550944Y-94451465D01*
X176548881Y-94456446D01*
X176545999Y-94485710D01*
X176548033Y-94607236D01*
X176547177Y-94609807D01*
X176548354Y-94626371D01*
X176548881Y-94657832D01*
X176550944Y-94662812D01*
X176551326Y-94668187D01*
X176561835Y-94695650D01*
X176635846Y-94838195D01*
X176642708Y-94854761D01*
X176647442Y-94860529D01*
X176648929Y-94863393D01*
X176651923Y-94865989D01*
X176661363Y-94877492D01*
X176662573Y-94878649D01*
X176661362Y-94879644D01*
X176589464Y-94954794D01*
X176577500Y-94965171D01*
X176573581Y-94971396D01*
X176571278Y-94973804D01*
X176569762Y-94977463D01*
X176561835Y-94990057D01*
X176501928Y-95114582D01*
X176499851Y-95116660D01*
X176493172Y-95132782D01*
X176479897Y-95160378D01*
X176479515Y-95165753D01*
X176477453Y-95170732D01*
X176474571Y-95199996D01*
X176130771Y-95199996D01*
X176128890Y-94201888D01*
X176129975Y-94177220D01*
X176128838Y-94174094D01*
X176128832Y-94170732D01*
X176118871Y-94146686D01*
X176109974Y-94122218D01*
X176107714Y-94119750D01*
X176106434Y-94116660D01*
X176088036Y-94098262D01*
X176070447Y-94079055D01*
X176067413Y-94077639D01*
X176065050Y-94075276D01*
X176041019Y-94065322D01*
X176017410Y-94054304D01*
X176014065Y-94054157D01*
X176010978Y-94052878D01*
X175984954Y-94052878D01*
X175958939Y-94051735D01*
X175955796Y-94052878D01*
X175952450Y-94052878D01*
X175928397Y-94062841D01*
X175903937Y-94071736D01*
X175901469Y-94073995D01*
X175898378Y-94075276D01*
X175879969Y-94093684D01*
X175860774Y-94111263D01*
X175858424Y-94115229D01*
X175856994Y-94116660D01*
X175855638Y-94119932D01*
X175845787Y-94136563D01*
X175482430Y-94920042D01*
X175115751Y-94139152D01*
X175106434Y-94116660D01*
X175104087Y-94114313D01*
X175102655Y-94111263D01*
X175083447Y-94093673D01*
X175065050Y-94075276D01*
X175061959Y-94073995D01*
X175059492Y-94071736D01*
X175035026Y-94062839D01*
X175010978Y-94052878D01*
X175007632Y-94052878D01*
X175004489Y-94051735D01*
X174978485Y-94052878D01*
X174952450Y-94052878D01*
X174949359Y-94054158D01*
X174946019Y-94054305D01*
X174922423Y-94065315D01*
X174898378Y-94075276D01*
X174896014Y-94077639D01*
X174892981Y-94079055D01*
X174875391Y-94098262D01*
X174856994Y-94116660D01*
X174855713Y-94119750D01*
X174853454Y-94122218D01*
X174844557Y-94146683D01*
X174834596Y-94170732D01*
X174834144Y-94175320D01*
X174833453Y-94177221D01*
X174833608Y-94180759D01*
X174831714Y-94199996D01*
X174559281Y-94199996D01*
X174550916Y-94147814D01*
X174520243Y-94097970D01*
X174472829Y-94063657D01*
X174415892Y-94050101D01*
X174358103Y-94059365D01*
X174308259Y-94090038D01*
X174273946Y-94137452D01*
X174264364Y-94165253D01*
X174045132Y-95093581D01*
X173911917Y-94599061D01*
X173909409Y-94580182D01*
X173904589Y-94571857D01*
X173902038Y-94562385D01*
X173890003Y-94546663D01*
X173880086Y-94529532D01*
X173872370Y-94523625D01*
X173866464Y-94515910D01*
X173849332Y-94505992D01*
X173833611Y-94493958D01*
X173824220Y-94491453D01*
X173815814Y-94486587D01*
X173796192Y-94483979D01*
X173777059Y-94478877D01*
X173767428Y-94480156D01*
X173757797Y-94478877D01*
X173738663Y-94483979D01*
X173719042Y-94486587D01*
X173710635Y-94491453D01*
X173701245Y-94493958D01*
X173685523Y-94505992D01*
X173668392Y-94515910D01*
X173662485Y-94523625D01*
X173654770Y-94529532D01*
X173644852Y-94546663D01*
X173632818Y-94562385D01*
X173627426Y-94576762D01*
X173625447Y-94580182D01*
X173625064Y-94583062D01*
X173622493Y-94589919D01*
X173490001Y-95091863D01*
X173260910Y-94137452D01*
X173226597Y-94090039D01*
X173176753Y-94059365D01*
X173118964Y-94050101D01*
X173062027Y-94063657D01*
X173014614Y-94097970D01*
X172983940Y-94147814D01*
X172974676Y-94205603D01*
X171557469Y-94205603D01*
X171557403Y-94170732D01*
X171535005Y-94116660D01*
X171493621Y-94075276D01*
X171439549Y-94052878D01*
X171410285Y-94049996D01*
X170666735Y-94052878D01*
X170612663Y-94075276D01*
X170571279Y-94116660D01*
X170548881Y-94170732D01*
X170548881Y-94229260D01*
X170571279Y-94283332D01*
X170612663Y-94324716D01*
X170666735Y-94347114D01*
X170695999Y-94349996D01*
X171260563Y-94347807D01*
X171261349Y-94765092D01*
X170881021Y-94767164D01*
X170826949Y-94789562D01*
X170785565Y-94830946D01*
X170763167Y-94885018D01*
X170763167Y-94943546D01*
X170785565Y-94997618D01*
X170826949Y-95039002D01*
X170881021Y-95061400D01*
X170910285Y-95064282D01*
X171261910Y-95062367D01*
X171262830Y-95550567D01*
X170666735Y-95552878D01*
X170612663Y-95575276D01*
X170571279Y-95616660D01*
X170548881Y-95670732D01*
X170548881Y-95729260D01*
X170235777Y-95729260D01*
X170320720Y-95640474D01*
X170343117Y-95586402D01*
X170343117Y-95527876D01*
X170320720Y-95473804D01*
X170279334Y-95432418D01*
X170225262Y-95410021D01*
X170166736Y-95410021D01*
X170112664Y-95432418D01*
X170089933Y-95451073D01*
X170039583Y-95503700D01*
X169950033Y-95550195D01*
X169592400Y-95552446D01*
X169502388Y-95509143D01*
X169463725Y-95472154D01*
X169417190Y-95382528D01*
X169415054Y-95096234D01*
X169458279Y-95006386D01*
X169495270Y-94967721D01*
X169585168Y-94921046D01*
X169767686Y-94918886D01*
X169786839Y-94920163D01*
X169791445Y-94918605D01*
X169796691Y-94918543D01*
X169819205Y-94909216D01*
X169842281Y-94901413D01*
X169846088Y-94898081D01*
X169850763Y-94896145D01*
X169867992Y-94878915D01*
X169886328Y-94862872D01*
X169888570Y-94858337D01*
X169892147Y-94854761D01*
X169901473Y-94832244D01*
X169912272Y-94810409D01*
X169912608Y-94805364D01*
X169914545Y-94800689D01*
X169914545Y-94776313D01*
X169916165Y-94752013D01*
X169914545Y-94747222D01*
X169914545Y-94742161D01*
X169905220Y-94719649D01*
X169897415Y-94696570D01*
X169893242Y-94690733D01*
X169892147Y-94688089D01*
X169889356Y-94685298D01*
X169880313Y-94672649D01*
X169595034Y-94349010D01*
X170225263Y-94347114D01*
X170279335Y-94324716D01*
X170320719Y-94283332D01*
X170343117Y-94229260D01*
X170343117Y-94170732D01*
X170320719Y-94116660D01*
X170279335Y-94075276D01*
X170225263Y-94052878D01*
X170195999Y-94049996D01*
X169270849Y-94052779D01*
X169248015Y-94051257D01*
X169243267Y-94052862D01*
X169238163Y-94052878D01*
X169215654Y-94062201D01*
X169192573Y-94070008D01*
X169188765Y-94073339D01*
X169184091Y-94075276D01*
X169166861Y-94092505D01*
X169148526Y-94108549D01*
X169146283Y-94113083D01*
X169142707Y-94116660D01*
X169133380Y-94139176D01*
X169122582Y-94161012D01*
X169122245Y-94166056D01*
X169120309Y-94170732D01*
X169120309Y-94195098D01*
X169118688Y-94219408D01*
X169120309Y-94224200D01*
X169120309Y-94229260D01*
X169129632Y-94251768D01*
X169137439Y-94274850D01*
X169141610Y-94280686D01*
X169142707Y-94283332D01*
X169145496Y-94286121D01*
X169154540Y-94298772D01*
X169463318Y-94649069D01*
X169343523Y-94711266D01*
X169326950Y-94718132D01*
X169321177Y-94722869D01*
X169318318Y-94724354D01*
X169315723Y-94727345D01*
X169304219Y-94736787D01*
X169232321Y-94811937D01*
X169220357Y-94822314D01*
X169216438Y-94828539D01*
X169214135Y-94830947D01*
X169212619Y-94834606D01*
X169204692Y-94847200D01*
X169144785Y-94971724D01*
X169142707Y-94973803D01*
X169136025Y-94989934D01*
X169122754Y-95017520D01*
X169122372Y-95022894D01*
X169120309Y-95027875D01*
X169117427Y-95057139D01*
X168845466Y-95057139D01*
X168843402Y-94780394D01*
X168845822Y-94764134D01*
X168843145Y-94746039D01*
X168843117Y-94742161D01*
X168842269Y-94740116D01*
X168841520Y-94735045D01*
X168770262Y-94460423D01*
X168769244Y-94446091D01*
X168760855Y-94424167D01*
X168760199Y-94421639D01*
X168759554Y-94420769D01*
X168758735Y-94418627D01*
X168684724Y-94276084D01*
X168677863Y-94259517D01*
X168673126Y-94253745D01*
X168671641Y-94250885D01*
X168668648Y-94248289D01*
X168659208Y-94236787D01*
X168584058Y-94164890D01*
X168573682Y-94152926D01*
X168567456Y-94149007D01*
X168565049Y-94146704D01*
X168561389Y-94145188D01*
X168548796Y-94137261D01*
X168424268Y-94077352D01*
X168422192Y-94075276D01*
X168406074Y-94068599D01*
X168378475Y-94055322D01*
X168373097Y-94054939D01*
X168368120Y-94052878D01*
X168338856Y-94049996D01*
X168217330Y-94052030D01*
X168214760Y-94051174D01*
X168198195Y-94052351D01*
X168166735Y-94052878D01*
X168161754Y-94054941D01*
X168156380Y-94055323D01*
X168128916Y-94065832D01*
X167986373Y-94139842D01*
X167969806Y-94146704D01*
X167964034Y-94151440D01*
X167961174Y-94152926D01*
X167958578Y-94155918D01*
X167947076Y-94165359D01*
X167875179Y-94240508D01*
X167863215Y-94250885D01*
X167859296Y-94257110D01*
X167856993Y-94259518D01*
X167855477Y-94263177D01*
X167847550Y-94275771D01*
X167782407Y-94411178D01*
X167774657Y-94421639D01*
X167766813Y-94443593D01*
X167765612Y-94446091D01*
X167765535Y-94447171D01*
X167764764Y-94449330D01*
X167697894Y-94727298D01*
X167691738Y-94742161D01*
X167689949Y-94760326D01*
X167689033Y-94764134D01*
X167689358Y-94766321D01*
X167688856Y-94771425D01*
X167236474Y-94771425D01*
X167236474Y-93883329D01*
X178155523Y-93883329D01*
X178155523Y-100846495D01*
G37*
D11*
X151575000Y-86000000D03*
X149035000Y-86000000D03*
X127575000Y-86000000D03*
X125035000Y-86000000D03*
X175575000Y-86000000D03*
X173035000Y-86000000D03*
X157575000Y-86000000D03*
X155035000Y-86000000D03*
X145575000Y-86000000D03*
X143035000Y-86000000D03*
X139575000Y-86000000D03*
X137035000Y-86000000D03*
X133575000Y-86000000D03*
X131035000Y-86000000D03*
X158500000Y-76700000D03*
X158500000Y-74160000D03*
X142500000Y-74160000D03*
X142500000Y-76700000D03*
X163575000Y-86000000D03*
X161035000Y-86000000D03*
X150300000Y-78000000D03*
X165540000Y-90360000D03*
X163000000Y-90360000D03*
X160460000Y-90360000D03*
X157920000Y-90360000D03*
X155380000Y-90360000D03*
X152840000Y-90360000D03*
X150300000Y-90360000D03*
X147760000Y-90360000D03*
X145220000Y-90360000D03*
X142680000Y-90360000D03*
X140140000Y-90360000D03*
X137600000Y-90360000D03*
X135060000Y-90360000D03*
X169575000Y-86000000D03*
X167035000Y-86000000D03*
M02*
