%TF.GenerationSoftware,KiCad,Pcbnew,8.0.1*%
%TF.CreationDate,2024-06-22T15:15:02+02:00*%
%TF.ProjectId,BMW E30 VFL SI Indicator,424d5720-4533-4302-9056-464c20534920,rev?*%
%TF.SameCoordinates,Original*%
%TF.FileFunction,Copper,L2,Bot*%
%TF.FilePolarity,Positive*%
%FSLAX46Y46*%
G04 Gerber Fmt 4.6, Leading zero omitted, Abs format (unit mm)*
G04 Created by KiCad (PCBNEW 8.0.1) date 2024-06-22 15:15:02*
%MOMM*%
%LPD*%
G01*
G04 APERTURE LIST*
%TA.AperFunction,ComponentPad*%
%ADD10R,1.800000X1.800000*%
%TD*%
%TA.AperFunction,ComponentPad*%
%ADD11C,1.800000*%
%TD*%
%TA.AperFunction,ComponentPad*%
%ADD12R,2.000000X2.000000*%
%TD*%
%TA.AperFunction,ComponentPad*%
%ADD13C,2.000000*%
%TD*%
%TA.AperFunction,Conductor*%
%ADD14C,0.400000*%
%TD*%
%TA.AperFunction,Conductor*%
%ADD15C,0.600000*%
%TD*%
%TA.AperFunction,Conductor*%
%ADD16C,1.000000*%
%TD*%
%TA.AperFunction,Conductor*%
%ADD17C,0.300000*%
%TD*%
%ADD18C,0.350000*%
G04 APERTURE END LIST*
D10*
%TO.P,D5,1,K*%
%TO.N,Net-(D1-K)*%
X151575000Y-86000000D03*
D11*
%TO.P,D5,2,A*%
%TO.N,Net-(D5-A)*%
X149035000Y-86000000D03*
%TD*%
D10*
%TO.P,D9,1,K*%
%TO.N,Net-(D1-K)*%
X127575000Y-86000000D03*
D11*
%TO.P,D9,2,A*%
%TO.N,Net-(D9-A)*%
X125035000Y-86000000D03*
%TD*%
D10*
%TO.P,D1,1,K*%
%TO.N,Net-(D1-K)*%
X175575000Y-86000000D03*
D11*
%TO.P,D1,2,A*%
%TO.N,Net-(D1-A)*%
X173035000Y-86000000D03*
%TD*%
D10*
%TO.P,D4,1,K*%
%TO.N,Net-(D1-K)*%
X157575000Y-86000000D03*
D11*
%TO.P,D4,2,A*%
%TO.N,Net-(D4-A)*%
X155035000Y-86000000D03*
%TD*%
D10*
%TO.P,D6,1,K*%
%TO.N,Net-(D1-K)*%
X145575000Y-86000000D03*
D11*
%TO.P,D6,2,A*%
%TO.N,Net-(D6-A)*%
X143035000Y-86000000D03*
%TD*%
D10*
%TO.P,D7,1,K*%
%TO.N,Net-(D1-K)*%
X139575000Y-86000000D03*
D11*
%TO.P,D7,2,A*%
%TO.N,Net-(D7-A)*%
X137035000Y-86000000D03*
%TD*%
D10*
%TO.P,D8,1,K*%
%TO.N,Net-(D1-K)*%
X133575000Y-86000000D03*
D11*
%TO.P,D8,2,A*%
%TO.N,Net-(D8-A)*%
X131035000Y-86000000D03*
%TD*%
%TO.P,LA2,1,-*%
%TO.N,Net-(J1-BULB_INSPECTION)*%
X158500000Y-76700000D03*
%TO.P,LA2,2,+*%
%TO.N,Net-(J1-GND_BULB)*%
X158500000Y-74160000D03*
%TD*%
%TO.P,LA1,1,-*%
%TO.N,Net-(J1-GND_BULB)*%
X142500000Y-74160000D03*
%TO.P,LA1,2,+*%
%TO.N,Net-(J1-BULB_OILSERVICE)*%
X142500000Y-76700000D03*
%TD*%
D10*
%TO.P,D3,1,K*%
%TO.N,Net-(D1-K)*%
X163575000Y-86000000D03*
D11*
%TO.P,D3,2,A*%
%TO.N,Net-(D3-A)*%
X161035000Y-86000000D03*
%TD*%
D12*
%TO.P,J1,1,GND_BULB*%
%TO.N,Net-(J1-GND_BULB)*%
X165540000Y-90360000D03*
D13*
%TO.P,J1,2,GND_LED*%
%TO.N,Net-(D1-K)*%
X163000000Y-90360000D03*
%TO.P,J1,3,LED_R3*%
%TO.N,Net-(D1-A)*%
X160460000Y-90360000D03*
%TO.P,J1,4,LED_R2*%
%TO.N,Net-(D2-A)*%
X157920000Y-90360000D03*
%TO.P,J1,5,LED_R1*%
%TO.N,Net-(D3-A)*%
X155380000Y-90360000D03*
%TO.P,J1,6,LED_Y*%
%TO.N,Net-(D4-A)*%
X152840000Y-90360000D03*
%TO.P,J1,7,LED_G5*%
%TO.N,Net-(D5-A)*%
X150300000Y-90360000D03*
%TO.P,J1,8,LED_G4*%
%TO.N,Net-(D6-A)*%
X147760000Y-90360000D03*
%TO.P,J1,9,LED_G3*%
%TO.N,Net-(D7-A)*%
X145220000Y-90360000D03*
%TO.P,J1,10,LED_G2*%
%TO.N,Net-(D8-A)*%
X142680000Y-90360000D03*
%TO.P,J1,11,LED_G1*%
%TO.N,Net-(D9-A)*%
X140140000Y-90360000D03*
%TO.P,J1,12,BULB_INSPECTION*%
%TO.N,Net-(J1-BULB_INSPECTION)*%
X137600000Y-90360000D03*
%TO.P,J1,13,BULB_OILSERVICE*%
%TO.N,Net-(J1-BULB_OILSERVICE)*%
X135060000Y-90360000D03*
%TD*%
D10*
%TO.P,D2,1,K*%
%TO.N,Net-(D1-K)*%
X169575000Y-86000000D03*
D11*
%TO.P,D2,2,A*%
%TO.N,Net-(D2-A)*%
X167035000Y-86000000D03*
%TD*%
D14*
%TO.N,Net-(D2-A)*%
X157920000Y-90105000D02*
X157920000Y-90360000D01*
X160377000Y-87648000D02*
X157920000Y-90105000D01*
X165387000Y-87648000D02*
X160377000Y-87648000D01*
X167035000Y-86000000D02*
X165387000Y-87648000D01*
%TO.N,Net-(D3-A)*%
X155380000Y-90359000D02*
X155380000Y-90360000D01*
X158726000Y-87775000D02*
X157964000Y-87775000D01*
X157964000Y-87775000D02*
X155380000Y-90359000D01*
X160501000Y-86000000D02*
X158726000Y-87775000D01*
X161035000Y-86000000D02*
X160501000Y-86000000D01*
%TO.N,Net-(D1-A)*%
X170625000Y-88410000D02*
X162410000Y-88410000D01*
X162410000Y-88410000D02*
X160460000Y-90360000D01*
X173035000Y-86000000D02*
X170625000Y-88410000D01*
%TO.N,Net-(D4-A)*%
X152840000Y-88195000D02*
X152840000Y-90360000D01*
X155035000Y-86000000D02*
X152840000Y-88195000D01*
%TO.N,Net-(D5-A)*%
X150300000Y-88366000D02*
X150300000Y-90360000D01*
X149035000Y-87101000D02*
X150300000Y-88366000D01*
X149035000Y-86000000D02*
X149035000Y-87101000D01*
%TO.N,Net-(D8-A)*%
X140441000Y-88121000D02*
X142680000Y-90360000D01*
X133156000Y-88121000D02*
X140441000Y-88121000D01*
X131035000Y-86000000D02*
X133156000Y-88121000D01*
%TO.N,Net-(D9-A)*%
X138580000Y-88800000D02*
X140140000Y-90360000D01*
X127835000Y-88800000D02*
X138580000Y-88800000D01*
X125035000Y-86000000D02*
X127835000Y-88800000D01*
%TO.N,Net-(D7-A)*%
X142381000Y-87521000D02*
X145220000Y-90360000D01*
X138556000Y-87521000D02*
X142381000Y-87521000D01*
X137035000Y-86000000D02*
X138556000Y-87521000D01*
%TO.N,Net-(D6-A)*%
X147760000Y-88747000D02*
X147760000Y-90360000D01*
X146413000Y-87400000D02*
X147760000Y-88747000D01*
X143035000Y-86308000D02*
X144127000Y-87400000D01*
X144127000Y-87400000D02*
X146413000Y-87400000D01*
D15*
X143035000Y-86000000D02*
X143035000Y-86308000D01*
D16*
%TO.N,Net-(J1-BULB_INSPECTION)*%
X136501000Y-92347000D02*
X137600000Y-91248000D01*
X125247000Y-92347000D02*
X136501000Y-92347000D01*
X137600000Y-91248000D02*
X137600000Y-90360000D01*
X122800000Y-89900000D02*
X125247000Y-92347000D01*
X153486000Y-82314000D02*
X124817000Y-82314000D01*
X158260000Y-77540000D02*
X153486000Y-82314000D01*
X124817000Y-82314000D02*
X122800000Y-84331000D01*
X122800000Y-84331000D02*
X122800000Y-89900000D01*
%TO.N,Net-(J1-GND_BULB)*%
X160860000Y-74160000D02*
X158500000Y-74160000D01*
X162000000Y-75300000D02*
X160860000Y-74160000D01*
X162000000Y-77800000D02*
X162000000Y-75300000D01*
X164400000Y-80200000D02*
X162000000Y-77800000D01*
X175900000Y-80200000D02*
X164400000Y-80200000D01*
X177700000Y-88700000D02*
X177700000Y-82000000D01*
X176040000Y-90360000D02*
X177700000Y-88700000D01*
X165540000Y-90360000D02*
X176040000Y-90360000D01*
X177700000Y-82000000D02*
X175900000Y-80200000D01*
D17*
%TO.N,Net-(D2-A)*%
X157920000Y-91600000D02*
X157920000Y-90980000D01*
D16*
%TO.N,Net-(J1-GND_BULB)*%
X142500000Y-74160000D02*
X158500000Y-74160000D01*
%TD*%
%TA.AperFunction,Conductor*%
%TO.N,Net-(D2-A)*%
G36*
X158686378Y-89055780D02*
G01*
X158456225Y-89237427D01*
X158258068Y-89307826D01*
X158060081Y-89325435D01*
X157830439Y-89348713D01*
X157537317Y-89436120D01*
X157919293Y-90360707D01*
X158920000Y-90360000D01*
X158890411Y-90092151D01*
X158833204Y-89883721D01*
X158795713Y-89707078D01*
X158825273Y-89534589D01*
X158969220Y-89338622D01*
X158686378Y-89055780D01*
G37*
%TD.AperFunction*%
%TD*%
%TA.AperFunction,Conductor*%
%TO.N,Net-(D2-A)*%
G36*
X166186472Y-87131370D02*
G01*
X166422987Y-86955779D01*
X166630615Y-86905723D01*
X166839279Y-86913475D01*
X167078904Y-86911308D01*
X167379415Y-86831492D01*
X167035707Y-85999293D01*
X166203508Y-85655585D01*
X166123691Y-85956094D01*
X166121523Y-86195719D01*
X166129275Y-86404384D01*
X166079220Y-86612012D01*
X165903630Y-86848528D01*
X166186472Y-87131370D01*
G37*
%TD.AperFunction*%
%TD*%
%TA.AperFunction,Conductor*%
%TO.N,Net-(D3-A)*%
G36*
X156298640Y-89157518D02*
G01*
X156041641Y-89342724D01*
X155814361Y-89385511D01*
X155585448Y-89363555D01*
X155323551Y-89354532D01*
X154997317Y-89436120D01*
X155379293Y-90360707D01*
X156303880Y-90742683D01*
X156385393Y-90416234D01*
X156376077Y-90154123D01*
X156353765Y-89925004D01*
X156396289Y-89697531D01*
X156581482Y-89440360D01*
X156298640Y-89157518D01*
G37*
%TD.AperFunction*%
%TD*%
%TA.AperFunction,Conductor*%
%TO.N,Net-(D3-A)*%
G36*
X159983591Y-86800251D02*
G01*
X160185628Y-86667239D01*
X160362912Y-86674054D01*
X160544318Y-86757349D01*
X160758722Y-86853779D01*
X161035000Y-86900000D01*
X161035707Y-85999293D01*
X160203508Y-85655585D01*
X160111775Y-85888335D01*
X160045657Y-86056461D01*
X159975128Y-86194394D01*
X159870167Y-86336566D01*
X159700749Y-86517409D01*
X159983591Y-86800251D01*
G37*
%TD.AperFunction*%
%TD*%
%TA.AperFunction,Conductor*%
%TO.N,Net-(D1-A)*%
G36*
X161379239Y-89157919D02*
G01*
X161122132Y-89343142D01*
X160894739Y-89385819D01*
X160665708Y-89363706D01*
X160403685Y-89354554D01*
X160077317Y-89436120D01*
X160459293Y-90360707D01*
X161383880Y-90742683D01*
X161465444Y-90416314D01*
X161456293Y-90154290D01*
X161434179Y-89925259D01*
X161476857Y-89697867D01*
X161662081Y-89440761D01*
X161379239Y-89157919D01*
G37*
%TD.AperFunction*%
%TD*%
%TA.AperFunction,Conductor*%
%TO.N,Net-(D1-A)*%
G36*
X172186472Y-87131370D02*
G01*
X172422987Y-86955779D01*
X172630615Y-86905723D01*
X172839279Y-86913475D01*
X173078904Y-86911308D01*
X173379415Y-86831492D01*
X173035707Y-85999293D01*
X172203508Y-85655585D01*
X172123691Y-85956094D01*
X172121523Y-86195719D01*
X172129275Y-86404384D01*
X172079220Y-86612012D01*
X171903630Y-86848528D01*
X172186472Y-87131370D01*
G37*
%TD.AperFunction*%
%TD*%
%TA.AperFunction,Conductor*%
%TO.N,Net-(D4-A)*%
G36*
X152640000Y-88860000D02*
G01*
X152589171Y-89172774D01*
X152458557Y-89363742D01*
X152280971Y-89510055D01*
X152089221Y-89688863D01*
X151916120Y-89977317D01*
X152840000Y-90361000D01*
X153763880Y-89977317D01*
X153590777Y-89688863D01*
X153399028Y-89510055D01*
X153221441Y-89363742D01*
X153090828Y-89172774D01*
X153040000Y-88860000D01*
X152640000Y-88860000D01*
G37*
%TD.AperFunction*%
%TD*%
%TA.AperFunction,Conductor*%
%TO.N,Net-(D4-A)*%
G36*
X154186472Y-87131370D02*
G01*
X154422987Y-86955779D01*
X154630615Y-86905723D01*
X154839279Y-86913475D01*
X155078904Y-86911308D01*
X155379415Y-86831492D01*
X155035707Y-85999293D01*
X154203508Y-85655585D01*
X154123691Y-85956094D01*
X154121523Y-86195719D01*
X154129275Y-86404384D01*
X154079220Y-86612012D01*
X153903630Y-86848528D01*
X154186472Y-87131370D01*
G37*
%TD.AperFunction*%
%TD*%
%TA.AperFunction,Conductor*%
%TO.N,Net-(D5-A)*%
G36*
X150100000Y-88860000D02*
G01*
X150049171Y-89172774D01*
X149918557Y-89363742D01*
X149740971Y-89510055D01*
X149549221Y-89688863D01*
X149376120Y-89977317D01*
X150300000Y-90361000D01*
X151223880Y-89977317D01*
X151050777Y-89688863D01*
X150859028Y-89510055D01*
X150681441Y-89363742D01*
X150550828Y-89172774D01*
X150500000Y-88860000D01*
X150100000Y-88860000D01*
G37*
%TD.AperFunction*%
%TD*%
%TA.AperFunction,Conductor*%
%TO.N,Net-(D5-A)*%
G36*
X149387846Y-87171003D02*
G01*
X149290401Y-86997717D01*
X149357805Y-86861230D01*
X149521795Y-86728726D01*
X149714111Y-86567392D01*
X149866492Y-86344415D01*
X149034293Y-85999293D01*
X148398604Y-86636396D01*
X148582077Y-86831418D01*
X148702260Y-86979142D01*
X148801346Y-87111099D01*
X148921529Y-87258822D01*
X149105003Y-87453846D01*
X149387846Y-87171003D01*
G37*
%TD.AperFunction*%
%TD*%
%TA.AperFunction,Conductor*%
%TO.N,Net-(D8-A)*%
G36*
X141477919Y-89440761D02*
G01*
X141663142Y-89697867D01*
X141705819Y-89925259D01*
X141683706Y-90154290D01*
X141674554Y-90416314D01*
X141756120Y-90742683D01*
X142680707Y-90360707D01*
X143062683Y-89436120D01*
X142736314Y-89354554D01*
X142474290Y-89363706D01*
X142245259Y-89385819D01*
X142017867Y-89343142D01*
X141760761Y-89157919D01*
X141477919Y-89440761D01*
G37*
%TD.AperFunction*%
%TD*%
%TA.AperFunction,Conductor*%
%TO.N,Net-(D8-A)*%
G36*
X132166370Y-86848528D02*
G01*
X131990779Y-86612012D01*
X131940723Y-86404384D01*
X131948475Y-86195719D01*
X131946308Y-85956094D01*
X131866492Y-85655585D01*
X131034293Y-85999293D01*
X130690585Y-86831492D01*
X130991094Y-86911308D01*
X131230719Y-86913475D01*
X131439384Y-86905723D01*
X131647012Y-86955779D01*
X131883528Y-87131370D01*
X132166370Y-86848528D01*
G37*
%TD.AperFunction*%
%TD*%
%TA.AperFunction,Conductor*%
%TO.N,Net-(D9-A)*%
G36*
X138937919Y-89440761D02*
G01*
X139123142Y-89697867D01*
X139165819Y-89925259D01*
X139143706Y-90154290D01*
X139134554Y-90416314D01*
X139216120Y-90742683D01*
X140140707Y-90360707D01*
X140522683Y-89436120D01*
X140196314Y-89354554D01*
X139934290Y-89363706D01*
X139705259Y-89385819D01*
X139477867Y-89343142D01*
X139220761Y-89157919D01*
X138937919Y-89440761D01*
G37*
%TD.AperFunction*%
%TD*%
%TA.AperFunction,Conductor*%
%TO.N,Net-(D9-A)*%
G36*
X126166370Y-86848528D02*
G01*
X125990779Y-86612012D01*
X125940723Y-86404384D01*
X125948475Y-86195719D01*
X125946308Y-85956094D01*
X125866492Y-85655585D01*
X125034293Y-85999293D01*
X124690585Y-86831492D01*
X124991094Y-86911308D01*
X125230719Y-86913475D01*
X125439384Y-86905723D01*
X125647012Y-86955779D01*
X125883528Y-87131370D01*
X126166370Y-86848528D01*
G37*
%TD.AperFunction*%
%TD*%
%TA.AperFunction,Conductor*%
%TO.N,Net-(D7-A)*%
G36*
X144017919Y-89440761D02*
G01*
X144203142Y-89697867D01*
X144245819Y-89925259D01*
X144223706Y-90154290D01*
X144214554Y-90416314D01*
X144296120Y-90742683D01*
X145220707Y-90360707D01*
X145602683Y-89436120D01*
X145276314Y-89354554D01*
X145014290Y-89363706D01*
X144785259Y-89385819D01*
X144557867Y-89343142D01*
X144300761Y-89157919D01*
X144017919Y-89440761D01*
G37*
%TD.AperFunction*%
%TD*%
%TA.AperFunction,Conductor*%
%TO.N,Net-(D7-A)*%
G36*
X138166370Y-86848528D02*
G01*
X137990779Y-86612012D01*
X137940723Y-86404384D01*
X137948475Y-86195719D01*
X137946308Y-85956094D01*
X137866492Y-85655585D01*
X137034293Y-85999293D01*
X136690585Y-86831492D01*
X136991094Y-86911308D01*
X137230719Y-86913475D01*
X137439384Y-86905723D01*
X137647012Y-86955779D01*
X137883528Y-87131370D01*
X138166370Y-86848528D01*
G37*
%TD.AperFunction*%
%TD*%
%TA.AperFunction,Conductor*%
%TO.N,Net-(D6-A)*%
G36*
X147560000Y-88860000D02*
G01*
X147509171Y-89172774D01*
X147378557Y-89363742D01*
X147200971Y-89510055D01*
X147009221Y-89688863D01*
X146836120Y-89977317D01*
X147760000Y-90361000D01*
X148683880Y-89977317D01*
X148510777Y-89688863D01*
X148319028Y-89510055D01*
X148141441Y-89363742D01*
X148010828Y-89172774D01*
X147960000Y-88860000D01*
X147560000Y-88860000D01*
G37*
%TD.AperFunction*%
%TD*%
%TA.AperFunction,Conductor*%
%TO.N,Net-(D6-A)*%
G36*
X143981738Y-86971896D02*
G01*
X143844775Y-86785421D01*
X143816671Y-86621288D01*
X143852375Y-86453202D01*
X143906835Y-86254871D01*
X143935000Y-86000000D01*
X143034293Y-85999293D01*
X142690585Y-86831492D01*
X142952310Y-86918741D01*
X143152386Y-86959517D01*
X143322431Y-86998994D01*
X143494061Y-87082343D01*
X143698896Y-87254738D01*
X143981738Y-86971896D01*
G37*
%TD.AperFunction*%
%TD*%
%TA.AperFunction,Conductor*%
%TO.N,Net-(J1-BULB_INSPECTION)*%
G36*
X137506582Y-92048524D02*
G01*
X137718795Y-91817497D01*
X137852845Y-91638585D01*
X137960842Y-91477044D01*
X138094893Y-91298133D01*
X138307107Y-91067107D01*
X137600707Y-90359293D01*
X136676120Y-90742683D01*
X136754613Y-90892639D01*
X136832316Y-91013183D01*
X136883109Y-91118622D01*
X136880869Y-91223264D01*
X136799476Y-91341418D01*
X137506582Y-92048524D01*
G37*
%TD.AperFunction*%
%TD*%
%TA.AperFunction,Conductor*%
%TO.N,Net-(J1-BULB_INSPECTION)*%
G36*
X158249773Y-78257333D02*
G01*
X158472149Y-78031387D01*
X158626947Y-77868078D01*
X158759220Y-77725649D01*
X158914019Y-77562341D01*
X159136396Y-77336396D01*
X158500707Y-76699293D01*
X157600000Y-76700000D01*
X157622960Y-76923114D01*
X157666588Y-77096576D01*
X157693002Y-77243503D01*
X157664321Y-77387014D01*
X157542667Y-77550227D01*
X158249773Y-78257333D01*
G37*
%TD.AperFunction*%
%TD*%
%TA.AperFunction,Conductor*%
%TO.N,Net-(J1-GND_BULB)*%
G36*
X159900000Y-73660000D02*
G01*
X159626853Y-73645848D01*
X159436644Y-73604284D01*
X159277450Y-73536648D01*
X159097348Y-73444276D01*
X158844415Y-73328508D01*
X158499000Y-74160000D01*
X158844415Y-74991492D01*
X159097348Y-74875722D01*
X159277450Y-74783351D01*
X159436644Y-74715714D01*
X159626853Y-74674151D01*
X159900000Y-74660000D01*
X159900000Y-73660000D01*
G37*
%TD.AperFunction*%
%TD*%
%TA.AperFunction,Conductor*%
%TO.N,Net-(J1-GND_BULB)*%
G36*
X167040000Y-89860000D02*
G01*
X166939999Y-89802426D01*
X166839999Y-89723639D01*
X166740000Y-89623639D01*
X166640000Y-89502426D01*
X166540000Y-89360000D01*
X165539000Y-90360000D01*
X166540000Y-91360000D01*
X166640000Y-91217573D01*
X166740000Y-91096360D01*
X166839999Y-90996360D01*
X166939999Y-90917573D01*
X167040000Y-90860000D01*
X167040000Y-89860000D01*
G37*
%TD.AperFunction*%
%TD*%
%TA.AperFunction,Conductor*%
%TO.N,Net-(D2-A)*%
G36*
X158070000Y-91600000D02*
G01*
X158101772Y-91422725D01*
X158187602Y-91324398D01*
X158313255Y-91261419D01*
X158464501Y-91190188D01*
X158627107Y-91067107D01*
X157920000Y-90359000D01*
X157212893Y-91067107D01*
X157375497Y-91190188D01*
X157526743Y-91261419D01*
X157652397Y-91324398D01*
X157738227Y-91422725D01*
X157770000Y-91600000D01*
X158070000Y-91600000D01*
G37*
%TD.AperFunction*%
%TD*%
%TA.AperFunction,Conductor*%
%TO.N,Net-(J1-GND_BULB)*%
G36*
X143900000Y-73660000D02*
G01*
X143626853Y-73645848D01*
X143436644Y-73604284D01*
X143277450Y-73536648D01*
X143097348Y-73444276D01*
X142844415Y-73328508D01*
X142499000Y-74160000D01*
X142844415Y-74991492D01*
X143097348Y-74875722D01*
X143277450Y-74783351D01*
X143436644Y-74715714D01*
X143626853Y-74674151D01*
X143900000Y-74660000D01*
X143900000Y-73660000D01*
G37*
%TD.AperFunction*%
%TD*%
%TA.AperFunction,Conductor*%
%TO.N,Net-(J1-GND_BULB)*%
G36*
X157100000Y-74660000D02*
G01*
X157373146Y-74674151D01*
X157563354Y-74715714D01*
X157722548Y-74783351D01*
X157902650Y-74875722D01*
X158155585Y-74991492D01*
X158501000Y-74160000D01*
X158155585Y-73328508D01*
X157902650Y-73444276D01*
X157722548Y-73536648D01*
X157563354Y-73604284D01*
X157373146Y-73645848D01*
X157100000Y-73660000D01*
X157100000Y-74660000D01*
G37*
%TD.AperFunction*%
%TD*%
D18*
X151575000Y-86000000D03*
X149035000Y-86000000D03*
X127575000Y-86000000D03*
X125035000Y-86000000D03*
X175575000Y-86000000D03*
X173035000Y-86000000D03*
X157575000Y-86000000D03*
X155035000Y-86000000D03*
X145575000Y-86000000D03*
X143035000Y-86000000D03*
X139575000Y-86000000D03*
X137035000Y-86000000D03*
X133575000Y-86000000D03*
X131035000Y-86000000D03*
X158500000Y-76700000D03*
X158500000Y-74160000D03*
X142500000Y-74160000D03*
X142500000Y-76700000D03*
X163575000Y-86000000D03*
X161035000Y-86000000D03*
X150300000Y-78000000D03*
X165540000Y-90360000D03*
X163000000Y-90360000D03*
X160460000Y-90360000D03*
X157920000Y-90360000D03*
X155380000Y-90360000D03*
X152840000Y-90360000D03*
X150300000Y-90360000D03*
X147760000Y-90360000D03*
X145220000Y-90360000D03*
X142680000Y-90360000D03*
X140140000Y-90360000D03*
X137600000Y-90360000D03*
X135060000Y-90360000D03*
X169575000Y-86000000D03*
X167035000Y-86000000D03*
M02*
