M48
; DRILL file {KiCad 8.0.1} date 2024-06-06T00:05:14+0200
; FORMAT={-:-/ absolute / metric / decimal}
; #@! TF.CreationDate,2024-06-06T00:05:14+02:00
; #@! TF.GenerationSoftware,Kicad,Pcbnew,8.0.1
; #@! TF.FileFunction,MixedPlating,1,2
FMAT,2
METRIC
; #@! TA.AperFunction,Plated,PTH,ComponentDrill
T1C0.500
; #@! TA.AperFunction,Plated,PTH,ComponentDrill
T2C0.800
; #@! TA.AperFunction,Plated,PTH,ComponentDrill
T3C1.000
; #@! TA.AperFunction,Plated,PTH,ComponentDrill
T4C1.100
; #@! TA.AperFunction,Plated,PTH,ComponentDrill
T5C1.200
%
G90
G05
T1
X119.286Y-144.778
X119.286Y-146.678
T2
X69.164Y-121.852
X69.164Y-132.012
X71.704Y-121.852
X71.704Y-132.012
X74.244Y-121.852
X74.244Y-132.012
X74.244Y-139.124
X74.244Y-149.284
X76.784Y-103.056
X76.784Y-113.216
X76.784Y-121.852
X76.784Y-132.012
X76.784Y-139.124
X76.784Y-149.284
X79.324Y-105.596
X79.324Y-115.756
X79.324Y-118.296
X79.324Y-133.536
X79.324Y-139.124
X79.324Y-149.284
X81.864Y-105.596
X81.864Y-115.756
X81.864Y-118.296
X81.864Y-133.536
X81.864Y-139.124
X81.864Y-149.284
X84.404Y-124.155
X84.404Y-136.855
X84.404Y-139.124
X84.404Y-149.284
X86.944Y-105.596
X86.944Y-115.756
X86.944Y-124.392
X86.944Y-137.092
X88.988Y-120.582
X88.988Y-138.362
X90.5Y-105.596
X90.5Y-115.756
X91.516Y-132.012
X91.516Y-142.172
X92.024Y-148.12
X93.04Y-115.248
X93.04Y-125.408
X94.564Y-148.12
X96.596Y-111.946
X96.596Y-124.646
X96.596Y-132.012
X96.596Y-142.172
X97.104Y-148.12
X99.131Y-104.316
X99.131Y-111.936
X99.136Y-116.772
X99.136Y-132.012
X99.136Y-135.568
X99.136Y-145.728
X101.671Y-104.316
X101.671Y-111.936
X101.676Y-133.028
X101.676Y-143.188
X102.692Y-116.812
X102.692Y-121.812
X104.211Y-104.316
X104.211Y-111.936
X104.216Y-124.138
X104.216Y-146.998
X106.751Y-104.316
X106.751Y-111.936
X106.756Y-125.26
X106.756Y-140.5
X108.788Y-116.812
X108.788Y-121.812
X108.788Y-148.416
X109.291Y-104.316
X109.291Y-111.936
X109.296Y-125.26
X109.296Y-140.5
X111.328Y-148.416
X111.831Y-104.316
X111.831Y-111.936
X111.836Y-125.26
X111.836Y-140.5
X113.868Y-115.502
X113.868Y-123.122
X113.868Y-148.416
X114.371Y-104.316
X114.371Y-111.936
X114.376Y-125.26
X114.376Y-140.5
X116.916Y-125.26
X116.916Y-140.5
X117.424Y-104.072
X117.424Y-114.232
X117.424Y-119.312
X119.456Y-125.26
X119.456Y-140.5
X119.964Y-104.072
X119.964Y-114.232
X121.996Y-125.26
X121.996Y-140.5
X122.424Y-119.312
X122.504Y-104.072
X122.504Y-114.232
X124.536Y-125.26
X124.536Y-140.5
X125.044Y-104.072
X125.044Y-114.232
X127.076Y-125.26
X127.076Y-140.5
X127.584Y-104.072
X127.584Y-114.232
X129.616Y-125.26
X129.616Y-140.5
X132.156Y-125.26
X132.156Y-140.5
X132.664Y-104.072
X132.664Y-114.232
X134.696Y-125.26
X134.696Y-140.5
X136.368Y-109.152
X136.368Y-111.692
X136.368Y-114.232
X137.236Y-125.26
X137.236Y-140.5
X138.76Y-102.548
X138.76Y-122.868
X139.776Y-125.26
X139.776Y-140.5
X141.3Y-102.548
X141.3Y-117.788
X142.316Y-125.26
X142.316Y-140.5
X144.856Y-125.26
X144.856Y-140.5
X145.364Y-105.342
X145.364Y-118.042
X147.396Y-125.26
X147.396Y-140.5
X147.904Y-110.439
X147.904Y-123.139
X149.936Y-125.26
X149.936Y-140.5
X151.46Y-112.708
X151.46Y-122.868
X152.476Y-125.26
X152.476Y-140.5
X152.984Y-102.548
X152.984Y-105.088
X152.984Y-107.628
X155.016Y-112.708
X155.016Y-122.868
X155.016Y-125.26
X155.016Y-140.5
X158.064Y-101.532
X158.064Y-111.692
X158.064Y-114.232
X158.064Y-124.392
X160.604Y-106.612
X160.604Y-124.392
X160.604Y-130.488
X160.604Y-140.648
X163.144Y-119.392
X163.144Y-124.392
X163.144Y-130.488
X163.144Y-140.648
X164.16Y-101.786
X164.16Y-114.486
X165.712Y-130.488
X165.712Y-140.648
X166.7Y-109.406
X166.7Y-117.026
X166.74Y-105.088
X168.224Y-130.488
X168.224Y-140.648
X169.24Y-109.152
X169.24Y-119.312
X170.764Y-130.488
X170.764Y-140.648
X171.74Y-105.088
X172.288Y-109.152
X172.288Y-119.312
X173.304Y-130.488
X173.304Y-140.648
X175.336Y-107.882
X175.336Y-120.582
X176.86Y-127.948
X176.86Y-143.188
X179.4Y-127.948
X179.4Y-143.188
X181.94Y-127.948
X181.94Y-143.188
X183.464Y-106.358
X183.464Y-124.138
X188.036Y-113.216
X188.036Y-133.536
X196.672Y-148.12
X199.212Y-148.12
X201.752Y-148.12
X206.832Y-148.12
X209.372Y-148.12
X211.912Y-148.12
X216.484Y-141.41
X216.484Y-149.03
X245.44Y-115.248
X245.44Y-120.248
X248.128Y-137.6
X248.128Y-140.14
X248.128Y-142.68
X248.488Y-117.828
X248.488Y-122.828
X251.536Y-112.708
X251.536Y-122.868
X253.06Y-130.488
X253.06Y-145.728
X258.648Y-111.732
X258.648Y-116.732
X262.204Y-102.548
X262.204Y-117.788
X266.268Y-104.072
X266.268Y-114.232
X283.18Y-102.548
X283.18Y-105.088
X283.18Y-107.628
X284.556Y-129.98
X284.556Y-140.14
X290.144Y-102.548
X290.144Y-112.708
X292.684Y-111.438
X292.684Y-119.058
X295.224Y-108.644
X295.224Y-123.884
X298.78Y-108.644
X298.78Y-123.884
X302.376Y-123.884
X307.376Y-123.884
T3
X190.468Y-126.412
X190.6Y-107.628
X190.6Y-117.788
X199.62Y-138.0
X202.16Y-138.0
X204.7Y-138.0
X207.24Y-138.0
X209.78Y-138.0
X212.32Y-138.0
X214.86Y-138.0
X217.4Y-138.0
X219.94Y-138.0
X222.48Y-138.0
X225.02Y-138.0
X227.56Y-138.0
X230.1Y-138.0
X240.468Y-121.332
X240.468Y-131.492
X240.6Y-112.708
X290.652Y-128.84
X290.652Y-139.0
X290.652Y-141.54
X298.272Y-139.0
X298.272Y-141.54
X316.916Y-133.785
X316.916Y-136.325
T4
X178.384Y-107.882
X178.384Y-120.582
X269.824Y-102.294
X269.824Y-114.994
X277.444Y-105.342
X277.444Y-118.042
T5
X185.496Y-110.422
X185.496Y-133.282
X259.156Y-120.18
X259.156Y-142.68
X270.84Y-117.64
X270.84Y-140.14
X281.0Y-117.64
X281.0Y-140.14
T3
G00X183.6Y-101.9
M15
G01X183.6Y-103.1
M16
G05
G00X187.1Y-101.9
M15
G01X187.1Y-103.1
M16
G05
G00X190.6Y-101.9
M15
G01X190.6Y-103.1
M16
G05
G00X194.1Y-101.9
M15
G01X194.1Y-103.1
M16
G05
G00X197.6Y-101.9
M15
G01X197.6Y-103.1
M16
G05
G00X201.1Y-101.9
M15
G01X201.1Y-103.1
M16
G05
G00X204.6Y-101.9
M15
G01X204.6Y-103.1
M16
G05
G00X208.1Y-101.9
M15
G01X208.1Y-103.1
M16
G05
G00X211.6Y-101.9
M15
G01X211.6Y-103.1
M16
G05
G00X215.1Y-101.9
M15
G01X215.1Y-103.1
M16
G05
G00X218.6Y-101.9
M15
G01X218.6Y-103.1
M16
G05
G00X222.1Y-101.9
M15
G01X222.1Y-103.1
M16
G05
G00X225.6Y-101.9
M15
G01X225.6Y-103.1
M16
G05
G00X229.1Y-101.9
M15
G01X229.1Y-103.1
M16
G05
G00X232.6Y-101.9
M15
G01X232.6Y-103.1
M16
G05
G00X236.1Y-101.9
M15
G01X236.1Y-103.1
M16
G05
G00X239.6Y-101.9
M15
G01X239.6Y-103.1
M16
G05
G00X243.1Y-101.9
M15
G01X243.1Y-103.1
M16
G05
G00X246.6Y-101.9
M15
G01X246.6Y-103.1
M16
G05
M30
