%TF.GenerationSoftware,KiCad,Pcbnew,8.0.1*%
%TF.CreationDate,2024-08-23T15:17:34+02:00*%
%TF.ProjectId,BMW_E30_VFL_SI_Indicator_LED,424d575f-4533-4305-9f56-464c5f53495f,rev?*%
%TF.SameCoordinates,Original*%
%TF.FileFunction,Copper,L1,Top*%
%TF.FilePolarity,Positive*%
%FSLAX46Y46*%
G04 Gerber Fmt 4.6, Leading zero omitted, Abs format (unit mm)*
G04 Created by KiCad (PCBNEW 8.0.1) date 2024-08-23 15:17:34*
%MOMM*%
%LPD*%
G01*
G04 APERTURE LIST*
%TA.AperFunction,ComponentPad*%
%ADD10R,1.800000X1.800000*%
%TD*%
%TA.AperFunction,ComponentPad*%
%ADD11C,1.800000*%
%TD*%
%TA.AperFunction,ComponentPad*%
%ADD12R,2.000000X2.000000*%
%TD*%
%TA.AperFunction,ComponentPad*%
%ADD13C,2.000000*%
%TD*%
%TA.AperFunction,ComponentPad*%
%ADD14C,1.600000*%
%TD*%
%TA.AperFunction,ComponentPad*%
%ADD15O,1.600000X1.600000*%
%TD*%
%TA.AperFunction,Conductor*%
%ADD16C,1.000000*%
%TD*%
%TA.AperFunction,Conductor*%
%ADD17C,1.300000*%
%TD*%
%TA.AperFunction,Conductor*%
%ADD18C,0.600000*%
%TD*%
%ADD19C,0.350000*%
G04 APERTURE END LIST*
D10*
%TO.P,D5,1,K*%
%TO.N,Net-(D5-K)*%
X149125000Y-85500000D03*
D11*
%TO.P,D5,2,A*%
%TO.N,Net-(D1-A)*%
X151665000Y-85500000D03*
%TD*%
D10*
%TO.P,D9,1,K*%
%TO.N,Net-(D9-K)*%
X125125000Y-85500000D03*
D11*
%TO.P,D9,2,A*%
%TO.N,Net-(D1-A)*%
X127665000Y-85500000D03*
%TD*%
D10*
%TO.P,D11,1,K*%
%TO.N,Net-(D11-K)*%
X142250000Y-76650000D03*
D11*
%TO.P,D11,2,A*%
%TO.N,Net-(D10-A)*%
X142250000Y-74110000D03*
%TD*%
D10*
%TO.P,D1,1,K*%
%TO.N,Net-(D1-K)*%
X173125000Y-85500000D03*
D11*
%TO.P,D1,2,A*%
%TO.N,Net-(D1-A)*%
X175665000Y-85500000D03*
%TD*%
D10*
%TO.P,D4,1,K*%
%TO.N,Net-(D4-K)*%
X155125000Y-85500000D03*
D11*
%TO.P,D4,2,A*%
%TO.N,Net-(D1-A)*%
X157665000Y-85500000D03*
%TD*%
D10*
%TO.P,D10,1,K*%
%TO.N,Net-(D10-K)*%
X158525000Y-76675000D03*
D11*
%TO.P,D10,2,A*%
%TO.N,Net-(D10-A)*%
X158525000Y-74135000D03*
%TD*%
D10*
%TO.P,D6,1,K*%
%TO.N,Net-(D6-K)*%
X143125000Y-85500000D03*
D11*
%TO.P,D6,2,A*%
%TO.N,Net-(D1-A)*%
X145665000Y-85500000D03*
%TD*%
D10*
%TO.P,D7,1,K*%
%TO.N,Net-(D7-K)*%
X137125000Y-85500000D03*
D11*
%TO.P,D7,2,A*%
%TO.N,Net-(D1-A)*%
X139665000Y-85500000D03*
%TD*%
D10*
%TO.P,D8,1,K*%
%TO.N,Net-(D8-K)*%
X131125000Y-85500000D03*
D11*
%TO.P,D8,2,A*%
%TO.N,Net-(D1-A)*%
X133665000Y-85500000D03*
%TD*%
D10*
%TO.P,D3,1,K*%
%TO.N,Net-(D3-K)*%
X161125000Y-85500000D03*
D11*
%TO.P,D3,2,A*%
%TO.N,Net-(D1-A)*%
X163665000Y-85500000D03*
%TD*%
D12*
%TO.P,J1,1,GND_BULB*%
%TO.N,Net-(D10-A)*%
X165540000Y-90360000D03*
D13*
%TO.P,J1,2,GND_LED*%
%TO.N,Net-(D1-A)*%
X163000000Y-90360000D03*
%TO.P,J1,3,LED_R3*%
%TO.N,Net-(D1-K)*%
X160460000Y-90360000D03*
%TO.P,J1,4,LED_R2*%
%TO.N,Net-(D2-K)*%
X157920000Y-90360000D03*
%TO.P,J1,5,LED_R1*%
%TO.N,Net-(D3-K)*%
X155380000Y-90360000D03*
%TO.P,J1,6,LED_Y*%
%TO.N,Net-(D4-K)*%
X152840000Y-90360000D03*
%TO.P,J1,7,LED_G5*%
%TO.N,Net-(D5-K)*%
X150300000Y-90360000D03*
%TO.P,J1,8,LED_G4*%
%TO.N,Net-(D6-K)*%
X147760000Y-90360000D03*
%TO.P,J1,9,LED_G3*%
%TO.N,Net-(D7-K)*%
X145220000Y-90360000D03*
%TO.P,J1,10,LED_G2*%
%TO.N,Net-(D8-K)*%
X142680000Y-90360000D03*
%TO.P,J1,11,LED_G1*%
%TO.N,Net-(D9-K)*%
X140140000Y-90360000D03*
%TO.P,J1,12,BULB_INSPECTION*%
%TO.N,Net-(J1-BULB_INSPECTION)*%
X137600000Y-90360000D03*
%TO.P,J1,13,BULB_OILSERVICE*%
%TO.N,Net-(J1-BULB_OILSERVICE)*%
X135060000Y-90360000D03*
%TD*%
D10*
%TO.P,D2,1,K*%
%TO.N,Net-(D2-K)*%
X167125000Y-85500000D03*
D11*
%TO.P,D2,2,A*%
%TO.N,Net-(D1-A)*%
X169665000Y-85500000D03*
%TD*%
D14*
%TO.P,R2,1*%
%TO.N,Net-(J1-BULB_INSPECTION)*%
X158640000Y-80400000D03*
D15*
%TO.P,R2,2*%
%TO.N,Net-(D10-K)*%
X166260000Y-80400000D03*
%TD*%
D14*
%TO.P,R1,1*%
%TO.N,Net-(J1-BULB_OILSERVICE)*%
X134490000Y-80250000D03*
D15*
%TO.P,R1,2*%
%TO.N,Net-(D11-K)*%
X142110000Y-80250000D03*
%TD*%
D16*
%TO.N,Net-(D1-A)*%
X153265000Y-87902000D02*
X162917000Y-87902000D01*
D17*
X127665000Y-85500000D02*
X127665000Y-85515000D01*
D16*
X141454000Y-87902000D02*
X142470000Y-87902000D01*
X145665000Y-86144000D02*
X147423000Y-87902000D01*
X135485000Y-87902000D02*
X136501000Y-87902000D01*
X139665000Y-86113000D02*
X141454000Y-87902000D01*
X151665000Y-86302000D02*
X153265000Y-87902000D01*
X157665000Y-86206000D02*
X159361000Y-87902000D01*
X147423000Y-87902000D02*
X148439000Y-87902000D01*
X133665000Y-86082000D02*
X135485000Y-87902000D01*
X127665000Y-85500000D02*
X130067000Y-87902000D01*
X133665000Y-85500000D02*
X133665000Y-86082000D01*
X163665000Y-85500000D02*
X163665000Y-87154000D01*
D17*
X145665000Y-85500000D02*
X145665000Y-85515000D01*
D16*
X175665000Y-86772792D02*
X174535792Y-87902000D01*
D17*
X139665000Y-85500000D02*
X139720000Y-85500000D01*
D16*
X151665000Y-85500000D02*
X151665000Y-86302000D01*
D17*
X151665000Y-85500000D02*
X151665000Y-85515000D01*
D16*
X139665000Y-85500000D02*
X139665000Y-86113000D01*
X136501000Y-87902000D02*
X142470000Y-87902000D01*
X163665000Y-87154000D02*
X162917000Y-87902000D01*
X130067000Y-87902000D02*
X136501000Y-87902000D01*
X157665000Y-85500000D02*
X157665000Y-86206000D01*
X163000000Y-87985000D02*
X163000000Y-90360000D01*
X174535792Y-87902000D02*
X168251000Y-87902000D01*
X175665000Y-85500000D02*
X175665000Y-86772792D01*
D17*
X133665000Y-85500000D02*
X133665000Y-85765000D01*
D16*
X169665000Y-85500000D02*
X169665000Y-86488000D01*
X142470000Y-87902000D02*
X148439000Y-87902000D01*
X148439000Y-87902000D02*
X153265000Y-87902000D01*
X145665000Y-85500000D02*
X145665000Y-86144000D01*
X168251000Y-87902000D02*
X162917000Y-87902000D01*
X162917000Y-87902000D02*
X163000000Y-87985000D01*
X169665000Y-86488000D02*
X168251000Y-87902000D01*
%TO.N,Net-(J1-BULB_OILSERVICE)*%
X124100000Y-90360000D02*
X135060000Y-90360000D01*
X134490000Y-80250000D02*
X125350000Y-80250000D01*
X125350000Y-80250000D02*
X122900000Y-82700000D01*
X122900000Y-82700000D02*
X122900000Y-89160000D01*
X122900000Y-89160000D02*
X124100000Y-90360000D01*
%TO.N,Net-(D10-K)*%
X162250000Y-80400000D02*
X166260000Y-80400000D01*
X158525000Y-76675000D02*
X162250000Y-80400000D01*
D18*
%TO.N,Net-(D11-K)*%
X142250000Y-80110000D02*
X142110000Y-80250000D01*
D16*
X142250000Y-76650000D02*
X142250000Y-80110000D01*
%TD*%
%TA.AperFunction,Conductor*%
%TO.N,Net-(D11-K)*%
G36*
X142747181Y-79001275D02*
G01*
X142750591Y-79008925D01*
X142766639Y-79309840D01*
X142785707Y-79415394D01*
X142806320Y-79529493D01*
X142830703Y-79626730D01*
X142853584Y-79717974D01*
X142853749Y-79718740D01*
X142893230Y-79937282D01*
X142893399Y-79938739D01*
X142909343Y-80237692D01*
X142906362Y-80246136D01*
X142898283Y-80249998D01*
X142897675Y-80250015D01*
X142112341Y-80250997D01*
X142107837Y-80250101D01*
X141382449Y-79948654D01*
X141376124Y-79942315D01*
X141376135Y-79933360D01*
X141376459Y-79932647D01*
X141484906Y-79714204D01*
X141485570Y-79713040D01*
X141588581Y-79554237D01*
X141672716Y-79415390D01*
X141729293Y-79246711D01*
X141749107Y-79008577D01*
X141753208Y-79000617D01*
X141760767Y-78997848D01*
X142738908Y-78997848D01*
X142747181Y-79001275D01*
G37*
%TD.AperFunction*%
%TD*%
%TA.AperFunction,Conductor*%
%TO.N,Net-(D11-K)*%
G36*
X142258268Y-76657277D02*
G01*
X143140591Y-77540580D01*
X143144013Y-77548855D01*
X143140582Y-77557127D01*
X143139450Y-77558120D01*
X143070000Y-77611580D01*
X142989997Y-77692373D01*
X142909998Y-77792371D01*
X142829998Y-77911581D01*
X142753378Y-78044155D01*
X142746271Y-78049603D01*
X142743248Y-78050000D01*
X141756752Y-78050000D01*
X141748479Y-78046573D01*
X141746622Y-78044155D01*
X141670000Y-77911581D01*
X141590000Y-77792371D01*
X141510001Y-77692373D01*
X141429998Y-77611580D01*
X141360549Y-77558120D01*
X141356084Y-77550358D01*
X141358415Y-77541712D01*
X141359396Y-77540592D01*
X142241722Y-76657286D01*
X142249994Y-76653856D01*
X142258268Y-76657277D01*
G37*
%TD.AperFunction*%
%TD*%
%TA.AperFunction,Conductor*%
%TO.N,Net-(D10-K)*%
G36*
X159423623Y-76306485D02*
G01*
X159429734Y-76312336D01*
X159566412Y-76604749D01*
X159600776Y-76672437D01*
X159707842Y-76883324D01*
X159849263Y-77137883D01*
X159849270Y-77137894D01*
X159849272Y-77137898D01*
X159990670Y-77368420D01*
X159990676Y-77368429D01*
X160126618Y-77566985D01*
X160128464Y-77575748D01*
X160125237Y-77581868D01*
X159432147Y-78274958D01*
X159423874Y-78278385D01*
X159416890Y-78276071D01*
X159170441Y-78092684D01*
X158915883Y-77927263D01*
X158661324Y-77785842D01*
X158549027Y-77734042D01*
X158406769Y-77668422D01*
X158406766Y-77668421D01*
X158163640Y-77579195D01*
X158157054Y-77573127D01*
X158156687Y-77564180D01*
X158156842Y-77563782D01*
X158522438Y-76678782D01*
X158528762Y-76672446D01*
X159414668Y-76306476D01*
X159423623Y-76306485D01*
G37*
%TD.AperFunction*%
%TD*%
%TA.AperFunction,Conductor*%
%TO.N,Net-(D10-K)*%
G36*
X165958342Y-79671699D02*
G01*
X166041204Y-79871094D01*
X166259134Y-80395510D01*
X166259144Y-80404463D01*
X166259135Y-80404485D01*
X166259134Y-80404490D01*
X165958385Y-81128198D01*
X165952046Y-81134523D01*
X165943091Y-81134512D01*
X165942990Y-81134470D01*
X165722811Y-81040550D01*
X165555349Y-80972050D01*
X165555345Y-80972049D01*
X165405998Y-80928906D01*
X165405991Y-80928905D01*
X165405990Y-80928904D01*
X165405987Y-80928904D01*
X165289578Y-80914104D01*
X165229346Y-80906446D01*
X164991398Y-80900294D01*
X164983216Y-80896655D01*
X164980000Y-80888598D01*
X164980000Y-79911401D01*
X164983427Y-79903128D01*
X164991397Y-79899705D01*
X165229344Y-79893552D01*
X165405987Y-79871094D01*
X165405996Y-79871091D01*
X165405998Y-79871091D01*
X165435841Y-79862469D01*
X165555344Y-79827949D01*
X165722827Y-79759442D01*
X165942991Y-79665528D01*
X165951945Y-79665435D01*
X165958342Y-79671699D01*
G37*
%TD.AperFunction*%
%TD*%
%TA.AperFunction,Conductor*%
%TO.N,Net-(J1-BULB_OILSERVICE)*%
G36*
X134188342Y-79521699D02*
G01*
X134271204Y-79721094D01*
X134489134Y-80245510D01*
X134489144Y-80254463D01*
X134489135Y-80254485D01*
X134489134Y-80254490D01*
X134188385Y-80978198D01*
X134182046Y-80984523D01*
X134173091Y-80984512D01*
X134172990Y-80984470D01*
X133952811Y-80890550D01*
X133785349Y-80822050D01*
X133785345Y-80822049D01*
X133635998Y-80778906D01*
X133635991Y-80778905D01*
X133635990Y-80778904D01*
X133635987Y-80778904D01*
X133519578Y-80764104D01*
X133459346Y-80756446D01*
X133221398Y-80750294D01*
X133213216Y-80746655D01*
X133210000Y-80738598D01*
X133210000Y-79761401D01*
X133213427Y-79753128D01*
X133221397Y-79749705D01*
X133459344Y-79743552D01*
X133635987Y-79721094D01*
X133635996Y-79721091D01*
X133635998Y-79721091D01*
X133665841Y-79712469D01*
X133785344Y-79677949D01*
X133952827Y-79609442D01*
X134172991Y-79515528D01*
X134181945Y-79515435D01*
X134188342Y-79521699D01*
G37*
%TD.AperFunction*%
%TD*%
%TA.AperFunction,Conductor*%
%TO.N,Net-(J1-BULB_OILSERVICE)*%
G36*
X134681794Y-89446953D02*
G01*
X134682080Y-89447589D01*
X135059136Y-90355513D01*
X135059145Y-90364467D01*
X135059136Y-90364487D01*
X134682080Y-91272410D01*
X134675742Y-91278737D01*
X134666788Y-91278728D01*
X134666152Y-91278442D01*
X134407008Y-91152240D01*
X134406004Y-91151688D01*
X134217624Y-91035891D01*
X134052437Y-90943352D01*
X133852647Y-90882131D01*
X133570818Y-90860818D01*
X133562827Y-90856777D01*
X133560000Y-90849151D01*
X133560000Y-89870848D01*
X133563427Y-89862575D01*
X133570815Y-89859182D01*
X133852649Y-89837867D01*
X134052435Y-89776647D01*
X134052437Y-89776646D01*
X134217624Y-89684107D01*
X134253658Y-89661956D01*
X134406014Y-89568304D01*
X134406997Y-89567763D01*
X134666152Y-89441556D01*
X134675091Y-89441016D01*
X134681794Y-89446953D01*
G37*
%TD.AperFunction*%
%TD*%
%TA.AperFunction,Conductor*%
%TO.N,Net-(D1-A)*%
G36*
X170484225Y-85839319D02*
G01*
X170485838Y-85839989D01*
X170492164Y-85846328D01*
X170492217Y-85855129D01*
X170357172Y-86193644D01*
X170357133Y-86193740D01*
X170254697Y-86444055D01*
X170254181Y-86445151D01*
X170144949Y-86648965D01*
X170143951Y-86650519D01*
X169983772Y-86861199D01*
X169982963Y-86862152D01*
X169735491Y-87124130D01*
X169727319Y-87127791D01*
X169718952Y-87124601D01*
X169718713Y-87124369D01*
X169026785Y-86432441D01*
X169023358Y-86424168D01*
X169025214Y-86417844D01*
X169094821Y-86309495D01*
X169081334Y-86209109D01*
X169070693Y-86193740D01*
X169011840Y-86108734D01*
X169011829Y-86108719D01*
X168919071Y-85993169D01*
X168918048Y-85991670D01*
X168840129Y-85855948D01*
X168838983Y-85847070D01*
X168844452Y-85839979D01*
X168845789Y-85839321D01*
X169661221Y-85501152D01*
X169670175Y-85501149D01*
X170484225Y-85839319D01*
G37*
%TD.AperFunction*%
%TD*%
%TA.AperFunction,Conductor*%
%TO.N,Net-(D1-A)*%
G36*
X176486457Y-85840246D02*
G01*
X176492783Y-85846585D01*
X176493076Y-85854729D01*
X176378732Y-86200070D01*
X176325073Y-86472299D01*
X176325014Y-86472579D01*
X176273744Y-86702852D01*
X176272884Y-86705346D01*
X176162609Y-86936540D01*
X176161016Y-86939019D01*
X175936809Y-87206504D01*
X175928868Y-87210643D01*
X175920326Y-87207955D01*
X175919569Y-87207261D01*
X175227765Y-86515457D01*
X175224338Y-86507184D01*
X175225834Y-86501459D01*
X175299784Y-86369686D01*
X175299783Y-86369685D01*
X175299784Y-86369685D01*
X175244902Y-86260027D01*
X175244901Y-86260026D01*
X175112151Y-86153700D01*
X175111973Y-86153554D01*
X174957783Y-86024999D01*
X174955623Y-86022626D01*
X174841659Y-85856310D01*
X174839810Y-85847549D01*
X174844698Y-85840045D01*
X174846824Y-85838892D01*
X175661221Y-85501152D01*
X175670175Y-85501149D01*
X176486457Y-85840246D01*
G37*
%TD.AperFunction*%
%TD*%
%TA.AperFunction,Conductor*%
%TO.N,Net-(D1-A)*%
G36*
X163497424Y-88863427D02*
G01*
X163500818Y-88870818D01*
X163522131Y-89152647D01*
X163583352Y-89352437D01*
X163675891Y-89517624D01*
X163791688Y-89706004D01*
X163792240Y-89707008D01*
X163918442Y-89966152D01*
X163918983Y-89975091D01*
X163913046Y-89981794D01*
X163912410Y-89982080D01*
X163004487Y-90359136D01*
X162995533Y-90359145D01*
X162995513Y-90359136D01*
X162087589Y-89982080D01*
X162081262Y-89975742D01*
X162081271Y-89966788D01*
X162081557Y-89966152D01*
X162207763Y-89706997D01*
X162208304Y-89706014D01*
X162324105Y-89517627D01*
X162416647Y-89352435D01*
X162477867Y-89152649D01*
X162499182Y-88870818D01*
X162503223Y-88862826D01*
X162510849Y-88860000D01*
X163489151Y-88860000D01*
X163497424Y-88863427D01*
G37*
%TD.AperFunction*%
%TD*%
%TA.AperFunction,Conductor*%
%TO.N,Net-(D1-A)*%
G36*
X164485296Y-85839764D02*
G01*
X164491621Y-85846102D01*
X164491612Y-85855056D01*
X164491446Y-85855437D01*
X164380830Y-86097111D01*
X164380602Y-86097581D01*
X164288357Y-86277437D01*
X164288341Y-86277470D01*
X164220715Y-86436640D01*
X164220712Y-86436649D01*
X164179151Y-86626850D01*
X164179149Y-86626864D01*
X164165575Y-86888905D01*
X164161725Y-86896990D01*
X164153891Y-86900000D01*
X163176109Y-86900000D01*
X163167836Y-86896573D01*
X163164425Y-86888905D01*
X163150849Y-86626864D01*
X163150848Y-86626859D01*
X163150848Y-86626853D01*
X163109284Y-86436644D01*
X163083979Y-86377084D01*
X163041657Y-86277470D01*
X163041652Y-86277461D01*
X163041648Y-86277450D01*
X162949386Y-86097562D01*
X162949176Y-86097130D01*
X162838553Y-85855437D01*
X162838226Y-85846488D01*
X162844323Y-85839929D01*
X162844654Y-85839784D01*
X163660512Y-85500863D01*
X163669465Y-85500855D01*
X164485296Y-85839764D01*
G37*
%TD.AperFunction*%
%TD*%
%TA.AperFunction,Conductor*%
%TO.N,Net-(D1-A)*%
G36*
X128494241Y-85160221D02*
G01*
X128500567Y-85166560D01*
X128500719Y-85166947D01*
X128593389Y-85416050D01*
X128593560Y-85416543D01*
X128655517Y-85608968D01*
X128655519Y-85608973D01*
X128704071Y-85729258D01*
X128720256Y-85769357D01*
X128825364Y-85933245D01*
X128825365Y-85933246D01*
X129001063Y-86128144D01*
X129004057Y-86136583D01*
X129000646Y-86144251D01*
X128309251Y-86835646D01*
X128300978Y-86839073D01*
X128293144Y-86836063D01*
X128098245Y-86660364D01*
X127934357Y-86555256D01*
X127894258Y-86539071D01*
X127773973Y-86490519D01*
X127773968Y-86490517D01*
X127581543Y-86428560D01*
X127581050Y-86428389D01*
X127331947Y-86335719D01*
X127325387Y-86329622D01*
X127325060Y-86320674D01*
X127325196Y-86320326D01*
X127662438Y-85503783D01*
X127668761Y-85497447D01*
X128485288Y-85160212D01*
X128494241Y-85160221D01*
G37*
%TD.AperFunction*%
%TD*%
%TA.AperFunction,Conductor*%
%TO.N,Net-(D1-A)*%
G36*
X134552135Y-85499989D02*
G01*
X134560404Y-85503422D01*
X134563824Y-85511698D01*
X134563771Y-85512806D01*
X134543735Y-85721753D01*
X134543490Y-85723261D01*
X134503880Y-85895324D01*
X134482006Y-86041581D01*
X134482006Y-86041583D01*
X134514378Y-86184497D01*
X134514379Y-86184499D01*
X134631207Y-86339116D01*
X134633460Y-86347782D01*
X134630145Y-86354442D01*
X133938545Y-87046042D01*
X133930272Y-87049469D01*
X133921999Y-87046042D01*
X133921968Y-87046011D01*
X133705502Y-86827912D01*
X133705429Y-86827838D01*
X133547356Y-86665719D01*
X133547356Y-86665718D01*
X133547316Y-86665678D01*
X133411507Y-86525040D01*
X133411507Y-86525041D01*
X133253353Y-86362840D01*
X133036805Y-86144659D01*
X133033409Y-86136373D01*
X133036825Y-86128155D01*
X133660862Y-85502730D01*
X133669127Y-85499296D01*
X134552135Y-85499989D01*
G37*
%TD.AperFunction*%
%TD*%
%TA.AperFunction,Conductor*%
%TO.N,Net-(D1-A)*%
G36*
X158551508Y-85499989D02*
G01*
X158559779Y-85503422D01*
X158563199Y-85511698D01*
X158563080Y-85513354D01*
X158532475Y-85726243D01*
X158531844Y-85728699D01*
X158465634Y-85904626D01*
X158412230Y-86054750D01*
X158412229Y-86054755D01*
X158419257Y-86201350D01*
X158509622Y-86332538D01*
X158528161Y-86359454D01*
X158528393Y-86359790D01*
X158530264Y-86368547D01*
X158527031Y-86374700D01*
X157835370Y-87066361D01*
X157827097Y-87069788D01*
X157818824Y-87066361D01*
X157818549Y-87066077D01*
X157618655Y-86852191D01*
X157618064Y-86851505D01*
X157483252Y-86682002D01*
X157482987Y-86681653D01*
X157372299Y-86529481D01*
X157237069Y-86359454D01*
X157036317Y-86144649D01*
X157033173Y-86136266D01*
X157036583Y-86128399D01*
X157660862Y-85502730D01*
X157669127Y-85499296D01*
X158551508Y-85499989D01*
G37*
%TD.AperFunction*%
%TD*%
%TA.AperFunction,Conductor*%
%TO.N,Net-(D1-A)*%
G36*
X152551022Y-85499989D02*
G01*
X152559293Y-85503422D01*
X152562713Y-85511698D01*
X152562529Y-85513757D01*
X152523495Y-85731088D01*
X152522490Y-85734158D01*
X152435237Y-85912652D01*
X152435130Y-85912866D01*
X152356930Y-86064881D01*
X152344480Y-86213659D01*
X152448746Y-86375808D01*
X152450338Y-86384620D01*
X152447178Y-86390409D01*
X151755515Y-87082072D01*
X151747242Y-87085499D01*
X151738969Y-87082072D01*
X151738497Y-87081571D01*
X151550971Y-86870568D01*
X151549986Y-86869292D01*
X151433382Y-86694423D01*
X151432931Y-86693689D01*
X151342204Y-86533183D01*
X151342187Y-86533156D01*
X151224916Y-86357285D01*
X151224914Y-86357283D01*
X151224912Y-86357280D01*
X151035922Y-86144630D01*
X151032988Y-86136172D01*
X151036385Y-86128597D01*
X151660862Y-85502730D01*
X151669127Y-85499296D01*
X152551022Y-85499989D01*
G37*
%TD.AperFunction*%
%TD*%
%TA.AperFunction,Conductor*%
%TO.N,Net-(D1-A)*%
G36*
X140551980Y-85499989D02*
G01*
X140560250Y-85503422D01*
X140563670Y-85511698D01*
X140563602Y-85512945D01*
X140540957Y-85722680D01*
X140540629Y-85724441D01*
X140494439Y-85897514D01*
X140494439Y-85897515D01*
X140464742Y-86044889D01*
X140464742Y-86044890D01*
X140490757Y-86188811D01*
X140490760Y-86188817D01*
X140605510Y-86344282D01*
X140607666Y-86352973D01*
X140604370Y-86359503D01*
X139912748Y-87051125D01*
X139904475Y-87054552D01*
X139896202Y-87051125D01*
X139896111Y-87051033D01*
X139683851Y-86834039D01*
X139683659Y-86833838D01*
X139531394Y-86669850D01*
X139531282Y-86669728D01*
X139518639Y-86655720D01*
X139401659Y-86526106D01*
X139249248Y-86361961D01*
X139249241Y-86361953D01*
X139036686Y-86144658D01*
X139033351Y-86136348D01*
X139036767Y-86128214D01*
X139660862Y-85502730D01*
X139669127Y-85499296D01*
X140551980Y-85499989D01*
G37*
%TD.AperFunction*%
%TD*%
%TA.AperFunction,Conductor*%
%TO.N,Net-(D1-A)*%
G36*
X146551823Y-85499989D02*
G01*
X146560093Y-85503422D01*
X146563513Y-85511698D01*
X146563430Y-85513083D01*
X146538153Y-85723742D01*
X146537732Y-85725745D01*
X146484924Y-85899772D01*
X146484918Y-85899795D01*
X146447356Y-86048182D01*
X146467031Y-86193062D01*
X146579809Y-86349451D01*
X146581868Y-86358165D01*
X146578592Y-86364567D01*
X145886954Y-87056205D01*
X145878681Y-87059632D01*
X145870408Y-87056205D01*
X145870257Y-87056051D01*
X145662170Y-86840138D01*
X145661824Y-86839764D01*
X145515345Y-86673894D01*
X145515165Y-86673684D01*
X145391874Y-86527236D01*
X145391871Y-86527233D01*
X145391852Y-86527210D01*
X145245147Y-86361083D01*
X145245142Y-86361078D01*
X145245136Y-86361071D01*
X145083215Y-86193061D01*
X145036564Y-86144655D01*
X145033291Y-86136322D01*
X145036706Y-86128275D01*
X145660862Y-85502730D01*
X145669127Y-85499296D01*
X146551823Y-85499989D01*
G37*
%TD.AperFunction*%
%TD*%
D19*
X150300000Y-78000000D03*
X149125000Y-85500000D03*
X151665000Y-85500000D03*
X125125000Y-85500000D03*
X127665000Y-85500000D03*
X142250000Y-76650000D03*
X142250000Y-74110000D03*
X173125000Y-85500000D03*
X175665000Y-85500000D03*
X155125000Y-85500000D03*
X157665000Y-85500000D03*
X158525000Y-76675000D03*
X158525000Y-74135000D03*
X143125000Y-85500000D03*
X145665000Y-85500000D03*
X137125000Y-85500000D03*
X139665000Y-85500000D03*
X131125000Y-85500000D03*
X133665000Y-85500000D03*
X161125000Y-85500000D03*
X163665000Y-85500000D03*
X165540000Y-90360000D03*
X163000000Y-90360000D03*
X160460000Y-90360000D03*
X157920000Y-90360000D03*
X155380000Y-90360000D03*
X152840000Y-90360000D03*
X150300000Y-90360000D03*
X147760000Y-90360000D03*
X145220000Y-90360000D03*
X142680000Y-90360000D03*
X140140000Y-90360000D03*
X137600000Y-90360000D03*
X135060000Y-90360000D03*
X167125000Y-85500000D03*
X169665000Y-85500000D03*
X158640000Y-80400000D03*
X166260000Y-80400000D03*
X134490000Y-80250000D03*
X142110000Y-80250000D03*
M02*
