M48
METRIC,TZ
T1C0.800
T2C0.900
T3C1.000
%
G90
G05
T1
X134490Y-80550
X142110Y-80550
X146790Y-80750
X154410Y-80750
X158980Y-80790
X166600Y-80790
T2
X126625Y-85700
X129165Y-85700
X134125Y-85700
X136665Y-85700
X141625Y-85700
X142175Y-74252
X142175Y-76792
X144165Y-85700
X149125Y-85700
X150750Y-74335
X150750Y-76875
X151665Y-85700
X156625Y-85700
X158975Y-74235
X158975Y-76775
X159165Y-85700
X164125Y-85700
X166665Y-85700
X171625Y-85700
X174165Y-85700
T3
X136330Y-90360
X138870Y-90360
X141410Y-90360
X143950Y-90360
X146490Y-90360
X149030Y-90360
X151570Y-90360
X154110Y-90360
X156650Y-90360
X159190Y-90360
X161730Y-90360
X164270Y-90360
M30
