%TF.GenerationSoftware,KiCad,Pcbnew,8.0.1*%
%TF.CreationDate,2024-06-22T15:25:24+02:00*%
%TF.ProjectId,BMW E30 VFL SI Indicator V2,424d5720-4533-4302-9056-464c20534920,rev?*%
%TF.SameCoordinates,Original*%
%TF.FileFunction,Copper,L2,Bot*%
%TF.FilePolarity,Positive*%
%FSLAX46Y46*%
G04 Gerber Fmt 4.6, Leading zero omitted, Abs format (unit mm)*
G04 Created by KiCad (PCBNEW 8.0.1) date 2024-06-22 15:25:24*
%MOMM*%
%LPD*%
G01*
G04 APERTURE LIST*
%TA.AperFunction,ComponentPad*%
%ADD10R,1.800000X1.800000*%
%TD*%
%TA.AperFunction,ComponentPad*%
%ADD11C,1.800000*%
%TD*%
%TA.AperFunction,ComponentPad*%
%ADD12R,2.000000X2.000000*%
%TD*%
%TA.AperFunction,ComponentPad*%
%ADD13C,2.000000*%
%TD*%
%TA.AperFunction,Conductor*%
%ADD14C,0.600000*%
%TD*%
%TA.AperFunction,Conductor*%
%ADD15C,1.300000*%
%TD*%
%TA.AperFunction,Conductor*%
%ADD16C,1.000000*%
%TD*%
%ADD17C,0.350000*%
G04 APERTURE END LIST*
D10*
%TO.P,D5,1,K*%
%TO.N,Net-(D5-K)*%
X149125000Y-85500000D03*
D11*
%TO.P,D5,2,A*%
%TO.N,Net-(D1-A)*%
X151665000Y-85500000D03*
%TD*%
D10*
%TO.P,D9,1,K*%
%TO.N,Net-(D9-K)*%
X125125000Y-85500000D03*
D11*
%TO.P,D9,2,A*%
%TO.N,Net-(D1-A)*%
X127665000Y-85500000D03*
%TD*%
D10*
%TO.P,D1,1,K*%
%TO.N,Net-(D1-K)*%
X173125000Y-85500000D03*
D11*
%TO.P,D1,2,A*%
%TO.N,Net-(D1-A)*%
X175665000Y-85500000D03*
%TD*%
D10*
%TO.P,D4,1,K*%
%TO.N,Net-(D4-K)*%
X155125000Y-85500000D03*
D11*
%TO.P,D4,2,A*%
%TO.N,Net-(D1-A)*%
X157665000Y-85500000D03*
%TD*%
D10*
%TO.P,D6,1,K*%
%TO.N,Net-(D6-K)*%
X143125000Y-85500000D03*
D11*
%TO.P,D6,2,A*%
%TO.N,Net-(D1-A)*%
X145665000Y-85500000D03*
%TD*%
D10*
%TO.P,D7,1,K*%
%TO.N,Net-(D7-K)*%
X137125000Y-85500000D03*
D11*
%TO.P,D7,2,A*%
%TO.N,Net-(D1-A)*%
X139665000Y-85500000D03*
%TD*%
D10*
%TO.P,D8,1,K*%
%TO.N,Net-(D8-K)*%
X131125000Y-85500000D03*
D11*
%TO.P,D8,2,A*%
%TO.N,Net-(D1-A)*%
X133665000Y-85500000D03*
%TD*%
%TO.P,LA2,1,-*%
%TO.N,Net-(J1-BULB_INSPECTION)*%
X158500000Y-76700000D03*
%TO.P,LA2,2,+*%
%TO.N,Net-(J1-GND_BULB)*%
X158500000Y-74160000D03*
%TD*%
%TO.P,LA1,1,-*%
%TO.N,Net-(J1-GND_BULB)*%
X142500000Y-74160000D03*
%TO.P,LA1,2,+*%
%TO.N,Net-(J1-BULB_OILSERVICE)*%
X142500000Y-76700000D03*
%TD*%
D10*
%TO.P,D3,1,K*%
%TO.N,Net-(D3-K)*%
X161125000Y-85500000D03*
D11*
%TO.P,D3,2,A*%
%TO.N,Net-(D1-A)*%
X163665000Y-85500000D03*
%TD*%
D12*
%TO.P,J1,1,GND_BULB*%
%TO.N,Net-(J1-GND_BULB)*%
X165540000Y-90360000D03*
D13*
%TO.P,J1,2,GND_LED*%
%TO.N,Net-(D1-A)*%
X163000000Y-90360000D03*
%TO.P,J1,3,LED_R3*%
%TO.N,Net-(D1-K)*%
X160460000Y-90360000D03*
%TO.P,J1,4,LED_R2*%
%TO.N,Net-(D2-K)*%
X157920000Y-90360000D03*
%TO.P,J1,5,LED_R1*%
%TO.N,Net-(D3-K)*%
X155380000Y-90360000D03*
%TO.P,J1,6,LED_Y*%
%TO.N,Net-(D4-K)*%
X152840000Y-90360000D03*
%TO.P,J1,7,LED_G5*%
%TO.N,Net-(D5-K)*%
X150300000Y-90360000D03*
%TO.P,J1,8,LED_G4*%
%TO.N,Net-(D6-K)*%
X147760000Y-90360000D03*
%TO.P,J1,9,LED_G3*%
%TO.N,Net-(D7-K)*%
X145220000Y-90360000D03*
%TO.P,J1,10,LED_G2*%
%TO.N,Net-(D8-K)*%
X142680000Y-90360000D03*
%TO.P,J1,11,LED_G1*%
%TO.N,Net-(D9-K)*%
X140140000Y-90360000D03*
%TO.P,J1,12,BULB_INSPECTION*%
%TO.N,Net-(J1-BULB_INSPECTION)*%
X137600000Y-90360000D03*
%TO.P,J1,13,BULB_OILSERVICE*%
%TO.N,Net-(J1-BULB_OILSERVICE)*%
X135060000Y-90360000D03*
%TD*%
D10*
%TO.P,D2,1,K*%
%TO.N,Net-(D2-K)*%
X167125000Y-85500000D03*
D11*
%TO.P,D2,2,A*%
%TO.N,Net-(D1-A)*%
X169665000Y-85500000D03*
%TD*%
D14*
%TO.N,Net-(D8-K)*%
X140095000Y-87775000D02*
X142680000Y-90360000D01*
X131125000Y-85500000D02*
X133400000Y-87775000D01*
X133400000Y-87775000D02*
X140095000Y-87775000D01*
%TO.N,Net-(D7-K)*%
X138525000Y-86900000D02*
X141760000Y-86900000D01*
X137125000Y-85500000D02*
X138525000Y-86900000D01*
X141760000Y-86900000D02*
X145220000Y-90360000D01*
%TO.N,Net-(D9-K)*%
X140140000Y-89763000D02*
X140140000Y-90360000D01*
X139041000Y-88664000D02*
X140140000Y-89763000D01*
X128289000Y-88664000D02*
X139041000Y-88664000D01*
X125125000Y-85500000D02*
X128289000Y-88664000D01*
%TO.N,Net-(D6-K)*%
X145518000Y-87775000D02*
X146788000Y-87775000D01*
X146788000Y-87775000D02*
X147760000Y-88747000D01*
X143243000Y-85500000D02*
X145518000Y-87775000D01*
X143125000Y-85500000D02*
X143243000Y-85500000D01*
X147760000Y-88747000D02*
X147760000Y-90360000D01*
%TO.N,Net-(D5-K)*%
X149125000Y-86898000D02*
X150300000Y-88073000D01*
X149125000Y-85500000D02*
X149125000Y-86898000D01*
X150300000Y-88073000D02*
X150300000Y-90360000D01*
%TO.N,Net-(D4-K)*%
X155125000Y-86169000D02*
X152840000Y-88454000D01*
X155125000Y-85500000D02*
X155125000Y-86169000D01*
X152840000Y-88454000D02*
X152840000Y-90360000D01*
%TO.N,Net-(D3-K)*%
X155633500Y-90360000D02*
X155380000Y-90360000D01*
X160493500Y-85500000D02*
X155633500Y-90360000D01*
X161125000Y-85500000D02*
X160493500Y-85500000D01*
%TO.N,Net-(D2-K)*%
X165104000Y-87521000D02*
X160759000Y-87521000D01*
X160759000Y-87521000D02*
X157920000Y-90360000D01*
X167125000Y-85500000D02*
X165104000Y-87521000D01*
%TO.N,Net-(D1-K)*%
X162028000Y-88537000D02*
X160460000Y-90105000D01*
X170088000Y-88537000D02*
X162028000Y-88537000D01*
X160460000Y-90105000D02*
X160460000Y-90360000D01*
X173125000Y-85500000D02*
X170088000Y-88537000D01*
D15*
%TO.N,Net-(J1-GND_BULB)*%
X174937000Y-90360000D02*
X165540000Y-90360000D01*
X175573000Y-81000000D02*
X177649000Y-83076000D01*
X162400000Y-79500000D02*
X163900000Y-81000000D01*
X163900000Y-81000000D02*
X175573000Y-81000000D01*
X162400000Y-76500000D02*
X162400000Y-79500000D01*
X177649000Y-87648000D02*
X174937000Y-90360000D01*
X160060000Y-74160000D02*
X162400000Y-76500000D01*
X158500000Y-74160000D02*
X160060000Y-74160000D01*
X177649000Y-83076000D02*
X177649000Y-87648000D01*
D16*
%TO.N,Net-(J1-BULB_INSPECTION)*%
X158500000Y-78400000D02*
X158500000Y-76700000D01*
X122900000Y-89500000D02*
X122900000Y-83500000D01*
X123900000Y-82500000D02*
X154400000Y-82500000D01*
X154400000Y-82500000D02*
X158500000Y-78400000D01*
X125747000Y-92347000D02*
X122900000Y-89500000D01*
X136374000Y-92347000D02*
X125747000Y-92347000D01*
X137600000Y-91121000D02*
X136374000Y-92347000D01*
X122900000Y-83500000D02*
X123900000Y-82500000D01*
X137600000Y-90360000D02*
X137600000Y-91121000D01*
D14*
%TO.N,Net-(D5-K)*%
X149125000Y-85500000D02*
X149150000Y-85525000D01*
D15*
%TO.N,Net-(J1-GND_BULB)*%
X142500000Y-74160000D02*
X158500000Y-74160000D01*
%TD*%
%TA.AperFunction,Conductor*%
%TO.N,Net-(J1-GND_BULB)*%
G36*
X142512541Y-73260930D02*
G01*
X142849378Y-73285924D01*
X142851372Y-73286249D01*
X143094682Y-73347869D01*
X143095683Y-73348171D01*
X143304805Y-73422000D01*
X143549606Y-73483999D01*
X143549610Y-73484000D01*
X143889166Y-73509196D01*
X143897163Y-73513226D01*
X143900000Y-73520864D01*
X143900000Y-74799135D01*
X143896573Y-74807408D01*
X143889166Y-74810803D01*
X143549607Y-74836000D01*
X143304800Y-74898000D01*
X143095694Y-74971823D01*
X143094671Y-74972132D01*
X142851378Y-75033749D01*
X142849372Y-75034075D01*
X142512552Y-75059068D01*
X142504048Y-75056263D01*
X142500018Y-75048266D01*
X142499986Y-75047413D01*
X142499000Y-74160026D01*
X142499000Y-74160000D01*
X142499986Y-73272586D01*
X142503422Y-73264317D01*
X142511699Y-73260899D01*
X142512541Y-73260930D01*
G37*
%TD.AperFunction*%
%TD*%
%TA.AperFunction,Conductor*%
%TO.N,Net-(J1-BULB_INSPECTION)*%
G36*
X159000000Y-78100000D02*
G01*
X159014151Y-77826853D01*
X159055714Y-77636644D01*
X159123351Y-77477450D01*
X159215722Y-77297348D01*
X159331492Y-77044415D01*
X158500000Y-76699000D01*
X157668508Y-77044415D01*
X157784276Y-77297348D01*
X157876648Y-77477450D01*
X157944284Y-77636644D01*
X157985848Y-77826853D01*
X158000000Y-78100000D01*
X159000000Y-78100000D01*
G37*
%TD.AperFunction*%
%TD*%
%TA.AperFunction,Conductor*%
%TO.N,Net-(J1-BULB_INSPECTION)*%
G36*
X137400652Y-92027454D02*
G01*
X137629388Y-91793112D01*
X137786956Y-91622178D01*
X137920801Y-91472381D01*
X138078369Y-91301448D01*
X138307107Y-91067107D01*
X137600707Y-90359293D01*
X136600000Y-90360000D01*
X136642478Y-90612385D01*
X136731176Y-90808210D01*
X136807990Y-90973876D01*
X136814815Y-91135788D01*
X136693546Y-91320348D01*
X137400652Y-92027454D01*
G37*
%TD.AperFunction*%
%TD*%
%TA.AperFunction,Conductor*%
%TO.N,Net-(J1-GND_BULB)*%
G36*
X167040000Y-89710000D02*
G01*
X166939999Y-89676619D01*
X166839999Y-89624928D01*
X166740000Y-89554928D01*
X166640000Y-89466619D01*
X166540000Y-89360000D01*
X165539000Y-90360000D01*
X166540000Y-91360000D01*
X166640000Y-91253380D01*
X166740000Y-91165071D01*
X166839999Y-91095071D01*
X166939999Y-91043380D01*
X167040000Y-91010000D01*
X167040000Y-89710000D01*
G37*
%TD.AperFunction*%
%TD*%
%TA.AperFunction,Conductor*%
%TO.N,Net-(J1-GND_BULB)*%
G36*
X159900000Y-73510000D02*
G01*
X159549610Y-73484000D01*
X159304805Y-73422000D01*
X159095194Y-73347999D01*
X158850389Y-73286000D01*
X158500000Y-73260000D01*
X158499000Y-74160000D01*
X158500000Y-75060000D01*
X158850389Y-75034000D01*
X159095194Y-74972000D01*
X159304805Y-74897999D01*
X159549610Y-74836000D01*
X159900000Y-74810000D01*
X159900000Y-73510000D01*
G37*
%TD.AperFunction*%
%TD*%
%TA.AperFunction,Conductor*%
%TO.N,Net-(J1-GND_BULB)*%
G36*
X157100000Y-74810000D02*
G01*
X157450389Y-74836000D01*
X157695194Y-74898000D01*
X157904805Y-74971999D01*
X158149610Y-75034000D01*
X158500000Y-75060000D01*
X158501000Y-74160000D01*
X158500000Y-73260000D01*
X158149610Y-73286000D01*
X157904805Y-73348000D01*
X157695194Y-73421999D01*
X157450389Y-73484000D01*
X157100000Y-73510000D01*
X157100000Y-74810000D01*
G37*
%TD.AperFunction*%
%TD*%
%TA.AperFunction,Conductor*%
%TO.N,Net-(D1-K)*%
G36*
X161155667Y-88985069D02*
G01*
X160936661Y-89169199D01*
X160753064Y-89257955D01*
X160571136Y-89299750D01*
X160357134Y-89342999D01*
X160077317Y-89436120D01*
X160459293Y-90360707D01*
X161460000Y-90360000D01*
X161439950Y-90109678D01*
X161404648Y-89915960D01*
X161391364Y-89752337D01*
X161437368Y-89592298D01*
X161579931Y-89409333D01*
X161155667Y-88985069D01*
G37*
%TD.AperFunction*%
%TD*%
%TA.AperFunction,Conductor*%
%TO.N,Net-(D1-K)*%
G36*
X172083579Y-86965685D02*
G01*
X172366421Y-86780547D01*
X172649264Y-86631410D01*
X172932106Y-86518274D01*
X173214949Y-86441137D01*
X173497792Y-86400000D01*
X173125707Y-85499293D01*
X172225000Y-85127208D01*
X172111862Y-85482050D01*
X171998725Y-85800893D01*
X171885589Y-86083735D01*
X171772452Y-86330578D01*
X171659315Y-86541421D01*
X172083579Y-86965685D01*
G37*
%TD.AperFunction*%
%TD*%
%TA.AperFunction,Conductor*%
%TO.N,Net-(D2-K)*%
G36*
X158768528Y-89087208D02*
G01*
X158523494Y-89273725D01*
X158309936Y-89334959D01*
X158095773Y-89337826D01*
X157848927Y-89349241D01*
X157537317Y-89436120D01*
X157919293Y-90360707D01*
X158843880Y-90742683D01*
X158930757Y-90431072D01*
X158942172Y-90184225D01*
X158945039Y-89970063D01*
X159006274Y-89756505D01*
X159192792Y-89511472D01*
X158768528Y-89087208D01*
G37*
%TD.AperFunction*%
%TD*%
%TA.AperFunction,Conductor*%
%TO.N,Net-(D2-K)*%
G36*
X166083579Y-86965685D02*
G01*
X166366421Y-86780547D01*
X166649264Y-86631410D01*
X166932106Y-86518274D01*
X167214949Y-86441137D01*
X167497792Y-86400000D01*
X167125707Y-85499293D01*
X166225000Y-85127208D01*
X166111862Y-85482050D01*
X165998725Y-85800893D01*
X165885589Y-86083735D01*
X165772452Y-86330578D01*
X165659315Y-86541421D01*
X166083579Y-86965685D01*
G37*
%TD.AperFunction*%
%TD*%
%TA.AperFunction,Conductor*%
%TO.N,Net-(D3-K)*%
G36*
X156330066Y-89239170D02*
G01*
X156147205Y-89381760D01*
X155987276Y-89427979D01*
X155823772Y-89414985D01*
X155630182Y-89379939D01*
X155380000Y-89360000D01*
X155379293Y-90360707D01*
X156303880Y-90742683D01*
X156396960Y-90462686D01*
X156440026Y-90248488D01*
X156481596Y-90066363D01*
X156570191Y-89882587D01*
X156754330Y-89663434D01*
X156330066Y-89239170D01*
G37*
%TD.AperFunction*%
%TD*%
%TA.AperFunction,Conductor*%
%TO.N,Net-(D3-K)*%
G36*
X160083579Y-86334185D02*
G01*
X160111863Y-86337988D01*
X160140147Y-86346472D01*
X160168431Y-86359635D01*
X160196715Y-86377478D01*
X160225000Y-86400000D01*
X161125707Y-85499293D01*
X160225000Y-84941675D01*
X160111862Y-85202606D01*
X159998725Y-85429897D01*
X159885589Y-85623546D01*
X159772452Y-85783554D01*
X159659315Y-85909921D01*
X160083579Y-86334185D01*
G37*
%TD.AperFunction*%
%TD*%
%TA.AperFunction,Conductor*%
%TO.N,Net-(D4-K)*%
G36*
X154752579Y-86965685D02*
G01*
X154941778Y-86786413D01*
X155130978Y-86640210D01*
X155320179Y-86527073D01*
X155509379Y-86447003D01*
X155698579Y-86400000D01*
X155125707Y-85499293D01*
X154225000Y-86400000D01*
X154245662Y-86417775D01*
X154266325Y-86440806D01*
X154286989Y-86469090D01*
X154307652Y-86502628D01*
X154328315Y-86541421D01*
X154752579Y-86965685D01*
G37*
%TD.AperFunction*%
%TD*%
%TA.AperFunction,Conductor*%
%TO.N,Net-(D4-K)*%
G36*
X152540000Y-88860000D02*
G01*
X152498622Y-89165152D01*
X152390913Y-89359460D01*
X152241504Y-89512923D01*
X152075028Y-89695542D01*
X151916120Y-89977317D01*
X152840000Y-90361000D01*
X153763880Y-89977317D01*
X153604970Y-89695542D01*
X153438495Y-89512923D01*
X153289086Y-89359460D01*
X153181377Y-89165152D01*
X153140000Y-88860000D01*
X152540000Y-88860000D01*
G37*
%TD.AperFunction*%
%TD*%
%TA.AperFunction,Conductor*%
%TO.N,Net-(D5-K)*%
G36*
X150000000Y-88860000D02*
G01*
X149958622Y-89165152D01*
X149850913Y-89359460D01*
X149701504Y-89512923D01*
X149535028Y-89695542D01*
X149376120Y-89977317D01*
X150300000Y-90361000D01*
X151223880Y-89977317D01*
X151064970Y-89695542D01*
X150898495Y-89512923D01*
X150749086Y-89359460D01*
X150641377Y-89165152D01*
X150600000Y-88860000D01*
X150000000Y-88860000D01*
G37*
%TD.AperFunction*%
%TD*%
%TA.AperFunction,Conductor*%
%TO.N,Net-(D5-K)*%
G36*
X149338546Y-86687283D02*
G01*
X149475836Y-86585177D01*
X149613127Y-86505396D01*
X149750418Y-86447940D01*
X149887709Y-86412807D01*
X150025000Y-86400000D01*
X149124293Y-85499293D01*
X148225657Y-86400000D01*
X148363382Y-86482897D01*
X148501107Y-86595500D01*
X148638832Y-86737809D01*
X148776557Y-86909824D01*
X148914283Y-87111546D01*
X149338546Y-86687283D01*
G37*
%TD.AperFunction*%
%TD*%
%TA.AperFunction,Conductor*%
%TO.N,Net-(D6-K)*%
G36*
X144590685Y-86423421D02*
G01*
X144477547Y-86230909D01*
X144364410Y-86002398D01*
X144251274Y-85737886D01*
X144138137Y-85437375D01*
X144025000Y-85100864D01*
X143124293Y-85499293D01*
X142778026Y-86400000D01*
X143055704Y-86417536D01*
X143333383Y-86471073D01*
X143611063Y-86560611D01*
X143888742Y-86686148D01*
X144166421Y-86847685D01*
X144590685Y-86423421D01*
G37*
%TD.AperFunction*%
%TD*%
%TA.AperFunction,Conductor*%
%TO.N,Net-(D6-K)*%
G36*
X147460000Y-88860000D02*
G01*
X147418622Y-89165152D01*
X147310913Y-89359460D01*
X147161504Y-89512923D01*
X146995028Y-89695542D01*
X146836120Y-89977317D01*
X147760000Y-90361000D01*
X148683880Y-89977317D01*
X148524970Y-89695542D01*
X148358495Y-89512923D01*
X148209086Y-89359460D01*
X148101377Y-89165152D01*
X148060000Y-88860000D01*
X147460000Y-88860000D01*
G37*
%TD.AperFunction*%
%TD*%
%TA.AperFunction,Conductor*%
%TO.N,Net-(D9-K)*%
G36*
X139238177Y-89285441D02*
G01*
X139374461Y-89491895D01*
X139368424Y-89673111D01*
X139284429Y-89858554D01*
X139186834Y-90077694D01*
X139140000Y-90360000D01*
X140140707Y-90360707D01*
X140847107Y-89652893D01*
X140578816Y-89425469D01*
X140357561Y-89301666D01*
X140151985Y-89212403D01*
X139930730Y-89088599D01*
X139662441Y-88861177D01*
X139238177Y-89285441D01*
G37*
%TD.AperFunction*%
%TD*%
%TA.AperFunction,Conductor*%
%TO.N,Net-(D9-K)*%
G36*
X126590685Y-86541421D02*
G01*
X126477547Y-86330578D01*
X126364410Y-86083735D01*
X126251274Y-85800893D01*
X126138137Y-85482050D01*
X126025000Y-85127208D01*
X125124293Y-85499293D01*
X124752208Y-86400000D01*
X125035050Y-86441137D01*
X125317893Y-86518274D01*
X125600735Y-86631410D01*
X125883578Y-86780547D01*
X126166421Y-86965685D01*
X126590685Y-86541421D01*
G37*
%TD.AperFunction*%
%TD*%
%TA.AperFunction,Conductor*%
%TO.N,Net-(D7-K)*%
G36*
X138590685Y-86541421D02*
G01*
X138477547Y-86330578D01*
X138364410Y-86083735D01*
X138251274Y-85800893D01*
X138138137Y-85482050D01*
X138025000Y-85127208D01*
X137124293Y-85499293D01*
X136752208Y-86400000D01*
X137035050Y-86441137D01*
X137317893Y-86518274D01*
X137600735Y-86631410D01*
X137883578Y-86780547D01*
X138166421Y-86965685D01*
X138590685Y-86541421D01*
G37*
%TD.AperFunction*%
%TD*%
%TA.AperFunction,Conductor*%
%TO.N,Net-(D7-K)*%
G36*
X143947208Y-89511472D02*
G01*
X144133725Y-89756505D01*
X144194959Y-89970063D01*
X144197826Y-90184225D01*
X144209241Y-90431072D01*
X144296120Y-90742683D01*
X145220707Y-90360707D01*
X145602683Y-89436120D01*
X145291072Y-89349241D01*
X145044225Y-89337826D01*
X144830063Y-89334959D01*
X144616505Y-89273725D01*
X144371472Y-89087208D01*
X143947208Y-89511472D01*
G37*
%TD.AperFunction*%
%TD*%
%TA.AperFunction,Conductor*%
%TO.N,Net-(D8-K)*%
G36*
X141407208Y-89511472D02*
G01*
X141593725Y-89756505D01*
X141654959Y-89970063D01*
X141657826Y-90184225D01*
X141669241Y-90431072D01*
X141756120Y-90742683D01*
X142680707Y-90360707D01*
X143062683Y-89436120D01*
X142751072Y-89349241D01*
X142504225Y-89337826D01*
X142290063Y-89334959D01*
X142076505Y-89273725D01*
X141831472Y-89087208D01*
X141407208Y-89511472D01*
G37*
%TD.AperFunction*%
%TD*%
%TA.AperFunction,Conductor*%
%TO.N,Net-(D8-K)*%
G36*
X132590685Y-86541421D02*
G01*
X132477547Y-86330578D01*
X132364410Y-86083735D01*
X132251274Y-85800893D01*
X132138137Y-85482050D01*
X132025000Y-85127208D01*
X131124293Y-85499293D01*
X130752208Y-86400000D01*
X131035050Y-86441137D01*
X131317893Y-86518274D01*
X131600735Y-86631410D01*
X131883578Y-86780547D01*
X132166421Y-86965685D01*
X132590685Y-86541421D01*
G37*
%TD.AperFunction*%
%TD*%
D17*
X149125000Y-85500000D03*
X151665000Y-85500000D03*
X125125000Y-85500000D03*
X127665000Y-85500000D03*
X173125000Y-85500000D03*
X175665000Y-85500000D03*
X155125000Y-85500000D03*
X157665000Y-85500000D03*
X143125000Y-85500000D03*
X145665000Y-85500000D03*
X137125000Y-85500000D03*
X139665000Y-85500000D03*
X131125000Y-85500000D03*
X133665000Y-85500000D03*
X158500000Y-76700000D03*
X158500000Y-74160000D03*
X142500000Y-74160000D03*
X142500000Y-76700000D03*
X161125000Y-85500000D03*
X163665000Y-85500000D03*
X150300000Y-78000000D03*
X165540000Y-90360000D03*
X163000000Y-90360000D03*
X160460000Y-90360000D03*
X157920000Y-90360000D03*
X155380000Y-90360000D03*
X152840000Y-90360000D03*
X150300000Y-90360000D03*
X147760000Y-90360000D03*
X145220000Y-90360000D03*
X142680000Y-90360000D03*
X140140000Y-90360000D03*
X137600000Y-90360000D03*
X135060000Y-90360000D03*
X167125000Y-85500000D03*
X169665000Y-85500000D03*
M02*
