M48
METRIC,TZ
T1C0.900
T2C1.000
%
G90
G05
T1
X125035Y-86000
X127575Y-86000
X131035Y-86000
X133575Y-86000
X137035Y-86000
X139575Y-86000
X142500Y-74160
X142500Y-76700
X143035Y-86000
X145575Y-86000
X149035Y-86000
X151575Y-86000
X155035Y-86000
X157575Y-86000
X158500Y-74160
X158500Y-76700
X161035Y-86000
X163575Y-86000
X167035Y-86000
X169575Y-86000
X173035Y-86000
X175575Y-86000
T2
X135060Y-90360
X137600Y-90360
X140140Y-90360
X142680Y-90360
X145220Y-90360
X147760Y-90360
X150300Y-90360
X152840Y-90360
X155380Y-90360
X157920Y-90360
X160460Y-90360
X163000Y-90360
X165540Y-90360
M30
