%TF.GenerationSoftware,KiCad,Pcbnew,8.0.1*%
%TF.CreationDate,2024-06-22T15:15:02+02:00*%
%TF.ProjectId,BMW E30 VFL SI Indicator,424d5720-4533-4302-9056-464c20534920,rev?*%
%TF.SameCoordinates,Original*%
%TF.FileFunction,Legend,Top*%
%TF.FilePolarity,Positive*%
%FSLAX46Y46*%
G04 Gerber Fmt 4.6, Leading zero omitted, Abs format (unit mm)*
G04 Created by KiCad (PCBNEW 8.0.1) date 2024-06-22 15:15:02*
%MOMM*%
%LPD*%
G01*
G04 APERTURE LIST*
%ADD10C,0.300000*%
%ADD11C,0.120000*%
%ADD12C,0.350000*%
G04 APERTURE END LIST*
D10*
G36*
X168634691Y-81991680D02*
G01*
X168673357Y-82028671D01*
X168720031Y-82118568D01*
X168721733Y-82262339D01*
X168678800Y-82351581D01*
X168641809Y-82390246D01*
X168552351Y-82436693D01*
X168371966Y-82437558D01*
X168366402Y-82436577D01*
X168361748Y-82437608D01*
X168160885Y-82438571D01*
X168159964Y-81950120D01*
X168544469Y-81948275D01*
X168634691Y-81991680D01*
G37*
G36*
X169186320Y-83617460D02*
G01*
X167695843Y-83617460D01*
X167695843Y-81800828D01*
X167862510Y-81800828D01*
X167865392Y-83330092D01*
X167887790Y-83384164D01*
X167929174Y-83425548D01*
X167983246Y-83447946D01*
X168041774Y-83447946D01*
X168095846Y-83425548D01*
X168137230Y-83384164D01*
X168159628Y-83330092D01*
X168162510Y-83300828D01*
X168161445Y-82735827D01*
X168290918Y-82735206D01*
X168765911Y-83409169D01*
X168815268Y-83440622D01*
X168872904Y-83450793D01*
X168930046Y-83438134D01*
X168977994Y-83404570D01*
X169009447Y-83355213D01*
X169019618Y-83297577D01*
X169006959Y-83240435D01*
X168992538Y-83214809D01*
X168645732Y-82722729D01*
X168651021Y-82720706D01*
X168793562Y-82646697D01*
X168810131Y-82639835D01*
X168815901Y-82635099D01*
X168818764Y-82633613D01*
X168821360Y-82630619D01*
X168832862Y-82621180D01*
X168904763Y-82546024D01*
X168916724Y-82535652D01*
X168920641Y-82529428D01*
X168922946Y-82527020D01*
X168924462Y-82523358D01*
X168932389Y-82510767D01*
X168992295Y-82386241D01*
X168994373Y-82384164D01*
X169001051Y-82368041D01*
X169014327Y-82340446D01*
X169014708Y-82335070D01*
X169016771Y-82330092D01*
X169019653Y-82300828D01*
X169017378Y-82108594D01*
X169018475Y-82105304D01*
X169017112Y-82086125D01*
X169016771Y-82057278D01*
X169014708Y-82052299D01*
X169014327Y-82046924D01*
X169003817Y-82019461D01*
X168929808Y-81876918D01*
X168922945Y-81860349D01*
X168918209Y-81854578D01*
X168916724Y-81851718D01*
X168913732Y-81849123D01*
X168904290Y-81837618D01*
X168829143Y-81765725D01*
X168818764Y-81753758D01*
X168812535Y-81749837D01*
X168810130Y-81747536D01*
X168806473Y-81746021D01*
X168793878Y-81738093D01*
X168669353Y-81678186D01*
X168667275Y-81676108D01*
X168651143Y-81669426D01*
X168623558Y-81656155D01*
X168618183Y-81655773D01*
X168613203Y-81653710D01*
X168583939Y-81650828D01*
X167983246Y-81653710D01*
X167929174Y-81676108D01*
X167887790Y-81717492D01*
X167865392Y-81771564D01*
X167862510Y-81800828D01*
X167695843Y-81800828D01*
X167695843Y-81484161D01*
X169186320Y-81484161D01*
X169186320Y-83617460D01*
G37*
G36*
X133086320Y-83617495D02*
G01*
X131524415Y-83617495D01*
X131524415Y-82443685D01*
X131691082Y-82443685D01*
X131693523Y-82650042D01*
X131691259Y-82665262D01*
X131693916Y-82683232D01*
X131693964Y-82687235D01*
X131694811Y-82689279D01*
X131695561Y-82694351D01*
X131766818Y-82968971D01*
X131767837Y-82983304D01*
X131776225Y-83005224D01*
X131776882Y-83007756D01*
X131777526Y-83008626D01*
X131778346Y-83010767D01*
X131852356Y-83153310D01*
X131859218Y-83169877D01*
X131863953Y-83175647D01*
X131865440Y-83178510D01*
X131868433Y-83181106D01*
X131877873Y-83192608D01*
X132006790Y-83318353D01*
X132008297Y-83321367D01*
X132022582Y-83333757D01*
X132043460Y-83354121D01*
X132048439Y-83356183D01*
X132052511Y-83359715D01*
X132079362Y-83371703D01*
X132293991Y-83440561D01*
X132311818Y-83447946D01*
X132319306Y-83448683D01*
X132322322Y-83449651D01*
X132326276Y-83449369D01*
X132341082Y-83450828D01*
X132485289Y-83448413D01*
X132502699Y-83449651D01*
X132509958Y-83448000D01*
X132513203Y-83447946D01*
X132516860Y-83446430D01*
X132531373Y-83443131D01*
X132723936Y-83376518D01*
X132727489Y-83376518D01*
X132745483Y-83369064D01*
X132772510Y-83359715D01*
X132776583Y-83356181D01*
X132781561Y-83354120D01*
X132804292Y-83335465D01*
X132894374Y-83241306D01*
X132914545Y-83192608D01*
X132916771Y-83187235D01*
X132919653Y-83157971D01*
X132916771Y-82628707D01*
X132894373Y-82574635D01*
X132852989Y-82533251D01*
X132798917Y-82510853D01*
X132769653Y-82507971D01*
X132454675Y-82510853D01*
X132400603Y-82533251D01*
X132359219Y-82574635D01*
X132336821Y-82628707D01*
X132336821Y-82687235D01*
X132359219Y-82741307D01*
X132400603Y-82782691D01*
X132454675Y-82805089D01*
X132483939Y-82807971D01*
X132620462Y-82806721D01*
X132622034Y-83095338D01*
X132619594Y-83097888D01*
X132465674Y-83151133D01*
X132370447Y-83152728D01*
X132210332Y-83101359D01*
X132109623Y-83003127D01*
X132056192Y-82900220D01*
X131990974Y-82648873D01*
X131988865Y-82470660D01*
X132049225Y-82219749D01*
X132103108Y-82107746D01*
X132204071Y-82004236D01*
X132359075Y-81950615D01*
X132516879Y-81948747D01*
X132658606Y-82016930D01*
X132716986Y-82021079D01*
X132772508Y-82002572D01*
X132816724Y-81964225D01*
X132842898Y-81911876D01*
X132847047Y-81853496D01*
X132828539Y-81797973D01*
X132790193Y-81753758D01*
X132765307Y-81738093D01*
X132640782Y-81678186D01*
X132638704Y-81676108D01*
X132622572Y-81669426D01*
X132594987Y-81656155D01*
X132589612Y-81655773D01*
X132584632Y-81653710D01*
X132555368Y-81650828D01*
X132341376Y-81653360D01*
X132322321Y-81652006D01*
X132314992Y-81653672D01*
X132311818Y-81653710D01*
X132308156Y-81655226D01*
X132293647Y-81658526D01*
X132101087Y-81725139D01*
X132097533Y-81725139D01*
X132079524Y-81732598D01*
X132052511Y-81741943D01*
X132048441Y-81745472D01*
X132043460Y-81747536D01*
X132020730Y-81766191D01*
X131879708Y-81910771D01*
X131865440Y-81923146D01*
X131861439Y-81929501D01*
X131859218Y-81931779D01*
X131857702Y-81935438D01*
X131849775Y-81948032D01*
X131784632Y-82083439D01*
X131776882Y-82093900D01*
X131769038Y-82115854D01*
X131767837Y-82118352D01*
X131767760Y-82119432D01*
X131766989Y-82121591D01*
X131700120Y-82399559D01*
X131693964Y-82414421D01*
X131692175Y-82432586D01*
X131691259Y-82436394D01*
X131691584Y-82438581D01*
X131691082Y-82443685D01*
X131524415Y-82443685D01*
X131524415Y-81484161D01*
X133086320Y-81484161D01*
X133086320Y-83617495D01*
G37*
G36*
X145086320Y-83617495D02*
G01*
X143524415Y-83617495D01*
X143524415Y-82443685D01*
X143691082Y-82443685D01*
X143693523Y-82650042D01*
X143691259Y-82665262D01*
X143693916Y-82683232D01*
X143693964Y-82687235D01*
X143694811Y-82689279D01*
X143695561Y-82694351D01*
X143766818Y-82968971D01*
X143767837Y-82983304D01*
X143776225Y-83005224D01*
X143776882Y-83007756D01*
X143777526Y-83008626D01*
X143778346Y-83010767D01*
X143852356Y-83153310D01*
X143859218Y-83169877D01*
X143863953Y-83175647D01*
X143865440Y-83178510D01*
X143868433Y-83181106D01*
X143877873Y-83192608D01*
X144006790Y-83318353D01*
X144008297Y-83321367D01*
X144022582Y-83333757D01*
X144043460Y-83354121D01*
X144048439Y-83356183D01*
X144052511Y-83359715D01*
X144079362Y-83371703D01*
X144293991Y-83440561D01*
X144311818Y-83447946D01*
X144319306Y-83448683D01*
X144322322Y-83449651D01*
X144326276Y-83449369D01*
X144341082Y-83450828D01*
X144485289Y-83448413D01*
X144502699Y-83449651D01*
X144509958Y-83448000D01*
X144513203Y-83447946D01*
X144516860Y-83446430D01*
X144531373Y-83443131D01*
X144723936Y-83376518D01*
X144727489Y-83376518D01*
X144745483Y-83369064D01*
X144772510Y-83359715D01*
X144776583Y-83356181D01*
X144781561Y-83354120D01*
X144804292Y-83335465D01*
X144894374Y-83241306D01*
X144914545Y-83192608D01*
X144916771Y-83187235D01*
X144919653Y-83157971D01*
X144916771Y-82628707D01*
X144894373Y-82574635D01*
X144852989Y-82533251D01*
X144798917Y-82510853D01*
X144769653Y-82507971D01*
X144454675Y-82510853D01*
X144400603Y-82533251D01*
X144359219Y-82574635D01*
X144336821Y-82628707D01*
X144336821Y-82687235D01*
X144359219Y-82741307D01*
X144400603Y-82782691D01*
X144454675Y-82805089D01*
X144483939Y-82807971D01*
X144620462Y-82806721D01*
X144622034Y-83095338D01*
X144619594Y-83097888D01*
X144465674Y-83151133D01*
X144370447Y-83152728D01*
X144210332Y-83101359D01*
X144109623Y-83003127D01*
X144056192Y-82900220D01*
X143990974Y-82648873D01*
X143988865Y-82470660D01*
X144049225Y-82219749D01*
X144103108Y-82107746D01*
X144204071Y-82004236D01*
X144359075Y-81950615D01*
X144516879Y-81948747D01*
X144658606Y-82016930D01*
X144716986Y-82021079D01*
X144772508Y-82002572D01*
X144816724Y-81964225D01*
X144842898Y-81911876D01*
X144847047Y-81853496D01*
X144828539Y-81797973D01*
X144790193Y-81753758D01*
X144765307Y-81738093D01*
X144640782Y-81678186D01*
X144638704Y-81676108D01*
X144622572Y-81669426D01*
X144594987Y-81656155D01*
X144589612Y-81655773D01*
X144584632Y-81653710D01*
X144555368Y-81650828D01*
X144341376Y-81653360D01*
X144322321Y-81652006D01*
X144314992Y-81653672D01*
X144311818Y-81653710D01*
X144308156Y-81655226D01*
X144293647Y-81658526D01*
X144101087Y-81725139D01*
X144097533Y-81725139D01*
X144079524Y-81732598D01*
X144052511Y-81741943D01*
X144048441Y-81745472D01*
X144043460Y-81747536D01*
X144020730Y-81766191D01*
X143879708Y-81910771D01*
X143865440Y-81923146D01*
X143861439Y-81929501D01*
X143859218Y-81931779D01*
X143857702Y-81935438D01*
X143849775Y-81948032D01*
X143784632Y-82083439D01*
X143776882Y-82093900D01*
X143769038Y-82115854D01*
X143767837Y-82118352D01*
X143767760Y-82119432D01*
X143766989Y-82121591D01*
X143700120Y-82399559D01*
X143693964Y-82414421D01*
X143692175Y-82432586D01*
X143691259Y-82436394D01*
X143691584Y-82438581D01*
X143691082Y-82443685D01*
X143524415Y-82443685D01*
X143524415Y-81484161D01*
X145086320Y-81484161D01*
X145086320Y-83617495D01*
G37*
G36*
X139086320Y-83617495D02*
G01*
X137524415Y-83617495D01*
X137524415Y-82443685D01*
X137691082Y-82443685D01*
X137693523Y-82650042D01*
X137691259Y-82665262D01*
X137693916Y-82683232D01*
X137693964Y-82687235D01*
X137694811Y-82689279D01*
X137695561Y-82694351D01*
X137766818Y-82968971D01*
X137767837Y-82983304D01*
X137776225Y-83005224D01*
X137776882Y-83007756D01*
X137777526Y-83008626D01*
X137778346Y-83010767D01*
X137852356Y-83153310D01*
X137859218Y-83169877D01*
X137863953Y-83175647D01*
X137865440Y-83178510D01*
X137868433Y-83181106D01*
X137877873Y-83192608D01*
X138006790Y-83318353D01*
X138008297Y-83321367D01*
X138022582Y-83333757D01*
X138043460Y-83354121D01*
X138048439Y-83356183D01*
X138052511Y-83359715D01*
X138079362Y-83371703D01*
X138293991Y-83440561D01*
X138311818Y-83447946D01*
X138319306Y-83448683D01*
X138322322Y-83449651D01*
X138326276Y-83449369D01*
X138341082Y-83450828D01*
X138485289Y-83448413D01*
X138502699Y-83449651D01*
X138509958Y-83448000D01*
X138513203Y-83447946D01*
X138516860Y-83446430D01*
X138531373Y-83443131D01*
X138723936Y-83376518D01*
X138727489Y-83376518D01*
X138745483Y-83369064D01*
X138772510Y-83359715D01*
X138776583Y-83356181D01*
X138781561Y-83354120D01*
X138804292Y-83335465D01*
X138894374Y-83241306D01*
X138914545Y-83192608D01*
X138916771Y-83187235D01*
X138919653Y-83157971D01*
X138916771Y-82628707D01*
X138894373Y-82574635D01*
X138852989Y-82533251D01*
X138798917Y-82510853D01*
X138769653Y-82507971D01*
X138454675Y-82510853D01*
X138400603Y-82533251D01*
X138359219Y-82574635D01*
X138336821Y-82628707D01*
X138336821Y-82687235D01*
X138359219Y-82741307D01*
X138400603Y-82782691D01*
X138454675Y-82805089D01*
X138483939Y-82807971D01*
X138620462Y-82806721D01*
X138622034Y-83095338D01*
X138619594Y-83097888D01*
X138465674Y-83151133D01*
X138370447Y-83152728D01*
X138210332Y-83101359D01*
X138109623Y-83003127D01*
X138056192Y-82900220D01*
X137990974Y-82648873D01*
X137988865Y-82470660D01*
X138049225Y-82219749D01*
X138103108Y-82107746D01*
X138204071Y-82004236D01*
X138359075Y-81950615D01*
X138516879Y-81948747D01*
X138658606Y-82016930D01*
X138716986Y-82021079D01*
X138772508Y-82002572D01*
X138816724Y-81964225D01*
X138842898Y-81911876D01*
X138847047Y-81853496D01*
X138828539Y-81797973D01*
X138790193Y-81753758D01*
X138765307Y-81738093D01*
X138640782Y-81678186D01*
X138638704Y-81676108D01*
X138622572Y-81669426D01*
X138594987Y-81656155D01*
X138589612Y-81655773D01*
X138584632Y-81653710D01*
X138555368Y-81650828D01*
X138341376Y-81653360D01*
X138322321Y-81652006D01*
X138314992Y-81653672D01*
X138311818Y-81653710D01*
X138308156Y-81655226D01*
X138293647Y-81658526D01*
X138101087Y-81725139D01*
X138097533Y-81725139D01*
X138079524Y-81732598D01*
X138052511Y-81741943D01*
X138048441Y-81745472D01*
X138043460Y-81747536D01*
X138020730Y-81766191D01*
X137879708Y-81910771D01*
X137865440Y-81923146D01*
X137861439Y-81929501D01*
X137859218Y-81931779D01*
X137857702Y-81935438D01*
X137849775Y-81948032D01*
X137784632Y-82083439D01*
X137776882Y-82093900D01*
X137769038Y-82115854D01*
X137767837Y-82118352D01*
X137767760Y-82119432D01*
X137766989Y-82121591D01*
X137700120Y-82399559D01*
X137693964Y-82414421D01*
X137692175Y-82432586D01*
X137691259Y-82436394D01*
X137691584Y-82438581D01*
X137691082Y-82443685D01*
X137524415Y-82443685D01*
X137524415Y-81484161D01*
X139086320Y-81484161D01*
X139086320Y-83617495D01*
G37*
G36*
X151086320Y-83617495D02*
G01*
X149524415Y-83617495D01*
X149524415Y-82443685D01*
X149691082Y-82443685D01*
X149693523Y-82650042D01*
X149691259Y-82665262D01*
X149693916Y-82683232D01*
X149693964Y-82687235D01*
X149694811Y-82689279D01*
X149695561Y-82694351D01*
X149766818Y-82968971D01*
X149767837Y-82983304D01*
X149776225Y-83005224D01*
X149776882Y-83007756D01*
X149777526Y-83008626D01*
X149778346Y-83010767D01*
X149852356Y-83153310D01*
X149859218Y-83169877D01*
X149863953Y-83175647D01*
X149865440Y-83178510D01*
X149868433Y-83181106D01*
X149877873Y-83192608D01*
X150006790Y-83318353D01*
X150008297Y-83321367D01*
X150022582Y-83333757D01*
X150043460Y-83354121D01*
X150048439Y-83356183D01*
X150052511Y-83359715D01*
X150079362Y-83371703D01*
X150293991Y-83440561D01*
X150311818Y-83447946D01*
X150319306Y-83448683D01*
X150322322Y-83449651D01*
X150326276Y-83449369D01*
X150341082Y-83450828D01*
X150485289Y-83448413D01*
X150502699Y-83449651D01*
X150509958Y-83448000D01*
X150513203Y-83447946D01*
X150516860Y-83446430D01*
X150531373Y-83443131D01*
X150723936Y-83376518D01*
X150727489Y-83376518D01*
X150745483Y-83369064D01*
X150772510Y-83359715D01*
X150776583Y-83356181D01*
X150781561Y-83354120D01*
X150804292Y-83335465D01*
X150894374Y-83241306D01*
X150914545Y-83192608D01*
X150916771Y-83187235D01*
X150919653Y-83157971D01*
X150916771Y-82628707D01*
X150894373Y-82574635D01*
X150852989Y-82533251D01*
X150798917Y-82510853D01*
X150769653Y-82507971D01*
X150454675Y-82510853D01*
X150400603Y-82533251D01*
X150359219Y-82574635D01*
X150336821Y-82628707D01*
X150336821Y-82687235D01*
X150359219Y-82741307D01*
X150400603Y-82782691D01*
X150454675Y-82805089D01*
X150483939Y-82807971D01*
X150620462Y-82806721D01*
X150622034Y-83095338D01*
X150619594Y-83097888D01*
X150465674Y-83151133D01*
X150370447Y-83152728D01*
X150210332Y-83101359D01*
X150109623Y-83003127D01*
X150056192Y-82900220D01*
X149990974Y-82648873D01*
X149988865Y-82470660D01*
X150049225Y-82219749D01*
X150103108Y-82107746D01*
X150204071Y-82004236D01*
X150359075Y-81950615D01*
X150516879Y-81948747D01*
X150658606Y-82016930D01*
X150716986Y-82021079D01*
X150772508Y-82002572D01*
X150816724Y-81964225D01*
X150842898Y-81911876D01*
X150847047Y-81853496D01*
X150828539Y-81797973D01*
X150790193Y-81753758D01*
X150765307Y-81738093D01*
X150640782Y-81678186D01*
X150638704Y-81676108D01*
X150622572Y-81669426D01*
X150594987Y-81656155D01*
X150589612Y-81655773D01*
X150584632Y-81653710D01*
X150555368Y-81650828D01*
X150341376Y-81653360D01*
X150322321Y-81652006D01*
X150314992Y-81653672D01*
X150311818Y-81653710D01*
X150308156Y-81655226D01*
X150293647Y-81658526D01*
X150101087Y-81725139D01*
X150097533Y-81725139D01*
X150079524Y-81732598D01*
X150052511Y-81741943D01*
X150048441Y-81745472D01*
X150043460Y-81747536D01*
X150020730Y-81766191D01*
X149879708Y-81910771D01*
X149865440Y-81923146D01*
X149861439Y-81929501D01*
X149859218Y-81931779D01*
X149857702Y-81935438D01*
X149849775Y-81948032D01*
X149784632Y-82083439D01*
X149776882Y-82093900D01*
X149769038Y-82115854D01*
X149767837Y-82118352D01*
X149767760Y-82119432D01*
X149766989Y-82121591D01*
X149700120Y-82399559D01*
X149693964Y-82414421D01*
X149692175Y-82432586D01*
X149691259Y-82436394D01*
X149691584Y-82438581D01*
X149691082Y-82443685D01*
X149524415Y-82443685D01*
X149524415Y-81484161D01*
X151086320Y-81484161D01*
X151086320Y-83617495D01*
G37*
G36*
X157114854Y-83614613D02*
G01*
X155481595Y-83614613D01*
X155481595Y-81797480D01*
X155648262Y-81797480D01*
X155658396Y-81855123D01*
X155671676Y-81881359D01*
X156148376Y-82625521D01*
X156151107Y-83330092D01*
X156173505Y-83384164D01*
X156214889Y-83425548D01*
X156268961Y-83447946D01*
X156327489Y-83447946D01*
X156381561Y-83425548D01*
X156422945Y-83384164D01*
X156445343Y-83330092D01*
X156448225Y-83300828D01*
X156445640Y-82634064D01*
X156938054Y-81855123D01*
X156948187Y-81797480D01*
X156935491Y-81740348D01*
X156901898Y-81692422D01*
X156852520Y-81660999D01*
X156794877Y-81650866D01*
X156737744Y-81663562D01*
X156689818Y-81697155D01*
X156671676Y-81720297D01*
X156299050Y-82309747D01*
X155906632Y-81697155D01*
X155858705Y-81663562D01*
X155801573Y-81650865D01*
X155743930Y-81660999D01*
X155694552Y-81692421D01*
X155660959Y-81740348D01*
X155648262Y-81797480D01*
X155481595Y-81797480D01*
X155481595Y-81484198D01*
X157114854Y-81484198D01*
X157114854Y-83614613D01*
G37*
G36*
X174634691Y-81991680D02*
G01*
X174673357Y-82028671D01*
X174720031Y-82118568D01*
X174721733Y-82262339D01*
X174678800Y-82351581D01*
X174641809Y-82390246D01*
X174552351Y-82436693D01*
X174371966Y-82437558D01*
X174366402Y-82436577D01*
X174361748Y-82437608D01*
X174160885Y-82438571D01*
X174159964Y-81950120D01*
X174544469Y-81948275D01*
X174634691Y-81991680D01*
G37*
G36*
X175186320Y-83617460D02*
G01*
X173695843Y-83617460D01*
X173695843Y-81800828D01*
X173862510Y-81800828D01*
X173865392Y-83330092D01*
X173887790Y-83384164D01*
X173929174Y-83425548D01*
X173983246Y-83447946D01*
X174041774Y-83447946D01*
X174095846Y-83425548D01*
X174137230Y-83384164D01*
X174159628Y-83330092D01*
X174162510Y-83300828D01*
X174161445Y-82735827D01*
X174290918Y-82735206D01*
X174765911Y-83409169D01*
X174815268Y-83440622D01*
X174872904Y-83450793D01*
X174930046Y-83438134D01*
X174977994Y-83404570D01*
X175009447Y-83355213D01*
X175019618Y-83297577D01*
X175006959Y-83240435D01*
X174992538Y-83214809D01*
X174645732Y-82722729D01*
X174651021Y-82720706D01*
X174793562Y-82646697D01*
X174810131Y-82639835D01*
X174815901Y-82635099D01*
X174818764Y-82633613D01*
X174821360Y-82630619D01*
X174832862Y-82621180D01*
X174904763Y-82546024D01*
X174916724Y-82535652D01*
X174920641Y-82529428D01*
X174922946Y-82527020D01*
X174924462Y-82523358D01*
X174932389Y-82510767D01*
X174992295Y-82386241D01*
X174994373Y-82384164D01*
X175001051Y-82368041D01*
X175014327Y-82340446D01*
X175014708Y-82335070D01*
X175016771Y-82330092D01*
X175019653Y-82300828D01*
X175017378Y-82108594D01*
X175018475Y-82105304D01*
X175017112Y-82086125D01*
X175016771Y-82057278D01*
X175014708Y-82052299D01*
X175014327Y-82046924D01*
X175003817Y-82019461D01*
X174929808Y-81876918D01*
X174922945Y-81860349D01*
X174918209Y-81854578D01*
X174916724Y-81851718D01*
X174913732Y-81849123D01*
X174904290Y-81837618D01*
X174829143Y-81765725D01*
X174818764Y-81753758D01*
X174812535Y-81749837D01*
X174810130Y-81747536D01*
X174806473Y-81746021D01*
X174793878Y-81738093D01*
X174669353Y-81678186D01*
X174667275Y-81676108D01*
X174651143Y-81669426D01*
X174623558Y-81656155D01*
X174618183Y-81655773D01*
X174613203Y-81653710D01*
X174583939Y-81650828D01*
X173983246Y-81653710D01*
X173929174Y-81676108D01*
X173887790Y-81717492D01*
X173865392Y-81771564D01*
X173862510Y-81800828D01*
X173695843Y-81800828D01*
X173695843Y-81484161D01*
X175186320Y-81484161D01*
X175186320Y-83617460D01*
G37*
G36*
X127086320Y-83617495D02*
G01*
X125524415Y-83617495D01*
X125524415Y-82443685D01*
X125691082Y-82443685D01*
X125693523Y-82650042D01*
X125691259Y-82665262D01*
X125693916Y-82683232D01*
X125693964Y-82687235D01*
X125694811Y-82689279D01*
X125695561Y-82694351D01*
X125766818Y-82968971D01*
X125767837Y-82983304D01*
X125776225Y-83005224D01*
X125776882Y-83007756D01*
X125777526Y-83008626D01*
X125778346Y-83010767D01*
X125852356Y-83153310D01*
X125859218Y-83169877D01*
X125863953Y-83175647D01*
X125865440Y-83178510D01*
X125868433Y-83181106D01*
X125877873Y-83192608D01*
X126006790Y-83318353D01*
X126008297Y-83321367D01*
X126022582Y-83333757D01*
X126043460Y-83354121D01*
X126048439Y-83356183D01*
X126052511Y-83359715D01*
X126079362Y-83371703D01*
X126293991Y-83440561D01*
X126311818Y-83447946D01*
X126319306Y-83448683D01*
X126322322Y-83449651D01*
X126326276Y-83449369D01*
X126341082Y-83450828D01*
X126485289Y-83448413D01*
X126502699Y-83449651D01*
X126509958Y-83448000D01*
X126513203Y-83447946D01*
X126516860Y-83446430D01*
X126531373Y-83443131D01*
X126723936Y-83376518D01*
X126727489Y-83376518D01*
X126745483Y-83369064D01*
X126772510Y-83359715D01*
X126776583Y-83356181D01*
X126781561Y-83354120D01*
X126804292Y-83335465D01*
X126894374Y-83241306D01*
X126914545Y-83192608D01*
X126916771Y-83187235D01*
X126919653Y-83157971D01*
X126916771Y-82628707D01*
X126894373Y-82574635D01*
X126852989Y-82533251D01*
X126798917Y-82510853D01*
X126769653Y-82507971D01*
X126454675Y-82510853D01*
X126400603Y-82533251D01*
X126359219Y-82574635D01*
X126336821Y-82628707D01*
X126336821Y-82687235D01*
X126359219Y-82741307D01*
X126400603Y-82782691D01*
X126454675Y-82805089D01*
X126483939Y-82807971D01*
X126620462Y-82806721D01*
X126622034Y-83095338D01*
X126619594Y-83097888D01*
X126465674Y-83151133D01*
X126370447Y-83152728D01*
X126210332Y-83101359D01*
X126109623Y-83003127D01*
X126056192Y-82900220D01*
X125990974Y-82648873D01*
X125988865Y-82470660D01*
X126049225Y-82219749D01*
X126103108Y-82107746D01*
X126204071Y-82004236D01*
X126359075Y-81950615D01*
X126516879Y-81948747D01*
X126658606Y-82016930D01*
X126716986Y-82021079D01*
X126772508Y-82002572D01*
X126816724Y-81964225D01*
X126842898Y-81911876D01*
X126847047Y-81853496D01*
X126828539Y-81797973D01*
X126790193Y-81753758D01*
X126765307Y-81738093D01*
X126640782Y-81678186D01*
X126638704Y-81676108D01*
X126622572Y-81669426D01*
X126594987Y-81656155D01*
X126589612Y-81655773D01*
X126584632Y-81653710D01*
X126555368Y-81650828D01*
X126341376Y-81653360D01*
X126322321Y-81652006D01*
X126314992Y-81653672D01*
X126311818Y-81653710D01*
X126308156Y-81655226D01*
X126293647Y-81658526D01*
X126101087Y-81725139D01*
X126097533Y-81725139D01*
X126079524Y-81732598D01*
X126052511Y-81741943D01*
X126048441Y-81745472D01*
X126043460Y-81747536D01*
X126020730Y-81766191D01*
X125879708Y-81910771D01*
X125865440Y-81923146D01*
X125861439Y-81929501D01*
X125859218Y-81931779D01*
X125857702Y-81935438D01*
X125849775Y-81948032D01*
X125784632Y-82083439D01*
X125776882Y-82093900D01*
X125769038Y-82115854D01*
X125767837Y-82118352D01*
X125767760Y-82119432D01*
X125766989Y-82121591D01*
X125700120Y-82399559D01*
X125693964Y-82414421D01*
X125692175Y-82432586D01*
X125691259Y-82436394D01*
X125691584Y-82438581D01*
X125691082Y-82443685D01*
X125524415Y-82443685D01*
X125524415Y-81484161D01*
X127086320Y-81484161D01*
X127086320Y-83617495D01*
G37*
G36*
X162634691Y-81991680D02*
G01*
X162673357Y-82028671D01*
X162720031Y-82118568D01*
X162721733Y-82262339D01*
X162678800Y-82351581D01*
X162641809Y-82390246D01*
X162552351Y-82436693D01*
X162371966Y-82437558D01*
X162366402Y-82436577D01*
X162361748Y-82437608D01*
X162160885Y-82438571D01*
X162159964Y-81950120D01*
X162544469Y-81948275D01*
X162634691Y-81991680D01*
G37*
G36*
X163186320Y-83617460D02*
G01*
X161695843Y-83617460D01*
X161695843Y-81800828D01*
X161862510Y-81800828D01*
X161865392Y-83330092D01*
X161887790Y-83384164D01*
X161929174Y-83425548D01*
X161983246Y-83447946D01*
X162041774Y-83447946D01*
X162095846Y-83425548D01*
X162137230Y-83384164D01*
X162159628Y-83330092D01*
X162162510Y-83300828D01*
X162161445Y-82735827D01*
X162290918Y-82735206D01*
X162765911Y-83409169D01*
X162815268Y-83440622D01*
X162872904Y-83450793D01*
X162930046Y-83438134D01*
X162977994Y-83404570D01*
X163009447Y-83355213D01*
X163019618Y-83297577D01*
X163006959Y-83240435D01*
X162992538Y-83214809D01*
X162645732Y-82722729D01*
X162651021Y-82720706D01*
X162793562Y-82646697D01*
X162810131Y-82639835D01*
X162815901Y-82635099D01*
X162818764Y-82633613D01*
X162821360Y-82630619D01*
X162832862Y-82621180D01*
X162904763Y-82546024D01*
X162916724Y-82535652D01*
X162920641Y-82529428D01*
X162922946Y-82527020D01*
X162924462Y-82523358D01*
X162932389Y-82510767D01*
X162992295Y-82386241D01*
X162994373Y-82384164D01*
X163001051Y-82368041D01*
X163014327Y-82340446D01*
X163014708Y-82335070D01*
X163016771Y-82330092D01*
X163019653Y-82300828D01*
X163017378Y-82108594D01*
X163018475Y-82105304D01*
X163017112Y-82086125D01*
X163016771Y-82057278D01*
X163014708Y-82052299D01*
X163014327Y-82046924D01*
X163003817Y-82019461D01*
X162929808Y-81876918D01*
X162922945Y-81860349D01*
X162918209Y-81854578D01*
X162916724Y-81851718D01*
X162913732Y-81849123D01*
X162904290Y-81837618D01*
X162829143Y-81765725D01*
X162818764Y-81753758D01*
X162812535Y-81749837D01*
X162810130Y-81747536D01*
X162806473Y-81746021D01*
X162793878Y-81738093D01*
X162669353Y-81678186D01*
X162667275Y-81676108D01*
X162651143Y-81669426D01*
X162623558Y-81656155D01*
X162618183Y-81655773D01*
X162613203Y-81653710D01*
X162583939Y-81650828D01*
X161983246Y-81653710D01*
X161929174Y-81676108D01*
X161887790Y-81717492D01*
X161865392Y-81771564D01*
X161862510Y-81800828D01*
X161695843Y-81800828D01*
X161695843Y-81484161D01*
X163186320Y-81484161D01*
X163186320Y-83617460D01*
G37*
D11*
%TO.C,D5*%
X151865000Y-84920000D02*
X151865000Y-84764000D01*
X151865000Y-87236000D02*
X151865000Y-87080000D01*
X148632666Y-84921392D02*
G75*
G02*
X151864999Y-84764485I1672334J-1078608D01*
G01*
X149263871Y-84920164D02*
G75*
G02*
X151345960Y-84920001I1041129J-1079836D01*
G01*
X151345960Y-87079999D02*
G75*
G02*
X149263871Y-87079836I-1040960J1079999D01*
G01*
X151864999Y-87235515D02*
G75*
G02*
X148632666Y-87078608I-1559999J1235515D01*
G01*
%TO.C,D9*%
X127865000Y-84920000D02*
X127865000Y-84764000D01*
X127865000Y-87236000D02*
X127865000Y-87080000D01*
X124632666Y-84921392D02*
G75*
G02*
X127864999Y-84764485I1672334J-1078608D01*
G01*
X125263871Y-84920164D02*
G75*
G02*
X127345960Y-84920001I1041129J-1079836D01*
G01*
X127345960Y-87079999D02*
G75*
G02*
X125263871Y-87079836I-1040960J1079999D01*
G01*
X127864999Y-87235515D02*
G75*
G02*
X124632666Y-87078608I-1559999J1235515D01*
G01*
%TO.C,D1*%
X175865000Y-84920000D02*
X175865000Y-84764000D01*
X175865000Y-87236000D02*
X175865000Y-87080000D01*
X172632666Y-84921392D02*
G75*
G02*
X175864999Y-84764485I1672334J-1078608D01*
G01*
X173263871Y-84920164D02*
G75*
G02*
X175345960Y-84920001I1041129J-1079836D01*
G01*
X175345960Y-87079999D02*
G75*
G02*
X173263871Y-87079836I-1040960J1079999D01*
G01*
X175864999Y-87235515D02*
G75*
G02*
X172632666Y-87078608I-1559999J1235515D01*
G01*
%TO.C,D4*%
X157865000Y-84920000D02*
X157865000Y-84764000D01*
X157865000Y-87236000D02*
X157865000Y-87080000D01*
X154632666Y-84921392D02*
G75*
G02*
X157864999Y-84764485I1672334J-1078608D01*
G01*
X155263871Y-84920164D02*
G75*
G02*
X157345960Y-84920001I1041129J-1079836D01*
G01*
X157345960Y-87079999D02*
G75*
G02*
X155263871Y-87079836I-1040960J1079999D01*
G01*
X157864999Y-87235515D02*
G75*
G02*
X154632666Y-87078608I-1559999J1235515D01*
G01*
%TO.C,D6*%
X145865000Y-84920000D02*
X145865000Y-84764000D01*
X145865000Y-87236000D02*
X145865000Y-87080000D01*
X142632666Y-84921392D02*
G75*
G02*
X145864999Y-84764485I1672334J-1078608D01*
G01*
X143263871Y-84920164D02*
G75*
G02*
X145345960Y-84920001I1041129J-1079836D01*
G01*
X145345960Y-87079999D02*
G75*
G02*
X143263871Y-87079836I-1040960J1079999D01*
G01*
X145864999Y-87235515D02*
G75*
G02*
X142632666Y-87078608I-1559999J1235515D01*
G01*
%TO.C,D7*%
X139865000Y-84920000D02*
X139865000Y-84764000D01*
X139865000Y-87236000D02*
X139865000Y-87080000D01*
X136632666Y-84921392D02*
G75*
G02*
X139864999Y-84764485I1672334J-1078608D01*
G01*
X137263871Y-84920164D02*
G75*
G02*
X139345960Y-84920001I1041129J-1079836D01*
G01*
X139345960Y-87079999D02*
G75*
G02*
X137263871Y-87079836I-1040960J1079999D01*
G01*
X139864999Y-87235515D02*
G75*
G02*
X136632666Y-87078608I-1559999J1235515D01*
G01*
%TO.C,D8*%
X133865000Y-84920000D02*
X133865000Y-84764000D01*
X133865000Y-87236000D02*
X133865000Y-87080000D01*
X130632666Y-84921392D02*
G75*
G02*
X133864999Y-84764485I1672334J-1078608D01*
G01*
X131263871Y-84920164D02*
G75*
G02*
X133345960Y-84920001I1041129J-1079836D01*
G01*
X133345960Y-87079999D02*
G75*
G02*
X131263871Y-87079836I-1040960J1079999D01*
G01*
X133864999Y-87235515D02*
G75*
G02*
X130632666Y-87078608I-1559999J1235515D01*
G01*
%TO.C,D3*%
X163865000Y-84920000D02*
X163865000Y-84764000D01*
X163865000Y-87236000D02*
X163865000Y-87080000D01*
X160632666Y-84921392D02*
G75*
G02*
X163864999Y-84764485I1672334J-1078608D01*
G01*
X161263871Y-84920164D02*
G75*
G02*
X163345960Y-84920001I1041129J-1079836D01*
G01*
X163345960Y-87079999D02*
G75*
G02*
X161263871Y-87079836I-1040960J1079999D01*
G01*
X163864999Y-87235515D02*
G75*
G02*
X160632666Y-87078608I-1559999J1235515D01*
G01*
%TO.C,J1*%
X133730000Y-91820000D02*
X166870000Y-91820000D01*
X133730000Y-100450000D02*
X133730000Y-91820000D01*
X133730000Y-100450000D02*
X166870000Y-100450000D01*
X136330000Y-100450000D02*
X136330000Y-91820000D01*
X138870000Y-100450000D02*
X138870000Y-91820000D01*
X141410000Y-100450000D02*
X141410000Y-91820000D01*
X143950000Y-100450000D02*
X143950000Y-91820000D01*
X146490000Y-100450000D02*
X146490000Y-91820000D01*
X149030000Y-100450000D02*
X149030000Y-91820000D01*
X151570000Y-100450000D02*
X151570000Y-91820000D01*
X154110000Y-100450000D02*
X154110000Y-91820000D01*
X156650000Y-100450000D02*
X156650000Y-91820000D01*
X159190000Y-100450000D02*
X159190000Y-91820000D01*
X161730000Y-100450000D02*
X161730000Y-91820000D01*
X164270000Y-100450000D02*
X164270000Y-91820000D01*
X165954000Y-88836000D02*
X167064000Y-88836000D01*
X166870000Y-100450000D02*
X166870000Y-91820000D01*
X167064000Y-88836000D02*
X167064000Y-90166000D01*
%TO.C,D2*%
X169865000Y-84920000D02*
X169865000Y-84764000D01*
X169865000Y-87236000D02*
X169865000Y-87080000D01*
X166632666Y-84921392D02*
G75*
G02*
X169864999Y-84764485I1672334J-1078608D01*
G01*
X167263871Y-84920164D02*
G75*
G02*
X169345960Y-84920001I1041129J-1079836D01*
G01*
X169345960Y-87079999D02*
G75*
G02*
X167263871Y-87079836I-1040960J1079999D01*
G01*
X169864999Y-87235515D02*
G75*
G02*
X166632666Y-87078608I-1559999J1235515D01*
G01*
%TD*%
D12*
X151575000Y-86000000D03*
X149035000Y-86000000D03*
X127575000Y-86000000D03*
X125035000Y-86000000D03*
X175575000Y-86000000D03*
X173035000Y-86000000D03*
X157575000Y-86000000D03*
X155035000Y-86000000D03*
X145575000Y-86000000D03*
X143035000Y-86000000D03*
X139575000Y-86000000D03*
X137035000Y-86000000D03*
X133575000Y-86000000D03*
X131035000Y-86000000D03*
X158500000Y-76700000D03*
X158500000Y-74160000D03*
X142500000Y-74160000D03*
X142500000Y-76700000D03*
X163575000Y-86000000D03*
X161035000Y-86000000D03*
X150300000Y-78000000D03*
X165540000Y-90360000D03*
X163000000Y-90360000D03*
X160460000Y-90360000D03*
X157920000Y-90360000D03*
X155380000Y-90360000D03*
X152840000Y-90360000D03*
X150300000Y-90360000D03*
X147760000Y-90360000D03*
X145220000Y-90360000D03*
X142680000Y-90360000D03*
X140140000Y-90360000D03*
X137600000Y-90360000D03*
X135060000Y-90360000D03*
X169575000Y-86000000D03*
X167035000Y-86000000D03*
M02*
