M48
; DRILL file {KiCad 8.0.1} date 2024-07-16T21:14:59+0200
; FORMAT={-:-/ absolute / metric / decimal}
; #@! TF.CreationDate,2024-07-16T21:14:59+02:00
; #@! TF.GenerationSoftware,Kicad,Pcbnew,8.0.1
; #@! TF.FileFunction,Plated,1,2,PTH
FMAT,2
METRIC
; #@! TA.AperFunction,Plated,PTH,ViaDrill
T1C0.300
; #@! TA.AperFunction,Plated,PTH,ViaDrill
T2C0.400
; #@! TA.AperFunction,Plated,PTH,ComponentDrill
T3C0.700
; #@! TA.AperFunction,Plated,PTH,ComponentDrill
T4C0.800
; #@! TA.AperFunction,Plated,PTH,ComponentDrill
T5C0.900
; #@! TA.AperFunction,Plated,PTH,ComponentDrill
T6C1.000
; #@! TA.AperFunction,Plated,PTH,ComponentDrill
T7C1.100
; #@! TA.AperFunction,Plated,PTH,ComponentDrill
T8C1.200
; #@! TA.AperFunction,Plated,PTH,ComponentDrill
T9C1.830
%
G90
G05
T1
X189.763Y-129.916
T2
X80.086Y-128.456
X80.116Y-118.901
X81.356Y-125.56
X82.27Y-119.922
X83.185Y-117.534
X84.912Y-125.408
X84.912Y-133.18
X99.517Y-142.299
X102.032Y-139.784
X104.013Y-135.67
X104.013Y-137.803
X105.892Y-134.196
X107.772Y-127.592
X110.947Y-116.431
X111.963Y-122.995
X134.823Y-136.711
X141.3Y-104.885
X141.3Y-109.914
X141.3Y-112.098
X141.3Y-117.788
X147.523Y-108.898
X149.301Y-120.963
X151.333Y-114.08
X151.587Y-121.852
X183.007Y-112.708
X183.083Y-125.662
X183.82Y-105.215
X185.429Y-115.121
X186.817Y-107.78
X189.458Y-119.16
X189.763Y-121.293
X200.355Y-123.376
X200.355Y-128.075
X210.261Y-106.104
X210.261Y-109.152
X223.202Y-124.024
X226.581Y-123.947
X230.454Y-134.654
T3
X119.591Y-144.168
X119.591Y-146.068
T4
X69.672Y-121.598
X69.672Y-131.758
X72.212Y-121.598
X72.212Y-131.758
X74.752Y-121.598
X74.752Y-131.758
X74.752Y-138.743
X74.752Y-148.903
X77.292Y-138.743
X77.292Y-148.903
X77.419Y-102.802
X77.419Y-112.962
X77.419Y-121.598
X77.419Y-131.758
X79.832Y-105.469
X79.832Y-115.629
X79.832Y-138.743
X79.832Y-148.903
X82.372Y-138.87
X82.372Y-149.03
X82.499Y-105.342
X82.499Y-115.502
X84.912Y-138.87
X84.912Y-149.03
X87.071Y-105.342
X87.071Y-115.502
X87.071Y-123.884
X87.071Y-136.584
X89.484Y-120.201
X89.484Y-137.981
X90.627Y-105.342
X90.627Y-115.502
X91.77Y-147.485
X93.294Y-115.375
X93.294Y-125.535
X94.31Y-147.485
X96.723Y-111.895
X96.723Y-124.595
X96.723Y-131.631
X96.723Y-141.791
X96.85Y-147.485
X99.136Y-104.072
X99.136Y-111.692
X99.136Y-116.391
X99.136Y-131.631
X99.263Y-135.314
X99.263Y-145.474
X101.676Y-104.072
X101.676Y-111.692
X102.819Y-116.431
X102.819Y-121.431
X104.216Y-104.072
X104.216Y-111.692
X106.756Y-104.072
X106.756Y-111.692
X106.888Y-125.286
X106.888Y-140.526
X109.042Y-116.431
X109.042Y-121.431
X109.296Y-104.072
X109.296Y-111.692
X109.428Y-125.286
X109.428Y-140.526
X111.836Y-104.072
X111.836Y-111.692
X111.968Y-125.286
X111.968Y-140.526
X114.376Y-104.072
X114.376Y-111.692
X114.508Y-125.286
X114.508Y-140.526
X117.048Y-125.286
X117.048Y-140.526
X117.551Y-104.072
X117.551Y-114.232
X117.718Y-118.931
X119.588Y-125.286
X119.588Y-140.526
X120.218Y-104.072
X120.218Y-114.232
X122.128Y-125.286
X122.128Y-140.526
X122.631Y-104.072
X122.631Y-114.232
X122.718Y-118.931
X124.668Y-125.286
X124.668Y-140.526
X125.171Y-104.072
X125.171Y-114.232
X127.208Y-125.286
X127.208Y-140.526
X127.965Y-104.072
X127.965Y-114.232
X129.748Y-125.286
X129.748Y-140.526
X132.288Y-125.286
X132.288Y-140.526
X132.41Y-104.072
X132.41Y-114.232
X134.828Y-125.286
X134.828Y-140.526
X136.241Y-108.898
X136.241Y-111.438
X136.241Y-113.978
X137.368Y-125.286
X137.368Y-140.526
X138.76Y-102.548
X138.76Y-122.868
X139.908Y-125.286
X139.908Y-140.526
X142.448Y-125.286
X142.448Y-140.526
X144.983Y-105.215
X144.983Y-117.915
X144.988Y-125.286
X144.988Y-140.526
X147.528Y-125.286
X147.528Y-140.526
X150.068Y-125.286
X150.068Y-140.526
X152.608Y-125.286
X152.608Y-140.526
X152.624Y-102.548
X152.624Y-105.088
X152.624Y-107.628
X155.143Y-112.581
X155.143Y-122.741
X155.148Y-125.286
X155.148Y-140.526
X157.556Y-101.405
X157.556Y-111.565
X157.683Y-113.724
X157.683Y-123.884
X159.715Y-130.107
X159.715Y-140.267
X162.382Y-130.107
X162.382Y-140.267
X162.89Y-119.098
X162.89Y-124.098
X163.906Y-101.405
X163.906Y-114.105
X165.049Y-130.107
X165.049Y-140.267
X166.192Y-108.771
X166.192Y-116.391
X166.486Y-105.215
X167.716Y-130.107
X167.716Y-140.267
X168.859Y-108.898
X168.859Y-119.058
X170.383Y-130.107
X170.383Y-140.267
X171.486Y-105.215
X171.526Y-108.898
X171.526Y-119.058
X173.05Y-130.107
X173.05Y-140.267
X175.082Y-107.501
X175.082Y-120.201
X176.62Y-127.44
X176.62Y-142.68
X179.146Y-127.44
X179.146Y-142.68
X181.686Y-127.44
X181.686Y-142.68
X192.989Y-119.312
X194.259Y-116.518
X195.696Y-113.724
X196.418Y-145.58
X198.109Y-122.487
X198.958Y-145.58
X200.696Y-113.724
X201.498Y-145.58
X201.879Y-116.518
X203.109Y-122.487
X203.149Y-119.312
X206.451Y-145.58
X208.991Y-145.58
X211.531Y-145.58
X245.313Y-114.907
X245.313Y-119.907
X247.874Y-137.473
X247.874Y-140.013
X247.874Y-142.553
X248.869Y-117.574
X248.869Y-122.574
X251.663Y-112.073
X251.663Y-122.233
X252.806Y-130.869
X252.806Y-146.109
X258.902Y-111.224
X258.902Y-116.224
X262.839Y-102.675
X262.839Y-117.915
X266.395Y-103.818
X266.395Y-113.978
X283.667Y-102.548
X283.667Y-105.088
X283.667Y-107.628
X285.064Y-129.853
X285.064Y-140.013
X290.779Y-102.421
X290.779Y-112.581
X295.732Y-108.771
X295.732Y-124.011
X299.288Y-108.644
X299.288Y-123.884
X303.265Y-123.884
X308.265Y-123.884
T5
X192.994Y-122.868
X195.534Y-122.868
T6
X199.974Y-137.981
X202.514Y-137.981
X205.054Y-137.981
X207.594Y-137.981
X210.134Y-137.981
X212.674Y-137.981
X215.214Y-137.981
X217.754Y-137.981
X220.294Y-137.981
X221.208Y-129.624
X222.834Y-137.981
X223.748Y-129.624
X225.374Y-137.981
X226.288Y-129.624
X227.914Y-137.981
X230.454Y-137.981
X290.896Y-128.56
X290.896Y-138.72
X290.896Y-141.26
X298.516Y-138.72
X298.516Y-141.26
T7
X177.876Y-107.755
X177.876Y-120.455
X270.078Y-102.421
X270.078Y-115.121
X277.317Y-105.088
X277.317Y-117.788
T8
X184.988Y-109.406
X184.988Y-132.266
X259.156Y-120.229
X259.156Y-142.729
X271.45Y-117.739
X271.45Y-140.239
X281.254Y-117.612
X281.254Y-140.112
T9
X209.05Y-117.737
X216.67Y-115.197
X216.67Y-120.277
X231.17Y-115.197
X231.17Y-120.277
X238.79Y-117.737
T6
G00X183.837Y-101.821
M15
G01X183.837Y-103.021
M16
G05
G00X187.337Y-101.821
M15
G01X187.337Y-103.021
M16
G05
G00X190.837Y-101.821
M15
G01X190.837Y-103.021
M16
G05
G00X194.337Y-101.821
M15
G01X194.337Y-103.021
M16
G05
G00X197.837Y-101.821
M15
G01X197.837Y-103.021
M16
G05
G00X201.337Y-101.821
M15
G01X201.337Y-103.021
M16
G05
G00X204.837Y-101.821
M15
G01X204.837Y-103.021
M16
G05
G00X208.337Y-101.821
M15
G01X208.337Y-103.021
M16
G05
G00X211.837Y-101.821
M15
G01X211.837Y-103.021
M16
G05
G00X215.337Y-101.821
M15
G01X215.337Y-103.021
M16
G05
G00X218.837Y-101.821
M15
G01X218.837Y-103.021
M16
G05
G00X222.337Y-101.821
M15
G01X222.337Y-103.021
M16
G05
G00X225.837Y-101.821
M15
G01X225.837Y-103.021
M16
G05
G00X229.337Y-101.821
M15
G01X229.337Y-103.021
M16
G05
G00X232.837Y-101.821
M15
G01X232.837Y-103.021
M16
G05
G00X236.337Y-101.821
M15
G01X236.337Y-103.021
M16
G05
G00X239.837Y-101.821
M15
G01X239.837Y-103.021
M16
G05
G00X243.337Y-101.821
M15
G01X243.337Y-103.021
M16
G05
G00X246.837Y-101.821
M15
G01X246.837Y-103.021
M16
G05
M30
