%TF.GenerationSoftware,KiCad,Pcbnew,8.0.1*%
%TF.CreationDate,2024-07-16T21:14:59+02:00*%
%TF.ProjectId,BMW E30 VFL SI Board V3,424d5720-4533-4302-9056-464c20534920,rev?*%
%TF.SameCoordinates,Original*%
%TF.FileFunction,Legend,Bot*%
%TF.FilePolarity,Positive*%
%FSLAX46Y46*%
G04 Gerber Fmt 4.6, Leading zero omitted, Abs format (unit mm)*
G04 Created by KiCad (PCBNEW 8.0.1) date 2024-07-16 21:14:59*
%MOMM*%
%LPD*%
G01*
G04 APERTURE LIST*
%ADD10C,0.150000*%
%ADD11C,0.120000*%
%ADD12C,0.350000*%
%ADD13O,1.000000X2.200000*%
G04 APERTURE END LIST*
D10*
X214960000Y-135568000D02*
X214960000Y-136076000D01*
X220040000Y-135568000D02*
X220040000Y-136076000D01*
X221056000Y-135568000D02*
X220040000Y-135568000D01*
X210896000Y-135568000D02*
X214960000Y-135568000D01*
X223697600Y-135568000D02*
X225120000Y-135568000D01*
X208356000Y-135568000D02*
X204800000Y-135568000D01*
X225120000Y-135568000D02*
X225120000Y-136076000D01*
X204800000Y-135568000D02*
X204800000Y-136076000D01*
G36*
X248150295Y-109053195D02*
G01*
X246166961Y-109053195D01*
X246166961Y-108384318D01*
X246333628Y-108384318D01*
X246335069Y-108391602D01*
X246335069Y-108399029D01*
X246337881Y-108405817D01*
X246339307Y-108413026D01*
X246343426Y-108419204D01*
X246346268Y-108426065D01*
X246351463Y-108431260D01*
X246355540Y-108437375D01*
X246361709Y-108441506D01*
X246366960Y-108446757D01*
X246373749Y-108449569D01*
X246379855Y-108453658D01*
X246387135Y-108455114D01*
X246393996Y-108457956D01*
X246408472Y-108459381D01*
X246408549Y-108459397D01*
X246408575Y-108459391D01*
X246408628Y-108459397D01*
X247834458Y-108458040D01*
X247835069Y-108827601D01*
X247846268Y-108854637D01*
X247866960Y-108875329D01*
X247893996Y-108886528D01*
X247923260Y-108886528D01*
X247950296Y-108875329D01*
X247970988Y-108854637D01*
X247982187Y-108827601D01*
X247983628Y-108812969D01*
X247982187Y-107941194D01*
X247970988Y-107914158D01*
X247950296Y-107893466D01*
X247923260Y-107882267D01*
X247893996Y-107882267D01*
X247866960Y-107893466D01*
X247846268Y-107914158D01*
X247835069Y-107941194D01*
X247833628Y-107955826D01*
X247834212Y-108309467D01*
X246652218Y-108310592D01*
X246658257Y-108306519D01*
X246664582Y-108303900D01*
X246675824Y-108294673D01*
X246675892Y-108294628D01*
X246675906Y-108294606D01*
X246675947Y-108294573D01*
X246817057Y-108151572D01*
X246825020Y-108144667D01*
X246827042Y-108141453D01*
X246828131Y-108140351D01*
X246828889Y-108138520D01*
X246832853Y-108132224D01*
X246909537Y-107975636D01*
X246911611Y-107946446D01*
X246902357Y-107918684D01*
X246883184Y-107896577D01*
X246857009Y-107883489D01*
X246827819Y-107881415D01*
X246800058Y-107890669D01*
X246777950Y-107909842D01*
X246770118Y-107922285D01*
X246706714Y-108051753D01*
X246580427Y-108179732D01*
X246373284Y-108319417D01*
X246366960Y-108322037D01*
X246361908Y-108327088D01*
X246355650Y-108331309D01*
X246351518Y-108337478D01*
X246346268Y-108342729D01*
X246343455Y-108349518D01*
X246339367Y-108355624D01*
X246337910Y-108362904D01*
X246335069Y-108369765D01*
X246335069Y-108377113D01*
X246333628Y-108384318D01*
X246166961Y-108384318D01*
X246166961Y-106455826D01*
X246333628Y-106455826D01*
X246335043Y-107382333D01*
X246334259Y-107394104D01*
X246335065Y-107396487D01*
X246335069Y-107399030D01*
X246339732Y-107410287D01*
X246343634Y-107421825D01*
X246345299Y-107423729D01*
X246346268Y-107426066D01*
X246354878Y-107434676D01*
X246362904Y-107443849D01*
X246365173Y-107444971D01*
X246366960Y-107446758D01*
X246378210Y-107451418D01*
X246389136Y-107456821D01*
X246391659Y-107456989D01*
X246393996Y-107457957D01*
X246406181Y-107457957D01*
X246418334Y-107458767D01*
X246420729Y-107457957D01*
X246423260Y-107457957D01*
X246434517Y-107453293D01*
X246446055Y-107449392D01*
X246448972Y-107447306D01*
X246450296Y-107446758D01*
X246451691Y-107445362D01*
X246458016Y-107440841D01*
X246906082Y-107047307D01*
X246906333Y-107087238D01*
X246905646Y-107089302D01*
X246906414Y-107100124D01*
X246906498Y-107113315D01*
X246907529Y-107115804D01*
X246907720Y-107118492D01*
X246912975Y-107132224D01*
X246985215Y-107273771D01*
X246989125Y-107283209D01*
X246991524Y-107286132D01*
X246992235Y-107287525D01*
X246993733Y-107288824D01*
X246998452Y-107294574D01*
X247070745Y-107365087D01*
X247076930Y-107372218D01*
X247080106Y-107374217D01*
X247081247Y-107375330D01*
X247083078Y-107376088D01*
X247089373Y-107380051D01*
X247222677Y-107445332D01*
X247224103Y-107446758D01*
X247233736Y-107450748D01*
X247245961Y-107456735D01*
X247248650Y-107456926D01*
X247251139Y-107457957D01*
X247265771Y-107459398D01*
X247611282Y-107458058D01*
X247613533Y-107458809D01*
X247624831Y-107458006D01*
X247637546Y-107457957D01*
X247640034Y-107456926D01*
X247642724Y-107456735D01*
X247656455Y-107451480D01*
X247798000Y-107379238D01*
X247807438Y-107375330D01*
X247810363Y-107372929D01*
X247811755Y-107372219D01*
X247813054Y-107370720D01*
X247818804Y-107366002D01*
X247889312Y-107293714D01*
X247896450Y-107287525D01*
X247898450Y-107284346D01*
X247899560Y-107283209D01*
X247900317Y-107281381D01*
X247904282Y-107275082D01*
X247969562Y-107141776D01*
X247970988Y-107140351D01*
X247974980Y-107130713D01*
X247980965Y-107118492D01*
X247981155Y-107115804D01*
X247982187Y-107113315D01*
X247983628Y-107098683D01*
X247982272Y-106681792D01*
X247983039Y-106679493D01*
X247982227Y-106668078D01*
X247982187Y-106655480D01*
X247981155Y-106652990D01*
X247980965Y-106650303D01*
X247975710Y-106636571D01*
X247903471Y-106495028D01*
X247899561Y-106485587D01*
X247897159Y-106482660D01*
X247896450Y-106481271D01*
X247894953Y-106479972D01*
X247890233Y-106474222D01*
X247807439Y-106393466D01*
X247780402Y-106382267D01*
X247751140Y-106382267D01*
X247724103Y-106393466D01*
X247703411Y-106414158D01*
X247692212Y-106441195D01*
X247692212Y-106470457D01*
X247703411Y-106497494D01*
X247712738Y-106508859D01*
X247774214Y-106568823D01*
X247833677Y-106685332D01*
X247834956Y-107078598D01*
X247778073Y-107194754D01*
X247724204Y-107249983D01*
X247607675Y-107309457D01*
X247285811Y-107310704D01*
X247169699Y-107253842D01*
X247114469Y-107199972D01*
X247054960Y-107083370D01*
X247053714Y-106885366D01*
X247054426Y-106874692D01*
X247053632Y-106872344D01*
X247053616Y-106869766D01*
X247048952Y-106858508D01*
X247045051Y-106846971D01*
X247043385Y-106845067D01*
X247042417Y-106842730D01*
X247033797Y-106834110D01*
X247025780Y-106824948D01*
X247023514Y-106823827D01*
X247021725Y-106822038D01*
X247010459Y-106817371D01*
X246999549Y-106811976D01*
X246997028Y-106811807D01*
X246994689Y-106810839D01*
X246982498Y-106810839D01*
X246970351Y-106810029D01*
X246967956Y-106810839D01*
X246965425Y-106810839D01*
X246954170Y-106815500D01*
X246942629Y-106819404D01*
X246939710Y-106821490D01*
X246938389Y-106822038D01*
X246936994Y-106823432D01*
X246930669Y-106827955D01*
X246483378Y-107220806D01*
X246482187Y-106441194D01*
X246470988Y-106414158D01*
X246450296Y-106393466D01*
X246423260Y-106382267D01*
X246393996Y-106382267D01*
X246366960Y-106393466D01*
X246346268Y-106414158D01*
X246335069Y-106441194D01*
X246333628Y-106455826D01*
X246166961Y-106455826D01*
X246166961Y-105241541D01*
X246333628Y-105241541D01*
X246335069Y-106113316D01*
X246346268Y-106140352D01*
X246366960Y-106161044D01*
X246393996Y-106172243D01*
X246423260Y-106172243D01*
X246450296Y-106161044D01*
X246470988Y-106140352D01*
X246482187Y-106113316D01*
X246483628Y-106098684D01*
X246483043Y-105745041D01*
X247923260Y-105743671D01*
X247950296Y-105732472D01*
X247970988Y-105711780D01*
X247982187Y-105684744D01*
X247982187Y-105655480D01*
X247970988Y-105628444D01*
X247950296Y-105607752D01*
X247923260Y-105596553D01*
X247908628Y-105595112D01*
X246482797Y-105596468D01*
X246482187Y-105226909D01*
X246470988Y-105199873D01*
X246450296Y-105179181D01*
X246423260Y-105167982D01*
X246393996Y-105167982D01*
X246366960Y-105179181D01*
X246346268Y-105199873D01*
X246335069Y-105226909D01*
X246333628Y-105241541D01*
X246166961Y-105241541D01*
X246166961Y-105001315D01*
X248150295Y-105001315D01*
X248150295Y-109053195D01*
G37*
G36*
X226650295Y-109054636D02*
G01*
X224666961Y-109054636D01*
X224666961Y-108027254D01*
X224833628Y-108027254D01*
X224835069Y-108756172D01*
X224846268Y-108783208D01*
X224866960Y-108803900D01*
X224893996Y-108815099D01*
X224923260Y-108815099D01*
X224950296Y-108803900D01*
X224970988Y-108783208D01*
X224982187Y-108756172D01*
X224983628Y-108741540D01*
X224982350Y-108095124D01*
X225458523Y-108046561D01*
X225419122Y-108127018D01*
X225417697Y-108128444D01*
X225413704Y-108138081D01*
X225407720Y-108150303D01*
X225407529Y-108152990D01*
X225406498Y-108155480D01*
X225405057Y-108170112D01*
X225406396Y-108515622D01*
X225405646Y-108517873D01*
X225406448Y-108529170D01*
X225406498Y-108541886D01*
X225407529Y-108544375D01*
X225407720Y-108547063D01*
X225412975Y-108560795D01*
X225485215Y-108702342D01*
X225489125Y-108711780D01*
X225491524Y-108714703D01*
X225492235Y-108716096D01*
X225493733Y-108717395D01*
X225498452Y-108723145D01*
X225570745Y-108793658D01*
X225576930Y-108800789D01*
X225580106Y-108802788D01*
X225581247Y-108803901D01*
X225583078Y-108804659D01*
X225589373Y-108808622D01*
X225722677Y-108873903D01*
X225724103Y-108875329D01*
X225733736Y-108879319D01*
X225745961Y-108885306D01*
X225748650Y-108885497D01*
X225751139Y-108886528D01*
X225765771Y-108887969D01*
X226111282Y-108886629D01*
X226113533Y-108887380D01*
X226124831Y-108886577D01*
X226137546Y-108886528D01*
X226140034Y-108885497D01*
X226142724Y-108885306D01*
X226156455Y-108880051D01*
X226298000Y-108807809D01*
X226307438Y-108803901D01*
X226310363Y-108801500D01*
X226311755Y-108800790D01*
X226313054Y-108799291D01*
X226318804Y-108794573D01*
X226389312Y-108722285D01*
X226396450Y-108716096D01*
X226398450Y-108712917D01*
X226399560Y-108711780D01*
X226400317Y-108709952D01*
X226404282Y-108703653D01*
X226469562Y-108570347D01*
X226470988Y-108568922D01*
X226474980Y-108559284D01*
X226480965Y-108547063D01*
X226481155Y-108544375D01*
X226482187Y-108541886D01*
X226483628Y-108527254D01*
X226482288Y-108181743D01*
X226483039Y-108179493D01*
X226482236Y-108168195D01*
X226482187Y-108155480D01*
X226481155Y-108152990D01*
X226480965Y-108150303D01*
X226475710Y-108136572D01*
X226403469Y-107995023D01*
X226399560Y-107985586D01*
X226397160Y-107982662D01*
X226396450Y-107981270D01*
X226394951Y-107979970D01*
X226390233Y-107974221D01*
X226307438Y-107893465D01*
X226280402Y-107882267D01*
X226251139Y-107882267D01*
X226224103Y-107893466D01*
X226203410Y-107914159D01*
X226192212Y-107941195D01*
X226192212Y-107970458D01*
X226203411Y-107997494D01*
X226212738Y-108008859D01*
X226274214Y-108068821D01*
X226333687Y-108185351D01*
X226334934Y-108507213D01*
X226278073Y-108623325D01*
X226224204Y-108678554D01*
X226107675Y-108738028D01*
X225785811Y-108739275D01*
X225669699Y-108682413D01*
X225614469Y-108628543D01*
X225554997Y-108512014D01*
X225553750Y-108190152D01*
X225610611Y-108074040D01*
X225668183Y-108015015D01*
X225670580Y-108013730D01*
X225676525Y-108006463D01*
X225685274Y-107997494D01*
X225686720Y-107994003D01*
X225689110Y-107991082D01*
X225692274Y-107980593D01*
X225696473Y-107970458D01*
X225696473Y-107966678D01*
X225697563Y-107963066D01*
X225696473Y-107952162D01*
X225696473Y-107941195D01*
X225695027Y-107937705D01*
X225694652Y-107933947D01*
X225689470Y-107924288D01*
X225685275Y-107914159D01*
X225682602Y-107911486D01*
X225680818Y-107908160D01*
X225672335Y-107901219D01*
X225664582Y-107893466D01*
X225661093Y-107892020D01*
X225658170Y-107889629D01*
X225647672Y-107886461D01*
X225637546Y-107882267D01*
X225633770Y-107882267D01*
X225630154Y-107881176D01*
X225615451Y-107881198D01*
X224904604Y-107953695D01*
X224893996Y-107953695D01*
X224890531Y-107955130D01*
X224886749Y-107955516D01*
X224877089Y-107960698D01*
X224866960Y-107964894D01*
X224864288Y-107967565D01*
X224860962Y-107969350D01*
X224854021Y-107977832D01*
X224846268Y-107985586D01*
X224844822Y-107989074D01*
X224842431Y-107991998D01*
X224839263Y-108002495D01*
X224835069Y-108012622D01*
X224834516Y-108018227D01*
X224833978Y-108020014D01*
X224834160Y-108021842D01*
X224833628Y-108027254D01*
X224666961Y-108027254D01*
X224666961Y-106955747D01*
X224833628Y-106955747D01*
X224835069Y-106963031D01*
X224835069Y-106970458D01*
X224837881Y-106977246D01*
X224839307Y-106984455D01*
X224843426Y-106990633D01*
X224846268Y-106997494D01*
X224851463Y-107002689D01*
X224855540Y-107008804D01*
X224861709Y-107012935D01*
X224866960Y-107018186D01*
X224873749Y-107020998D01*
X224879855Y-107025087D01*
X224887135Y-107026543D01*
X224893996Y-107029385D01*
X224908472Y-107030810D01*
X224908549Y-107030826D01*
X224908575Y-107030820D01*
X224908628Y-107030826D01*
X226334458Y-107029469D01*
X226335069Y-107399030D01*
X226346268Y-107426066D01*
X226366960Y-107446758D01*
X226393996Y-107457957D01*
X226423260Y-107457957D01*
X226450296Y-107446758D01*
X226470988Y-107426066D01*
X226482187Y-107399030D01*
X226483628Y-107384398D01*
X226482187Y-106512623D01*
X226470988Y-106485587D01*
X226450296Y-106464895D01*
X226423260Y-106453696D01*
X226393996Y-106453696D01*
X226366960Y-106464895D01*
X226346268Y-106485587D01*
X226335069Y-106512623D01*
X226333628Y-106527255D01*
X226334212Y-106880896D01*
X225152218Y-106882021D01*
X225158257Y-106877948D01*
X225164582Y-106875329D01*
X225175824Y-106866102D01*
X225175892Y-106866057D01*
X225175906Y-106866035D01*
X225175947Y-106866002D01*
X225317057Y-106723001D01*
X225325020Y-106716096D01*
X225327042Y-106712882D01*
X225328131Y-106711780D01*
X225328889Y-106709949D01*
X225332853Y-106703653D01*
X225409537Y-106547065D01*
X225411611Y-106517875D01*
X225402357Y-106490113D01*
X225383184Y-106468006D01*
X225357009Y-106454918D01*
X225327819Y-106452844D01*
X225300058Y-106462098D01*
X225277950Y-106481271D01*
X225270118Y-106493714D01*
X225206714Y-106623182D01*
X225080427Y-106751161D01*
X224873284Y-106890846D01*
X224866960Y-106893466D01*
X224861908Y-106898517D01*
X224855650Y-106902738D01*
X224851518Y-106908907D01*
X224846268Y-106914158D01*
X224843455Y-106920947D01*
X224839367Y-106927053D01*
X224837910Y-106934333D01*
X224835069Y-106941194D01*
X224835069Y-106948542D01*
X224833628Y-106955747D01*
X224666961Y-106955747D01*
X224666961Y-105241541D01*
X224833628Y-105241541D01*
X224835069Y-106113316D01*
X224846268Y-106140352D01*
X224866960Y-106161044D01*
X224893996Y-106172243D01*
X224923260Y-106172243D01*
X224950296Y-106161044D01*
X224970988Y-106140352D01*
X224982187Y-106113316D01*
X224983628Y-106098684D01*
X224983043Y-105745041D01*
X226423260Y-105743671D01*
X226450296Y-105732472D01*
X226470988Y-105711780D01*
X226482187Y-105684744D01*
X226482187Y-105655480D01*
X226470988Y-105628444D01*
X226450296Y-105607752D01*
X226423260Y-105596553D01*
X226408628Y-105595112D01*
X224982797Y-105596468D01*
X224982187Y-105226909D01*
X224970988Y-105199873D01*
X224950296Y-105179181D01*
X224923260Y-105167982D01*
X224893996Y-105167982D01*
X224866960Y-105179181D01*
X224846268Y-105199873D01*
X224835069Y-105226909D01*
X224833628Y-105241541D01*
X224666961Y-105241541D01*
X224666961Y-105001315D01*
X226650295Y-105001315D01*
X226650295Y-109054636D01*
G37*
G36*
X202042697Y-135717400D02*
G01*
X201985787Y-135833611D01*
X201931918Y-135888841D01*
X201815315Y-135948351D01*
X201636213Y-135949478D01*
X201520271Y-135892701D01*
X201465042Y-135838831D01*
X201405590Y-135722345D01*
X201404407Y-135241041D01*
X202041524Y-135240435D01*
X202042697Y-135717400D01*
G37*
G36*
X203072295Y-136264922D02*
G01*
X201088961Y-136264922D01*
X201088961Y-135166112D01*
X201255628Y-135166112D01*
X201257004Y-135725798D01*
X201256217Y-135728160D01*
X201257038Y-135739720D01*
X201257069Y-135752173D01*
X201258099Y-135754661D01*
X201258291Y-135757351D01*
X201263546Y-135771082D01*
X201335787Y-135912627D01*
X201339696Y-135922065D01*
X201342096Y-135924990D01*
X201342807Y-135926382D01*
X201344305Y-135927681D01*
X201349024Y-135933431D01*
X201421311Y-136003939D01*
X201427501Y-136011077D01*
X201430679Y-136013077D01*
X201431817Y-136014187D01*
X201433644Y-136014944D01*
X201439944Y-136018909D01*
X201573248Y-136084189D01*
X201574674Y-136085615D01*
X201584312Y-136089607D01*
X201596533Y-136095592D01*
X201599220Y-136095782D01*
X201601710Y-136096814D01*
X201616342Y-136098255D01*
X201819183Y-136096978D01*
X201821247Y-136097666D01*
X201832069Y-136096897D01*
X201845260Y-136096814D01*
X201847749Y-136095782D01*
X201850437Y-136095592D01*
X201864169Y-136090337D01*
X202005717Y-136018095D01*
X202015153Y-136014187D01*
X202018076Y-136011787D01*
X202019469Y-136011077D01*
X202020768Y-136009578D01*
X202026518Y-136004860D01*
X202097033Y-135932566D01*
X202104164Y-135926382D01*
X202106163Y-135923205D01*
X202107275Y-135922066D01*
X202108033Y-135920233D01*
X202111996Y-135913939D01*
X202177276Y-135780634D01*
X202178702Y-135779209D01*
X202182694Y-135769570D01*
X202188679Y-135757350D01*
X202188869Y-135754662D01*
X202189901Y-135752173D01*
X202191342Y-135737541D01*
X202190119Y-135240294D01*
X202845260Y-135239671D01*
X202872296Y-135228472D01*
X202892988Y-135207780D01*
X202904187Y-135180744D01*
X202904187Y-135151480D01*
X202892988Y-135124444D01*
X202872296Y-135103752D01*
X202845260Y-135092553D01*
X202830628Y-135091112D01*
X201315996Y-135092553D01*
X201288960Y-135103752D01*
X201268268Y-135124444D01*
X201257069Y-135151480D01*
X201255628Y-135166112D01*
X201088961Y-135166112D01*
X201088961Y-133951827D01*
X201255628Y-133951827D01*
X201257005Y-134307255D01*
X201256217Y-134318350D01*
X201257063Y-134322070D01*
X201257069Y-134323602D01*
X201257827Y-134325433D01*
X201259477Y-134332687D01*
X201336900Y-134560398D01*
X201356074Y-134582505D01*
X201382247Y-134595592D01*
X201411437Y-134597667D01*
X201439200Y-134588413D01*
X201461307Y-134569239D01*
X201474393Y-134543065D01*
X201476468Y-134513875D01*
X201473208Y-134499538D01*
X201405595Y-134300682D01*
X201404321Y-133971867D01*
X201461183Y-133855755D01*
X201515052Y-133800526D01*
X201631741Y-133740972D01*
X201739526Y-133739985D01*
X201855270Y-133796666D01*
X201910499Y-133850536D01*
X201972826Y-133972657D01*
X202043461Y-134249706D01*
X202044005Y-134257350D01*
X202048216Y-134268355D01*
X202048528Y-134269577D01*
X202048850Y-134270012D01*
X202049260Y-134271082D01*
X202121502Y-134412630D01*
X202125411Y-134422067D01*
X202127810Y-134424990D01*
X202128521Y-134426383D01*
X202130019Y-134427682D01*
X202134738Y-134433432D01*
X202207031Y-134503945D01*
X202213216Y-134511076D01*
X202216392Y-134513075D01*
X202217533Y-134514188D01*
X202219364Y-134514946D01*
X202225659Y-134518909D01*
X202358963Y-134584190D01*
X202360389Y-134585616D01*
X202370022Y-134589606D01*
X202382247Y-134595593D01*
X202384936Y-134595784D01*
X202387425Y-134596815D01*
X202402057Y-134598256D01*
X202533686Y-134597051D01*
X202535533Y-134597667D01*
X202545747Y-134596941D01*
X202559546Y-134596815D01*
X202562034Y-134595784D01*
X202564724Y-134595593D01*
X202578455Y-134590338D01*
X202720000Y-134518096D01*
X202729438Y-134514188D01*
X202732363Y-134511787D01*
X202733755Y-134511077D01*
X202735054Y-134509578D01*
X202740804Y-134504860D01*
X202811312Y-134432572D01*
X202818450Y-134426383D01*
X202820450Y-134423204D01*
X202821560Y-134422067D01*
X202822317Y-134420239D01*
X202826282Y-134413940D01*
X202891562Y-134280634D01*
X202892988Y-134279209D01*
X202896980Y-134269571D01*
X202902965Y-134257350D01*
X202903155Y-134254662D01*
X202904187Y-134252173D01*
X202905628Y-134237541D01*
X202904250Y-133882113D01*
X202905039Y-133871019D01*
X202904192Y-133867298D01*
X202904187Y-133865767D01*
X202903428Y-133863935D01*
X202901779Y-133856682D01*
X202824357Y-133628971D01*
X202805183Y-133606863D01*
X202779010Y-133593777D01*
X202749820Y-133591702D01*
X202722058Y-133600956D01*
X202699950Y-133620130D01*
X202686864Y-133646303D01*
X202684789Y-133675493D01*
X202688049Y-133689830D01*
X202755660Y-133888685D01*
X202756934Y-134217500D01*
X202700073Y-134333612D01*
X202646204Y-134388841D01*
X202529515Y-134448396D01*
X202421731Y-134449383D01*
X202305985Y-134392700D01*
X202250756Y-134338831D01*
X202188429Y-134216711D01*
X202117794Y-133939661D01*
X202117251Y-133932017D01*
X202113039Y-133921012D01*
X202112728Y-133919791D01*
X202112405Y-133919355D01*
X202111996Y-133918286D01*
X202039758Y-133776749D01*
X202035846Y-133767303D01*
X202033442Y-133764374D01*
X202032734Y-133762986D01*
X202031238Y-133761689D01*
X202026518Y-133755937D01*
X201954230Y-133685428D01*
X201948041Y-133678291D01*
X201944862Y-133676290D01*
X201943725Y-133675181D01*
X201941897Y-133674423D01*
X201935598Y-133670459D01*
X201802293Y-133605178D01*
X201800868Y-133603753D01*
X201791229Y-133599760D01*
X201779009Y-133593776D01*
X201776321Y-133593585D01*
X201773832Y-133592554D01*
X201759200Y-133591113D01*
X201627569Y-133592317D01*
X201625723Y-133591702D01*
X201615508Y-133592427D01*
X201601710Y-133592554D01*
X201599220Y-133593585D01*
X201596533Y-133593776D01*
X201582801Y-133599031D01*
X201441253Y-133671272D01*
X201431817Y-133675181D01*
X201428893Y-133677580D01*
X201427501Y-133678291D01*
X201426201Y-133679789D01*
X201420452Y-133684508D01*
X201349942Y-133756797D01*
X201342807Y-133762986D01*
X201340806Y-133766164D01*
X201339696Y-133767303D01*
X201338938Y-133769132D01*
X201334975Y-133775429D01*
X201269693Y-133908733D01*
X201268268Y-133910159D01*
X201264278Y-133919791D01*
X201258291Y-133932017D01*
X201258099Y-133934706D01*
X201257069Y-133937195D01*
X201255628Y-133951827D01*
X201088961Y-133951827D01*
X201088961Y-132171351D01*
X201255811Y-132171351D01*
X201257069Y-132175963D01*
X201257069Y-132180744D01*
X201260886Y-132189959D01*
X201263511Y-132199583D01*
X201266438Y-132203363D01*
X201268268Y-132207780D01*
X201275318Y-132214830D01*
X201281428Y-132222720D01*
X201287560Y-132227072D01*
X201288960Y-132228472D01*
X201290334Y-132229041D01*
X201293418Y-132231230D01*
X202551089Y-132948520D01*
X201315996Y-132949696D01*
X201288960Y-132960895D01*
X201268268Y-132981587D01*
X201257069Y-133008623D01*
X201257069Y-133037887D01*
X201268268Y-133064923D01*
X201288960Y-133085615D01*
X201315996Y-133096814D01*
X201330628Y-133098255D01*
X202826113Y-133096832D01*
X202835867Y-133098072D01*
X202840462Y-133096818D01*
X202845260Y-133096814D01*
X202854475Y-133092996D01*
X202864099Y-133090372D01*
X202867879Y-133087444D01*
X202872296Y-133085615D01*
X202879346Y-133078564D01*
X202887236Y-133072455D01*
X202889609Y-133068301D01*
X202892988Y-133064923D01*
X202896804Y-133055710D01*
X202901755Y-133047046D01*
X202902357Y-133042302D01*
X202904187Y-133037887D01*
X202904187Y-133027912D01*
X202905445Y-133018016D01*
X202904187Y-133013403D01*
X202904187Y-133008623D01*
X202900369Y-132999406D01*
X202897745Y-132989785D01*
X202894818Y-132986005D01*
X202892988Y-132981587D01*
X202885934Y-132974533D01*
X202879828Y-132966648D01*
X202873695Y-132962294D01*
X202872296Y-132960895D01*
X202870922Y-132960326D01*
X202867839Y-132958137D01*
X201610166Y-132240846D01*
X202845260Y-132239671D01*
X202872296Y-132228472D01*
X202892988Y-132207780D01*
X202904187Y-132180744D01*
X202904187Y-132151480D01*
X202892988Y-132124444D01*
X202872296Y-132103752D01*
X202845260Y-132092553D01*
X202830628Y-132091112D01*
X201335142Y-132092534D01*
X201325389Y-132091295D01*
X201320793Y-132092548D01*
X201315996Y-132092553D01*
X201306780Y-132096370D01*
X201297157Y-132098995D01*
X201293376Y-132101922D01*
X201288960Y-132103752D01*
X201281909Y-132110802D01*
X201274020Y-132116912D01*
X201271646Y-132121065D01*
X201268268Y-132124444D01*
X201264451Y-132133656D01*
X201259501Y-132142321D01*
X201258898Y-132147064D01*
X201257069Y-132151480D01*
X201257069Y-132161454D01*
X201255811Y-132171351D01*
X201088961Y-132171351D01*
X201088961Y-131466458D01*
X201257069Y-131466458D01*
X201268268Y-131493494D01*
X201288960Y-131514186D01*
X201315996Y-131525385D01*
X201330628Y-131526826D01*
X202845260Y-131525385D01*
X202872296Y-131514186D01*
X202892988Y-131493494D01*
X202904187Y-131466458D01*
X202904187Y-131437194D01*
X202892988Y-131410158D01*
X202872296Y-131389466D01*
X202845260Y-131378267D01*
X202830628Y-131376826D01*
X201315996Y-131378267D01*
X201288960Y-131389466D01*
X201268268Y-131410158D01*
X201257069Y-131437194D01*
X201257069Y-131466458D01*
X201088961Y-131466458D01*
X201088961Y-131210159D01*
X203072295Y-131210159D01*
X203072295Y-136264922D01*
G37*
G36*
X218310854Y-136289189D02*
G01*
X216328980Y-136289189D01*
X216328980Y-136045867D01*
X216495647Y-136045867D01*
X216500714Y-136074689D01*
X216516425Y-136099377D01*
X216540388Y-136116174D01*
X216568954Y-136122522D01*
X216597776Y-136117455D01*
X216610894Y-136110816D01*
X217375668Y-135622502D01*
X218085260Y-135621100D01*
X218112296Y-135609901D01*
X218132988Y-135589209D01*
X218144187Y-135562173D01*
X218144187Y-135532909D01*
X218132988Y-135505873D01*
X218112296Y-135485181D01*
X218085260Y-135473982D01*
X218070628Y-135472541D01*
X217380271Y-135473905D01*
X216597776Y-134977627D01*
X216568954Y-134972560D01*
X216540388Y-134978908D01*
X216516425Y-134995705D01*
X216500714Y-135020393D01*
X216495647Y-135049215D01*
X216501995Y-135077781D01*
X216518792Y-135101744D01*
X216530362Y-135110816D01*
X217217965Y-135546911D01*
X216518792Y-135993338D01*
X216501995Y-136017301D01*
X216495647Y-136045867D01*
X216328980Y-136045867D01*
X216328980Y-134805893D01*
X218310854Y-134805893D01*
X218310854Y-136289189D01*
G37*
G36*
X67614788Y-123335951D02*
G01*
X67734264Y-123453848D01*
X67794001Y-123570895D01*
X67795202Y-123821366D01*
X67738444Y-123937269D01*
X67618430Y-124058889D01*
X67365033Y-124123495D01*
X66883527Y-124124844D01*
X66623067Y-124061017D01*
X66503592Y-123943121D01*
X66443854Y-123826075D01*
X66442653Y-123575603D01*
X66499413Y-123459699D01*
X66619426Y-123338079D01*
X66872821Y-123273474D01*
X67354328Y-123272125D01*
X67614788Y-123335951D01*
G37*
G36*
X68110595Y-132438712D02*
G01*
X66127261Y-132438712D01*
X66127261Y-131927402D01*
X66938226Y-131927402D01*
X66949425Y-131954439D01*
X66958752Y-131965804D01*
X67255687Y-132260702D01*
X67255832Y-132260847D01*
X67274949Y-132268765D01*
X67282868Y-132272045D01*
X67282869Y-132272045D01*
X67312131Y-132272045D01*
X67312132Y-132272045D01*
X67339168Y-132260846D01*
X67350533Y-132251519D01*
X67645574Y-131954439D01*
X67656773Y-131927403D01*
X67656773Y-131898140D01*
X67645574Y-131871103D01*
X67624881Y-131850411D01*
X67597845Y-131839212D01*
X67568582Y-131839212D01*
X67541546Y-131850411D01*
X67530181Y-131859738D01*
X67372276Y-132018733D01*
X67371059Y-131040996D01*
X67359860Y-131013960D01*
X67339168Y-130993268D01*
X67312132Y-130982069D01*
X67282868Y-130982069D01*
X67255832Y-130993268D01*
X67235140Y-131013960D01*
X67223941Y-131040996D01*
X67222500Y-131055628D01*
X67223699Y-132019490D01*
X67053453Y-131850411D01*
X67026416Y-131839212D01*
X66997154Y-131839212D01*
X66970117Y-131850411D01*
X66949425Y-131871103D01*
X66938226Y-131898140D01*
X66938226Y-131927402D01*
X66127261Y-131927402D01*
X66127261Y-128841343D01*
X66293928Y-128841343D01*
X66295204Y-129044184D01*
X66294517Y-129046248D01*
X66295285Y-129057071D01*
X66295369Y-129070261D01*
X66296399Y-129072749D01*
X66296591Y-129075439D01*
X66301846Y-129089170D01*
X66381107Y-129244470D01*
X66403215Y-129263643D01*
X66430976Y-129272897D01*
X66460166Y-129270823D01*
X66486341Y-129257735D01*
X66505514Y-129235628D01*
X66514768Y-129207866D01*
X66512694Y-129178676D01*
X66507439Y-129164945D01*
X66443831Y-129040317D01*
X66442678Y-128857103D01*
X66504029Y-128669307D01*
X66624291Y-128547435D01*
X66746901Y-128484858D01*
X67015733Y-128416318D01*
X67211877Y-128415083D01*
X67480300Y-128480860D01*
X67607713Y-128543256D01*
X67731235Y-128665145D01*
X67794005Y-128849761D01*
X67795093Y-128968697D01*
X67733765Y-129156424D01*
X67696141Y-129194997D01*
X67300716Y-129196105D01*
X67299630Y-128969568D01*
X67288431Y-128942532D01*
X67267739Y-128921840D01*
X67240703Y-128910641D01*
X67211439Y-128910641D01*
X67184403Y-128921840D01*
X67163711Y-128942532D01*
X67152512Y-128969568D01*
X67151071Y-128984200D01*
X67152512Y-129284545D01*
X67152512Y-129284546D01*
X67163711Y-129311582D01*
X67184403Y-129332274D01*
X67211439Y-129343473D01*
X67226071Y-129344914D01*
X67740703Y-129343473D01*
X67751901Y-129338834D01*
X67767738Y-129332275D01*
X67779104Y-129322947D01*
X67841975Y-129258489D01*
X67843483Y-129257736D01*
X67849679Y-129250591D01*
X67859860Y-129240154D01*
X67860891Y-129237663D01*
X67862657Y-129235628D01*
X67868651Y-129222203D01*
X67938399Y-129008699D01*
X67942487Y-128998832D01*
X67942859Y-128995046D01*
X67943339Y-128993580D01*
X67943198Y-128991605D01*
X67943928Y-128984200D01*
X67942626Y-128841982D01*
X67943339Y-128831963D01*
X67942501Y-128828279D01*
X67942487Y-128826711D01*
X67941728Y-128824879D01*
X67940079Y-128817626D01*
X67871059Y-128614626D01*
X67871059Y-128612425D01*
X67866881Y-128602339D01*
X67862657Y-128589915D01*
X67860891Y-128587879D01*
X67859860Y-128585389D01*
X67850533Y-128574024D01*
X67707534Y-128432916D01*
X67700626Y-128424950D01*
X67697410Y-128422926D01*
X67696309Y-128421839D01*
X67694479Y-128421081D01*
X67688183Y-128417118D01*
X67549648Y-128349275D01*
X67543821Y-128344957D01*
X67532763Y-128341006D01*
X67531595Y-128340434D01*
X67531054Y-128340395D01*
X67529975Y-128340010D01*
X67248625Y-128271065D01*
X67240703Y-128267784D01*
X67231557Y-128266883D01*
X67229716Y-128266432D01*
X67228624Y-128266594D01*
X67226071Y-128266343D01*
X67016410Y-128267662D01*
X67008139Y-128266432D01*
X66999075Y-128267771D01*
X66997153Y-128267784D01*
X66996131Y-128268206D01*
X66993595Y-128268582D01*
X66713905Y-128339890D01*
X66706261Y-128340434D01*
X66695256Y-128344645D01*
X66694035Y-128344957D01*
X66693599Y-128345279D01*
X66692530Y-128345689D01*
X66550991Y-128417927D01*
X66541546Y-128421840D01*
X66538619Y-128424242D01*
X66537230Y-128424951D01*
X66535933Y-128426446D01*
X66530181Y-128431167D01*
X66396292Y-128566848D01*
X66394374Y-128567808D01*
X66387319Y-128575941D01*
X66377997Y-128585389D01*
X66376965Y-128587879D01*
X66375200Y-128589915D01*
X66369206Y-128603340D01*
X66299456Y-128816843D01*
X66295369Y-128826711D01*
X66294996Y-128830496D01*
X66294517Y-128831963D01*
X66294657Y-128833937D01*
X66293928Y-128841343D01*
X66127261Y-128841343D01*
X66127261Y-127713117D01*
X66295369Y-127713117D01*
X66306568Y-127740153D01*
X66327260Y-127760845D01*
X66354296Y-127772044D01*
X66368928Y-127773485D01*
X67883560Y-127772044D01*
X67910596Y-127760845D01*
X67931288Y-127740153D01*
X67942487Y-127713117D01*
X67942487Y-127683853D01*
X67931288Y-127656817D01*
X67910596Y-127636125D01*
X67883560Y-127624926D01*
X67868928Y-127623485D01*
X66354296Y-127624926D01*
X66327260Y-127636125D01*
X66306568Y-127656817D01*
X66295369Y-127683853D01*
X66295369Y-127713117D01*
X66127261Y-127713117D01*
X66127261Y-126412771D01*
X66293928Y-126412771D01*
X66295369Y-127141689D01*
X66306568Y-127168725D01*
X66327260Y-127189417D01*
X66354296Y-127200616D01*
X66383560Y-127200616D01*
X66410596Y-127189417D01*
X66431288Y-127168725D01*
X66442487Y-127141689D01*
X66443928Y-127127057D01*
X66442664Y-126487700D01*
X67008422Y-126487162D01*
X67009655Y-126927403D01*
X67020854Y-126954439D01*
X67041546Y-126975131D01*
X67068582Y-126986330D01*
X67097846Y-126986330D01*
X67124882Y-126975131D01*
X67145574Y-126954439D01*
X67156773Y-126927403D01*
X67158214Y-126912771D01*
X67157021Y-126487021D01*
X67883560Y-126486330D01*
X67910596Y-126475131D01*
X67931288Y-126454439D01*
X67942487Y-126427403D01*
X67942487Y-126398139D01*
X67931288Y-126371103D01*
X67910596Y-126350411D01*
X67883560Y-126339212D01*
X67868928Y-126337771D01*
X66354296Y-126339212D01*
X66327260Y-126350411D01*
X66306568Y-126371103D01*
X66295369Y-126398139D01*
X66293928Y-126412771D01*
X66127261Y-126412771D01*
X66127261Y-124846581D01*
X66294111Y-124846581D01*
X66295369Y-124851193D01*
X66295369Y-124855974D01*
X66299186Y-124865189D01*
X66301811Y-124874813D01*
X66304738Y-124878593D01*
X66306568Y-124883010D01*
X66313618Y-124890060D01*
X66319728Y-124897950D01*
X66325860Y-124902302D01*
X66327260Y-124903702D01*
X66328634Y-124904271D01*
X66331718Y-124906460D01*
X67589389Y-125623750D01*
X66354296Y-125624926D01*
X66327260Y-125636125D01*
X66306568Y-125656817D01*
X66295369Y-125683853D01*
X66295369Y-125713117D01*
X66306568Y-125740153D01*
X66327260Y-125760845D01*
X66354296Y-125772044D01*
X66368928Y-125773485D01*
X67864413Y-125772062D01*
X67874167Y-125773302D01*
X67878762Y-125772048D01*
X67883560Y-125772044D01*
X67892775Y-125768226D01*
X67902399Y-125765602D01*
X67906179Y-125762674D01*
X67910596Y-125760845D01*
X67917646Y-125753794D01*
X67925536Y-125747685D01*
X67927909Y-125743531D01*
X67931288Y-125740153D01*
X67935104Y-125730940D01*
X67940055Y-125722276D01*
X67940657Y-125717532D01*
X67942487Y-125713117D01*
X67942487Y-125703142D01*
X67943745Y-125693246D01*
X67942487Y-125688633D01*
X67942487Y-125683853D01*
X67938669Y-125674636D01*
X67936045Y-125665015D01*
X67933118Y-125661235D01*
X67931288Y-125656817D01*
X67924234Y-125649763D01*
X67918128Y-125641878D01*
X67911995Y-125637524D01*
X67910596Y-125636125D01*
X67909222Y-125635556D01*
X67906139Y-125633367D01*
X66648466Y-124916076D01*
X67883560Y-124914901D01*
X67910596Y-124903702D01*
X67931288Y-124883010D01*
X67942487Y-124855974D01*
X67942487Y-124826710D01*
X67931288Y-124799674D01*
X67910596Y-124778982D01*
X67883560Y-124767783D01*
X67868928Y-124766342D01*
X66373442Y-124767764D01*
X66363689Y-124766525D01*
X66359093Y-124767778D01*
X66354296Y-124767783D01*
X66345080Y-124771600D01*
X66335457Y-124774225D01*
X66331676Y-124777152D01*
X66327260Y-124778982D01*
X66320209Y-124786032D01*
X66312320Y-124792142D01*
X66309946Y-124796295D01*
X66306568Y-124799674D01*
X66302751Y-124808886D01*
X66297801Y-124817551D01*
X66297198Y-124822294D01*
X66295369Y-124826710D01*
X66295369Y-124836684D01*
X66294111Y-124846581D01*
X66127261Y-124846581D01*
X66127261Y-123555628D01*
X66293928Y-123555628D01*
X66295243Y-123829782D01*
X66294517Y-123831961D01*
X66295307Y-123843082D01*
X66295369Y-123855974D01*
X66296399Y-123858462D01*
X66296591Y-123861152D01*
X66301846Y-123874883D01*
X66374089Y-124016432D01*
X66377997Y-124025867D01*
X66380396Y-124028790D01*
X66381107Y-124030183D01*
X66382605Y-124031482D01*
X66387324Y-124037232D01*
X66525121Y-124173208D01*
X66527665Y-124177448D01*
X66534700Y-124182660D01*
X66541546Y-124189416D01*
X66546696Y-124191549D01*
X66551178Y-124194870D01*
X66565024Y-124199817D01*
X66846374Y-124268762D01*
X66854296Y-124272044D01*
X66863439Y-124272944D01*
X66865282Y-124273396D01*
X66866374Y-124273233D01*
X66868928Y-124273485D01*
X67363858Y-124272099D01*
X67372574Y-124273396D01*
X67381684Y-124272049D01*
X67383560Y-124272044D01*
X67384581Y-124271621D01*
X67387118Y-124271246D01*
X67664145Y-124200615D01*
X67669273Y-124200615D01*
X67677483Y-124197214D01*
X67686678Y-124194870D01*
X67691157Y-124191550D01*
X67696309Y-124189417D01*
X67707675Y-124180089D01*
X67848782Y-124037092D01*
X67856750Y-124030183D01*
X67858773Y-124026967D01*
X67859860Y-124025867D01*
X67860617Y-124024039D01*
X67864582Y-124017740D01*
X67929862Y-123884435D01*
X67931288Y-123883010D01*
X67935280Y-123873371D01*
X67941265Y-123861151D01*
X67941455Y-123858463D01*
X67942487Y-123855974D01*
X67943928Y-123841342D01*
X67942612Y-123567187D01*
X67943339Y-123565009D01*
X67942548Y-123553888D01*
X67942487Y-123540996D01*
X67941455Y-123538506D01*
X67941265Y-123535819D01*
X67936010Y-123522087D01*
X67863770Y-123380542D01*
X67859861Y-123371104D01*
X67857460Y-123368178D01*
X67856750Y-123366787D01*
X67855251Y-123365487D01*
X67850533Y-123359738D01*
X67712732Y-123223758D01*
X67710190Y-123219521D01*
X67703157Y-123214310D01*
X67696310Y-123207553D01*
X67691159Y-123205419D01*
X67686678Y-123202099D01*
X67672832Y-123197152D01*
X67391482Y-123128207D01*
X67383560Y-123124926D01*
X67374414Y-123124025D01*
X67372573Y-123123574D01*
X67371481Y-123123736D01*
X67368928Y-123123485D01*
X66873997Y-123124870D01*
X66865282Y-123123574D01*
X66856171Y-123124920D01*
X66854296Y-123124926D01*
X66853274Y-123125348D01*
X66850738Y-123125724D01*
X66573711Y-123196354D01*
X66568582Y-123196354D01*
X66560371Y-123199755D01*
X66551178Y-123202099D01*
X66546697Y-123205419D01*
X66541546Y-123207553D01*
X66530181Y-123216880D01*
X66389073Y-123359878D01*
X66381107Y-123366787D01*
X66379083Y-123370002D01*
X66377996Y-123371104D01*
X66377238Y-123372933D01*
X66373275Y-123379230D01*
X66307993Y-123512534D01*
X66306568Y-123513960D01*
X66302577Y-123523593D01*
X66296591Y-123535818D01*
X66296399Y-123538507D01*
X66295369Y-123540996D01*
X66293928Y-123555628D01*
X66127261Y-123555628D01*
X66127261Y-122198485D01*
X66293928Y-122198485D01*
X66295229Y-122340702D01*
X66294517Y-122350722D01*
X66295354Y-122354405D01*
X66295369Y-122355974D01*
X66296127Y-122357805D01*
X66297777Y-122365059D01*
X66366798Y-122568058D01*
X66366798Y-122570259D01*
X66370974Y-122580341D01*
X66375200Y-122592770D01*
X66376965Y-122594805D01*
X66377997Y-122597296D01*
X66387324Y-122608661D01*
X66470117Y-122689416D01*
X66497153Y-122700615D01*
X66526416Y-122700615D01*
X66553452Y-122689416D01*
X66574145Y-122668723D01*
X66585344Y-122641687D01*
X66585344Y-122612424D01*
X66574145Y-122585388D01*
X66564818Y-122574023D01*
X66506479Y-122517120D01*
X66443850Y-122332921D01*
X66442762Y-122213987D01*
X66504029Y-122026449D01*
X66624291Y-121904577D01*
X66746901Y-121842000D01*
X67015733Y-121773460D01*
X67211877Y-121772225D01*
X67480300Y-121838002D01*
X67607713Y-121900398D01*
X67731235Y-122022287D01*
X67794005Y-122206903D01*
X67795093Y-122325839D01*
X67733765Y-122513566D01*
X67663711Y-122585388D01*
X67652512Y-122612424D01*
X67652512Y-122641687D01*
X67663710Y-122668723D01*
X67684403Y-122689416D01*
X67711439Y-122700615D01*
X67740702Y-122700615D01*
X67767738Y-122689417D01*
X67779104Y-122680089D01*
X67841975Y-122615631D01*
X67843483Y-122614878D01*
X67849679Y-122607733D01*
X67859860Y-122597296D01*
X67860891Y-122594805D01*
X67862657Y-122592770D01*
X67868651Y-122579345D01*
X67938399Y-122365841D01*
X67942487Y-122355974D01*
X67942859Y-122352188D01*
X67943339Y-122350722D01*
X67943198Y-122348747D01*
X67943928Y-122341342D01*
X67942626Y-122199124D01*
X67943339Y-122189105D01*
X67942501Y-122185421D01*
X67942487Y-122183853D01*
X67941728Y-122182021D01*
X67940079Y-122174768D01*
X67871059Y-121971768D01*
X67871059Y-121969567D01*
X67866881Y-121959481D01*
X67862657Y-121947057D01*
X67860891Y-121945021D01*
X67859860Y-121942531D01*
X67850533Y-121931166D01*
X67707534Y-121790058D01*
X67700626Y-121782092D01*
X67697410Y-121780068D01*
X67696309Y-121778981D01*
X67694479Y-121778223D01*
X67688183Y-121774260D01*
X67549648Y-121706417D01*
X67543821Y-121702099D01*
X67532763Y-121698148D01*
X67531595Y-121697576D01*
X67531054Y-121697537D01*
X67529975Y-121697152D01*
X67248625Y-121628207D01*
X67240703Y-121624926D01*
X67231557Y-121624025D01*
X67229716Y-121623574D01*
X67228624Y-121623736D01*
X67226071Y-121623485D01*
X67016410Y-121624804D01*
X67008139Y-121623574D01*
X66999075Y-121624913D01*
X66997153Y-121624926D01*
X66996131Y-121625348D01*
X66993595Y-121625724D01*
X66713905Y-121697032D01*
X66706261Y-121697576D01*
X66695256Y-121701787D01*
X66694035Y-121702099D01*
X66693599Y-121702421D01*
X66692530Y-121702831D01*
X66550991Y-121775069D01*
X66541546Y-121778982D01*
X66538619Y-121781384D01*
X66537230Y-121782093D01*
X66535933Y-121783588D01*
X66530181Y-121788309D01*
X66396292Y-121923990D01*
X66394374Y-121924950D01*
X66387319Y-121933083D01*
X66377997Y-121942531D01*
X66376965Y-121945021D01*
X66375200Y-121947057D01*
X66369206Y-121960482D01*
X66299456Y-122173985D01*
X66295369Y-122183853D01*
X66294996Y-122187638D01*
X66294517Y-122189105D01*
X66294657Y-122191079D01*
X66293928Y-122198485D01*
X66127261Y-122198485D01*
X66127261Y-119070259D01*
X66938226Y-119070259D01*
X66949425Y-119097296D01*
X66970117Y-119117988D01*
X66997154Y-119129187D01*
X67026416Y-119129187D01*
X67053453Y-119117988D01*
X67064818Y-119108661D01*
X67222723Y-118949664D01*
X67223941Y-119927403D01*
X67235140Y-119954439D01*
X67255832Y-119975131D01*
X67282868Y-119986330D01*
X67312132Y-119986330D01*
X67339168Y-119975131D01*
X67359860Y-119954439D01*
X67371059Y-119927403D01*
X67372500Y-119912771D01*
X67371300Y-118948909D01*
X67541546Y-119117988D01*
X67568582Y-119129187D01*
X67597845Y-119129187D01*
X67624881Y-119117988D01*
X67645574Y-119097296D01*
X67656773Y-119070259D01*
X67656773Y-119040996D01*
X67645574Y-119013960D01*
X67636247Y-119002595D01*
X67339168Y-118707553D01*
X67312132Y-118696354D01*
X67282868Y-118696354D01*
X67274949Y-118699633D01*
X67255832Y-118707552D01*
X67255826Y-118707557D01*
X67244467Y-118716880D01*
X66949425Y-119013960D01*
X66938226Y-119040997D01*
X66938226Y-119070259D01*
X66127261Y-119070259D01*
X66127261Y-118529687D01*
X68110595Y-118529687D01*
X68110595Y-132438712D01*
G37*
G36*
X202132495Y-107795990D02*
G01*
X200149161Y-107795990D01*
X200149161Y-107564292D01*
X200316417Y-107564292D01*
X200325671Y-107592055D01*
X200344845Y-107614162D01*
X200371018Y-107627248D01*
X200400208Y-107629323D01*
X200414545Y-107626063D01*
X201905377Y-107127622D01*
X201910638Y-107127249D01*
X201918997Y-107123069D01*
X201927971Y-107120069D01*
X201932018Y-107116558D01*
X201936811Y-107114162D01*
X201942973Y-107107057D01*
X201950078Y-107100895D01*
X201952474Y-107096102D01*
X201955985Y-107092055D01*
X201958958Y-107083135D01*
X201963165Y-107074722D01*
X201963544Y-107069374D01*
X201965239Y-107064292D01*
X201964572Y-107054912D01*
X201965239Y-107045532D01*
X201963544Y-107040449D01*
X201963165Y-107035102D01*
X201958958Y-107026688D01*
X201955985Y-107017769D01*
X201952474Y-107013721D01*
X201950078Y-107008929D01*
X201942973Y-107002766D01*
X201936811Y-106995662D01*
X201932018Y-106993265D01*
X201927971Y-106989755D01*
X201914545Y-106983761D01*
X200400208Y-106480501D01*
X200371018Y-106482576D01*
X200344845Y-106495662D01*
X200325671Y-106517769D01*
X200316417Y-106545532D01*
X200318492Y-106574722D01*
X200331578Y-106600895D01*
X200353685Y-106620069D01*
X200367111Y-106626063D01*
X201655915Y-107054371D01*
X200353685Y-107489755D01*
X200331578Y-107508929D01*
X200318492Y-107535102D01*
X200316417Y-107564292D01*
X200149161Y-107564292D01*
X200149161Y-105340626D01*
X200315828Y-105340626D01*
X200317269Y-106069544D01*
X200328468Y-106096580D01*
X200349160Y-106117272D01*
X200376196Y-106128471D01*
X200405460Y-106128471D01*
X200432496Y-106117272D01*
X200453188Y-106096580D01*
X200464387Y-106069544D01*
X200465828Y-106054912D01*
X200464550Y-105408496D01*
X200940723Y-105359933D01*
X200901322Y-105440390D01*
X200899897Y-105441816D01*
X200895904Y-105451453D01*
X200889920Y-105463675D01*
X200889729Y-105466362D01*
X200888698Y-105468852D01*
X200887257Y-105483484D01*
X200888596Y-105828994D01*
X200887846Y-105831245D01*
X200888648Y-105842542D01*
X200888698Y-105855258D01*
X200889729Y-105857747D01*
X200889920Y-105860435D01*
X200895175Y-105874167D01*
X200967415Y-106015714D01*
X200971325Y-106025152D01*
X200973724Y-106028075D01*
X200974435Y-106029468D01*
X200975933Y-106030767D01*
X200980652Y-106036517D01*
X201052945Y-106107030D01*
X201059130Y-106114161D01*
X201062306Y-106116160D01*
X201063447Y-106117273D01*
X201065278Y-106118031D01*
X201071573Y-106121994D01*
X201204877Y-106187275D01*
X201206303Y-106188701D01*
X201215936Y-106192691D01*
X201228161Y-106198678D01*
X201230850Y-106198869D01*
X201233339Y-106199900D01*
X201247971Y-106201341D01*
X201593482Y-106200001D01*
X201595733Y-106200752D01*
X201607031Y-106199949D01*
X201619746Y-106199900D01*
X201622234Y-106198869D01*
X201624924Y-106198678D01*
X201638655Y-106193423D01*
X201780200Y-106121181D01*
X201789638Y-106117273D01*
X201792563Y-106114872D01*
X201793955Y-106114162D01*
X201795254Y-106112663D01*
X201801004Y-106107945D01*
X201871512Y-106035657D01*
X201878650Y-106029468D01*
X201880650Y-106026289D01*
X201881760Y-106025152D01*
X201882517Y-106023324D01*
X201886482Y-106017025D01*
X201951762Y-105883719D01*
X201953188Y-105882294D01*
X201957180Y-105872656D01*
X201963165Y-105860435D01*
X201963355Y-105857747D01*
X201964387Y-105855258D01*
X201965828Y-105840626D01*
X201964488Y-105495115D01*
X201965239Y-105492865D01*
X201964436Y-105481567D01*
X201964387Y-105468852D01*
X201963355Y-105466362D01*
X201963165Y-105463675D01*
X201957910Y-105449944D01*
X201885669Y-105308395D01*
X201881760Y-105298958D01*
X201879360Y-105296034D01*
X201878650Y-105294642D01*
X201877151Y-105293342D01*
X201872433Y-105287593D01*
X201789638Y-105206837D01*
X201762602Y-105195639D01*
X201733339Y-105195639D01*
X201706303Y-105206838D01*
X201685610Y-105227531D01*
X201674412Y-105254567D01*
X201674412Y-105283830D01*
X201685611Y-105310866D01*
X201694938Y-105322231D01*
X201756414Y-105382193D01*
X201815887Y-105498723D01*
X201817134Y-105820585D01*
X201760273Y-105936697D01*
X201706404Y-105991926D01*
X201589875Y-106051400D01*
X201268011Y-106052647D01*
X201151899Y-105995785D01*
X201096669Y-105941915D01*
X201037197Y-105825386D01*
X201035950Y-105503524D01*
X201092811Y-105387412D01*
X201150383Y-105328387D01*
X201152780Y-105327102D01*
X201158725Y-105319835D01*
X201167474Y-105310866D01*
X201168920Y-105307375D01*
X201171310Y-105304454D01*
X201174474Y-105293965D01*
X201178673Y-105283830D01*
X201178673Y-105280050D01*
X201179763Y-105276438D01*
X201178673Y-105265534D01*
X201178673Y-105254567D01*
X201177227Y-105251077D01*
X201176852Y-105247319D01*
X201171670Y-105237660D01*
X201167475Y-105227531D01*
X201164802Y-105224858D01*
X201163018Y-105221532D01*
X201154535Y-105214591D01*
X201146782Y-105206838D01*
X201143293Y-105205392D01*
X201140370Y-105203001D01*
X201129872Y-105199833D01*
X201119746Y-105195639D01*
X201115970Y-105195639D01*
X201112354Y-105194548D01*
X201097651Y-105194570D01*
X200386804Y-105267067D01*
X200376196Y-105267067D01*
X200372731Y-105268502D01*
X200368949Y-105268888D01*
X200359289Y-105274070D01*
X200349160Y-105278266D01*
X200346488Y-105280937D01*
X200343162Y-105282722D01*
X200336221Y-105291204D01*
X200328468Y-105298958D01*
X200327022Y-105302446D01*
X200324631Y-105305370D01*
X200321463Y-105315867D01*
X200317269Y-105325994D01*
X200316716Y-105331599D01*
X200316178Y-105333386D01*
X200316360Y-105335214D01*
X200315828Y-105340626D01*
X200149161Y-105340626D01*
X200149161Y-105027881D01*
X202132495Y-105027881D01*
X202132495Y-107795990D01*
G37*
G36*
X205002629Y-108095343D02*
G01*
X205130185Y-108157809D01*
X205185414Y-108211680D01*
X205244968Y-108328368D01*
X205245955Y-108436152D01*
X205189273Y-108551896D01*
X205135404Y-108607126D01*
X205013285Y-108669451D01*
X204744489Y-108737984D01*
X204405730Y-108739297D01*
X204137026Y-108673450D01*
X204009471Y-108610986D01*
X203954242Y-108557116D01*
X203894687Y-108440427D01*
X203893700Y-108332643D01*
X203950383Y-108216897D01*
X204004252Y-108161668D01*
X204126372Y-108099341D01*
X204395167Y-108030810D01*
X204733926Y-108029497D01*
X205002629Y-108095343D01*
G37*
G36*
X205561495Y-109054636D02*
G01*
X203578161Y-109054636D01*
X203578161Y-108312969D01*
X203744828Y-108312969D01*
X203746032Y-108444598D01*
X203745417Y-108446445D01*
X203746142Y-108456659D01*
X203746269Y-108470458D01*
X203747299Y-108472946D01*
X203747491Y-108475636D01*
X203752746Y-108489367D01*
X203824987Y-108630912D01*
X203828896Y-108640350D01*
X203831296Y-108643275D01*
X203832007Y-108644667D01*
X203833505Y-108645966D01*
X203838224Y-108651716D01*
X203910511Y-108722224D01*
X203916701Y-108729362D01*
X203919879Y-108731362D01*
X203921017Y-108732472D01*
X203922844Y-108733229D01*
X203929144Y-108737194D01*
X204067677Y-108805034D01*
X204073506Y-108809354D01*
X204084566Y-108813305D01*
X204085733Y-108813877D01*
X204086272Y-108813915D01*
X204087352Y-108814301D01*
X204368703Y-108883246D01*
X204376625Y-108886528D01*
X204385768Y-108887428D01*
X204387611Y-108887880D01*
X204388703Y-108887717D01*
X204391257Y-108887969D01*
X204743469Y-108886603D01*
X204752046Y-108887880D01*
X204761142Y-108886535D01*
X204763032Y-108886528D01*
X204764053Y-108886105D01*
X204766590Y-108885730D01*
X205046280Y-108814420D01*
X205053923Y-108813877D01*
X205064928Y-108809665D01*
X205066150Y-108809354D01*
X205066585Y-108809031D01*
X205067655Y-108808622D01*
X205209203Y-108736380D01*
X205218639Y-108732472D01*
X205221562Y-108730072D01*
X205222955Y-108729362D01*
X205224254Y-108727863D01*
X205230004Y-108723145D01*
X205300519Y-108650851D01*
X205307650Y-108644667D01*
X205309649Y-108641490D01*
X205310761Y-108640351D01*
X205311519Y-108638518D01*
X205315482Y-108632224D01*
X205380762Y-108498919D01*
X205382188Y-108497494D01*
X205386180Y-108487855D01*
X205392165Y-108475635D01*
X205392355Y-108472947D01*
X205393387Y-108470458D01*
X205394828Y-108455826D01*
X205393623Y-108324196D01*
X205394239Y-108322350D01*
X205393513Y-108312135D01*
X205393387Y-108298337D01*
X205392355Y-108295847D01*
X205392165Y-108293160D01*
X205386910Y-108279428D01*
X205314671Y-108137885D01*
X205310761Y-108128444D01*
X205308359Y-108125517D01*
X205307650Y-108124128D01*
X205306153Y-108122829D01*
X205301433Y-108117079D01*
X205229144Y-108046569D01*
X205222955Y-108039433D01*
X205219776Y-108037432D01*
X205218639Y-108036323D01*
X205216811Y-108035565D01*
X205210512Y-108031601D01*
X205071977Y-107963758D01*
X205066150Y-107959440D01*
X205055092Y-107955489D01*
X205053924Y-107954917D01*
X205053383Y-107954878D01*
X205052304Y-107954493D01*
X204770954Y-107885548D01*
X204763032Y-107882267D01*
X204753886Y-107881366D01*
X204752045Y-107880915D01*
X204750953Y-107881077D01*
X204748400Y-107880826D01*
X204396188Y-107882191D01*
X204387612Y-107880915D01*
X204378515Y-107882259D01*
X204376625Y-107882267D01*
X204375603Y-107882690D01*
X204373067Y-107883065D01*
X204093376Y-107954373D01*
X204085732Y-107954917D01*
X204074727Y-107959128D01*
X204073506Y-107959440D01*
X204073070Y-107959762D01*
X204072001Y-107960172D01*
X203930462Y-108032410D01*
X203921017Y-108036323D01*
X203918090Y-108038725D01*
X203916701Y-108039434D01*
X203915404Y-108040929D01*
X203909652Y-108045650D01*
X203839142Y-108117939D01*
X203832007Y-108124128D01*
X203830006Y-108127306D01*
X203828896Y-108128445D01*
X203828138Y-108130274D01*
X203824175Y-108136571D01*
X203758893Y-108269875D01*
X203757468Y-108271301D01*
X203753477Y-108280934D01*
X203747491Y-108293159D01*
X203747299Y-108295848D01*
X203746269Y-108298337D01*
X203744828Y-108312969D01*
X203578161Y-108312969D01*
X203578161Y-106455826D01*
X203744828Y-106455826D01*
X203746243Y-107382333D01*
X203745459Y-107394104D01*
X203746265Y-107396487D01*
X203746269Y-107399030D01*
X203750932Y-107410287D01*
X203754834Y-107421825D01*
X203756499Y-107423729D01*
X203757468Y-107426066D01*
X203766078Y-107434676D01*
X203774104Y-107443849D01*
X203776373Y-107444971D01*
X203778160Y-107446758D01*
X203789410Y-107451418D01*
X203800336Y-107456821D01*
X203802859Y-107456989D01*
X203805196Y-107457957D01*
X203817381Y-107457957D01*
X203829534Y-107458767D01*
X203831929Y-107457957D01*
X203834460Y-107457957D01*
X203845717Y-107453293D01*
X203857255Y-107449392D01*
X203860172Y-107447306D01*
X203861496Y-107446758D01*
X203862891Y-107445362D01*
X203869216Y-107440841D01*
X204317282Y-107047307D01*
X204317533Y-107087238D01*
X204316846Y-107089302D01*
X204317614Y-107100124D01*
X204317698Y-107113315D01*
X204318729Y-107115804D01*
X204318920Y-107118492D01*
X204324175Y-107132224D01*
X204396415Y-107273771D01*
X204400325Y-107283209D01*
X204402724Y-107286132D01*
X204403435Y-107287525D01*
X204404933Y-107288824D01*
X204409652Y-107294574D01*
X204481945Y-107365087D01*
X204488130Y-107372218D01*
X204491306Y-107374217D01*
X204492447Y-107375330D01*
X204494278Y-107376088D01*
X204500573Y-107380051D01*
X204633877Y-107445332D01*
X204635303Y-107446758D01*
X204644936Y-107450748D01*
X204657161Y-107456735D01*
X204659850Y-107456926D01*
X204662339Y-107457957D01*
X204676971Y-107459398D01*
X205022482Y-107458058D01*
X205024733Y-107458809D01*
X205036031Y-107458006D01*
X205048746Y-107457957D01*
X205051234Y-107456926D01*
X205053924Y-107456735D01*
X205067655Y-107451480D01*
X205209200Y-107379238D01*
X205218638Y-107375330D01*
X205221563Y-107372929D01*
X205222955Y-107372219D01*
X205224254Y-107370720D01*
X205230004Y-107366002D01*
X205300512Y-107293714D01*
X205307650Y-107287525D01*
X205309650Y-107284346D01*
X205310760Y-107283209D01*
X205311517Y-107281381D01*
X205315482Y-107275082D01*
X205380762Y-107141776D01*
X205382188Y-107140351D01*
X205386180Y-107130713D01*
X205392165Y-107118492D01*
X205392355Y-107115804D01*
X205393387Y-107113315D01*
X205394828Y-107098683D01*
X205393472Y-106681792D01*
X205394239Y-106679493D01*
X205393427Y-106668078D01*
X205393387Y-106655480D01*
X205392355Y-106652990D01*
X205392165Y-106650303D01*
X205386910Y-106636571D01*
X205314671Y-106495028D01*
X205310761Y-106485587D01*
X205308359Y-106482660D01*
X205307650Y-106481271D01*
X205306153Y-106479972D01*
X205301433Y-106474222D01*
X205218639Y-106393466D01*
X205191602Y-106382267D01*
X205162340Y-106382267D01*
X205135303Y-106393466D01*
X205114611Y-106414158D01*
X205103412Y-106441195D01*
X205103412Y-106470457D01*
X205114611Y-106497494D01*
X205123938Y-106508859D01*
X205185414Y-106568823D01*
X205244877Y-106685332D01*
X205246156Y-107078598D01*
X205189273Y-107194754D01*
X205135404Y-107249983D01*
X205018875Y-107309457D01*
X204697011Y-107310704D01*
X204580899Y-107253842D01*
X204525669Y-107199972D01*
X204466160Y-107083370D01*
X204464914Y-106885366D01*
X204465626Y-106874692D01*
X204464832Y-106872344D01*
X204464816Y-106869766D01*
X204460152Y-106858508D01*
X204456251Y-106846971D01*
X204454585Y-106845067D01*
X204453617Y-106842730D01*
X204444997Y-106834110D01*
X204436980Y-106824948D01*
X204434714Y-106823827D01*
X204432925Y-106822038D01*
X204421659Y-106817371D01*
X204410749Y-106811976D01*
X204408228Y-106811807D01*
X204405889Y-106810839D01*
X204393698Y-106810839D01*
X204381551Y-106810029D01*
X204379156Y-106810839D01*
X204376625Y-106810839D01*
X204365370Y-106815500D01*
X204353829Y-106819404D01*
X204350910Y-106821490D01*
X204349589Y-106822038D01*
X204348194Y-106823432D01*
X204341869Y-106827955D01*
X203894578Y-107220806D01*
X203893387Y-106441194D01*
X203882188Y-106414158D01*
X203861496Y-106393466D01*
X203834460Y-106382267D01*
X203805196Y-106382267D01*
X203778160Y-106393466D01*
X203757468Y-106414158D01*
X203746269Y-106441194D01*
X203744828Y-106455826D01*
X203578161Y-106455826D01*
X203578161Y-105241541D01*
X203744828Y-105241541D01*
X203746269Y-106113316D01*
X203757468Y-106140352D01*
X203778160Y-106161044D01*
X203805196Y-106172243D01*
X203834460Y-106172243D01*
X203861496Y-106161044D01*
X203882188Y-106140352D01*
X203893387Y-106113316D01*
X203894828Y-106098684D01*
X203894243Y-105745041D01*
X205334460Y-105743671D01*
X205361496Y-105732472D01*
X205382188Y-105711780D01*
X205393387Y-105684744D01*
X205393387Y-105655480D01*
X205382188Y-105628444D01*
X205361496Y-105607752D01*
X205334460Y-105596553D01*
X205319828Y-105595112D01*
X203893997Y-105596468D01*
X203893387Y-105226909D01*
X203882188Y-105199873D01*
X203861496Y-105179181D01*
X203834460Y-105167982D01*
X203805196Y-105167982D01*
X203778160Y-105179181D01*
X203757468Y-105199873D01*
X203746269Y-105226909D01*
X203744828Y-105241541D01*
X203578161Y-105241541D01*
X203578161Y-105001315D01*
X205561495Y-105001315D01*
X205561495Y-109054636D01*
G37*
G36*
X200036488Y-133041864D02*
G01*
X200155964Y-133159761D01*
X200215701Y-133276808D01*
X200216902Y-133527279D01*
X200160144Y-133643182D01*
X200040130Y-133764802D01*
X199786733Y-133829408D01*
X199305227Y-133830757D01*
X199044767Y-133766930D01*
X198925292Y-133649034D01*
X198865554Y-133531988D01*
X198864353Y-133281516D01*
X198921113Y-133165612D01*
X199041126Y-133043992D01*
X199294521Y-132979387D01*
X199776028Y-132978038D01*
X200036488Y-133041864D01*
G37*
G36*
X200532295Y-136216053D02*
G01*
X198548961Y-136216053D01*
X198548961Y-135276173D01*
X198717069Y-135276173D01*
X198728268Y-135303209D01*
X198748960Y-135323901D01*
X198775996Y-135335100D01*
X198790628Y-135336541D01*
X200215773Y-135335185D01*
X200217069Y-135990459D01*
X200228268Y-136017495D01*
X200248960Y-136038187D01*
X200275996Y-136049386D01*
X200305260Y-136049386D01*
X200332296Y-136038187D01*
X200352988Y-136017495D01*
X200364187Y-135990459D01*
X200365628Y-135975827D01*
X200364187Y-135246909D01*
X200352988Y-135219873D01*
X200332296Y-135199181D01*
X200305260Y-135187982D01*
X200290628Y-135186541D01*
X198775996Y-135187982D01*
X198748960Y-135199181D01*
X198728268Y-135219873D01*
X198717069Y-135246909D01*
X198717069Y-135276173D01*
X198548961Y-135276173D01*
X198548961Y-134561887D01*
X198717069Y-134561887D01*
X198728268Y-134588923D01*
X198748960Y-134609615D01*
X198775996Y-134620814D01*
X198790628Y-134622255D01*
X200305260Y-134620814D01*
X200332296Y-134609615D01*
X200352988Y-134588923D01*
X200364187Y-134561887D01*
X200364187Y-134532623D01*
X200352988Y-134505587D01*
X200332296Y-134484895D01*
X200305260Y-134473696D01*
X200290628Y-134472255D01*
X198775996Y-134473696D01*
X198748960Y-134484895D01*
X198728268Y-134505587D01*
X198717069Y-134532623D01*
X198717069Y-134561887D01*
X198548961Y-134561887D01*
X198548961Y-133261541D01*
X198715628Y-133261541D01*
X198716943Y-133535695D01*
X198716217Y-133537874D01*
X198717007Y-133548995D01*
X198717069Y-133561887D01*
X198718099Y-133564375D01*
X198718291Y-133567065D01*
X198723546Y-133580796D01*
X198795789Y-133722345D01*
X198799697Y-133731780D01*
X198802096Y-133734703D01*
X198802807Y-133736096D01*
X198804305Y-133737395D01*
X198809024Y-133743145D01*
X198946821Y-133879121D01*
X198949365Y-133883361D01*
X198956400Y-133888573D01*
X198963246Y-133895329D01*
X198968396Y-133897462D01*
X198972878Y-133900783D01*
X198986724Y-133905730D01*
X199268074Y-133974675D01*
X199275996Y-133977957D01*
X199285139Y-133978857D01*
X199286982Y-133979309D01*
X199288074Y-133979146D01*
X199290628Y-133979398D01*
X199785558Y-133978012D01*
X199794274Y-133979309D01*
X199803384Y-133977962D01*
X199805260Y-133977957D01*
X199806281Y-133977534D01*
X199808818Y-133977159D01*
X200085845Y-133906528D01*
X200090973Y-133906528D01*
X200099183Y-133903127D01*
X200108378Y-133900783D01*
X200112857Y-133897463D01*
X200118009Y-133895330D01*
X200129375Y-133886002D01*
X200270482Y-133743005D01*
X200278450Y-133736096D01*
X200280473Y-133732880D01*
X200281560Y-133731780D01*
X200282317Y-133729952D01*
X200286282Y-133723653D01*
X200351562Y-133590348D01*
X200352988Y-133588923D01*
X200356980Y-133579284D01*
X200362965Y-133567064D01*
X200363155Y-133564376D01*
X200364187Y-133561887D01*
X200365628Y-133547255D01*
X200364312Y-133273100D01*
X200365039Y-133270922D01*
X200364248Y-133259801D01*
X200364187Y-133246909D01*
X200363155Y-133244419D01*
X200362965Y-133241732D01*
X200357710Y-133228000D01*
X200285470Y-133086455D01*
X200281561Y-133077017D01*
X200279160Y-133074091D01*
X200278450Y-133072700D01*
X200276951Y-133071400D01*
X200272233Y-133065651D01*
X200134432Y-132929671D01*
X200131890Y-132925434D01*
X200124857Y-132920223D01*
X200118010Y-132913466D01*
X200112859Y-132911332D01*
X200108378Y-132908012D01*
X200094532Y-132903065D01*
X199813182Y-132834120D01*
X199805260Y-132830839D01*
X199796114Y-132829938D01*
X199794273Y-132829487D01*
X199793181Y-132829649D01*
X199790628Y-132829398D01*
X199295697Y-132830783D01*
X199286982Y-132829487D01*
X199277871Y-132830833D01*
X199275996Y-132830839D01*
X199274974Y-132831261D01*
X199272438Y-132831637D01*
X198995411Y-132902267D01*
X198990282Y-132902267D01*
X198982071Y-132905668D01*
X198972878Y-132908012D01*
X198968397Y-132911332D01*
X198963246Y-132913466D01*
X198951881Y-132922793D01*
X198810773Y-133065791D01*
X198802807Y-133072700D01*
X198800783Y-133075915D01*
X198799696Y-133077017D01*
X198798938Y-133078846D01*
X198794975Y-133085143D01*
X198729693Y-133218447D01*
X198728268Y-133219873D01*
X198724277Y-133229506D01*
X198718291Y-133241731D01*
X198718099Y-133244420D01*
X198717069Y-133246909D01*
X198715628Y-133261541D01*
X198548961Y-133261541D01*
X198548961Y-132662731D01*
X200532295Y-132662731D01*
X200532295Y-136216053D01*
G37*
G36*
X208591429Y-108095343D02*
G01*
X208718985Y-108157809D01*
X208774214Y-108211680D01*
X208833768Y-108328368D01*
X208834755Y-108436152D01*
X208778073Y-108551896D01*
X208724204Y-108607126D01*
X208602085Y-108669451D01*
X208333289Y-108737984D01*
X207994530Y-108739297D01*
X207725826Y-108673450D01*
X207598271Y-108610986D01*
X207543042Y-108557116D01*
X207483487Y-108440427D01*
X207482500Y-108332643D01*
X207539183Y-108216897D01*
X207593052Y-108161668D01*
X207715172Y-108099341D01*
X207983967Y-108030810D01*
X208322726Y-108029497D01*
X208591429Y-108095343D01*
G37*
G36*
X209150295Y-109054636D02*
G01*
X207166961Y-109054636D01*
X207166961Y-108312969D01*
X207333628Y-108312969D01*
X207334832Y-108444598D01*
X207334217Y-108446445D01*
X207334942Y-108456659D01*
X207335069Y-108470458D01*
X207336099Y-108472946D01*
X207336291Y-108475636D01*
X207341546Y-108489367D01*
X207413787Y-108630912D01*
X207417696Y-108640350D01*
X207420096Y-108643275D01*
X207420807Y-108644667D01*
X207422305Y-108645966D01*
X207427024Y-108651716D01*
X207499311Y-108722224D01*
X207505501Y-108729362D01*
X207508679Y-108731362D01*
X207509817Y-108732472D01*
X207511644Y-108733229D01*
X207517944Y-108737194D01*
X207656477Y-108805034D01*
X207662306Y-108809354D01*
X207673366Y-108813305D01*
X207674533Y-108813877D01*
X207675072Y-108813915D01*
X207676152Y-108814301D01*
X207957503Y-108883246D01*
X207965425Y-108886528D01*
X207974568Y-108887428D01*
X207976411Y-108887880D01*
X207977503Y-108887717D01*
X207980057Y-108887969D01*
X208332269Y-108886603D01*
X208340846Y-108887880D01*
X208349942Y-108886535D01*
X208351832Y-108886528D01*
X208352853Y-108886105D01*
X208355390Y-108885730D01*
X208635080Y-108814420D01*
X208642723Y-108813877D01*
X208653728Y-108809665D01*
X208654950Y-108809354D01*
X208655385Y-108809031D01*
X208656455Y-108808622D01*
X208798003Y-108736380D01*
X208807439Y-108732472D01*
X208810362Y-108730072D01*
X208811755Y-108729362D01*
X208813054Y-108727863D01*
X208818804Y-108723145D01*
X208889319Y-108650851D01*
X208896450Y-108644667D01*
X208898449Y-108641490D01*
X208899561Y-108640351D01*
X208900319Y-108638518D01*
X208904282Y-108632224D01*
X208969562Y-108498919D01*
X208970988Y-108497494D01*
X208974980Y-108487855D01*
X208980965Y-108475635D01*
X208981155Y-108472947D01*
X208982187Y-108470458D01*
X208983628Y-108455826D01*
X208982423Y-108324196D01*
X208983039Y-108322350D01*
X208982313Y-108312135D01*
X208982187Y-108298337D01*
X208981155Y-108295847D01*
X208980965Y-108293160D01*
X208975710Y-108279428D01*
X208903471Y-108137885D01*
X208899561Y-108128444D01*
X208897159Y-108125517D01*
X208896450Y-108124128D01*
X208894953Y-108122829D01*
X208890233Y-108117079D01*
X208817944Y-108046569D01*
X208811755Y-108039433D01*
X208808576Y-108037432D01*
X208807439Y-108036323D01*
X208805611Y-108035565D01*
X208799312Y-108031601D01*
X208660777Y-107963758D01*
X208654950Y-107959440D01*
X208643892Y-107955489D01*
X208642724Y-107954917D01*
X208642183Y-107954878D01*
X208641104Y-107954493D01*
X208359754Y-107885548D01*
X208351832Y-107882267D01*
X208342686Y-107881366D01*
X208340845Y-107880915D01*
X208339753Y-107881077D01*
X208337200Y-107880826D01*
X207984988Y-107882191D01*
X207976412Y-107880915D01*
X207967315Y-107882259D01*
X207965425Y-107882267D01*
X207964403Y-107882690D01*
X207961867Y-107883065D01*
X207682176Y-107954373D01*
X207674532Y-107954917D01*
X207663527Y-107959128D01*
X207662306Y-107959440D01*
X207661870Y-107959762D01*
X207660801Y-107960172D01*
X207519262Y-108032410D01*
X207509817Y-108036323D01*
X207506890Y-108038725D01*
X207505501Y-108039434D01*
X207504204Y-108040929D01*
X207498452Y-108045650D01*
X207427942Y-108117939D01*
X207420807Y-108124128D01*
X207418806Y-108127306D01*
X207417696Y-108128445D01*
X207416938Y-108130274D01*
X207412975Y-108136571D01*
X207347693Y-108269875D01*
X207346268Y-108271301D01*
X207342277Y-108280934D01*
X207336291Y-108293159D01*
X207336099Y-108295848D01*
X207335069Y-108298337D01*
X207333628Y-108312969D01*
X207166961Y-108312969D01*
X207166961Y-106598683D01*
X207333628Y-106598683D01*
X207335069Y-107327601D01*
X207346268Y-107354637D01*
X207366960Y-107375329D01*
X207393996Y-107386528D01*
X207423260Y-107386528D01*
X207450296Y-107375329D01*
X207470988Y-107354637D01*
X207482187Y-107327601D01*
X207483628Y-107312969D01*
X207482350Y-106666553D01*
X207958523Y-106617990D01*
X207919122Y-106698447D01*
X207917697Y-106699873D01*
X207913704Y-106709510D01*
X207907720Y-106721732D01*
X207907529Y-106724419D01*
X207906498Y-106726909D01*
X207905057Y-106741541D01*
X207906396Y-107087051D01*
X207905646Y-107089302D01*
X207906448Y-107100599D01*
X207906498Y-107113315D01*
X207907529Y-107115804D01*
X207907720Y-107118492D01*
X207912975Y-107132224D01*
X207985215Y-107273771D01*
X207989125Y-107283209D01*
X207991524Y-107286132D01*
X207992235Y-107287525D01*
X207993733Y-107288824D01*
X207998452Y-107294574D01*
X208070745Y-107365087D01*
X208076930Y-107372218D01*
X208080106Y-107374217D01*
X208081247Y-107375330D01*
X208083078Y-107376088D01*
X208089373Y-107380051D01*
X208222677Y-107445332D01*
X208224103Y-107446758D01*
X208233736Y-107450748D01*
X208245961Y-107456735D01*
X208248650Y-107456926D01*
X208251139Y-107457957D01*
X208265771Y-107459398D01*
X208611282Y-107458058D01*
X208613533Y-107458809D01*
X208624831Y-107458006D01*
X208637546Y-107457957D01*
X208640034Y-107456926D01*
X208642724Y-107456735D01*
X208656455Y-107451480D01*
X208798000Y-107379238D01*
X208807438Y-107375330D01*
X208810363Y-107372929D01*
X208811755Y-107372219D01*
X208813054Y-107370720D01*
X208818804Y-107366002D01*
X208889312Y-107293714D01*
X208896450Y-107287525D01*
X208898450Y-107284346D01*
X208899560Y-107283209D01*
X208900317Y-107281381D01*
X208904282Y-107275082D01*
X208969562Y-107141776D01*
X208970988Y-107140351D01*
X208974980Y-107130713D01*
X208980965Y-107118492D01*
X208981155Y-107115804D01*
X208982187Y-107113315D01*
X208983628Y-107098683D01*
X208982288Y-106753172D01*
X208983039Y-106750922D01*
X208982236Y-106739624D01*
X208982187Y-106726909D01*
X208981155Y-106724419D01*
X208980965Y-106721732D01*
X208975710Y-106708001D01*
X208903469Y-106566452D01*
X208899560Y-106557015D01*
X208897160Y-106554091D01*
X208896450Y-106552699D01*
X208894951Y-106551399D01*
X208890233Y-106545650D01*
X208807438Y-106464894D01*
X208780402Y-106453696D01*
X208751139Y-106453696D01*
X208724103Y-106464895D01*
X208703410Y-106485588D01*
X208692212Y-106512624D01*
X208692212Y-106541887D01*
X208703411Y-106568923D01*
X208712738Y-106580288D01*
X208774214Y-106640250D01*
X208833687Y-106756780D01*
X208834934Y-107078642D01*
X208778073Y-107194754D01*
X208724204Y-107249983D01*
X208607675Y-107309457D01*
X208285811Y-107310704D01*
X208169699Y-107253842D01*
X208114469Y-107199972D01*
X208054997Y-107083443D01*
X208053750Y-106761581D01*
X208110611Y-106645469D01*
X208168183Y-106586444D01*
X208170580Y-106585159D01*
X208176525Y-106577892D01*
X208185274Y-106568923D01*
X208186720Y-106565432D01*
X208189110Y-106562511D01*
X208192274Y-106552022D01*
X208196473Y-106541887D01*
X208196473Y-106538107D01*
X208197563Y-106534495D01*
X208196473Y-106523591D01*
X208196473Y-106512624D01*
X208195027Y-106509134D01*
X208194652Y-106505376D01*
X208189470Y-106495717D01*
X208185275Y-106485588D01*
X208182602Y-106482915D01*
X208180818Y-106479589D01*
X208172335Y-106472648D01*
X208164582Y-106464895D01*
X208161093Y-106463449D01*
X208158170Y-106461058D01*
X208147672Y-106457890D01*
X208137546Y-106453696D01*
X208133770Y-106453696D01*
X208130154Y-106452605D01*
X208115451Y-106452627D01*
X207404604Y-106525124D01*
X207393996Y-106525124D01*
X207390531Y-106526559D01*
X207386749Y-106526945D01*
X207377089Y-106532127D01*
X207366960Y-106536323D01*
X207364288Y-106538994D01*
X207360962Y-106540779D01*
X207354021Y-106549261D01*
X207346268Y-106557015D01*
X207344822Y-106560503D01*
X207342431Y-106563427D01*
X207339263Y-106573924D01*
X207335069Y-106584051D01*
X207334516Y-106589656D01*
X207333978Y-106591443D01*
X207334160Y-106593271D01*
X207333628Y-106598683D01*
X207166961Y-106598683D01*
X207166961Y-105241541D01*
X207333628Y-105241541D01*
X207335069Y-106113316D01*
X207346268Y-106140352D01*
X207366960Y-106161044D01*
X207393996Y-106172243D01*
X207423260Y-106172243D01*
X207450296Y-106161044D01*
X207470988Y-106140352D01*
X207482187Y-106113316D01*
X207483628Y-106098684D01*
X207483043Y-105745041D01*
X208923260Y-105743671D01*
X208950296Y-105732472D01*
X208970988Y-105711780D01*
X208982187Y-105684744D01*
X208982187Y-105655480D01*
X208970988Y-105628444D01*
X208950296Y-105607752D01*
X208923260Y-105596553D01*
X208908628Y-105595112D01*
X207482797Y-105596468D01*
X207482187Y-105226909D01*
X207470988Y-105199873D01*
X207450296Y-105179181D01*
X207423260Y-105167982D01*
X207393996Y-105167982D01*
X207366960Y-105179181D01*
X207346268Y-105199873D01*
X207335069Y-105226909D01*
X207333628Y-105241541D01*
X207166961Y-105241541D01*
X207166961Y-105001315D01*
X209150295Y-105001315D01*
X209150295Y-109054636D01*
G37*
G36*
X210692295Y-136233636D02*
G01*
X208708961Y-136233636D01*
X208708961Y-135563398D01*
X208875628Y-135563398D01*
X208876904Y-135766239D01*
X208876217Y-135768303D01*
X208876985Y-135779126D01*
X208877069Y-135792316D01*
X208878099Y-135794804D01*
X208878291Y-135797494D01*
X208883546Y-135811225D01*
X208962807Y-135966525D01*
X208984915Y-135985698D01*
X209012676Y-135994952D01*
X209041866Y-135992878D01*
X209068041Y-135979790D01*
X209087214Y-135957683D01*
X209096468Y-135929921D01*
X209094394Y-135900731D01*
X209089139Y-135887000D01*
X209025531Y-135762372D01*
X209024378Y-135579158D01*
X209085729Y-135391362D01*
X209205991Y-135269490D01*
X209328601Y-135206913D01*
X209597433Y-135138373D01*
X209793577Y-135137138D01*
X210062000Y-135202915D01*
X210189413Y-135265311D01*
X210312935Y-135387200D01*
X210375705Y-135571816D01*
X210376793Y-135690752D01*
X210315465Y-135878479D01*
X210277841Y-135917052D01*
X209882416Y-135918160D01*
X209881330Y-135691623D01*
X209870131Y-135664587D01*
X209849439Y-135643895D01*
X209822403Y-135632696D01*
X209793139Y-135632696D01*
X209766103Y-135643895D01*
X209745411Y-135664587D01*
X209734212Y-135691623D01*
X209732771Y-135706255D01*
X209734212Y-136006600D01*
X209734212Y-136006601D01*
X209745411Y-136033637D01*
X209766103Y-136054329D01*
X209793139Y-136065528D01*
X209807771Y-136066969D01*
X210322403Y-136065528D01*
X210333601Y-136060889D01*
X210349438Y-136054330D01*
X210360804Y-136045002D01*
X210423675Y-135980544D01*
X210425183Y-135979791D01*
X210431379Y-135972646D01*
X210441560Y-135962209D01*
X210442591Y-135959718D01*
X210444357Y-135957683D01*
X210450351Y-135944258D01*
X210520099Y-135730754D01*
X210524187Y-135720887D01*
X210524559Y-135717101D01*
X210525039Y-135715635D01*
X210524898Y-135713660D01*
X210525628Y-135706255D01*
X210524326Y-135564037D01*
X210525039Y-135554018D01*
X210524201Y-135550334D01*
X210524187Y-135548766D01*
X210523428Y-135546934D01*
X210521779Y-135539681D01*
X210452759Y-135336681D01*
X210452759Y-135334480D01*
X210448581Y-135324394D01*
X210444357Y-135311970D01*
X210442591Y-135309934D01*
X210441560Y-135307444D01*
X210432233Y-135296079D01*
X210289234Y-135154971D01*
X210282326Y-135147005D01*
X210279110Y-135144981D01*
X210278009Y-135143894D01*
X210276179Y-135143136D01*
X210269883Y-135139173D01*
X210131348Y-135071330D01*
X210125521Y-135067012D01*
X210114463Y-135063061D01*
X210113295Y-135062489D01*
X210112754Y-135062450D01*
X210111675Y-135062065D01*
X209830325Y-134993120D01*
X209822403Y-134989839D01*
X209813257Y-134988938D01*
X209811416Y-134988487D01*
X209810324Y-134988649D01*
X209807771Y-134988398D01*
X209598110Y-134989717D01*
X209589839Y-134988487D01*
X209580775Y-134989826D01*
X209578853Y-134989839D01*
X209577831Y-134990261D01*
X209575295Y-134990637D01*
X209295605Y-135061945D01*
X209287961Y-135062489D01*
X209276956Y-135066700D01*
X209275735Y-135067012D01*
X209275299Y-135067334D01*
X209274230Y-135067744D01*
X209132691Y-135139982D01*
X209123246Y-135143895D01*
X209120319Y-135146297D01*
X209118930Y-135147006D01*
X209117633Y-135148501D01*
X209111881Y-135153222D01*
X208977992Y-135288903D01*
X208976074Y-135289863D01*
X208969019Y-135297996D01*
X208959697Y-135307444D01*
X208958665Y-135309934D01*
X208956900Y-135311970D01*
X208950906Y-135325395D01*
X208881156Y-135538898D01*
X208877069Y-135548766D01*
X208876696Y-135552551D01*
X208876217Y-135554018D01*
X208876357Y-135555992D01*
X208875628Y-135563398D01*
X208708961Y-135563398D01*
X208708961Y-134821731D01*
X210692295Y-134821731D01*
X210692295Y-136233636D01*
G37*
G36*
X222362206Y-135486521D02*
G01*
X222361360Y-135490344D01*
X222362228Y-135495264D01*
X222362697Y-135686114D01*
X222305787Y-135802325D01*
X222251918Y-135857555D01*
X222135315Y-135917065D01*
X221956213Y-135918192D01*
X221840271Y-135861415D01*
X221785042Y-135807545D01*
X221725590Y-135691059D01*
X221724407Y-135209755D01*
X222361524Y-135209149D01*
X222362206Y-135486521D01*
G37*
G36*
X223392277Y-136233636D02*
G01*
X221408961Y-136233636D01*
X221408961Y-135134826D01*
X221575628Y-135134826D01*
X221577004Y-135694512D01*
X221576217Y-135696874D01*
X221577038Y-135708434D01*
X221577069Y-135720887D01*
X221578099Y-135723375D01*
X221578291Y-135726065D01*
X221583546Y-135739796D01*
X221655787Y-135881341D01*
X221659696Y-135890779D01*
X221662096Y-135893704D01*
X221662807Y-135895096D01*
X221664305Y-135896395D01*
X221669024Y-135902145D01*
X221741311Y-135972653D01*
X221747501Y-135979791D01*
X221750679Y-135981791D01*
X221751817Y-135982901D01*
X221753644Y-135983658D01*
X221759944Y-135987623D01*
X221893248Y-136052903D01*
X221894674Y-136054329D01*
X221904312Y-136058321D01*
X221916533Y-136064306D01*
X221919220Y-136064496D01*
X221921710Y-136065528D01*
X221936342Y-136066969D01*
X222139183Y-136065692D01*
X222141247Y-136066380D01*
X222152069Y-136065611D01*
X222165260Y-136065528D01*
X222167749Y-136064496D01*
X222170437Y-136064306D01*
X222184169Y-136059051D01*
X222325717Y-135986809D01*
X222335153Y-135982901D01*
X222338076Y-135980501D01*
X222339469Y-135979791D01*
X222340768Y-135978292D01*
X222346518Y-135973574D01*
X222417033Y-135901280D01*
X222424164Y-135895096D01*
X222426163Y-135891919D01*
X222427275Y-135890780D01*
X222428033Y-135888947D01*
X222431996Y-135882653D01*
X222497276Y-135749348D01*
X222498702Y-135747923D01*
X222502694Y-135738284D01*
X222508679Y-135726064D01*
X222508869Y-135723376D01*
X222509901Y-135720887D01*
X222511342Y-135706255D01*
X222511168Y-135635611D01*
X223120432Y-136060622D01*
X223149003Y-136066951D01*
X223177820Y-136061866D01*
X223202499Y-136046139D01*
X223219281Y-136022165D01*
X223225610Y-135993594D01*
X223220525Y-135964777D01*
X223204798Y-135940098D01*
X223193638Y-135930527D01*
X222510722Y-135454137D01*
X222510119Y-135209008D01*
X223165260Y-135208385D01*
X223192296Y-135197186D01*
X223212988Y-135176494D01*
X223224187Y-135149458D01*
X223224187Y-135120194D01*
X223212988Y-135093158D01*
X223192296Y-135072466D01*
X223165260Y-135061267D01*
X223150628Y-135059826D01*
X221635996Y-135061267D01*
X221608960Y-135072466D01*
X221588268Y-135093158D01*
X221577069Y-135120194D01*
X221575628Y-135134826D01*
X221408961Y-135134826D01*
X221408961Y-134893159D01*
X223392277Y-134893159D01*
X223392277Y-136233636D01*
G37*
G36*
X232573006Y-105616121D02*
G01*
X232572160Y-105619944D01*
X232573028Y-105624864D01*
X232573497Y-105815714D01*
X232516587Y-105931925D01*
X232462718Y-105987155D01*
X232346115Y-106046665D01*
X232167013Y-106047792D01*
X232051071Y-105991015D01*
X231995842Y-105937145D01*
X231936390Y-105820659D01*
X231935207Y-105339355D01*
X232572324Y-105338749D01*
X232573006Y-105616121D01*
G37*
G36*
X233603095Y-111790367D02*
G01*
X231619761Y-111790367D01*
X231619761Y-110692998D01*
X231786428Y-110692998D01*
X231787869Y-111564773D01*
X231799068Y-111591809D01*
X231819760Y-111612501D01*
X231846796Y-111623700D01*
X231876060Y-111623700D01*
X231903096Y-111612501D01*
X231923788Y-111591809D01*
X231934987Y-111564773D01*
X231936428Y-111550141D01*
X231935843Y-111196498D01*
X233376060Y-111195128D01*
X233403096Y-111183929D01*
X233423788Y-111163237D01*
X233434987Y-111136201D01*
X233434987Y-111106937D01*
X233423788Y-111079901D01*
X233403096Y-111059209D01*
X233376060Y-111048010D01*
X233361428Y-111046569D01*
X231935597Y-111047925D01*
X231934987Y-110678366D01*
X231923788Y-110651330D01*
X231903096Y-110630638D01*
X231876060Y-110619439D01*
X231846796Y-110619439D01*
X231819760Y-110630638D01*
X231799068Y-110651330D01*
X231787869Y-110678366D01*
X231786428Y-110692998D01*
X231619761Y-110692998D01*
X231619761Y-109550140D01*
X231786428Y-109550140D01*
X231787869Y-110279058D01*
X231799068Y-110306094D01*
X231819760Y-110326786D01*
X231846796Y-110337985D01*
X231876060Y-110337985D01*
X231903096Y-110326786D01*
X231923788Y-110306094D01*
X231934987Y-110279058D01*
X231936428Y-110264426D01*
X231935164Y-109625069D01*
X232500922Y-109624531D01*
X232502155Y-110064772D01*
X232513354Y-110091808D01*
X232534046Y-110112500D01*
X232561082Y-110123699D01*
X232590346Y-110123699D01*
X232617382Y-110112500D01*
X232638074Y-110091808D01*
X232649273Y-110064772D01*
X232650714Y-110050140D01*
X232649521Y-109624390D01*
X233286573Y-109623784D01*
X233287869Y-110279058D01*
X233299068Y-110306094D01*
X233319760Y-110326786D01*
X233346796Y-110337985D01*
X233376060Y-110337985D01*
X233403096Y-110326786D01*
X233423788Y-110306094D01*
X233434987Y-110279058D01*
X233436428Y-110264426D01*
X233434987Y-109535508D01*
X233423788Y-109508472D01*
X233403096Y-109487780D01*
X233376060Y-109476581D01*
X233361428Y-109475140D01*
X231846796Y-109476581D01*
X231819760Y-109487780D01*
X231799068Y-109508472D01*
X231787869Y-109535508D01*
X231786428Y-109550140D01*
X231619761Y-109550140D01*
X231619761Y-108335855D01*
X231786428Y-108335855D01*
X231787805Y-108691283D01*
X231787017Y-108702378D01*
X231787863Y-108706098D01*
X231787869Y-108707630D01*
X231788627Y-108709461D01*
X231790277Y-108716715D01*
X231867700Y-108944426D01*
X231886874Y-108966533D01*
X231913047Y-108979620D01*
X231942237Y-108981695D01*
X231970000Y-108972441D01*
X231992107Y-108953267D01*
X232005193Y-108927093D01*
X232007268Y-108897903D01*
X232004008Y-108883566D01*
X231936395Y-108684710D01*
X231935121Y-108355895D01*
X231991983Y-108239783D01*
X232045852Y-108184554D01*
X232162541Y-108125000D01*
X232270326Y-108124013D01*
X232386070Y-108180694D01*
X232441299Y-108234564D01*
X232503626Y-108356685D01*
X232574261Y-108633734D01*
X232574805Y-108641378D01*
X232579016Y-108652383D01*
X232579328Y-108653605D01*
X232579650Y-108654040D01*
X232580060Y-108655110D01*
X232652302Y-108796658D01*
X232656211Y-108806095D01*
X232658610Y-108809018D01*
X232659321Y-108810411D01*
X232660819Y-108811710D01*
X232665538Y-108817460D01*
X232737831Y-108887973D01*
X232744016Y-108895104D01*
X232747192Y-108897103D01*
X232748333Y-108898216D01*
X232750164Y-108898974D01*
X232756459Y-108902937D01*
X232889763Y-108968218D01*
X232891189Y-108969644D01*
X232900822Y-108973634D01*
X232913047Y-108979621D01*
X232915736Y-108979812D01*
X232918225Y-108980843D01*
X232932857Y-108982284D01*
X233064486Y-108981079D01*
X233066333Y-108981695D01*
X233076547Y-108980969D01*
X233090346Y-108980843D01*
X233092834Y-108979812D01*
X233095524Y-108979621D01*
X233109255Y-108974366D01*
X233250800Y-108902124D01*
X233260238Y-108898216D01*
X233263163Y-108895815D01*
X233264555Y-108895105D01*
X233265854Y-108893606D01*
X233271604Y-108888888D01*
X233342112Y-108816600D01*
X233349250Y-108810411D01*
X233351250Y-108807232D01*
X233352360Y-108806095D01*
X233353117Y-108804267D01*
X233357082Y-108797968D01*
X233422362Y-108664662D01*
X233423788Y-108663237D01*
X233427780Y-108653599D01*
X233433765Y-108641378D01*
X233433955Y-108638690D01*
X233434987Y-108636201D01*
X233436428Y-108621569D01*
X233435050Y-108266141D01*
X233435839Y-108255047D01*
X233434992Y-108251326D01*
X233434987Y-108249795D01*
X233434228Y-108247963D01*
X233432579Y-108240710D01*
X233355157Y-108012999D01*
X233335983Y-107990891D01*
X233309810Y-107977805D01*
X233280620Y-107975730D01*
X233252858Y-107984984D01*
X233230750Y-108004158D01*
X233217664Y-108030331D01*
X233215589Y-108059521D01*
X233218849Y-108073858D01*
X233286460Y-108272713D01*
X233287734Y-108601528D01*
X233230873Y-108717640D01*
X233177004Y-108772869D01*
X233060315Y-108832424D01*
X232952531Y-108833411D01*
X232836785Y-108776728D01*
X232781556Y-108722859D01*
X232719229Y-108600739D01*
X232648594Y-108323689D01*
X232648051Y-108316045D01*
X232643839Y-108305040D01*
X232643528Y-108303819D01*
X232643205Y-108303383D01*
X232642796Y-108302314D01*
X232570558Y-108160777D01*
X232566646Y-108151331D01*
X232564242Y-108148402D01*
X232563534Y-108147014D01*
X232562038Y-108145717D01*
X232557318Y-108139965D01*
X232485030Y-108069456D01*
X232478841Y-108062319D01*
X232475662Y-108060318D01*
X232474525Y-108059209D01*
X232472697Y-108058451D01*
X232466398Y-108054487D01*
X232333093Y-107989206D01*
X232331668Y-107987781D01*
X232322029Y-107983788D01*
X232309809Y-107977804D01*
X232307121Y-107977613D01*
X232304632Y-107976582D01*
X232290000Y-107975141D01*
X232158369Y-107976345D01*
X232156523Y-107975730D01*
X232146308Y-107976455D01*
X232132510Y-107976582D01*
X232130020Y-107977613D01*
X232127333Y-107977804D01*
X232113601Y-107983059D01*
X231972053Y-108055300D01*
X231962617Y-108059209D01*
X231959693Y-108061608D01*
X231958301Y-108062319D01*
X231957001Y-108063817D01*
X231951252Y-108068536D01*
X231880742Y-108140825D01*
X231873607Y-108147014D01*
X231871606Y-108150192D01*
X231870496Y-108151331D01*
X231869738Y-108153160D01*
X231865775Y-108159457D01*
X231800493Y-108292761D01*
X231799068Y-108294187D01*
X231795078Y-108303819D01*
X231789091Y-108316045D01*
X231788899Y-108318734D01*
X231787869Y-108321223D01*
X231786428Y-108335855D01*
X231619761Y-108335855D01*
X231619761Y-106764426D01*
X231786428Y-106764426D01*
X231787869Y-107493344D01*
X231799068Y-107520380D01*
X231819760Y-107541072D01*
X231846796Y-107552271D01*
X231876060Y-107552271D01*
X231903096Y-107541072D01*
X231923788Y-107520380D01*
X231934987Y-107493344D01*
X231936428Y-107478712D01*
X231935164Y-106839355D01*
X232500922Y-106838817D01*
X232502155Y-107279058D01*
X232513354Y-107306094D01*
X232534046Y-107326786D01*
X232561082Y-107337985D01*
X232590346Y-107337985D01*
X232617382Y-107326786D01*
X232638074Y-107306094D01*
X232649273Y-107279058D01*
X232650714Y-107264426D01*
X232649521Y-106838676D01*
X233286573Y-106838070D01*
X233287869Y-107493344D01*
X233299068Y-107520380D01*
X233319760Y-107541072D01*
X233346796Y-107552271D01*
X233376060Y-107552271D01*
X233403096Y-107541072D01*
X233423788Y-107520380D01*
X233434987Y-107493344D01*
X233436428Y-107478712D01*
X233434987Y-106749794D01*
X233423788Y-106722758D01*
X233403096Y-106702066D01*
X233376060Y-106690867D01*
X233361428Y-106689426D01*
X231846796Y-106690867D01*
X231819760Y-106702066D01*
X231799068Y-106722758D01*
X231787869Y-106749794D01*
X231786428Y-106764426D01*
X231619761Y-106764426D01*
X231619761Y-105264426D01*
X231786428Y-105264426D01*
X231787804Y-105824112D01*
X231787017Y-105826474D01*
X231787838Y-105838034D01*
X231787869Y-105850487D01*
X231788899Y-105852975D01*
X231789091Y-105855665D01*
X231794346Y-105869396D01*
X231866587Y-106010941D01*
X231870496Y-106020379D01*
X231872896Y-106023304D01*
X231873607Y-106024696D01*
X231875105Y-106025995D01*
X231879824Y-106031745D01*
X231952111Y-106102253D01*
X231958301Y-106109391D01*
X231961479Y-106111391D01*
X231962617Y-106112501D01*
X231964444Y-106113258D01*
X231970744Y-106117223D01*
X232104048Y-106182503D01*
X232105474Y-106183929D01*
X232115112Y-106187921D01*
X232127333Y-106193906D01*
X232130020Y-106194096D01*
X232132510Y-106195128D01*
X232147142Y-106196569D01*
X232349983Y-106195292D01*
X232352047Y-106195980D01*
X232362869Y-106195211D01*
X232376060Y-106195128D01*
X232378549Y-106194096D01*
X232381237Y-106193906D01*
X232394969Y-106188651D01*
X232536517Y-106116409D01*
X232545953Y-106112501D01*
X232548876Y-106110101D01*
X232550269Y-106109391D01*
X232551568Y-106107892D01*
X232557318Y-106103174D01*
X232627833Y-106030880D01*
X232634964Y-106024696D01*
X232636963Y-106021519D01*
X232638075Y-106020380D01*
X232638833Y-106018547D01*
X232642796Y-106012253D01*
X232708076Y-105878948D01*
X232709502Y-105877523D01*
X232713494Y-105867884D01*
X232719479Y-105855664D01*
X232719669Y-105852976D01*
X232720701Y-105850487D01*
X232722142Y-105835855D01*
X232721968Y-105765211D01*
X233331232Y-106190222D01*
X233359803Y-106196551D01*
X233388620Y-106191466D01*
X233413299Y-106175739D01*
X233430081Y-106151765D01*
X233436410Y-106123194D01*
X233431325Y-106094377D01*
X233415598Y-106069698D01*
X233404438Y-106060127D01*
X232721522Y-105583737D01*
X232720919Y-105338608D01*
X233376060Y-105337985D01*
X233403096Y-105326786D01*
X233423788Y-105306094D01*
X233434987Y-105279058D01*
X233434987Y-105249794D01*
X233423788Y-105222758D01*
X233403096Y-105202066D01*
X233376060Y-105190867D01*
X233361428Y-105189426D01*
X231846796Y-105190867D01*
X231819760Y-105202066D01*
X231799068Y-105222758D01*
X231787869Y-105249794D01*
X231786428Y-105264426D01*
X231619761Y-105264426D01*
X231619761Y-105022759D01*
X233603095Y-105022759D01*
X233603095Y-111790367D01*
G37*
D11*
%TO.C,JP2*%
X66513000Y-110165000D02*
X68513000Y-110165000D01*
X66513000Y-112965000D02*
X66513000Y-110165000D01*
X68513000Y-110165000D02*
X68513000Y-112965000D01*
X68513000Y-112965000D02*
X66513000Y-112965000D01*
%TO.C,JP7*%
X66386000Y-141138000D02*
X68386000Y-141138000D01*
X66386000Y-143938000D02*
X66386000Y-141138000D01*
X68386000Y-141138000D02*
X68386000Y-143938000D01*
X68386000Y-143938000D02*
X66386000Y-143938000D01*
%TO.C,JP1*%
X66513000Y-113975000D02*
X68513000Y-113975000D01*
X66513000Y-116775000D02*
X66513000Y-113975000D01*
X68513000Y-113975000D02*
X68513000Y-116775000D01*
X68513000Y-116775000D02*
X66513000Y-116775000D01*
%TO.C,JP8*%
X66386000Y-144709000D02*
X68386000Y-144709000D01*
X66386000Y-147509000D02*
X66386000Y-144709000D01*
X68386000Y-144709000D02*
X68386000Y-147509000D01*
X68386000Y-147509000D02*
X66386000Y-147509000D01*
%TO.C,JP9*%
X66386000Y-148265000D02*
X68386000Y-148265000D01*
X66386000Y-151065000D02*
X66386000Y-148265000D01*
X68386000Y-148265000D02*
X68386000Y-151065000D01*
X68386000Y-151065000D02*
X66386000Y-151065000D01*
%TO.C,JP4*%
X66513000Y-102799000D02*
X68513000Y-102799000D01*
X66513000Y-105599000D02*
X66513000Y-102799000D01*
X68513000Y-102799000D02*
X68513000Y-105599000D01*
X68513000Y-105599000D02*
X66513000Y-105599000D01*
%TO.C,JP3*%
X66513000Y-106340000D02*
X68513000Y-106340000D01*
X66513000Y-109140000D02*
X66513000Y-106340000D01*
X68513000Y-106340000D02*
X68513000Y-109140000D01*
X68513000Y-109140000D02*
X66513000Y-109140000D01*
%TO.C,JP6*%
X66386000Y-137470000D02*
X68386000Y-137470000D01*
X66386000Y-140270000D02*
X66386000Y-137470000D01*
X68386000Y-137470000D02*
X68386000Y-140270000D01*
X68386000Y-140270000D02*
X66386000Y-140270000D01*
%TO.C,JP5*%
X66386000Y-133914000D02*
X68386000Y-133914000D01*
X66386000Y-136714000D02*
X66386000Y-133914000D01*
X68386000Y-133914000D02*
X68386000Y-136714000D01*
X68386000Y-136714000D02*
X66386000Y-136714000D01*
%TD*%
D12*
X99136000Y-111692000D03*
X101676000Y-111692000D03*
X104216000Y-111692000D03*
X106756000Y-111692000D03*
X109296000Y-111692000D03*
X111836000Y-111692000D03*
X114376000Y-111692000D03*
X114376000Y-104072000D03*
X111836000Y-104072000D03*
X109296000Y-104072000D03*
X106756000Y-104072000D03*
X104216000Y-104072000D03*
X101676000Y-104072000D03*
X99136000Y-104072000D03*
X106888000Y-140526000D03*
X109428000Y-140526000D03*
X111968000Y-140526000D03*
X114508000Y-140526000D03*
X117048000Y-140526000D03*
X119588000Y-140526000D03*
X122128000Y-140526000D03*
X124668000Y-140526000D03*
X127208000Y-140526000D03*
X129748000Y-140526000D03*
X132288000Y-140526000D03*
X134828000Y-140526000D03*
X137368000Y-140526000D03*
X139908000Y-140526000D03*
X142448000Y-140526000D03*
X144988000Y-140526000D03*
X147528000Y-140526000D03*
X150068000Y-140526000D03*
X152608000Y-140526000D03*
X155148000Y-140526000D03*
X155148000Y-125286000D03*
X152608000Y-125286000D03*
X150068000Y-125286000D03*
X147528000Y-125286000D03*
X144988000Y-125286000D03*
X142448000Y-125286000D03*
X139908000Y-125286000D03*
X137368000Y-125286000D03*
X134828000Y-125286000D03*
X132288000Y-125286000D03*
X129748000Y-125286000D03*
X127208000Y-125286000D03*
X124668000Y-125286000D03*
X122128000Y-125286000D03*
X119588000Y-125286000D03*
X117048000Y-125286000D03*
X114508000Y-125286000D03*
X111968000Y-125286000D03*
X109428000Y-125286000D03*
X106888000Y-125286000D03*
X69672000Y-131758000D03*
X69672000Y-121598000D03*
X216669600Y-115197200D03*
X216669600Y-120277200D03*
X209049600Y-117737200D03*
X192989000Y-119312000D03*
X203149000Y-119312000D03*
X206451000Y-145580000D03*
X208991000Y-145580000D03*
X211531000Y-145580000D03*
X248869000Y-122574000D03*
X248869000Y-117574000D03*
X176620000Y-142680000D03*
X176620000Y-127440000D03*
X283667000Y-102548000D03*
X283667000Y-105088000D03*
X283667000Y-107628000D03*
X117718000Y-118931000D03*
X122718000Y-118931000D03*
X152624000Y-102548000D03*
X152624000Y-105088000D03*
X152624000Y-107628000D03*
X259156000Y-120229000D03*
X259156000Y-142729000D03*
X198109000Y-122487000D03*
X203109000Y-122487000D03*
D13*
X246837000Y-102421000D03*
X243337000Y-102421000D03*
X239837000Y-102421000D03*
X236337000Y-102421000D03*
X232837000Y-102421000D03*
X229337000Y-102421000D03*
X225837000Y-102421000D03*
X222337000Y-102421000D03*
X218837000Y-102421000D03*
X215337000Y-102421000D03*
X211837000Y-102421000D03*
X208337000Y-102421000D03*
X204837000Y-102421000D03*
X201337000Y-102421000D03*
X197837000Y-102421000D03*
X194337000Y-102421000D03*
X190837000Y-102421000D03*
X187337000Y-102421000D03*
X183837000Y-102421000D03*
D12*
X93294000Y-115375000D03*
X93294000Y-125535000D03*
X136241000Y-108898000D03*
X136241000Y-111438000D03*
X136241000Y-113978000D03*
X157556000Y-111565000D03*
X157556000Y-101405000D03*
X87071000Y-136584000D03*
X87071000Y-123884000D03*
X245313000Y-119907000D03*
X245313000Y-114907000D03*
X166486000Y-105215000D03*
X171486000Y-105215000D03*
X117551000Y-104072000D03*
X117551000Y-114232000D03*
X262839000Y-102675000D03*
X262839000Y-117915000D03*
X277317000Y-105088000D03*
X277317000Y-117788000D03*
X82499000Y-105342000D03*
X82499000Y-115502000D03*
X295732000Y-108771000D03*
X295732000Y-124011000D03*
X170383000Y-140267000D03*
X170383000Y-130107000D03*
X270078000Y-102421000D03*
X270078000Y-115121000D03*
X79832000Y-148903000D03*
X79832000Y-138743000D03*
X102819000Y-121431000D03*
X102819000Y-116431000D03*
X87071000Y-105342000D03*
X87071000Y-115502000D03*
X122631000Y-114232000D03*
X122631000Y-104072000D03*
X74752000Y-131758000D03*
X74752000Y-121598000D03*
X168859000Y-108898000D03*
X168859000Y-119058000D03*
X127965000Y-114232000D03*
X127965000Y-104072000D03*
X184988000Y-132266000D03*
X184988000Y-109406000D03*
X271450000Y-140239000D03*
X271450000Y-117739000D03*
X163906000Y-101405000D03*
X163906000Y-114105000D03*
X231169600Y-120277200D03*
X231169600Y-115197200D03*
X238789600Y-117737200D03*
X162890000Y-124098000D03*
X162890000Y-119098000D03*
X132410000Y-114232000D03*
X132410000Y-104072000D03*
X72212000Y-131758000D03*
X72212000Y-121598000D03*
X181686000Y-142680000D03*
X181686000Y-127440000D03*
X166192000Y-108771000D03*
X166192000Y-116391000D03*
X99263000Y-145474000D03*
X99263000Y-135314000D03*
X79832000Y-115629000D03*
X79832000Y-105469000D03*
X171526000Y-108898000D03*
X171526000Y-119058000D03*
X77419000Y-131758000D03*
X77419000Y-121598000D03*
X125171000Y-114232000D03*
X125171000Y-104072000D03*
X138760000Y-102548000D03*
X138760000Y-122868000D03*
X96723000Y-111895200D03*
X96723000Y-124595200D03*
X89484000Y-120201000D03*
X89484000Y-137981000D03*
X251663000Y-112073000D03*
X251663000Y-122233000D03*
X144983000Y-117915000D03*
X144983000Y-105215000D03*
X157683000Y-123884000D03*
X157683000Y-113724000D03*
X200696000Y-113724000D03*
X195696000Y-113724000D03*
X179146000Y-142680000D03*
X179146000Y-127440000D03*
X281254000Y-140112000D03*
X281254000Y-117612000D03*
X91770000Y-147485000D03*
X94310000Y-147485000D03*
X96850000Y-147485000D03*
X230454000Y-137981000D03*
X227914000Y-137981000D03*
X225374000Y-137981000D03*
X222834000Y-137981000D03*
X220294000Y-137981000D03*
X217754000Y-137981000D03*
X215214000Y-137981000D03*
X212674000Y-137981000D03*
X210134000Y-137981000D03*
X207594000Y-137981000D03*
X205054000Y-137981000D03*
X202514000Y-137981000D03*
X199974000Y-137981000D03*
X221208400Y-129624400D03*
X223748400Y-129624400D03*
X226288400Y-129624400D03*
X196418000Y-145580000D03*
X198958000Y-145580000D03*
X201498000Y-145580000D03*
X109042000Y-121431000D03*
X109042000Y-116431000D03*
X308265000Y-123884000D03*
X303265000Y-123884000D03*
X177876000Y-107755000D03*
X177876000Y-120455000D03*
X96723000Y-131631000D03*
X96723000Y-141791000D03*
X167716000Y-140267000D03*
X167716000Y-130107000D03*
X82372000Y-149030000D03*
X82372000Y-138870000D03*
X159715000Y-140267000D03*
X159715000Y-130107000D03*
X120218000Y-114232000D03*
X120218000Y-104072000D03*
X99136000Y-116391000D03*
X99136000Y-131631000D03*
X247874000Y-137473000D03*
X247874000Y-140013000D03*
X247874000Y-142553000D03*
X119590800Y-146068400D03*
X119590800Y-144168400D03*
X77419000Y-112962000D03*
X77419000Y-102802000D03*
X165049000Y-140267000D03*
X165049000Y-130107000D03*
X195534000Y-122868000D03*
X192994000Y-122868000D03*
X258902000Y-111224000D03*
X258902000Y-116224000D03*
X285064000Y-140013000D03*
X285064000Y-129853000D03*
X77292000Y-148903000D03*
X77292000Y-138743000D03*
X84912000Y-149030000D03*
X84912000Y-138870000D03*
X173050000Y-140267000D03*
X173050000Y-130107000D03*
X90627000Y-115502000D03*
X90627000Y-105342000D03*
X299288000Y-108644000D03*
X299288000Y-123884000D03*
X298516000Y-138720000D03*
X298516000Y-141260000D03*
X290896000Y-128560000D03*
X290896000Y-138720000D03*
X290896000Y-141260000D03*
X194259000Y-116518000D03*
X201879000Y-116518000D03*
X175082000Y-107501000D03*
X175082000Y-120201000D03*
X290779000Y-112581000D03*
X290779000Y-102421000D03*
X155143000Y-112581000D03*
X155143000Y-122741000D03*
X252806000Y-146109000D03*
X252806000Y-130869000D03*
X74752000Y-148903000D03*
X74752000Y-138743000D03*
X266395000Y-113978000D03*
X266395000Y-103818000D03*
X162382000Y-140267000D03*
X162382000Y-130107000D03*
M02*
