M48
METRIC,TZ
T1C0.800
T2C0.900
T3C1.000
%
G90
G05
T1
X134490Y-80250
X142110Y-80250
X158640Y-80400
X166260Y-80400
T2
X125125Y-85500
X127665Y-85500
X131125Y-85500
X133665Y-85500
X137125Y-85500
X139665Y-85500
X142250Y-74110
X142250Y-76650
X143125Y-85500
X145665Y-85500
X149125Y-85500
X151665Y-85500
X155125Y-85500
X157665Y-85500
X158525Y-74135
X158525Y-76675
X161125Y-85500
X163665Y-85500
X167125Y-85500
X169665Y-85500
X173125Y-85500
X175665Y-85500
T3
X135060Y-90360
X137600Y-90360
X140140Y-90360
X142680Y-90360
X145220Y-90360
X147760Y-90360
X150300Y-90360
X152840Y-90360
X155380Y-90360
X157920Y-90360
X160460Y-90360
X163000Y-90360
X165540Y-90360
M30
