%TF.GenerationSoftware,KiCad,Pcbnew,8.0.1*%
%TF.CreationDate,2024-06-24T19:19:19+02:00*%
%TF.ProjectId,BMW E30 NFL SI Indicator LED,424d5720-4533-4302-904e-464c20534920,rev?*%
%TF.SameCoordinates,Original*%
%TF.FileFunction,Legend,Top*%
%TF.FilePolarity,Positive*%
%FSLAX46Y46*%
G04 Gerber Fmt 4.6, Leading zero omitted, Abs format (unit mm)*
G04 Created by KiCad (PCBNEW 8.0.1) date 2024-06-24 19:19:19*
%MOMM*%
%LPD*%
G01*
G04 APERTURE LIST*
%ADD10C,0.120000*%
%ADD11C,0.350000*%
G04 APERTURE END LIST*
D10*
%TO.C,D5*%
X141335000Y-84464000D02*
X141335000Y-84620000D01*
X141335000Y-86780000D02*
X141335000Y-86936000D01*
X141335001Y-84464485D02*
G75*
G02*
X144567334Y-84621392I1559999J-1235515D01*
G01*
X141854040Y-84620001D02*
G75*
G02*
X143936129Y-84620164I1040960J-1079999D01*
G01*
X143936129Y-86779836D02*
G75*
G02*
X141854040Y-86779999I-1041129J1079836D01*
G01*
X144567334Y-86778608D02*
G75*
G02*
X141335001Y-86935515I-1672334J1078608D01*
G01*
%TO.C,D11*%
X149514000Y-77165000D02*
X149670000Y-77165000D01*
X151830000Y-77165000D02*
X151986000Y-77165000D01*
X149514485Y-77164999D02*
G75*
G02*
X149671392Y-73932666I1235515J1559999D01*
G01*
X149670001Y-76645960D02*
G75*
G02*
X149670164Y-74563871I1079999J1040960D01*
G01*
X151828608Y-73932666D02*
G75*
G02*
X151985515Y-77164999I-1078608J-1672334D01*
G01*
X151829836Y-74563871D02*
G75*
G02*
X151829999Y-76645960I-1079836J-1041129D01*
G01*
%TO.C,D1*%
X171335000Y-84464000D02*
X171335000Y-84620000D01*
X171335000Y-86780000D02*
X171335000Y-86936000D01*
X171335001Y-84464485D02*
G75*
G02*
X174567334Y-84621392I1559999J-1235515D01*
G01*
X171854040Y-84620001D02*
G75*
G02*
X173936129Y-84620164I1040960J-1079999D01*
G01*
X173936129Y-86779836D02*
G75*
G02*
X171854040Y-86779999I-1041129J1079836D01*
G01*
X174567334Y-86778608D02*
G75*
G02*
X171335001Y-86935515I-1672334J1078608D01*
G01*
%TO.C,D4*%
X148835000Y-84464000D02*
X148835000Y-84620000D01*
X148835000Y-86780000D02*
X148835000Y-86936000D01*
X148835001Y-84464485D02*
G75*
G02*
X152067334Y-84621392I1559999J-1235515D01*
G01*
X149354040Y-84620001D02*
G75*
G02*
X151436129Y-84620164I1040960J-1079999D01*
G01*
X151436129Y-86779836D02*
G75*
G02*
X149354040Y-86779999I-1041129J1079836D01*
G01*
X152067334Y-86778608D02*
G75*
G02*
X148835001Y-86935515I-1672334J1078608D01*
G01*
%TO.C,D6*%
X133835000Y-84464000D02*
X133835000Y-84620000D01*
X133835000Y-86780000D02*
X133835000Y-86936000D01*
X133835001Y-84464485D02*
G75*
G02*
X137067334Y-84621392I1559999J-1235515D01*
G01*
X134354040Y-84620001D02*
G75*
G02*
X136436129Y-84620164I1040960J-1079999D01*
G01*
X136436129Y-86779836D02*
G75*
G02*
X134354040Y-86779999I-1041129J1079836D01*
G01*
X137067334Y-86778608D02*
G75*
G02*
X133835001Y-86935515I-1672334J1078608D01*
G01*
%TO.C,D7*%
X126335000Y-84464000D02*
X126335000Y-84620000D01*
X126335000Y-86780000D02*
X126335000Y-86936000D01*
X126335001Y-84464485D02*
G75*
G02*
X129567334Y-84621392I1559999J-1235515D01*
G01*
X126854040Y-84620001D02*
G75*
G02*
X128936129Y-84620164I1040960J-1079999D01*
G01*
X128936129Y-86779836D02*
G75*
G02*
X126854040Y-86779999I-1041129J1079836D01*
G01*
X129567334Y-86778608D02*
G75*
G02*
X126335001Y-86935515I-1672334J1078608D01*
G01*
%TO.C,D3*%
X156335000Y-84464000D02*
X156335000Y-84620000D01*
X156335000Y-86780000D02*
X156335000Y-86936000D01*
X156335001Y-84464485D02*
G75*
G02*
X159567334Y-84621392I1559999J-1235515D01*
G01*
X156854040Y-84620001D02*
G75*
G02*
X158936129Y-84620164I1040960J-1079999D01*
G01*
X158936129Y-86779836D02*
G75*
G02*
X156854040Y-86779999I-1041129J1079836D01*
G01*
X159567334Y-86778608D02*
G75*
G02*
X156335001Y-86935515I-1672334J1078608D01*
G01*
%TO.C,J1*%
X135000000Y-91820000D02*
X165600000Y-91820000D01*
X135000000Y-100450000D02*
X135000000Y-91820000D01*
X135000000Y-100450000D02*
X165600000Y-100450000D01*
X135970000Y-91820000D02*
X135970000Y-91470000D01*
X136690000Y-91820000D02*
X136690000Y-91470000D01*
X137600000Y-100450000D02*
X137600000Y-91820000D01*
X138510000Y-91820000D02*
X138510000Y-91410000D01*
X139230000Y-91820000D02*
X139230000Y-91410000D01*
X140140000Y-100450000D02*
X140140000Y-91820000D01*
X141050000Y-91820000D02*
X141050000Y-91410000D01*
X141770000Y-91820000D02*
X141770000Y-91410000D01*
X142680000Y-100450000D02*
X142680000Y-91820000D01*
X143590000Y-91820000D02*
X143590000Y-91410000D01*
X144310000Y-91820000D02*
X144310000Y-91410000D01*
X145220000Y-100450000D02*
X145220000Y-91820000D01*
X146130000Y-91820000D02*
X146130000Y-91410000D01*
X146850000Y-91820000D02*
X146850000Y-91410000D01*
X147760000Y-100450000D02*
X147760000Y-91820000D01*
X148670000Y-91820000D02*
X148670000Y-91410000D01*
X149390000Y-91820000D02*
X149390000Y-91410000D01*
X150300000Y-100450000D02*
X150300000Y-91820000D01*
X151210000Y-91820000D02*
X151210000Y-91410000D01*
X151930000Y-91820000D02*
X151930000Y-91410000D01*
X152840000Y-100450000D02*
X152840000Y-91820000D01*
X153750000Y-91820000D02*
X153750000Y-91410000D01*
X154470000Y-91820000D02*
X154470000Y-91410000D01*
X155380000Y-100450000D02*
X155380000Y-91820000D01*
X156290000Y-91820000D02*
X156290000Y-91410000D01*
X157010000Y-91820000D02*
X157010000Y-91410000D01*
X157920000Y-100450000D02*
X157920000Y-91820000D01*
X158830000Y-91820000D02*
X158830000Y-91410000D01*
X159550000Y-91820000D02*
X159550000Y-91410000D01*
X160460000Y-100450000D02*
X160460000Y-91820000D01*
X161370000Y-91820000D02*
X161370000Y-91410000D01*
X162090000Y-91820000D02*
X162090000Y-91410000D01*
X163000000Y-100450000D02*
X163000000Y-91820000D01*
X163910000Y-91820000D02*
X163910000Y-91410000D01*
X164430000Y-89060000D02*
X165540000Y-89060000D01*
X164630000Y-91820000D02*
X164630000Y-91410000D01*
X165540000Y-89060000D02*
X165540000Y-90390000D01*
X165600000Y-100450000D02*
X165600000Y-91820000D01*
%TO.C,D2*%
X163835000Y-84464000D02*
X163835000Y-84620000D01*
X163835000Y-86780000D02*
X163835000Y-86936000D01*
X163835001Y-84464485D02*
G75*
G02*
X167067334Y-84621392I1559999J-1235515D01*
G01*
X164354040Y-84620001D02*
G75*
G02*
X166436129Y-84620164I1040960J-1079999D01*
G01*
X166436129Y-86779836D02*
G75*
G02*
X164354040Y-86779999I-1041129J1079836D01*
G01*
X167067334Y-86778608D02*
G75*
G02*
X163835001Y-86935515I-1672334J1078608D01*
G01*
%TD*%
D11*
X158975000Y-76775000D03*
X158975000Y-74235000D03*
X141625000Y-85700000D03*
X144165000Y-85700000D03*
X150750000Y-76875000D03*
X150750000Y-74335000D03*
X171625000Y-85700000D03*
X174165000Y-85700000D03*
X149125000Y-85700000D03*
X151665000Y-85700000D03*
X142175000Y-76792000D03*
X142175000Y-74252000D03*
X134125000Y-85700000D03*
X136665000Y-85700000D03*
X126625000Y-85700000D03*
X129165000Y-85700000D03*
X156625000Y-85700000D03*
X159165000Y-85700000D03*
X164270000Y-90360000D03*
X161730000Y-90360000D03*
X159190000Y-90360000D03*
X156650000Y-90360000D03*
X154110000Y-90360000D03*
X151570000Y-90360000D03*
X149030000Y-90360000D03*
X146490000Y-90360000D03*
X143950000Y-90360000D03*
X141410000Y-90360000D03*
X138870000Y-90360000D03*
X136330000Y-90360000D03*
X164125000Y-85700000D03*
X166665000Y-85700000D03*
X166600000Y-80790000D03*
X158980000Y-80790000D03*
X146790000Y-80750000D03*
X154410000Y-80750000D03*
X134490000Y-80550000D03*
X142110000Y-80550000D03*
M02*
